<svg width="256" height="272" viewBox="0 0 256 272" fill="none" xmlns="http://www.w3.org/2000/svg">
<g filter="url(#filter0_if_1_21)">
<path d="M4.21035 223.376C9.2558 199.409 21.8693 203.222 21.8693 203.222C21.8693 203.222 142.456 238.082 138.924 254.967C135.392 271.852 108.651 267.495 97.5511 267.495C86.4511 267.495 -0.835097 247.342 4.21035 223.376Z" fill="#797979"/>
</g>
<g filter="url(#filter1_if_1_21)">
<path d="M19 218C19 218 11.5 211 26.5 198.5L140 247.5C148.5 263 70.959 259.099 19 218Z" fill="#948F8F"/>
<path d="M19 218C19 218 11.5 211 26.5 198.5L140 247.5C148.5 263 70.959 259.099 19 218Z" stroke="#1E1C1C"/>
</g>
<g filter="url(#filter2_if_1_21)">
<path d="M212.998 43C271.998 -17 21.9977 176 23.9977 206C25.9977 236 139.998 248 139.998 248C139.998 248 153.998 103 212.998 43Z" fill="#FF0000"/>
</g>
<g filter="url(#filter3_df_1_21)">
<circle cx="231" cy="25" r="21" fill="#948F8F"/>
<circle cx="231" cy="25" r="20.5" stroke="#878484"/>
</g>
<defs>
<filter id="filter0_if_1_21" x="0" y="199" width="143" height="73" filterUnits="userSpaceOnUse" color-interpolation-filters="sRGB">
<feFlood flood-opacity="0" result="BackgroundImageFix"/>
<feBlend mode="normal" in="SourceGraphic" in2="BackgroundImageFix" result="shape"/>
<feColorMatrix in="SourceAlpha" type="matrix" values="0 0 0 0 0 0 0 0 0 0 0 0 0 0 0 0 0 0 127 0" result="hardAlpha"/>
<feOffset dy="4"/>
<feGaussianBlur stdDeviation="2"/>
<feComposite in2="hardAlpha" operator="arithmetic" k2="-1" k3="1"/>
<feColorMatrix type="matrix" values="0 0 0 0 0 0 0 0 0 0 0 0 0 0 0 0 0 0 0.25 0"/>
<feBlend mode="normal" in2="shape" result="effect1_innerShadow_1_21"/>
<feGaussianBlur stdDeviation="2" result="effect2_foregroundBlur_1_21"/>
</filter>
<filter id="filter1_if_1_21" x="12.625" y="193.919" width="132.519" height="66.4648" filterUnits="userSpaceOnUse" color-interpolation-filters="sRGB">
<feFlood flood-opacity="0" result="BackgroundImageFix"/>
<feBlend mode="normal" in="SourceGraphic" in2="BackgroundImageFix" result="shape"/>
<feColorMatrix in="SourceAlpha" type="matrix" values="0 0 0 0 0 0 0 0 0 0 0 0 0 0 0 0 0 0 127 0" result="hardAlpha"/>
<feOffset dy="4"/>
<feGaussianBlur stdDeviation="2"/>
<feComposite in2="hardAlpha" operator="arithmetic" k2="-1" k3="1"/>
<feColorMatrix type="matrix" values="0 0 0 0 0 0 0 0 0 0 0 0 0 0 0 0 0 0 0.25 0"/>
<feBlend mode="normal" in2="shape" result="effect1_innerShadow_1_21"/>
<feGaussianBlur stdDeviation="2" result="effect2_foregroundBlur_1_21"/>
</filter>
<filter id="filter2_if_1_21" x="19.9858" y="27.5072" width="206.026" height="224.493" filterUnits="userSpaceOnUse" color-interpolation-filters="sRGB">
<feFlood flood-opacity="0" result="BackgroundImageFix"/>
<feBlend mode="normal" in="SourceGraphic" in2="BackgroundImageFix" result="shape"/>
<feColorMatrix in="SourceAlpha" type="matrix" values="0 0 0 0 0 0 0 0 0 0 0 0 0 0 0 0 0 0 127 0" result="hardAlpha"/>
<feOffset dy="4"/>
<feGaussianBlur stdDeviation="2"/>
<feComposite in2="hardAlpha" operator="arithmetic" k2="-1" k3="1"/>
<feColorMatrix type="matrix" values="0 0 0 0 0 0 0 0 0 0 0 0 0 0 0 0 0 0 0.25 0"/>
<feBlend mode="normal" in2="shape" result="effect1_innerShadow_1_21"/>
<feGaussianBlur stdDeviation="2" result="effect2_foregroundBlur_1_21"/>
</filter>
<filter id="filter3_df_1_21" x="206" y="0" width="50" height="54" filterUnits="userSpaceOnUse" color-interpolation-filters="sRGB">
<feFlood flood-opacity="0" result="BackgroundImageFix"/>
<feColorMatrix in="SourceAlpha" type="matrix" values="0 0 0 0 0 0 0 0 0 0 0 0 0 0 0 0 0 0 127 0" result="hardAlpha"/>
<feOffset dy="4"/>
<feGaussianBlur stdDeviation="2"/>
<feComposite in2="hardAlpha" operator="out"/>
<feColorMatrix type="matrix" values="0 0 0 0 0 0 0 0 0 0 0 0 0 0 0 0 0 0 0.25 0"/>
<feBlend mode="normal" in2="BackgroundImageFix" result="effect1_dropShadow_1_21"/>
<feBlend mode="normal" in="SourceGraphic" in2="effect1_dropShadow_1_21" result="shape"/>
<feGaussianBlur stdDeviation="2" result="effect2_foregroundBlur_1_21"/>
</filter>
</defs>
</svg>
