<svg width="63" height="35" viewBox="0 0 63 35" fill="none" xmlns="http://www.w3.org/2000/svg">
<rect width="63" height="35" fill="#1E1E1E"/>
<g clip-path="url(#clip0_0_1)">
<path d="M63 0H0V35H63V0Z" fill="#1E1E1E"/>
<g filter="url(#filter0_f_0_1)">
<path d="M1.01205 5C1.01205 2.81992 2.7112 1.05263 4.80723 1.05263H58.1928C60.2887 1.05263 61.9879 2.81992 61.9879 5V30C61.9879 32.18 60.2887 33.9474 58.1928 33.9474H4.80723C2.7112 33.9474 1.01205 32.18 1.01205 30V5Z" fill="black"/>
</g>
<path d="M4.04819 6.3158C4.04819 5.87977 4.38801 5.52632 4.80723 5.52632H9.10843C9.52765 5.52632 9.86747 5.87977 9.86747 6.3158V10.5263C9.86747 10.9623 9.52765 11.3158 9.10843 11.3158H4.80723C4.38801 11.3158 4.04819 10.9623 4.04819 10.5263V6.3158Z" fill="#F3CB45"/>
<path d="M13.6627 17.3684H5.06024C4.5013 17.3684 4.04819 17.8397 4.04819 18.4211C4.04819 19.0024 4.5013 19.4737 5.06024 19.4737H13.6627C14.2216 19.4737 14.6747 19.0024 14.6747 18.4211C14.6747 17.8397 14.2216 17.3684 13.6627 17.3684Z" fill="#332E2E"/>
<path d="M26.3133 27.3684H5.06024C4.5013 27.3684 4.04819 27.8397 4.04819 28.4211C4.04819 29.0024 4.5013 29.4737 5.06024 29.4737H26.3133C26.8722 29.4737 27.3253 29.0024 27.3253 28.4211C27.3253 27.8397 26.8722 27.3684 26.3133 27.3684Z" fill="#332E2E"/>
<path d="M26.3133 17.3684H17.7108C17.1519 17.3684 16.6988 17.8397 16.6988 18.4211C16.6988 19.0024 17.1519 19.4737 17.7108 19.4737H26.3133C26.8722 19.4737 27.3253 19.0024 27.3253 18.4211C27.3253 17.8397 26.8722 17.3684 26.3133 17.3684Z" fill="#332E2E"/>
<path d="M38.9639 17.3684H30.3614C29.8025 17.3684 29.3494 17.8397 29.3494 18.4211C29.3494 19.0024 29.8025 19.4737 30.3614 19.4737H38.9639C39.5228 19.4737 39.9759 19.0024 39.9759 18.4211C39.9759 17.8397 39.5228 17.3684 38.9639 17.3684Z" fill="#332E2E"/>
<path d="M51.6145 17.3684H43.012C42.4531 17.3684 42 17.8397 42 18.4211C42 19.0024 42.4531 19.4737 43.012 19.4737H51.6145C52.1734 19.4737 52.6265 19.0024 52.6265 18.4211C52.6265 17.8397 52.1734 17.3684 51.6145 17.3684Z" fill="#332E2E"/>
<path d="M53.006 31.0526C54.7527 31.0526 56.1687 29.6388 56.1687 27.8947C56.1687 26.1507 54.7527 24.7368 53.006 24.7368C51.2593 24.7368 49.8434 26.1507 49.8434 27.8947C49.8434 29.6388 51.2593 31.0526 53.006 31.0526Z" fill="#332E2E"/>
<path d="M56.8012 31.0526C58.5479 31.0526 59.9639 29.6388 59.9639 27.8947C59.9639 26.1507 58.5479 24.7368 56.8012 24.7368C55.0545 24.7368 53.6386 26.1507 53.6386 27.8947C53.6386 29.6388 55.0545 31.0526 56.8012 31.0526Z" fill="#332E2E"/>
</g>
<defs>
<filter id="filter0_f_0_1" x="-2.98795" y="-2.94737" width="68.9759" height="40.8947" filterUnits="userSpaceOnUse" color-interpolation-filters="sRGB">
<feFlood flood-opacity="0" result="BackgroundImageFix"/>
<feBlend mode="normal" in="SourceGraphic" in2="BackgroundImageFix" result="shape"/>
<feGaussianBlur stdDeviation="2" result="effect1_foregroundBlur_0_1"/>
</filter>
<clipPath id="clip0_0_1">
<rect width="63" height="35" fill="white"/>
</clipPath>
</defs>
</svg>
