<svg width="133" height="104" viewBox="0 0 133 104" fill="none" xmlns="http://www.w3.org/2000/svg">
<g clip-path="url(#clip0_2_5)">
<path fill-rule="evenodd" clip-rule="evenodd" d="M69.1638 75.6722C68.136 75.3527 68.3968 75.6982 68.1208 74.6683C69.631 74.7769 68.9335 74.2663 69.1638 75.6722ZM57.0973 74.966C55.8587 75.5353 56.4367 75.205 56.0999 74.6052C57.2494 74.1706 56.667 74.2293 57.0973 74.966ZM74.8548 74.0012C75.5763 73.1472 73.6814 73.7534 75.6719 73.0928C75.2981 74.062 75.8435 73.6535 74.8548 74.0012ZM74.8635 70.2897C76.1282 70.6157 76.1 70.5635 76.5889 71.989C75.07 71.9173 75.1265 71.7739 74.8635 70.2897ZM78.4794 70.6222C76.8996 70.6483 77.784 70.9373 77.2907 69.8095C78.4902 70.1159 77.9296 69.5987 78.4794 70.6222ZM53.5901 68.0754C54.6005 68.597 54.6809 68.447 53.9508 69.4422C52.9882 68.7556 53.0382 69.075 53.5901 68.0754ZM48.5357 67.4518C49.7048 67.8734 49.0855 67.002 49.4832 68.5948C48.451 68.108 48.8704 68.8686 48.5357 67.4518ZM50.5045 66.4348C51.83 66.4153 51.8887 66.9216 52.6253 67.7778L52.1472 69.9703L51.0521 68.1319C50.3024 67.1172 50.398 68.1059 50.5045 66.4348ZM75.3916 67.1345C75.3916 67.078 75.2742 67.2671 75.2199 67.3345C74.0204 66.2197 75.0787 66.4349 75.2199 66.2436C75.7588 67.0455 75.3937 67.1802 75.3916 67.1345ZM55.1394 67.4518C56.9147 66.2893 55.9738 66.4066 57.0647 66.4283C56.9865 67.0759 57.1538 66.8043 56.8604 67.4301C56.428 68.3492 56.5323 67.919 56.0782 68.3818L54.6722 67.756L55.1373 67.4518H55.1394ZM52.6883 66.939L52.0212 65.6852C53.288 66.2827 53.0925 65.2767 52.6883 66.939ZM80.987 63.7903C81.8214 63.3014 80.9196 63.1145 82.1517 63.7903C81.5128 64.3401 82.4776 64.0315 81.4411 64.1424C79.7462 64.3249 81.6693 64.4162 80.987 63.7903ZM43.7009 60.9068C43.69 60.9177 43.5662 61.8542 42.6013 61.3762C42.1016 61.1263 42.2602 60.7634 42.2363 60.3549C43.6248 60.3049 42.9512 60.168 43.6987 60.9068H43.7009ZM76.2716 60.2006C77.2277 60.457 76.7823 60.4027 77.0626 60.5722C73.6228 60.9894 70.5784 60.6526 70.2373 57.3887C71.3455 58.1667 71.339 58.8729 72.9991 59.5248C74.2899 60.0311 75.3633 59.955 76.2716 60.2006ZM40.976 59.3879C40.5783 58.4687 40.939 58.0059 41.215 57.3475C44.2963 57.7994 43.4379 58.1276 43.3749 59.0532C42.6948 58.8425 42.5905 58.7034 42.0559 58.4057L40.9738 59.3879H40.976ZM86.7193 60.9046C85.2178 60.1071 86.2217 60.9937 85.4329 59.9485L84.3616 57.8103C85.6415 58.3927 86.2173 59.0706 86.7215 60.9046H86.7193ZM44.1876 55.7742C44.2311 55.6721 44.3484 55.2918 44.3767 55.2136L44.5809 54.653C46.3649 55.5309 46.2737 56.3761 45.6631 58.4296C43.7183 57.4279 45.7391 57.53 43.4923 56.9411L44.1876 55.7742ZM86.0631 56.7021C84.8006 56.5695 85.9348 56.8151 85.1917 56.0524C85.8545 55.7177 86.4455 55.8285 87.1017 56.2197C86.9648 56.3457 87.9123 56.8977 86.0631 56.7021ZM41.7343 55.859C42.0233 55.6265 42.0125 55.2223 42.7708 55.859C41.5496 56.7847 42.3319 56.3435 41.7343 55.859ZM88.0752 53.3361C88.1078 52.9472 88.5207 52.6212 88.6532 53.41C88.7163 53.786 87.9514 54.8225 88.0752 53.3361ZM40.776 51.174L41.4149 51.0067C41.441 50.922 41.5322 51.1219 41.5931 51.174C40.2415 52.0867 41.2737 51.3979 40.776 51.174ZM43.3706 50.0919C43.4618 50.0354 43.5618 49.8942 43.6118 49.8768C45.5023 49.2466 43.7509 49.6117 44.3571 50.0919H43.3728H43.3706ZM40.1372 50.3613C39.0203 50.1136 39.8851 50.7394 39.3832 49.4813C40.5001 50.118 39.9916 49.0445 40.1372 50.3613ZM92.0366 47.4974L91.0566 47.304C91.1587 45.9893 91.828 46.7694 92.0366 47.4974ZM70.1916 50.4135C72.1278 49.2988 71.7171 49.0489 74.4355 47.8559C80.1765 45.3352 77.7058 41.0958 86.1456 45.659C86.7997 46.0132 86.326 45.6568 87.1039 46.1284C86.8844 48.6338 87.1539 51.8411 85.9913 54.3748C83.0687 60.7417 74.8396 59.8746 72.5298 57.8277C70.6675 56.1762 70.159 53.5013 70.1916 50.4135ZM48.5618 58.8968L46.5692 59.2619L47.0407 57.7169C47.069 57.4822 47.1103 57.4431 47.1429 57.3062C46.9473 56.487 45.7674 53.1884 45.3024 52.3757C44.77 53.6056 45.6066 52.8798 44.6222 53.9685L44.3463 53.3296L43.0012 53.6078C43.5031 52.0041 42.7426 52.8125 44.2941 52.1562C44.7461 51.1719 44.9091 51.5587 45.1611 50.3918C46.0281 46.3674 44.8352 45.6003 45.0438 44.0966C46.9756 44.2531 44.8569 44.2727 46.215 44.5291C47.7165 44.8116 48.0186 43.7077 49.6244 43.6968C51.4432 43.6838 52.5862 45.0267 53.5206 45.8415C55.7196 47.7559 55.9934 46.7173 58.0078 47.845C59.5745 48.7229 59.6005 49.5552 61.6562 50.2223C61.6757 57.1562 60.8152 57.3822 56.4888 59.1054C57.0125 59.5748 56.1607 59.264 57.282 59.4379L61.5627 57.178C61.3237 58.9837 60.2807 59.8573 58.4271 60.3527C57.6014 60.5743 56.4606 60.7199 55.5197 60.4135C54.2268 59.992 55.0699 60.0963 55.0243 59.9702L55.0373 59.2662C52.4927 59.1054 52.86 58.8077 51.8539 60.5005C51.73 58.3101 51.5106 58.7686 49.2181 58.1362L50.348 60.5396L48.6248 60.0767L48.5662 58.899L48.5618 58.8968ZM92.8862 46.3565L92.1691 44.4291C93.7967 45.9698 93.399 44.2357 94.4551 46.2761L92.884 46.3565H92.8862ZM44.1116 42.7059C44.0572 43.3622 43.8334 42.9797 43.501 43.1123C42.295 41.5477 43.4944 41.9563 43.501 41.9389C44.3397 42.4213 44.192 41.6846 44.1116 42.7059ZM68.6901 43.9706C69.4746 43.0732 69.8309 42.6712 71.4563 42.3517C71.2825 42.7059 71.0152 43.5121 70.3785 43.8229C69.6245 44.1923 69.5311 44.0032 68.6901 43.9706ZM62.7231 42.5234C63.6901 42.0736 64.468 42.7755 65.1134 43.5817C63.7575 43.5338 63.5228 43.5121 62.7231 42.5234ZM47.2168 42.3974C46.8495 40.8915 47.2819 40.9676 48.7922 40.4808C48.6922 41.7846 48.2663 42.0671 47.2168 42.3974ZM44.5157 40.5851C43.6596 39.7203 43.9964 40.3504 44.2246 39.5682C45.2263 40.0028 45.2698 39.5964 44.5157 40.5851ZM42.7817 39.29C42.823 39.3856 43.351 39.5095 42.8795 40.4287C42.321 41.5217 42.7122 40.9371 41.63 41.1371L42.7795 39.29H42.7817ZM51.78 37.8363C50.4045 38.3448 50.7196 37.832 50.3154 37.1084C52.0755 36.9671 51.3932 36.7781 51.78 37.8363ZM48.5162 37.0106C48.1555 35.5482 48.0968 36.8411 48.1881 36.011C48.7096 36.4043 49.1876 36.8041 49.607 37.1171C48.0599 40.5308 48.2902 36.6216 45.876 41.2348C45.5827 38.6381 46.1411 37.4104 48.5162 37.0106ZM44.3636 37.1149C44.2376 35.8176 44.2007 36.2261 43.6639 35.0571L46.6148 36.7542C44.7743 38.4621 45.7587 38.0014 44.5809 38.8055L43.0794 38.2883C43.5835 37.2192 42.8882 38.2774 43.5814 37.6147L44.3636 37.1149ZM89.1031 35.9024C89.9201 34.968 87.7884 35.3417 90.0353 35.0614L89.1031 35.9024ZM53.2489 34.6355L54.2333 34.9528C54.0095 36.1479 54.0312 35.8915 52.6753 36.589L53.2489 34.6355ZM51.5236 35.6742C51.3041 35.7894 52.2581 36.715 50.3219 35.7416C49.2898 35.2222 49.8852 35.4178 49.4158 34.8463C51.3954 34.679 50.8739 34.2791 51.5236 35.6742ZM65.1547 29.9093C64.8874 28.8402 64.9048 29.7659 65.548 28.8532L66.302 29.868C66.3237 29.9484 67.3342 30.0679 66.0499 30.4417C65.624 30.5655 65.2612 30.3374 65.1547 29.9093ZM58.3619 27.7124C58.8052 28.3426 59.0812 28.247 58.6401 29.0597C58.0903 28.7511 58.2011 29.1487 58.0664 28.4208C57.7948 26.9497 57.9773 28.323 58.3598 27.7124H58.3619ZM58.2815 26.0001C57.6948 25.6937 58.2794 25.0831 58.2815 25.0831C58.4532 25.4482 59.2464 24.4921 58.2815 26.0001ZM45.6935 21.9757C46.5149 21.602 46.5301 21.3977 47.0538 22.3365C46.0977 22.8884 46.3063 22.6537 45.6935 21.9757ZM52.4558 23.021C38.7117 6.60846 71.4042 7.76883 77.9579 11.6628C82.6949 14.4768 80.6893 20.4156 78.4685 22.5907C74.4941 21.9019 72.1256 20.2243 67.2929 20.22C66.5258 21.4151 66.5454 21.9844 66.4324 23.7598C65.2785 19.9657 65.6827 23.323 63.6901 20.2461C56.8039 20.3808 55.5675 22.7319 52.4558 23.0231V23.021ZM80.9609 12.9644H81.8627C79.9548 14.2791 81.2543 13.2078 80.9609 12.9644ZM85.8175 27.4386C89.5029 21.7519 93.3751 13.8988 86.5302 7.79056C81.615 3.40331 72.458 1.91265 64.0508 2.00392C59.7244 2.05172 55.2785 2.48632 51.3324 3.49893C46.8517 4.64843 44.481 5.76099 42.4297 8.64888C35.5718 18.3121 44.6157 26.5129 45.3415 28.6164C43.9986 29.4443 40.6674 34.0575 40.0742 36.2718C39.2593 39.3096 39.4983 36.6325 38.4292 38.8728L37.9186 40.5395C37.3992 42.1192 37.7708 41.6281 37.4796 42.7016C37.2993 43.3709 36.9234 43.7077 36.6105 44.5986C34.3766 50.9524 38.803 60.7938 41.3671 64.8442C44.5983 69.9464 50.1677 74.2293 55.5784 76.2328C60.9413 78.2211 72.5515 78.8925 76.9322 75.683C77.017 73.8034 75.9739 73.7686 76.6671 72.5909C78.0339 73.0211 77.8775 73.8577 78.4185 74.9268C79.2834 74.4597 80.924 74.2206 81.7606 73.5644L84.3855 71.524C87.9775 69.1337 91.4694 65.1919 92.7124 61.0589C93.4968 58.4492 94.6333 58.4426 95.1331 54.0576C95.5416 50.4743 94.3638 52.0019 94.9158 49.9963C95.1657 49.0901 95.3591 50.0463 95.4568 47.9537C95.5894 45.1571 94.8788 44.0597 94.5442 41.8389C94.2813 40.0875 93.9879 40.0527 93.3751 38.4317C90.6763 31.3 89.5051 32.6842 87.9014 29.8615C87.1322 28.5077 86.5867 28.5686 85.8153 27.4408L85.8175 27.4386Z" fill="black"/>
</g>
<path d="M24.0804 97.42C23.6537 97.7267 23.1071 97.9467 22.4404 98.08C21.7871 98.2133 21.1137 98.28 20.4204 98.28C19.5804 98.28 18.7804 98.1533 18.0204 97.9C17.2737 97.6333 16.6137 97.2133 16.0404 96.64C15.4671 96.0533 15.0071 95.3 14.6604 94.38C14.3271 93.4467 14.1604 92.32 14.1604 91C14.1604 89.6267 14.3471 88.48 14.7204 87.56C15.1071 86.6267 15.6004 85.88 16.2004 85.32C16.8137 84.7467 17.4937 84.34 18.2404 84.1C18.9871 83.8467 19.7337 83.72 20.4804 83.72C21.2804 83.72 21.9537 83.7733 22.5004 83.88C23.0604 83.9867 23.5204 84.1133 23.8804 84.26L23.3404 86.58C23.0337 86.4333 22.6671 86.3267 22.2404 86.26C21.8271 86.1933 21.3204 86.16 20.7204 86.16C19.6137 86.16 18.7204 86.5533 18.0404 87.34C17.3737 88.1267 17.0404 89.3467 17.0404 91C17.0404 91.72 17.1204 92.38 17.2804 92.98C17.4404 93.5667 17.6804 94.0733 18.0004 94.5C18.3337 94.9133 18.7404 95.24 19.2204 95.48C19.7137 95.7067 20.2804 95.82 20.9204 95.82C21.5204 95.82 22.0271 95.76 22.4404 95.64C22.8537 95.52 23.2137 95.3667 23.5204 95.18L24.0804 97.42ZM24.6682 91C24.6682 88.6667 25.1815 86.8733 26.2082 85.62C27.2349 84.3533 28.7015 83.72 30.6082 83.72C31.6082 83.72 32.4815 83.8933 33.2282 84.24C33.9749 84.5867 34.5949 85.08 35.0882 85.72C35.5815 86.36 35.9482 87.1267 36.1882 88.02C36.4282 88.9133 36.5482 89.9067 36.5482 91C36.5482 93.3333 36.0282 95.1333 34.9882 96.4C33.9615 97.6533 32.5015 98.28 30.6082 98.28C29.5949 98.28 28.7149 98.1067 27.9682 97.76C27.2215 97.4133 26.6015 96.92 26.1082 96.28C25.6282 95.64 25.2682 94.8733 25.0282 93.98C24.7882 93.0867 24.6682 92.0933 24.6682 91ZM27.5482 91C27.5482 91.7067 27.6082 92.36 27.7282 92.96C27.8482 93.5467 28.0282 94.0533 28.2682 94.48C28.5215 94.9067 28.8415 95.24 29.2282 95.48C29.6149 95.72 30.0749 95.84 30.6082 95.84C31.5815 95.84 32.3349 95.46 32.8682 94.7C33.4015 93.94 33.6682 92.7067 33.6682 91C33.6682 90.32 33.6082 89.6867 33.4882 89.1C33.3815 88.5133 33.2082 88 32.9682 87.56C32.7282 87.12 32.4149 86.78 32.0282 86.54C31.6415 86.2867 31.1682 86.16 30.6082 86.16C29.6349 86.16 28.8815 86.5533 28.3482 87.34C27.8149 88.1133 27.5482 89.3333 27.5482 91ZM41.9866 90.7L40.8866 88.5H40.7866L41.1066 90.7V98H38.5066V83.9H40.5066L45.8066 91.36L46.8666 93.5H46.9666L46.6466 91.36V84H49.2466V98.1H47.2466L41.9866 90.7ZM61.5912 86.44H57.5112V98H54.7712V86.44H50.6712V84H61.5912V86.44ZM63.0184 84.14C63.325 84.0867 63.6517 84.04 63.9984 84C64.3584 83.9467 64.7117 83.9067 65.0584 83.88C65.4184 83.8533 65.765 83.8333 66.0984 83.82C66.4317 83.8067 66.7384 83.8 67.0184 83.8C67.6717 83.8 68.3117 83.86 68.9384 83.98C69.5784 84.1 70.145 84.3067 70.6384 84.6C71.145 84.8933 71.545 85.3 71.8384 85.82C72.145 86.3267 72.2984 86.9667 72.2984 87.74C72.2984 88.8867 72.0317 89.82 71.4984 90.54C70.965 91.26 70.2517 91.76 69.3584 92.04L70.3384 92.66L73.5384 98H70.3784L67.1984 92.52L65.7584 92.26V98H63.0184V84.14ZM67.2184 86.24C66.9384 86.24 66.6584 86.2467 66.3784 86.26C66.1117 86.2733 65.905 86.3 65.7584 86.34V90.4H66.9184C67.6784 90.4 68.285 90.2267 68.7384 89.88C69.1917 89.5333 69.4184 88.96 69.4184 88.16C69.4184 87.56 69.2317 87.0933 68.8584 86.76C68.485 86.4133 67.9384 86.24 67.2184 86.24ZM81.2074 94.9H76.9074L75.8474 98H73.1074L78.1474 83.9H80.1674L85.2074 98H82.3274L81.2074 94.9ZM77.6074 92.7H80.6074L79.5674 89.58L79.1474 87.38H79.0474L78.6274 89.6L77.6074 92.7ZM94.7943 86.44H90.7143V98H87.9743V86.44H83.8743V84H94.7943V86.44ZM101.559 94.9H97.259L96.199 98H93.459L98.499 83.9H100.519L105.559 98H102.679L101.559 94.9ZM97.959 92.7H100.959L99.919 89.58L99.499 87.38H99.399L98.979 89.6L97.959 92.7ZM106.768 84.14C107.075 84.0867 107.402 84.04 107.748 84C108.108 83.9467 108.462 83.9067 108.808 83.88C109.168 83.8533 109.515 83.8333 109.848 83.82C110.182 83.8067 110.488 83.8 110.768 83.8C111.422 83.8 112.062 83.86 112.688 83.98C113.328 84.1 113.895 84.3067 114.388 84.6C114.895 84.8933 115.295 85.3 115.588 85.82C115.895 86.3267 116.048 86.9667 116.048 87.74C116.048 88.8867 115.782 89.82 115.248 90.54C114.715 91.26 114.002 91.76 113.108 92.04L114.088 92.66L117.288 98H114.128L110.948 92.52L109.508 92.26V98H106.768V84.14ZM110.968 86.24C110.688 86.24 110.408 86.2467 110.128 86.26C109.862 86.2733 109.655 86.3 109.508 86.34V90.4H110.668C111.428 90.4 112.035 90.2267 112.488 89.88C112.942 89.5333 113.168 88.96 113.168 88.16C113.168 87.56 112.982 87.0933 112.608 86.76C112.235 86.4133 111.688 86.24 110.968 86.24Z" fill="black"/>
<defs>
<clipPath id="clip0_2_5">
<rect width="59.4705" height="75.9043" fill="white" transform="translate(36 2)"/>
</clipPath>
</defs>
</svg>
