<?xml version="1.0" encoding="UTF-8"?>
<!DOCTYPE svg PUBLIC "-//W3C//DTD SVG 1.1//EN" "http://www.w3.org/Graphics/SVG/1.1/DTD/svg11.dtd">
<!-- Creator: CorelDRAW 2020 (64 Bit) -->
<svg xmlns="http://www.w3.org/2000/svg" xml:space="preserve" width="149.657mm" height="30.5859mm" version="1.1" style="shape-rendering:geometricPrecision; text-rendering:geometricPrecision; image-rendering:optimizeQuality; fill-rule:evenodd; clip-rule:evenodd"
viewBox="0 0 14951.43 3055.68"
 xmlns:xlink="http://www.w3.org/1999/xlink"
 xmlns:xodm="http://www.corel.com/coreldraw/odm/2003">
 <defs>
  <style type="text/css">
   <![CDATA[
    .fil0 {fill:black}
    .fil1 {fill:black;fill-rule:nonzero}
   ]]>
  </style>
 </defs>
 <g id="Camada_x0020_1">
  <metadata id="CorelCorpID_0Corel-Layer"/>
  <g id="_2436512990368">
   <path class="fil0" d="M3840.65 1947.35c-27.17,-8.44 -20.29,0.68 -27.57,-26.54 39.93,2.88 21.5,-10.6 27.57,26.54zm-318.98 -18.66c-32.72,15.04 -17.43,6.29 -26.34,-9.53 30.41,-11.51 15,-9.95 26.34,9.53zm469.41 -25.48c19.07,-22.58 -30.99,-6.55 21.58,-24.02 -9.87,25.6 4.57,14.8 -21.58,24.02zm0.25 -98.13c33.41,8.63 32.68,7.26 45.63,44.94 -40.13,-1.88 -38.66,-5.66 -45.63,-44.94zm95.55 8.77c-41.73,0.71 -18.37,8.3 -31.44,-21.46 31.73,8.12 16.91,-5.58 31.44,21.46zm-657.87 -67.33c26.7,13.76 28.83,9.84 9.53,36.11 -25.44,-18.14 -24.1,-9.7 -9.53,-36.11zm-133.57 -16.46c30.91,11.12 14.55,-11.88 25.04,30.2 -27.29,-12.87 -16.21,7.21 -25.04,-30.2zm52.01 -26.9c35.04,-0.52 36.61,12.84 56.06,35.49l-12.61 57.96 -28.97 -48.61c-19.8,-26.82 -17.3,-0.71 -14.48,-44.84zm657.81 18.51c-0.02,-1.48 -3.08,3.48 -4.55,5.26 -31.72,-29.49 -3.74,-23.76 0,-28.84 14.26,21.22 4.58,24.74 4.55,23.58zm-535.34 8.39c46.92,-30.75 22.07,-27.62 50.89,-27.07 -2.05,17.12 2.37,9.94 -5.39,26.49 -11.41,24.32 -8.66,12.9 -20.65,25.19l-37.16 -16.56 12.32 -8.04zm-64.78 -13.55l-17.61 -33.15c33.47,15.78 28.34,-10.78 17.61,33.15zm748.04 -83.21c22.07,-12.9 -1.77,-17.87 30.81,0 -16.86,14.56 8.64,6.35 -18.79,9.3 -44.79,4.81 6.02,7.26 -12.02,-9.3zm-985.61 -76.23c-0.29,0.28 -3.59,25.03 -29.04,12.41 -13.24,-6.58 -9.03,-16.22 -9.64,-27 36.73,-1.33 18.87,-4.97 38.68,14.6zm860.93 -18.69c25.29,6.77 13.5,5.31 20.9,9.84 -90.92,11.03 -171.39,2.14 -180.42,-84.15 29.31,20.54 29.12,39.23 73.02,56.47 34.11,13.39 62.47,11.4 86.5,17.84zm-932.98 -21.46c-10.52,-24.32 -0.98,-36.52 6.32,-53.93 81.47,11.92 58.76,20.6 57.11,45.1 -17.97,-5.57 -20.71,-9.26 -34.84,-17.13l-28.59 25.97zm1209.11 40.11c-39.71,-21.06 -13.16,2.34 -34.01,-25.26l-28.34 -56.53c33.83,15.37 49.04,33.31 62.35,81.78zm-1124.22 -135.61c1.16,-2.71 4.23,-12.76 4.99,-14.83l5.4 -14.85c47.19,23.23 44.75,45.55 28.6,99.83 -51.39,-26.46 2.03,-23.79 -57.4,-39.32l18.4 -30.84zm1106.88 24.52c-33.38,-3.53 -3.39,2.97 -23.03,-17.17 17.51,-8.86 33.15,-5.89 50.49,4.44 -3.65,3.36 21.44,17.94 -27.46,12.74zm-1171.74 -22.26c7.66,-6.17 7.36,-16.82 27.41,0 -32.26,24.48 -11.58,12.8 -27.41,0zm1224.95 -66.7c0.86,-10.3 11.79,-18.9 15.27,1.93 1.66,9.91 -18.56,37.35 -15.27,-1.93zm-1250.25 -57.18l16.88 -4.44c0.7,-2.26 3.08,3.06 4.74,4.44 -35.75,24.12 -8.46,5.94 -21.62,0zm68.55 -28.58c2.42,-1.51 5.06,-5.24 6.36,-5.67 49.95,-16.63 3.69,-7.03 19.68,5.67l-26.05 0zm-85.49 7.1c-29.54,-6.52 -6.66,9.98 -19.93,-23.27 29.5,16.83 16.06,-11.57 19.93,23.27zm1371.86 -75.71l-25.89 -5.13c2.69,-34.75 20.4,-14.14 25.89,5.13zm-577.45 77.07c51.15,-29.46 40.3,-36.06 112.16,-67.61 151.77,-66.62 86.47,-178.69 309.52,-58.07 17.28,9.35 4.77,-0.04 25.36,12.41 -5.81,66.21 1.31,150.99 -29.43,217.95 -77.25,168.27 -294.79,145.38 -355.81,91.28 -49.25,-43.65 -62.68,-114.36 -61.79,-195.96zm-571.72 224.23l-52.69 9.64 12.49 -40.85c0.72,-6.18 1.83,-7.23 2.72,-10.87 -5.19,-21.64 -36.37,-108.83 -48.66,-130.32 -14.08,32.51 8.06,13.32 -17.97,42.13l-7.29 -16.89 -35.56 7.36c13.25,-42.41 -6.84,-21.05 34.18,-38.34 11.93,-26 16.27,-15.8 22.91,-46.66 22.91,-106.4 -8.59,-126.66 -3.11,-166.37 51.07,4.12 -4.94,4.65 30.96,11.41 39.69,7.48 47.65,-21.69 90.09,-21.98 48.1,-0.33 78.31,35.16 102.99,56.67 58.11,50.62 65.39,23.17 118.6,52.97 41.42,23.22 42.1,45.22 96.44,62.81 0.5,183.29 -22.24,189.28 -136.6,234.82 13.85,12.41 -8.66,4.17 20.97,8.79l113.13 -59.75c-6.34,47.74 -33.89,70.81 -82.88,83.92 -21.81,5.84 -51.99,9.71 -76.84,1.63 -34.18,-11.14 -11.89,-8.39 -13.11,-11.73l0.35 -18.61c-67.27,-4.23 -57.57,-12.12 -84.16,32.6 -3.26,-57.92 -9.07,-45.79 -69.67,-62.52l29.85 63.52 -45.58 -12.23 -1.56 -31.14zm1171.6 -331.48l-18.93 -50.95c43.04,40.74 32.52,-5.09 60.43,48.84l-41.5 2.11zm-1289.27 -96.48c-1.41,17.34 -7.35,7.26 -16.12,10.74 -31.85,-41.35 -0.19,-30.58 0,-30.99 22.2,12.73 18.29,-6.69 16.12,20.25zm649.68 33.43c20.71,-23.74 30.14,-34.33 73.14,-42.79 -4.62,9.36 -11.64,30.68 -28.48,38.9 -19.94,9.75 -22.43,4.78 -44.66,3.89zm-157.72 -38.25c25.57,-11.91 46.13,6.68 63.19,27.98 -35.84,-1.27 -42.03,-1.85 -63.19,-27.98zm-409.89 -3.31c-9.71,-39.81 1.74,-37.78 41.65,-50.64 -2.65,34.44 -13.93,41.93 -41.65,50.64zm-71.42 -47.88c-22.66,-22.86 -13.74,-6.21 -7.71,-26.87 26.45,11.48 27.6,0.75 7.71,26.87zm-45.83 -34.25c1.09,2.55 15.05,5.78 2.61,30.11 -14.78,28.91 -4.43,13.43 -33,18.7l30.39 -48.81zm237.85 -38.43c-36.37,13.42 -28.02,-0.12 -38.69,-19.23 46.55,-3.73 28.48,-8.72 38.69,19.23zm-86.26 -21.82c-9.55,-38.63 -11.1,-4.46 -8.67,-26.44 13.79,10.42 26.42,20.99 37.49,29.21 -40.89,90.25 -34.8,-13.12 -98.6,108.87 -7.76,-68.63 7,-101.06 69.77,-111.63zm-109.76 2.77c-3.35,-34.27 -4.29,-23.48 -18.49,-54.39l77.98 44.86c-48.63,45.16 -22.65,32.96 -53.78,54.24l-39.67 -13.67c13.31,-28.27 -5.06,-0.26 13.28,-17.81l20.69 -13.23zm1182.6 -32.06c21.61,-24.73 -34.77,-14.8 24.63,-22.25l-24.63 22.25zm-947.73 -33.49l26.01 8.38c-5.94,31.61 -5.36,24.81 -41.17,43.25l15.17 -51.63zm-45.62 27.43c-5.79,3.06 19.4,27.52 -31.75,1.81 -27.26,-13.71 -11.56,-8.56 -23.96,-23.67 52.35,-4.42 38.55,-14.98 55.71,21.86zm360.33 -152.39c-7.05,-28.28 -6.6,-3.78 10.41,-27.91l19.93 26.83c0.58,2.12 27.3,5.27 -6.68,15.16 -11.24,3.28 -20.83,-2.77 -23.66,-14.08zm-179.56 -58.05c11.7,16.65 18.99,14.15 7.37,35.59 -14.53,-8.15 -11.6,2.38 -15.16,-16.86 -7.17,-38.89 -2.35,-2.57 7.78,-18.72zm-2.15 -45.27c-15.51,-8.1 -0.03,-24.22 0,-24.26 4.56,9.65 25.5,-15.62 0,24.26zm-332.75 -106.36c21.69,-9.9 22.12,-15.29 35.98,9.53 -25.27,14.58 -19.78,8.36 -35.98,-9.53zm178.72 27.63c-363.32,-433.81 500.83,-403.14 674.12,-300.24 125.21,74.36 72.18,231.36 13.5,288.85 -105.08,-18.21 -167.67,-62.54 -295.38,-62.69 -20.3,31.61 -19.73,46.64 -22.77,93.54 -30.52,-100.26 -19.83,-11.56 -72.51,-92.89 -182,3.59 -214.71,65.74 -296.96,73.43zm753.45 -265.85l23.86 0c-50.44,34.77 -16.08,6.45 -23.86,0zm128.37 382.6c97.43,-150.31 199.78,-357.9 18.86,-519.35 -129.94,-115.95 -371.98,-155.39 -594.2,-152.95 -114.37,1.26 -231.89,12.74 -336.18,39.51 -118.45,30.41 -181.13,59.79 -235.3,136.12 -181.25,255.42 57.75,472.2 76.97,527.8 -35.48,21.88 -123.53,143.8 -139.26,202.34 -21.56,80.29 -15.22,9.53 -43.46,68.75l-13.49 44.06c-13.73,41.78 -3.91,28.75 -11.58,57.13 -4.8,17.71 -14.72,26.57 -22.99,50.12 -59.02,167.97 57.93,428.1 125.74,535.13 85.43,134.86 232.61,248.07 375.62,301.05 141.78,52.53 448.63,70.33 564.45,-14.54 2.24,-49.67 -25.35,-50.59 -7.03,-81.75 36.11,11.38 31.99,33.5 46.28,61.76 22.88,-12.35 66.25,-18.66 88.37,-36.02l69.39 -53.91c94.95,-63.2 187.22,-167.35 220.08,-276.65 20.76,-69 50.78,-69.17 63.96,-185.09 10.77,-94.72 -20.36,-54.31 -5.72,-107.37 6.6,-23.97 11.71,1.33 14.3,-53.97 3.49,-73.91 -15.29,-102.94 -24.14,-161.65 -6.97,-46.3 -14.69,-47.22 -30.89,-90.04 -71.31,-188.53 -102.27,-151.95 -144.66,-226.51 -20.32,-35.77 -34.73,-34.18 -55.12,-63.98z"/>
   <path class="fil0" d="M6668.67 1901.71c12.44,14.58 23.49,-4.09 0.37,23.78 -11.52,-13.92 -20.65,0.21 -0.37,-23.78zm304.91 -164.72c10.07,13.61 7.31,9.85 0,22.94 -2.05,-3.32 -27.89,6.02 0,-22.94zm-112.08 18.33c1.72,-36.11 -11.53,-23.18 24.26,-24.58 -14.12,36.66 -8.65,14.62 -24.26,24.58zm-88.02 -33.8c21.79,21.83 13.28,3.61 9.95,33.79 -29.23,-12.32 -38.04,-15.81 -9.95,-33.79zm71.52 -17.81c-11.11,30.74 2.89,14.72 -24.01,24.78 7.43,-31.9 -15.96,-15.2 24.01,-24.78zm43.91 -12.98c28.53,6.7 18.76,-9.42 26.22,26.19 -36.58,-4.1 -20.34,8.65 -26.22,-26.19zm55.25 -2.7c-27.83,-33.6 -13.6,-18.06 -0.68,-34.32 11.51,15.31 10.2,-18.61 7.99,17.05 -1.15,18.59 -0.06,5.56 -7.31,17.26zm-127.13 -35.66c9.88,-6.04 -15.52,-27.46 22.57,0 -1.8,1.24 -4.47,1.89 -5.21,3.99 -0.63,1.83 -4.69,1.81 -5.47,1.65l-11.89 -5.63zm173.26 -5.37c10.99,-12.61 8.92,-14.11 21.13,-4.16l-21.13 4.16zm-58.67 -44.88c42.96,2.5 31.69,-21.31 29.17,27.22 -48.25,-5.82 -15.27,-7.1 -29.17,-27.22zm-120.03 -21.2c15.06,15.76 3.81,-6.82 11.52,27.59 -10.39,-4.24 -16.25,8.16 -18.18,-13.71 -3.73,-42.63 -21.3,-0.64 6.66,-13.89zm161.99 -13.03c29.54,38.49 4.41,13.22 0,22.34 -2,-2.98 -38.05,9.43 0,-22.34zm-95.29 -10.91c15.41,44.96 -5.05,35.73 -9.52,40.57 -0.59,-0.63 -16.26,-1.27 -15.04,-22.48 2.57,-44.35 16.41,-16.62 24.56,-18.09zm57.17 11.83c-5.68,-11.1 -9.85,12.94 -7.57,-20.91 1.33,-19.87 1.1,-8.36 7.57,-18.38 36.49,38.39 1.49,27.72 0,39.29zm38.12 -64.23c1.59,2.29 5.32,2.81 5.18,6.57l-5.18 17.89c-7.49,-10.88 -30.77,-8.28 0,-24.47zm-115.09 -68.2l9.68 21.56c49.36,-11.1 37.51,-17.8 66.56,13.39 -15.72,15.85 -72.54,29.19 -102.69,29.25 15.74,-36.07 -2.54,-4.68 35.17,-29.25 -10.81,-13.72 5.25,-8.45 -27.79,-17.13 -6.85,-10.83 -12.44,14.94 -6.28,-27.94 46.57,-4.27 11.88,-1.76 25.37,10.13zm96.94 -57.64c39.88,44.42 0.28,23.07 -0.91,24.25 -5.88,-15.01 -8.59,-14.29 0.91,-24.25zm-239.12 53.62c-20.44,-35.56 -1.66,-62.01 9.67,-85.77l54.36 17.78c1.06,0.29 4,1.22 5.85,2.14 -32.91,57.25 -16.54,-19.65 -66,60.03 -0.78,1.25 -2.42,4 -3.89,5.81zm-29.46 -77.6l-108.6 -0.6c-0.1,-41.62 -2.43,-47.71 23.41,-71.64 7.64,12.56 0.58,3.63 7.2,19.32l16.9 31.87c20.57,-23.4 9.96,-12.71 52.43,-12.27 20.81,-25.28 25.61,-42.58 53.57,-12.11 -39.24,22.7 -24.02,6.39 -44.92,45.43zm58.49 -92.63c28.16,11.81 16.11,-3.97 17.51,27.17 -25.63,-13.43 -14.48,3.84 -17.51,-27.17zm-110.07 5.2l32.65 9.13c-21.93,31.95 -21.88,27.23 -32.65,-9.13zm-100.87 53.01c-2.85,-46.62 -12.25,-34.28 31.15,-41.17 -11.55,31.61 -2.17,27.37 -31.15,41.17zm-187.44 -41.45l-5.62 -23.51c6.04,1.61 12.99,3.61 18.92,7.66l-13.3 15.84zm343.35 -36.25c25.6,-22.81 3.93,-17.32 25.38,0 -18.46,15.89 26.99,11.81 -10.54,7.69 -20.8,-2.29 -1.61,4.21 -14.84,-7.69zm-132.13 -26.82c35.48,-10.18 33.63,7.54 34.02,7.76 -8.25,35.12 -15.53,34.74 -55.5,19.06 3.13,-18.31 -27.84,-12.67 21.48,-26.82zm-146.77 13.84l4.9 19.4c-0.35,1.21 -3.61,4 -4.9,6.31 -11.83,-17.21 -24.58,-10.74 0,-25.72zm352.54 -25.16c9.53,14.39 9.43,2.22 7.37,26.36 -33.14,-5.7 -34.96,-9.4 -7.37,-26.36zm-305.36 69.62c-3.5,-55.93 -11.94,-56.43 41.99,-60.88 -6.78,27.97 -15.43,44.69 -41.99,60.88zm-210.89 -35.21c27.21,-26.49 -28.75,-6.46 26.66,-28.02 -12.16,28.32 4.23,16.5 -26.66,28.02zm68.41 -53.38c7.14,8.3 28.64,-3.19 0,25.48 -21.72,-21.18 -5.53,-15.8 0,-25.48zm75.71 -17.33c-2.6,45.97 12.86,25.21 -30.57,27.92 3.42,-29.21 6.2,-22.58 30.57,-27.92zm92.81 17.26c42.78,-24.61 34.71,-2.36 69.69,-37.45l9.59 9.68c54.97,46.04 67.3,5.66 67.65,71.37l-58.18 -44.54 -47.63 27.61c-35.51,-15.18 -21.23,2.06 -41.11,-26.67zm154.79 -38.11c-11,20.37 -1.26,29.53 -32.73,9.53 1.5,-18.34 17.69,-16.07 32.73,-9.53zm-217.3 9.53c13.04,-12.89 -8.05,-8.39 17.75,-11.13 32.37,-3.44 11.82,5.25 18.27,11.13 -24.15,19.14 -7.03,22.52 -36.03,0zm-37.3 -19.05c0.17,-21.68 -9.39,-3.87 10.16,-4.27 24.54,-0.51 -10.39,35.43 -10.16,4.27zm121.79 3.46c-41.08,0.13 -15.15,7.29 -23.34,-24.59 24.68,13.39 10.9,-11.8 23.34,24.59zm-57.11 -39.77c10.24,12.33 12.37,10.6 -4.48,25.41l4.48 -25.41zm-257.26 25.59c-32.63,-34.3 -4.19,-16.15 0,-22.95l7.06 12.19c9.54,37.89 5.21,-3.58 -7.06,10.76zm57.17 -6.34c-11,-16.12 -9.01,13.17 -10.33,-30.81 -0.06,-2.14 3.25,-24.56 3.96,-27.22 7.25,-27.44 8.33,-20.57 24.43,-28.5 9.69,78.74 -4.95,76.64 -18.05,86.54zm-101.9 -14.43c-26.97,-11.94 -27.71,-9.76 -36.73,-32.27 41.31,-2.95 27.89,-4.2 36.73,32.27zm14.94 -54.26c0.26,-0.12 4.72,-18.39 33.01,-3.37 15.12,8.04 11.86,12.37 15.55,31.25 -49.65,-3.65 -36.44,1.18 -48.55,-27.88zm-38.15 -29.37c7.42,44.31 9.24,-9.59 -8.27,12.16 -5.46,-7.16 -13.64,-11.05 -1.61,-28.92 17.15,17.41 5.64,-8.59 9.88,16.76zm39.37 7.95c-1.34,-2 -13.74,9.92 -8.22,-25.05 5.08,-32.12 8.63,-14.95 17.75,-21.33 19.84,32.5 18.11,30.36 -9.53,46.38zm-101.12 -31.74c-16.49,-3.73 -3.41,1.64 -9.96,-13.55 22.58,-9.8 14.3,-7.95 27.22,9.54 -8.22,3.41 -1.52,7.56 -17.26,4.01zm153.35 1.35c-3.28,-56.93 26.82,-56.69 83.31,-59.28l-25.74 63.94 -14.52 -33.62c-22.45,18.13 -17.5,22.41 -43.06,28.96zm-84.57 -27.9c-25,-1.89 -18.5,12.65 -19.16,-19.9 25.74,1.39 15.91,-4.22 19.16,19.9zm19.57 -63.65c28.91,12.49 41.53,10.88 49.69,46.45 -38.82,3.83 -45.06,-7.94 -49.69,-46.45zm99.76 23c-40.82,-9.03 -14.49,5.93 -26.25,-27 36.09,14.97 15.28,-18.82 26.25,27zm61.84 -16.56c-42.95,-8.97 -19.47,6.19 -19.06,-26.83l19.06 26.83zm-215.53 -36.87c31.78,29.21 14.47,24.45 9.52,35.75 -47.52,-19.06 -10.13,-34.77 -9.52,-35.75zm70.83 -19.62c30.21,30.34 -9.31,24.39 -28.56,27.76 2.95,-14.48 2.48,-53.95 28.56,-27.76zm-143.53 7.91c33.33,-20.42 -26.84,-10.9 24.42,-21.39 -10.41,20.86 1.58,9.86 -24.42,21.39zm60.95 -42.33c16.18,5.57 16.51,1.12 25.23,13.94 19.82,29.16 0.11,8 -3.59,16.09 -29.42,6.79 -21.1,7.79 -21.64,-30.03zm265.59 14.48c36.92,-24.95 -28.96,-7.42 25.28,-24.25 -10.02,25.39 5.19,12.77 -25.28,24.25zm-11.68 -57.48c-8.53,39.86 12.15,25.99 -31.01,31.68 2.57,-22.88 10.97,-21.32 31.01,-31.68zm-184.07 51.15c-5.04,-60.22 17.7,-77.76 58.42,-50l-16.1 18.28c-25.84,27.73 -20.82,26.88 -42.32,31.72zm135.38 -57.49c-41.48,-5.47 -19.19,7.09 -23.92,-26.53 28.92,10.34 17.14,-7.48 23.92,26.53zm-58.3 -18.2c2.37,-17.05 -11.47,-2.97 10.58,-3.65 0.32,-0.02 2.9,0.35 3.09,0.39 0.11,0.03 0.94,1.57 0.95,1.62 3.06,17.22 -15.71,9.51 -14.62,1.64zm-118.47 17.77c4.37,-27.49 9.7,-27.28 31.87,-38.47 -6.72,35.68 0.21,28.58 -31.87,38.47zm78.59 -58.37c11.45,14.64 17.77,11.12 0,33.51 -12.46,-13.79 -5.74,0.82 -7.37,-19.91 -3.33,-42.07 -5.97,7.18 7.37,-13.6zm206.7 8.81c-36.06,-0.89 -8.45,13.12 -22.17,-24.87 25.8,17.73 16.83,-6 22.17,24.87zm-149.54 -2.82c-13.21,-6.88 -2.29,-22.65 0,-26.21 29.76,53.4 8.25,14.29 0,26.21zm-57.17 -58.54c22.3,9.8 14.51,-17.42 16.25,23.87 -24.08,-3.85 -25.16,0.1 -16.25,-23.87zm181.11 269.28l-29.97 -14.16c-0.5,-42.4 -3.31,-10.34 12.31,-23.63 4.71,-12.96 0.13,-16.69 -4.86,-37.02 76.24,2.04 16.8,-14.56 72.27,-31.6 26.92,-8.26 52.13,-1.15 83.71,-12.56 6.5,-40.46 9.46,-49.45 -8.93,-76.38 -0.92,-1.34 -4.68,-1.59 -5.4,-4.94 -0.72,-3.35 -3.83,-3.05 -5.84,-4.45 41.87,-21.45 22.92,8.61 19.01,-51.71 -3.04,-47.12 22.27,-163.82 -8.48,-188.33 -37.39,-14.78 -196,16.72 -236.9,32.4 -74.88,28.69 -77.78,45.72 -113.29,67.01 -156.47,93.8 -221,281.75 -189.98,461.77 7.33,42.44 91.83,153.81 111.91,173.97 106.21,106.67 315.43,177.51 463.39,232.68 49.46,18.43 54.71,13.2 88.74,-12.13l1.62 43.39c52.53,18.19 112.61,48.17 99.12,113.67 -11.7,56.7 -54.67,57.33 -96.85,72.73 -9.4,3.44 -12.04,4.8 -20.95,8.96 -1.64,0.76 -5.67,5.91 -6.84,3.89 -1.19,-2.08 -4.74,2.46 -7.79,4.07l2.46 322.72c158.54,-5.44 375.06,-59.07 450.99,-186.69 21.79,-36.61 96.96,-54.35 97.35,-279.03 0.14,-74.59 -25.62,-144.19 -60.04,-201.51 -25.65,-42.7 -88.19,-92.85 -126.07,-121.76 -52.71,-40.19 -253.34,-176.55 -342.5,-142.46 -35.47,-20.49 23.3,14.38 -14.48,-13.76 -27.36,-20.38 -25.3,-9.22 -51.37,-24.65 -21.55,-12.73 8.22,-10.71 -65.56,-31.48 -57.9,-16.29 -82.55,-37.73 -106.75,-79.01z"/>
   <path class="fil0" d="M5363.27 1925.11c-36.42,-42.45 -3.59,-16.38 4.74,-21.9l-4.74 21.9zm208.05 -193.96c-7.32,23.76 2.57,10.98 -15.85,22.51 0.7,-34.46 -13.4,-14.42 15.85,-22.51zm-112.76 -8.15c21.63,16.21 30.86,15.88 -2.56,34.44 -17.65,-25.44 -18.55,-10.02 2.56,-34.44zm120.23 -33.41c26.98,12.98 14.71,-11.6 24.33,29.62 -35.91,-9.51 -19.86,8.99 -24.33,-29.62zm-55.23 12.35c8.13,17.4 7.2,7.63 3.8,27.95 -13.61,-9.25 -30.99,4.87 -3.8,-27.95zm106.51 -17.71c-2.24,-1.32 -4.18,-5.14 -4.5,-6.38l0 -13.83c-0.14,-4.03 3.15,-4.85 4.5,-7.38 25.8,51.94 8.21,14.82 0,27.59zm-122.8 -22.53c14.95,-18.58 -25.24,-1.52 20.48,-22.13 -9.63,27.99 8.65,16.81 -20.48,22.13zm193.31 -7.38c-30.37,-12 -12.97,6.79 -22.29,-23.67 28.09,10.48 13.54,-7.66 22.29,23.67zm-156.25 -16.73c-34.47,-16.72 -10.72,-9.58 0,-22.95l4.84 16.76c0.14,-1.75 -3.39,4.01 -4.84,6.18zm95.28 -39.32c16.67,19.93 11.44,4.36 8.05,32.86 -32.82,-9.82 -45.27,-15.99 -8.05,-32.86zm-137.76 7.74c-0.03,-1.48 -3.49,3.28 -5.17,4.98 -31.75,-40.03 -1.6,-27.48 0,-30.67l5.17 25.7zm147.99 -29.86c43.59,-22.1 7.11,-8.06 23.35,0 -48.17,34.51 -18.37,4.82 -23.35,0zm-95.98 18.29c-29.58,-38.85 -19.02,-33.71 9.52,-41.9 3.75,7.08 9.71,0.54 6.26,21.97 -5.11,31.74 -7.94,14.29 -15.78,19.93zm26.68 -58.16c-32.45,-14.86 -17.95,4.37 -22.61,-22.19 25.49,6.22 7.98,-8.6 22.61,22.19zm-41.06 -50.24c-4.88,20.4 16.85,7.07 -23.81,20.15 2.94,-27.14 2.62,-21.46 23.81,-20.15zm28.62 -2.64c-1.25,-2.68 -4.72,-1.65 -7.05,-2.52 2.02,-26.29 43.75,-50.77 57.61,0 -10.39,3.06 -12.13,5.22 -26.98,5.69l-23.57 -3.18zm-15.32 -28.92c-54.9,1.1 -20.84,4.76 -31.54,-26.95 36.96,11.1 20.15,-6.28 31.54,26.95zm-133.55 -12.93c13.62,1.8 31.3,2.34 43.47,7.05 27.93,10.81 19.82,15.74 24.41,22.75 -33.69,18.81 -49.46,-9.1 -67.88,-29.8zm217.7 -46.43c-0.9,-41.96 12.1,-12.2 15.24,-2.13 4.4,14.16 -14.9,17.83 -15.24,2.13zm-217.7 46.43l-22 -8.34 2.85 -69.31c12.92,-7.75 13.13,-12.12 19.63,-14.94 28.69,-12.42 -17.13,-4.36 11.02,-0.17 30.95,4.61 7.39,7.52 48.39,-1.51l-3.74 64.79c-45.47,-14.8 -1.25,-18.13 -53.78,-15.28l-2.38 44.76zm-141.71 -81.2c-4.54,-5 -19.41,-4.62 -14.32,-36.62 4.63,-29.04 22.9,-36.25 23.85,-37.04 20.22,34.39 21.57,43.56 -9.53,73.66zm28.69 -12.88c6.04,-22.7 -18.66,-6.43 13.84,-23.05 20.91,-10.7 18,-0.44 32.55,-3.94 28.55,-6.85 16.22,-15.17 54.12,-21.7l-26.32 49.62 -74.18 -0.94zm28.48 -51.21c-24.18,-21.09 -11.45,-2.69 -12.1,-33.97 32.29,10.3 20.72,-1.11 32.33,28.74l-20.23 5.23zm114.19 -15.35c-19.61,19.78 -12.94,-6.7 -12.58,-12.57 6.31,-0.22 -10.71,-23.46 12.81,2.94 7.44,8.36 8.57,0.77 -0.23,9.63zm-405.49 -24.94l-4.08 20.27c-36.18,-17.68 -5.4,-15.5 4.08,-20.27zm361.78 0.49c-45.25,-3.98 -17.39,9.87 -27.1,-27.55 29,12.93 17.26,-4.11 27.1,27.55zm-153.3 -40.19c38.63,-4.3 20.16,4.33 26.15,7.33 -13.42,42.12 -28.97,38.55 -57.67,9.52 5.46,-5.2 2.08,-13.57 31.52,-16.85zm-98.21 63.63c-16.3,-27.27 -12.22,-28.51 -5.82,-62.97l41.29 -0.21c-6.97,20.49 -6.29,14.02 -17.35,33.83l-13.98 23.99c-0.53,-1.4 -2.69,3.64 -4.14,5.36zm-216.65 -41.71c25.9,-22.07 -33.35,-12.97 25.52,-23.35 -10.5,22.81 2.94,11.11 -25.52,23.35zm512.03 -7.72c-33.46,-11.29 -7.17,-14.13 0,-23.96 7.19,11.43 10.48,6.09 0,23.96zm-438.3 -43.71c9.27,21.44 10.91,15.2 -9.53,24.11 -18.44,-21.09 -5.33,-16.72 9.53,-24.11zm64.97 8.58l-19.27 3.52c-6.46,-12.86 -18.34,25.36 -4.58,-30.73l30.93 1.45c7.92,43.7 3.13,12.55 -7.08,25.77zm97.74 -0.32c9.97,-23.5 19.1,-24.86 85.03,-49.99 57.78,34.55 67.34,46.22 59.36,69.55 -17.85,8.29 -18.82,1.88 -59.59,-30.08l-37.05 28.39 -47.74 -17.87zm123.37 -38.11c13.41,-12.59 -6.13,-6.76 17.13,-9.59 47.31,-5.73 -10.55,-12.37 11.15,9.59 -29.68,14.8 -9.18,9.91 -28.28,0zm-185.57 0c14.04,-10.17 -4.43,-6.58 20.43,-8.99l12.5 8.99c-12.96,9.77 1.37,5.85 -18.69,7.53 -45.96,3.83 13.4,9.55 -14.24,-7.53zm71.01 -39.87c8.77,12.01 27.54,-0.06 0,26.5 -34.14,-33.61 -0.06,-26.4 0,-26.5zm-39.77 -0.45c5.01,41.5 6.63,-5.3 -11.13,9.49l3.25 -23.51c11.04,11.37 5.5,-5.62 7.88,14.02zm-271.56 2.21c0.26,-17.86 -7.73,-3.47 10.38,-4.56 25.38,-1.51 -10.84,37.6 -10.38,4.56zm73.84 -38.08c8,28.66 9.67,16.37 -0.72,36.96 -20.26,-16.12 -9.04,10.92 -11.69,-17.97 -2.97,-32.59 5.79,-11.92 12.41,-18.99zm-109.72 22.6c-35.79,-11.26 -21.14,12.12 -34.22,-32.08 42.3,7.44 22.81,-7.18 34.22,32.08zm109 -41.89c-22.99,-30.15 -3.8,-15.66 0,-23.5 34.13,52.55 6.9,15.79 0,23.5zm-95.03 -9.32c32.48,-15.53 41.12,-0.79 50.39,30.99 -18.01,-3.49 -16.53,1.27 -34.69,-9.05 -27.49,-15.66 -7.9,-5.11 -15.71,-21.94zm46.02 -19.06c-2.34,-31.38 11.41,-9.5 14.91,0.83 5.67,16.73 -13.74,14.95 -14.91,-0.83zm-36.74 -49c3.36,3.93 20.24,-16.01 12.38,28.92 -4.84,27.65 -11.3,13.23 -21.91,16.25 -16.08,-29.21 -6.01,-29.9 9.53,-45.18zm-47.63 21.23c10.39,25.74 9.3,14.5 -9.54,31.62 -7.15,-12.61 -9.76,1.35 -6,-20.03 4.22,-24.01 -0.21,-4.33 15.55,-11.59zm-42.54 -5c-39.06,2.1 -14.04,6.41 -29.34,-14.88 13.79,-4.39 -11.04,-20.22 23.3,-0.22 13.84,8.05 2.96,3.9 6.04,15.1zm208.73 -10.22l-13.75 13.65c-1.51,-1.84 -2.99,-4.93 -3.88,-5.97 -27.32,-32.39 0.62,-13.36 -24.15,-17.72l-33.59 19.22c8.45,-56.58 28.46,-53.11 83.34,-64.49l-7.98 55.32zm-177.02 -44.06c27.14,15.55 16.1,-3.74 20.31,30.9 -33.09,-11.8 -17.49,7.14 -20.31,-30.9zm86.8 4.47c-46.33,3.2 -26.28,7.37 -41.28,-26.08 44.35,4.4 26.62,-8.64 41.28,26.08zm29.94 -48.53c26.8,11.39 12.51,-3.49 24.86,27.83 -39.96,-8.05 -29.17,14.84 -24.86,-27.83zm-125 -18.21l4.89 9.89c13.37,11.16 11.5,-19.27 13.44,25.54l-27.82 -0.09c-20.33,-27.46 -13.52,-10.86 -11.07,-49.61 37.05,4.55 10.67,-1.7 20.57,14.28zm185.24 15.93c-0.29,-2.69 6.05,-18.82 13.1,1.86 11.89,34.85 -12.03,7.98 -13.1,-1.86zm-137.52 -45.69c25.74,15.01 32.8,13.34 1.57,32.63 -15.75,-21.3 -14.76,-7.15 -1.57,-32.63zm66.64 -21.02c8.68,11.64 13.96,10.6 0,25.97 -26.22,-26.74 -2.4,-22.41 0,-25.97zm-123.86 -6.6c25.09,11.61 31.65,2.51 9.52,32.57 -33.73,-11.69 -28.61,-8.69 -9.52,-32.57zm163.97 15.95c18.61,-24.05 -13.32,-6.59 24.11,-23.91 -13.36,27.88 5.14,18.84 -24.11,23.91zm96.45 -18.87c26.12,-16.3 6.21,-11.25 23.22,0 -29.17,24.26 -16.23,6.5 -23.22,0zm-197.59 11.76c-9.55,-39.09 3.44,-54.93 32.73,-67.74l19.7 17.86 -44.78 45.35c-1.19,-2.05 -5.08,3.08 -7.65,4.53zm132.29 -65.04c-21.97,-2.47 -10.23,3.79 -20.73,-13.76 23.34,3.88 12.5,-10.67 20.73,13.76zm-174.97 3.18c4.85,-35.94 1.06,-25.38 29.86,-34.91 -5.65,36.85 4.05,28.4 -29.86,34.91zm75.13 -60.66c25.98,13.31 32.6,15.01 0,37.9 -11.72,-20.8 -17.32,-7.05 0,-37.9zm292.38 30.51c26.42,-22.47 -28.49,-11.5 21.09,-22.74 -7.7,26.28 6.99,11.41 -21.09,22.74zm-92.28 -16.55c-26.11,-43.79 -6.08,-11.73 0,-24.68 6.25,12.89 11.72,10.15 0,24.68zm-155.67 -1.83c16.59,-20.99 -34.48,-32.17 28.5,-23.38 -10.17,28.77 8.94,12.07 -28.5,23.38zm-93.07 -41.88c10.83,14.5 22.67,-2.61 2.9,32.21 -15.42,-19.13 -16.33,-8.34 -2.9,-32.21zm209.31 13.98c-19.31,-25.81 -10.85,-23.89 0.77,-53.88 9.69,10.71 13.33,-19.17 12.03,27.09 -0.48,17.34 -5.55,15.13 -12.8,26.78zm-148.29 -35.43c18.66,43.9 0.31,22.37 -2.85,27.07 -26.27,-26.48 -3.08,-20.5 2.85,-27.07zm294.68 -0.02c0.59,-20.66 21.19,13.91 21.19,-66.7l-0.08 -98.64c-102.67,-32.13 -233.71,9.9 -331.7,66.14 -22.19,12.74 -28.05,13.79 -50.49,25.79 -52.48,28.07 -132.73,136.73 -158.54,194.36 -23.97,53.55 -25.14,189.36 -21.38,250.74 2.08,33.9 80.27,153.9 104.72,177.13 49.26,46.85 97.55,77.38 168.34,117.03 69.03,38.67 113.55,62.38 197.68,89.48 144.14,46.46 138.87,60.92 190.54,27.54 1.58,1.86 2.45,5.18 3.11,6.61l52.84 61.31c150.2,98.96 -33.01,160.27 -76.1,178.25l0.43 318.37c155.2,-9 293.7,-46.49 392.07,-118.88 42.12,-31.01 35.06,-40.06 60.06,-73.1 31.06,-41.05 23.42,3.4 56.1,-67.9 93.05,-203.01 19.92,-399.43 -151.68,-527.14 -61.66,-45.9 -254.04,-175.81 -344.9,-139.68l-19.2 -21.32c-6.84,-4.52 -8.55,-3.59 -19.73,-7.85 -63.38,-24.19 -16,-14.65 -61.2,-34.29 -8.37,-3.63 -12.17,-4 -21.54,-6.73 -140.83,-41.1 -126.04,-111.98 -137.49,-152.25 83.01,-1.64 6.76,-29.74 106.84,-36.68 74.05,-5.14 61.98,-2.6 62.12,-75.87 0.04,-60.27 12.3,-52.69 -22,-85.75z"/>
   <path class="fil0" d="M2614.09 1865.76c-2.66,30.77 5.68,6.9 -21.15,21.43 14.82,-33.24 -14.41,-23.47 21.15,-21.43zm-85.54 -151.56c29.78,10.63 14.07,-2.72 25.03,24.51 -58.99,-12.91 -1.7,-1.3 -25.03,-24.51zm48 -87.44c-16.83,28.73 -4.44,28.64 -30.29,12.9 18.5,-23.96 -11.67,-12.64 30.29,-12.9zm-212.6 6.54c11.23,-5.12 -15.92,-27.07 23.84,0 -42.45,31.42 -15.79,3.54 -23.84,0zm74.11 -36.54c30.81,39.46 3.7,22.33 0,27.54 -19.66,-24.12 -12.77,31.53 -8.12,-11.67 2.02,-18.95 -3.26,-6.8 8.12,-15.87zm-44.33 -15.01c-14.67,37.91 7.32,9.58 -23.99,25.13 7.12,-36.68 -22.46,-21.6 23.99,-25.13zm177.72 -109.54c31.66,39.79 4.45,14.22 0,22.36 -1.2,-2.07 -32.12,5.9 0,-22.36zm-409.73 -25.67c1.53,1.57 4.65,1.58 4.68,4.6l-4.68 25.89c-1.04,-1.67 -42.59,15.96 0,-30.48zm428.78 -33.75c11.31,27.02 12.4,21.75 -18.15,27.68 1.05,-43.64 -9.5,-18.35 18.15,-27.68zm-272.19 -29.96c37.81,14.04 10.69,-7.58 24.32,24.08 -15.53,-3.87 -4.76,8.87 -15.94,-6.4 -1.2,-1.63 -6.33,-15.24 -8.37,-17.67zm55.6 -7.21l22.07 -65.07 16.52 56.03c70.76,-28.38 13.67,-19.55 43.73,18.8 10.02,12.77 11.18,11.13 19.21,20.14 44.59,50.08 -23.49,25.09 39.93,75.32 -21.93,49.95 -14.05,-12.13 -14.4,82.4l-34.61 -17.8c-1.52,1.43 -3.68,2.24 -4.42,5.9 -0.89,4.38 -7.48,10.23 -8.9,12.18 -6.85,9.42 1.57,4.32 -15,20.3l-57.06 -26.76c-2.02,-68.81 41.77,-54.66 6.16,-110.21 -24.71,13.97 -24.89,67.5 -37.39,98.09 -80.13,-1.32 -38.74,-26.13 -97.85,-39.04l-25.97 -5.99c94.75,-65.18 56.67,12.18 107.28,17.85 25.21,-48.16 -4.12,-49.56 -29.07,-72.61 -47.5,13.33 -26.73,39.42 -76.78,8.06l-7.08 -54.7c15.49,5.68 4.19,1.13 15.61,9.78l21.1 15.09 32.7 -27.8c16.79,23.98 22.38,32.04 53.06,50.81 82.81,-49.77 49.32,-10.82 123.65,-1.78 -13.69,-30.67 -33.75,-48.59 -78.57,-52.77 -12.41,15.07 6.82,8.71 -29.35,15.11 6.27,-50.72 4.06,-18.84 15.41,-31.31zm276.22 -43.39c10.29,13.77 24.56,-27.74 6.16,33.34l-25.1 -12.24c-46.27,-11.03 -20.26,0.63 -35.62,-31.85l54.55 10.75zm-124.75 -24.01c-2.52,43.03 6.33,37.73 -37.22,37.4 5.83,-32.43 4.72,-31.02 37.22,-37.4zm-192.14 20.09c26.97,7.32 14.61,-24.18 21.72,30.54 -23.57,-7.8 -33.29,1.49 -21.72,-30.54zm354.61 -24.54c36.49,15.14 25.09,-12.28 24.87,31.15 -27.59,-7.88 -14.57,10.99 -24.87,-31.15zm-127.23 49.01l11.02 -0.71c42.16,0.88 8.37,-3.01 23.53,14.42 -15.69,18.89 6.79,6.43 -20.86,9.94l-25.15 1.5 -65.28 11.57c18.34,-33.91 18.88,-21.48 56.17,-36.01 7.75,-44.68 -4.16,-30.47 21.87,-52.62 12.27,16.02 14.45,-4.06 -1.3,51.91zm-103.51 -75.51c0.03,0.06 30.28,36.36 -6.79,26.92 -34.74,-8.84 -1.93,-20.95 6.79,-26.92zm142.44 3.46c12.69,-7.83 11.27,-19.94 40.48,0 -44.43,38.92 -40.31,0.2 -40.48,0zm-28.1 -49.58c4.49,8.02 22.32,-4.55 0.06,28.58 -31.67,-26.32 -2.44,-25.39 -0.06,-28.58zm171.51 7.25c-37.98,-10.2 -7.03,-14.6 0,-22.73 25.42,41.22 8.26,8.23 0,22.73zm-133.39 -71.28c-31.84,-32.71 -1.54,-22.03 0,-24.69l7.62 12.87c10.68,41.94 6,-4.47 -7.62,11.82zm38.1 -205.86c-27.51,-16.88 -4.91,-16.2 0,-23.49l0 23.49zm-66.69 -126.71c16.79,22.63 19.41,-1.33 0,28.79 -5.96,-5.96 -14.9,-8.9 0,-28.79zm-513.56 405.73c-0.2,33.71 -2.41,75.26 -0.83,107.98 3.37,69.14 4.04,21.37 25.12,65.87 -23.2,16.44 2.01,-4.44 -22.55,9.54l-1.68 135.07c35.19,13.46 11.45,12.89 57.17,25 28.42,7.52 36.98,7.21 55.37,21.8 44.67,35.44 149.65,197.34 194.43,262.78 61.16,89.35 58.28,111.87 196.81,114.12 70.02,1.12 238.92,6.9 293.77,-8.15 15.72,-66.68 -20.45,-89.84 -50.63,-126.55 -25.46,-30.96 -47.09,-65.34 -71.73,-99.81 -31.89,-44.59 -122.25,-159.09 -128.12,-219.45 55.43,-46.64 98.93,-64.81 146.61,-124.58 132.14,-165.61 144.4,-427.94 65.8,-616.2 -51.42,-123.16 -73.92,-108.95 -118.43,-149.14 -56.58,-51.08 -60.73,-68.12 -159.7,-97.93 -139.03,-41.89 -327.53,-45.09 -481.29,-19.22l1.12 337.41c179.32,-9.52 449.98,-37.37 441.93,182.87 -3.44,93.73 -56.66,164.12 -133.83,187.52 -96.57,29.27 -207.12,0.81 -309.34,11.09z"/>
   <path class="fil0" d="M580.55 1902.98c-9.11,-0.65 -9.72,7.2 -33.85,-12.4 6.86,-4.04 19.38,-52.13 33.85,12.4zm-210.14 -127.27c-3.64,-2.05 -15.61,-14.35 3.97,-21.49l-3.97 21.49zm80.37 -155.38c18.1,-31.55 -13.55,-7.71 29.44,-25.08 -14.94,32.55 12.15,26.85 -29.44,25.08zm-125.25 -39.59c33.59,14.16 27,-12.9 23.72,30.91 -33.33,-10.79 -15,-2.7 -23.72,-30.91zm-30.46 4.23c-5.35,37.39 9.08,23.98 -28.56,31.74 4.49,-29.39 -0.35,-19.58 28.56,-31.74zm-23.77 -13.89c27.27,-22.75 -28.13,-7.72 25.16,-24.1 -14.28,28.65 13.8,7.1 -25.16,24.1zm-6.82 -95.36c-1.28,-0.15 -5.25,0.38 -6.17,-1.92 -0.95,-2.37 -4.16,-1.59 -6.19,-2.46 18.29,-34.67 47.79,-41 74.12,3.21l-61.75 1.17zm98.53 -42.5c0.87,-15.75 -5.02,-3.76 9.78,-4.03 37.19,-0.67 -1.53,-25.51 3.95,2.41 4.87,24.83 -14.12,8.56 -13.73,1.62zm-61.6 -24.42l-33.42 14.08c3.18,-23.99 -7.44,-15.56 10.34,-24.98 29.33,-15.52 11.88,2.1 23.08,10.9zm-135.36 47.1c-35.94,-9.63 -50.53,-19.04 -58.15,-48.7 43.38,-10.73 46.44,9.1 58.15,48.7zm4.44 -41.41l9.36 -19.65c7.05,12.36 8.39,-4.33 3.73,15.15 -3.97,16.51 -1.14,1.7 -13.09,4.51zm27.83 -70.1c47.98,31.36 14.37,3.19 14.37,31.84 -18.35,-12.44 -16.89,22.29 -14.37,-31.84zm117.3 -28.69c-8.97,35.14 8.18,22.37 -28.82,30.68 -1.71,-35.32 -0.83,-23.96 28.82,-30.68zm-145.18 -13.01l-38.7 65.2 -45.4 -13.42 84.1 -51.78zm0 0c10.03,-25.75 4.13,-19.66 28.48,-33.14 -11.67,34.32 0.53,19.74 -28.48,33.14zm-53.79 -69.56c-41.59,24.9 -35.11,3.18 -38.24,0.69 22.6,-29.66 38.24,-0.69 38.24,-0.69zm201.49 -37.88c7.62,-19.87 3.26,-13.91 13.47,-29.51 12.21,-18.66 15.3,-16.01 19.75,-19.94 18.26,38.86 4.51,42.57 -33.22,49.45zm-233.58 -38.25c12.96,7.52 14.64,-6.82 13.59,15.93 -1.6,34.71 1.73,1.87 -13.59,13.57 -24.39,-29.09 -10.31,-14.33 0,-29.5zm50.58 -17.6c-40.15,-3.91 -15.6,4.7 -30.79,-13.36 13.12,-3.7 -0.04,-7.12 16.46,-1.66 27.51,9.12 0.94,-3.55 14.33,15.02zm177.4 -68.23c33.36,-15.24 26.66,-10.51 24.64,13.84 -18.73,2.88 -13.54,6.7 -24.64,-13.84zm-158.23 16.05c-9.54,16.13 10.85,3.33 -13.06,9.58 -14.24,3.74 -11.7,4.5 -13.94,-4.96 -15.74,-17.04 -11.44,15.01 -13.11,-20.68 64.1,-35.23 36.04,-29.94 71.97,-41.16 -4.56,28.26 5.42,8.66 -10.28,37.5 -16.79,30.82 -5.25,7.89 -21.59,19.71zm-72.43 -39.11c-28.94,-11.92 -9.21,2.01 -16.85,-23.68 30.2,9.04 23.42,-12.89 16.85,23.68zm53.26 91.29c101.91,-11.72 -5.63,-38.99 143.54,-6.47 -13.79,-46.31 -24.31,-52.15 -32.76,-106.56 -68.44,-7.89 -79.33,3.31 -61.51,-56.07 49.8,24.56 -8.71,-5.1 28.39,22 14.8,10.79 -4.5,1.47 15.44,9.37 21.89,8.68 0.6,-16.9 27.36,12.55 31.83,35.04 22.63,42.32 18.88,87.25 23.15,9.65 21.12,6.7 46.33,28.71l-22.53 26.39 20.19 92.31c-38,2.99 -15.28,-7.35 -46.9,0.86 -17.42,4.53 -15.19,10.77 -43.17,11.48l52.52 -75.72c-37.47,-21.1 -117.38,-27.7 -145.79,-46.11zm203.66 -163.52c2.66,-1.45 -10.78,-29.42 28.04,0 -30.99,29.08 -20.92,4.91 -28.04,0zm-56.45 28.59c5.71,-62.84 25.27,-66.9 25.87,-69.92 0.56,-2.83 3.35,-2.63 5.03,-3.94 15.29,36.6 -3.54,21.27 1.8,53.43 7.14,43 9.1,-2.94 19,51.76l-51.69 -31.33zm-176.61 -41.31c-8.88,-12.17 -7.55,-10.06 -2.13,-25.77 2.1,2.22 41.76,-20.33 2.13,25.77zm255.14 -45.31c9.7,6.79 15.85,-21.02 13.9,17.57 -1.62,31.97 -0.53,3.53 -17.94,12.1l4.05 -29.67zm-170.89 23.37c-36.38,-2.6 -13.76,6.7 -39.14,-12.98 1,-14.92 22.83,-35.89 39.14,12.98zm228.12 -42.96l-11.86 -10.09 17.16 -19.33c0.39,-0.43 12.85,-15.34 13.7,-16.46 25.49,8.47 43.62,9.02 51.96,32.17 -37.4,7.81 -33.44,-4.89 -70.96,13.72zm-99.94 -26.08c-21.09,-26.16 -0.22,-19.11 4.61,-25.9 36.98,40.66 3.09,18.81 -4.61,25.9zm-37.39 -71.46c12.55,-5.94 -26.26,-27.19 30.5,-0.98l-0.07 31.52c-27.93,3.92 -8.73,7.82 -28.31,-7.32l-2.12 -23.22zm125.81 -36.45c0.38,0.27 35.22,5.8 -1,47.13l31.01 -13.53 18.15 -2.7 3.45 23.25 -41.85 18.22 -36.2 14.79 7.48 -26.83 14.97 -9.56c-2.6,-1.82 -8.91,-9.8 -9.61,-14.02 -0.72,-4.36 -2.16,-6.34 -4.22,-8.9l-1.04 -34.92 18.85 7.07zm195.87 43.75c-36.94,0.27 -32.45,-11.19 -40.42,-42.18 35.74,2.77 48.23,5.78 40.42,42.18zm110.97 -64.64c15.44,29.67 15.87,10.52 3.99,44.94 -13.64,-11.11 -14.19,15.07 -19.07,-23.37 -2.98,-23.44 8.77,-16.07 15.09,-21.57zm-263.94 6.85c35.79,5.92 18.64,-5.51 28.26,27.7 -37.9,-5.57 -25.98,9.54 -28.26,-27.7zm208.68 -3.05c-15.26,21.18 -14.71,22.77 -47.38,9.54 13.19,-14.22 -1.17,-40.92 47.38,-9.54zm-126.09 11.18c-33.19,-8.35 -36.38,-11.64 -47.93,-40.3l51.01 -6.35 -3.08 46.66zm26.39 -50.28c11.84,-8.79 -25.6,-31 26.87,-3.7 7.26,43.35 2.08,12.33 -7.91,25.15l-20.51 2.82 1.55 -24.27zm-194.03 26.39c3.19,-40.95 -10.9,-21.33 29.65,-32.27 -16.1,32.09 11.65,14.9 -29.65,32.27zm323.76 -55.67l26.33 -7.08 -10.71 24.27c-14.64,13.98 19.41,9.54 -18.99,12.02 -14.95,-19.68 -24.07,-22.62 -28.54,-45.4 24.51,-1.57 25.58,7.83 31.91,16.19zm-191.47 1.69c12.99,-9.02 -4.54,-19.92 23.86,0 -8.72,7.74 4.85,25.16 -23.86,0zm246.54 171.38c7.84,-182.03 -8.72,-153.12 -12.51,-192.88 -3.09,-32.49 13.85,-3.25 13.85,-45.21l-0.22 -133.98c-130.73,5.87 -360.68,91.12 -459.72,172.17 -40.59,33.23 -62.82,58.06 -99.43,100.58 -140.81,163.57 -250.41,538.89 -140.22,606.02 -26.02,21.93 -26.59,17.05 -21.35,57.35 8.08,61.99 17.33,52.35 33.46,93.75l11.56 34.94c4.93,12.72 18.17,46.66 25.07,60.52 96.83,194.68 377.95,402.58 651.09,405.96l-4.78 -377.77c-135.89,-44.23 -155.61,-35.99 -244.03,-125.61 -66.04,-66.93 -94.35,-146.52 -104.06,-267.53 -7.83,-97.62 42,-213.47 104.2,-262.36 162.76,-127.94 117.1,-96.06 247.08,-125.96z"/>
   <path class="fil0" d="M1856.83 1843.57c-14.81,-11 -0.05,-24.13 0,-24.21 22.31,44.8 5.99,15.93 0,24.21zm18.79 -313.12c5.77,7.03 23.05,-4.87 1.83,23.12 -8.64,-14.18 -7.07,-7.87 -1.83,-23.12zm-58.5 -75.65c-4.61,21.11 8.16,30.13 -24.36,14.11 3.07,-13.26 9.87,-10.63 24.36,-14.11zm49.24 -21.01c8.53,11 16.12,8.49 0,32.84 -13.26,-14.54 -5.95,0.46 -7.72,-20.77 -0.1,-1.27 2.93,-2.96 2.97,-6.18 0.03,-3.57 3.22,-3.9 4.76,-5.88zm34.17 -6.54c20.47,-22.41 -32.48,-9.27 24.39,-24.36 -14.37,33.03 12.43,10.8 -24.39,24.36zm34.67 -33.92c-39.11,-4.8 -28.97,2.41 -41.6,-29.35 32.53,-20.29 39.67,-3.81 41.6,29.35zm-3.07 -55.4l23.9 0c-2.23,1.53 -5.17,4.67 -6.35,5.04 -0.94,0.29 -5.21,1.85 -6.14,2.08 -41.33,10.15 6.03,6.93 -11.4,-7.11zm-29.93 -20.49l-7.25 13.14c-8.49,-9.24 -15.82,-11.31 0,-33.14 8.27,13.52 5.76,1.04 7.25,20zm-2.73 -39.35c29.62,-21.33 -31.07,-16.54 21.06,-21.94 -7.38,25.1 6.34,9.02 -21.06,21.94zm-118.75 -41.37l0.74 30.47 -18.79 -12.84c-10.41,-16 -13.41,24.82 -9.21,-30.44 38.3,-1.52 15.49,-1.1 27.26,12.81zm33.84 -33.61c38.57,13.32 19.82,-16.21 28.03,33.56 -34.83,-14.56 -18.42,7.99 -28.03,-33.56zm-48.43 -14.08c-40.34,-9.25 -16.7,5.22 -23.57,-21.29 23.75,8.57 12.11,-3.74 23.57,21.29zm71.65 -7.8c-42.26,-15.44 -4.54,-18.8 0,-24.09 24.6,44.28 8.3,9.05 0,24.09zm66.69 -23.63l0 -22.17c7.51,17.64 13.54,-0.61 0,22.17zm-133.39 -105.98c10.2,18.48 19.19,-1.26 0,26.86 -33.25,-28.36 -2.49,-23.9 0,-26.86zm-52 -9.07c10.46,-4.86 -14.12,-25.73 24.12,0 -2.05,1.79 -4.51,5.44 -5.65,5.88 -50.42,19.13 -0.84,8.14 -18.46,-5.88zm177.42 -57.18c22.46,-16.28 5.44,-14.66 28.83,0 -10.67,8.2 -8.84,16.75 -28.83,0zm-120.09 17.05c21.55,-22.88 -29.2,-21.24 31.79,-28.5 -12.52,32.27 5.03,16.12 -31.79,28.5zm99.37 -86.87c-39.96,-7.58 -34.81,-3.84 -51.05,-40.19 42.65,5.84 39.42,3.24 51.05,40.19zm-43.5 -96.99c42.38,3.32 74.29,12.82 61.69,51.83l-44.08 -22.64c-20.36,-10.55 -16.07,-1.08 -17.61,-29.19zm-19.7 -71.41c2.44,-1.17 5.56,-4.17 6.79,-4.5l11.95 0c0.81,-2.38 3.34,3.07 5.11,4.5 -44.12,34.13 -14,5.95 -23.85,0zm146.69 502.1c39.94,-24.17 27.96,-31.16 24.41,-82.83l4.6 -571.71c1.62,-29.11 2.52,-61.58 -5.04,-88.02 -462.01,-17.88 -358.74,-3.99 -377.75,211.87 -6.98,79.36 10.26,263.46 7.98,344.2 -1,35.81 -10.06,44.48 -7.32,94.29 9.19,167.37 -4.53,203.2 -4.21,342.84 1.21,518.99 -32.53,485.46 187.91,477.87 68.18,-2.34 138.39,6.86 190.31,-19.05 15.41,-59.01 8.54,-444.34 8.5,-554.11 -0.03,-128.03 14.53,-113.71 -29.39,-155.36z"/>
   <path class="fil0" d="M1065.97 1784.75l0 -23.5c4.17,9.25 28.74,-17.9 0,23.5zm67.07 -9.23c-32.39,-6.29 -11.64,6.33 -24.04,-23.27 28.43,11.77 17.97,-6.85 24.04,23.27zm-105.18 -57.66c9.73,6.77 19.55,-2.71 16.27,27.5 -3.27,30.12 -13.58,18.92 -16.27,21.17 -13.57,-28.44 -11.37,-24.62 0,-48.67zm129.63 62.57c6.46,-39.42 2.61,-51.89 35.29,-44.67 4.66,24.91 -6.26,30.45 -35.29,44.67zm65.04 -86.44c36.75,-2.11 34.7,8.66 45.78,39.08 -40.88,-4.11 -43.94,1.19 -45.78,-39.08zm-61.27 -48.79c12.86,24.79 10.21,6.25 0.06,23.8 -30.15,-22.66 -7.46,-15.22 -0.06,-23.8zm60.6 -10.75c16.38,15.74 10.63,-16.15 15.54,25.95 -19.76,3.58 -11.02,7.53 -37.77,-6.04l-3.74 -31.91 25.98 12.01zm34.69 -30.37c5.25,7.2 6.55,-1.35 8.9,19.24 3.29,28.68 1.68,4.16 -7.37,17.36 -24.97,-20.62 -20.99,-9.31 -1.53,-36.61zm-187.45 32.4c21.16,-22.91 -32.94,-6.73 28.47,-27.01 -15.94,34.45 13.62,13.49 -28.47,27.01zm-106.97 -41.24c10.41,39.7 12.52,41.09 -14.25,66.72l-15.41 -45.66 -109.05 15.6 1.56 384.18c169.68,-9.38 284.62,-68.96 397.69,-140.38 87.48,-55.26 233.79,-184.46 222.59,-301.26 -92.08,-65.16 -173.77,-69.6 -200.32,-82.15 -20.61,-9.75 -34.71,-30.62 -59.02,-38.43 -84.74,-27.22 -95.96,80.41 -223.8,141.39z"/>
   <path class="fil0" d="M1313.71 802.73c16.24,19.54 13.68,-30.53 9.36,13.35 -2.73,27.7 4.16,2.76 -9.36,20.5 -18.69,-25.85 -12.82,29.67 -8.74,-14.17 2.27,-24.19 -7.27,-4.51 8.74,-19.68zm-47.63 -35.63c24.49,14.3 27.92,15.25 9.52,45.87 -1.55,-1.6 -8.7,7.16 -16.62,-21.89 -12.57,-46.17 -1.99,-11.4 7.1,-23.98zm-21.54 -20.33c-38.4,-45.11 2.14,-33.75 2.48,-34.33 21.8,15.49 18.63,-13.77 14.14,20.54 -2.92,22.23 -4.8,6.28 -16.61,13.79zm-394.37 -56.77c36.3,-35.12 30.82,-3.84 35.17,0 -20.67,12 -3.98,20.77 -35.17,0zm130.07 -44.08c-35.42,-12.97 -5.41,-16.51 0,-24.18 24.29,45.15 0,24.18 0,24.18zm63.64 -55c-11.51,44.25 5.75,22.31 -22.18,29.03 1.3,-36.08 -11.82,-13.43 22.18,-29.03zm-220.5 242c25.44,49.56 43.82,6.1 165.33,77.29 21.84,12.79 54.34,32.62 72.62,50.94 28.17,28.23 27.42,49.09 59.91,64.58 66.25,31.58 127.02,-27.02 177.48,-44.63 288.68,-100.74 117.63,-140.86 49.77,-250.54l-59.08 -53.99c-0.8,-0.81 -10.77,-14.6 -12.41,-16.83 -40.93,-55.69 -224.58,-158.06 -318.19,-151.21 -1.9,0.13 -4.69,0.17 -6.49,0.4 -27.59,3.52 -16.52,-5.77 -40.16,21.71 0,-3.18 -0.04,-18.35 -0.52,-20.51 -5.31,-23.73 -3.07,-12.43 -7.64,-21.51l-80.77 -2.79c0.57,65.56 -6.94,80.78 7.72,140.42 7.98,32.44 -8.44,10.87 -7.63,111.32 0.26,31.78 0.18,63.57 0.06,95.35z"/>
   <path class="fil0" d="M4997.8 1834.84c-2.74,42.94 7.98,14.21 -22.47,36.35 6.95,-34.15 -7.05,-21.31 22.47,-36.35zm-354.98 -283.59c-45.53,47.39 12.4,168.45 34.44,205.86 76.31,129.67 113.23,110.35 193.96,168.43 17.6,12.66 -12.96,-3.28 17.52,11.56 20.48,9.97 76.6,20.65 103.71,27.39 61.85,15.36 147.55,43.71 213.44,35.75 1.05,-81.81 5.04,-182.53 1.01,-262.6 -0.94,-18.32 1.06,-14.79 -4.9,-30.47 -12.55,-33.15 -33.31,-36.4 -55.53,-40.64 -83.32,-15.92 -54.7,-2.42 -154.24,-100.27 -35.14,-34.55 -41.26,-34.29 -105.14,-32.61 -49.72,1.3 -217.81,-9.95 -244.27,17.6z"/>
   <path class="fil0" d="M6294.13 1834.87c19.1,15.99 39.93,0.36 2.93,31.72l-2.93 -31.72zm174.43 -66.17c28.86,31.3 6.32,19.16 0,26.72 -8.91,-16.07 -20.03,-5.58 0,-26.72zm42.16 -92.84c-215.24,-10.41 -128.81,-139.1 -298.97,-145.24 -57.55,-2.08 -157.92,-2.54 -212.14,4.05 -124.13,15.08 -27.89,215.81 40.7,288.62 88.69,94.15 76.84,54.8 128.6,89.52 35.19,23.61 -10.19,5.27 34.33,24.14 35.1,14.87 252.47,73.59 306.86,58.44l0.62 -319.54z"/>
   <path class="fil0" d="M6908.03 813.87c18.93,-15.01 1.7,-20.8 24.31,0 -35.68,28.97 -20.81,2.59 -24.31,0zm-263.77 -47.4c-20.85,-19.07 -15.43,25.87 -13.01,-12.74 1.76,-28.36 -3.67,-4.38 8.83,-19.25l4.18 31.99zm200.52 -58.74c36.8,12.1 10.66,-7.13 25.37,27.27 -33.38,-12.77 -8.53,-4.14 -25.37,-27.27zm-157.06 -0.02c2.34,2.91 35.66,-19.2 1.77,26.61 -8.47,-15.12 -15.42,-5.92 -1.77,-26.61zm432.88 231.99c13.03,-46.74 -23.11,-148.24 -47.86,-187.12 -13.09,-20.57 -11.52,-12.01 -23.48,-33.35 -22.68,-40.44 -16.66,-52.29 -86.04,-104.58 -81.99,-61.8 -239.29,-124.47 -371.64,-132.07 -7.21,81.94 -1.81,180.84 -2.7,265.03 -1.36,129.66 53.16,55.27 126.98,142.88 58.81,69.79 36.38,101.55 171.94,94.23 72.35,-3.91 196.92,13.45 232.8,-45.02z"/>
   <path class="fil0" d="M5594.98 827.03c2.15,-2.34 7.33,-16.41 8.57,-18.02 11.96,-15.46 1.55,-2.86 16.78,-4.75 -14.09,25.75 7.35,8.5 -25.36,22.77zm-269.81 -96.01c21.67,30.68 15.68,10.91 0,34.72 -12.23,-11.01 -8.17,5.3 -10.59,-18.1 -3.27,-31.65 6.9,-12.94 10.59,-16.61zm232.35 1.64c-38.13,-6.71 -15.87,7.34 -25.54,-26.63 32.67,16.06 11.85,-10.98 25.54,26.63zm-272.89 93.21c201.1,58.42 102.05,111.6 187.53,146.28 41.42,16.81 294.56,11.59 316.46,-8.84 45.49,-37.87 11.19,-143 -13.11,-189.99 -62.19,-120.27 -143.41,-187.37 -277.13,-236.91 -87.25,-32.33 -102.74,-44.32 -213.93,-53.19l0.17 342.65z"/>
   <path class="fil0" d="M546.7 1890.58c24.13,19.6 24.74,11.75 33.85,12.4 -14.47,-64.53 -26.98,-16.43 -33.85,-12.4z"/>
   <path class="fil0" d="M370.41 1775.71l3.97 -21.49c-19.57,7.14 -7.6,19.44 -3.97,21.49z"/>
   <path class="fil0" d="M10464.16 1852.19c18.79,9.58 27.05,-4.81 9.53,26.58 -19.01,-8.5 -26.84,-1.71 -9.53,-26.58zm114.13 -44.56c24.87,29.34 13.12,8.98 -0.84,25.81 -13.84,-42.53 3.37,-3.09 0.84,-25.81zm-199.88 -46.34c25.87,15.02 26.97,9.58 12.17,44.87 -7.15,-5.23 -13.77,4.86 -19.61,-21.68 -6.16,-27.98 6.22,-21.71 7.44,-23.19zm168.72 -3.24c-1.92,-36.96 19.06,-12.41 16.56,-1.86 -5.29,22.37 -16.49,3.38 -16.56,1.86zm-491.73 -2.74c34.99,0.98 10.01,-7.81 26.96,19.99l-26.96 -19.99zm-554.19 -16.31c8.02,-6.65 -16.69,-24.27 42.43,-3.6 -9.09,7.17 1.1,29.53 -42.43,3.6zm972.48 -39.27c1.31,1.96 4.25,2.54 4.15,5.71l-4.15 18.15c-14.29,-17.7 -19.86,31.52 -7.77,-12.22 11.33,-40.96 -26.09,7.2 7.77,-11.65zm-796.02 -14.54c-11.34,29.48 2.33,14.38 -22.7,23.55 7.47,-27.19 -13.04,-9.59 22.7,-23.55zm874.58 6.16c42.34,-32.76 15.62,-4.16 23.32,0 -2.32,0.97 -5.96,0.87 -6.79,3.3l-11.7 0.02c-0.76,-0.19 -3.07,-2.47 -4.83,-3.32zm-306.91 -26.2c22.92,16.71 24.11,5.97 9.19,38.16 -22.84,-17.38 -24.53,-8.89 -9.19,-38.16zm-212.96 16.66l25.16 0c-9.73,8.22 30.19,36.81 -25.16,0zm148.38 -27.65c-9.49,32.36 3.89,17.31 -22.14,26.75l22.14 -26.75zm-659.91 4.95l7.06 13.33c3.16,49.03 2.63,-17.98 -1.48,15.98 -24.73,-7.3 -42.44,-8.73 -5.58,-29.31zm590.23 -17.06c-9.97,34.7 13.36,17.62 -27.97,24.04 12.21,-31.44 -7.34,-15.1 27.97,-24.04zm-456.97 -13.07l7.88 13.74 -22.55 26.03c-31.24,13.34 -7.63,14.69 -47.5,6.15 2.46,-2.36 6.58,-8.55 7.97,-6.36 1.28,2.04 5.78,-4.39 7.41,-5.94l27.87 -48.22c38.32,5.76 3.96,-1.81 18.91,14.62zm-192.78 0.73c27.44,14.78 12.18,-13.03 27.81,30.8 -46.74,0.82 -22.81,11.5 -27.81,-30.8zm996.98 40.92c9.11,-37.46 -9.65,-30.01 30.29,-34.59 -4.23,63.64 -5.33,19.43 -30.29,34.59zm-474.97 -17.39l12.81 -6.14c1.04,0.44 5.19,2.77 6.23,3.28 1.33,0.66 3.76,4.72 6.08,6.59 -10.4,4.48 -18.67,24.43 -25.13,-3.73zm549.04 -29.77c12.13,-12.89 36.88,0.04 14.47,11.85 -16.35,8.63 -18.83,-7.19 -14.47,-11.85zm-494.7 10.72c12.73,-11.43 -24.59,-15.28 10.12,-7.32 23.81,5.45 -2.1,-7.5 17.13,10.55 -10.02,4.78 1.26,30.7 -27.25,-3.23zm-78.52 -17.05c29.07,37.53 4.42,13.71 0,24.11 -5.08,-10.06 -29.29,22.24 0,-24.11zm409.71 83.08c-29.32,-18.31 -36.95,-134.96 66.7,-105.61 6.2,86.34 2.16,74.13 -19.04,86.93 -26.78,-34.97 7.33,-13.85 -9.53,-60.39 -28.98,7.97 -20.9,-12.74 -30.39,31.78 -4.71,22.05 3.45,19.26 -7.73,47.29zm-35.98 -136.07c11.04,-14.56 -16.55,-11.55 25.81,-14.3 7.32,32.15 6.47,4.16 -1.62,33.82 -46.92,6.03 -16.12,0.17 -28.22,-6.75l4.04 -12.77zm-364.21 -8.02c11.64,14.33 17.91,-25.69 8.35,12.46 -8.15,32.42 19.73,-10.91 -12.29,17.51 -11.91,-34.26 -10.7,-20.82 3.94,-29.97zm-378.99 -7.69c24.21,-22.14 4.03,-12.98 35.59,-8.8 -12,34.86 -18.03,35.23 -35.59,8.8zm847.84 -28.58c32.85,-23.88 16.52,-12.87 32.93,1.2 -3.21,2.87 8.32,12.62 -16.23,9.23 -20.61,-2.85 -6.35,-0.29 -16.69,-10.43zm-421.11 -11.98c41.79,3.54 17.37,-9.78 27.94,22.45 -52.41,-8.93 -11.83,-5.13 -27.94,-22.45zm-57.67 10.09c15.18,5.59 15.62,-18.86 15.27,18.56 -11.39,-1.49 -16.89,17.88 -15.27,-18.56zm-312.64 -7.64c8.36,-23.13 -14.96,-11.07 27.98,-22.09 -3.45,30.1 8.72,39.6 -27.98,22.09zm279.59 12.82l-9.79 43.41c-10.58,-6.61 -23.72,17.7 -17.83,-27.49 4.54,-34.79 10.93,-20.35 17.21,-26.64 15.74,-26 2.14,-15.62 40.81,-27.33 -3.56,45.86 0.85,30.03 -30.4,38.06zm-357.22 -59.68c1.62,1.87 4.94,2.12 4.98,5.51 0.03,2.95 3.18,4.61 3.08,5.67 -2.08,21.34 2.83,3.51 -8.05,18.19 -4.01,-5.73 -28.5,0.11 0,-29.38zm850.78 83.8c36.4,19.57 60.3,16.13 79.47,55.62 -40.12,-6.36 -88.61,-19.32 -118.71,-44.92l19.12 -55.96 -39.04 -26.43c22.32,-12.45 49.27,-16.02 80.17,-15.7l-18.31 35.09c-3.72,13.63 -2.58,37.55 -2.71,52.3zm-803.13 -129.73c10.85,24.51 8.52,14.39 -9.53,30.61 -4.85,-11.1 -21.07,18.43 -4.51,-19.23 6.7,-15.23 0.28,-6.13 14.04,-11.38zm781.19 -2.05l0.07 22.07 -20.47 1.18c-8.49,-13.53 -20.33,27.49 -5.3,-30.85 43.07,-3.11 12.11,-0.88 25.71,7.6zm-718.46 6.61c10.55,8 47,-28.49 -0.54,25.27l0.54 -25.27zm83.3 -30.48c5.72,1.59 10.84,10.19 13.57,12.98 -31.65,15.02 -18.37,19.18 -38.57,-8.61 19.92,-10.31 -20.54,-17.06 25.01,-4.37zm-127.9 13.96c-4.82,-39.08 -4.25,-52.44 39.65,-57.83 10.18,-1.27 34.82,-0.25 44.64,2.23 31.78,8.01 22.98,11.95 30.3,19.17 -55.61,37.33 -67.43,31.87 -88.67,9.14l-25.93 27.29zm667.7 214.93l21.04 32.56 -3.15 28.04 -14.14 -0.27c-2.2,-1.66 -4.8,-7.75 -5.96,-5.68 -6.64,11.81 -10.5,-8.14 -12.55,-8.94 -30.47,-11.91 40.19,-5.8 -23.11,-3.49l10.48 -44.48 -4.76 -5.71c-2.2,2.09 -5.1,2.28 -6.22,6.63l-28.13 34.04c-40.19,-1.91 -51.57,-0.03 -82.48,-19 -7.45,-58.75 -3.98,-5.8 15.34,-24.21l25.28 -1.51c-23.05,-25.46 -35.77,-20.57 -58.77,-2.87 -11.96,9.03 21.21,20.82 -28.49,6.42 -15.4,-57.71 -4.17,-11.01 5.16,-30.13 9.02,-10.32 10.51,10.31 12.36,-24.93 2.75,-52.63 -6.31,-30.34 -14.83,-39.93l-24.66 79.33c-45.45,4.78 -42.25,12.01 -63.65,-19.36 18.62,-39.81 11.4,9.97 48.31,-23.51l33.46 -61.61c10.48,-27.03 -5.53,13.12 6.81,-21.22l8.42 -20.96c0.68,-1.56 1.94,-4.68 3.41,-6.68 55.96,28.34 17.7,60.71 36.22,113.95 13.69,5.94 -2.02,2.37 12.87,-1.26 1.19,-0.29 4.1,-1.47 5.53,-1.81 42.38,-9.83 28.76,-3.01 66.36,3.1l7.11 -9.21 -59.67 -35.94c-2.5,-124.76 15.26,-62.36 -19.57,-127.07 -13.97,-25.99 -9.08,0.57 -9.29,-36.52 22.29,-16.3 41.1,-27.07 82.62,-16.66 -8.4,30.8 23.14,4.39 -32.96,26.24 23.75,31.44 25.07,7.65 13.73,47.22 45.23,-8.56 33.73,-21.56 57.72,9.96l-13.01 5.73c-27.86,11.03 -100.71,44.63 -33.32,82.43l16.9 -51.6c48.9,9.39 21.45,12.01 57.47,26.43 -17.26,-55.97 4.56,-13.6 12.88,-72.52l-36.3 -27.23c23.92,-12.64 32.03,-1.96 55.28,6.79 -16.7,122.96 -14.07,74.04 6.28,108.27 7.4,12.46 15.16,-18.09 5.38,30.02l-58.07 -14.04c11.9,31.51 12.52,70.84 6.67,111.17zm-620.59 -305.29c-42.95,-13.39 -17.83,7.74 -29.93,-27.54 30.64,11.8 16.6,-4.39 29.93,27.54zm587.63 -24.6l25.11 10.13 7.71 -11.27c2.02,-39.22 -2.95,-17.43 10.23,-32.12l13.42 -9.78c12.05,43.08 16.32,33.1 -12.55,63.69l-11.96 29.11 -49.49 -26.49c11.81,-31.78 -7.29,-13.08 17.53,-23.27zm-554.28 -8.97c42.02,-26.79 6.33,-8.29 22.15,0 -7.73,5.06 16.55,40.11 -22.15,0zm501.69 0.29c-15.77,-22.71 -5.34,-12.05 0,-22.72l4.97 17.33c0.12,-1.64 -3.46,3.48 -4.97,5.38zm71.49 -22.55c-82.24,-15.11 -68.77,-27.41 -75.59,-44.45l24 -1.07c25.68,9.02 40.43,27.1 51.59,45.52zm-165.15 -28.13c12.13,-21.82 27.35,-28.95 51,-30.61l1.28 31.01c-38.25,14.18 -12.26,13.42 -52.28,-0.4zm146.14 -35.37c2.26,-15.9 -9.98,-1.36 8.72,-5.21 14.15,-2.92 -12.4,30.96 -8.72,5.21zm-684.63 10.54l8.56 -5.31c0.14,-1.68 -3.71,3.31 -8.56,5.31zm127.62 -40.54c-12.61,-6.96 -12.52,6.4 -14.38,-21.81 30.12,9.3 12.49,-2.73 14.38,21.81zm400.81 -27.16c-42.96,37.12 -36.73,3.92 -41.5,0 2.06,-13.95 10.81,-14.12 21.72,-14.66 26.3,-1.3 15.47,9.79 19.78,14.66zm-334.58 11.25c-29.13,-8.93 -18.19,7.89 -29.95,-34.18l36.6 -0.49 -6.64 34.67zm314.43 -95.77c11.79,15.04 24.97,-3.66 0,24.7 -32.68,-23.44 -5.77,-18.22 0,-24.7zm98.41 42.15c-33.71,-28.81 -37.47,-5.2 -49.67,-61.22 38.74,9.59 49.86,29.13 88,44.43l-19.52 70.05c-18.89,-20.67 -11.24,-0.72 -18.8,-53.26zm-459.79 -43.39c33.93,-27.24 22.79,-5.69 59.74,-16.8 22.61,-6.79 15.8,-29.48 45.62,7.27 -21.91,15.02 -32.49,-7.97 -48.87,42.47 -24.62,-5.23 -42.16,-5.21 -56.49,-32.94zm431.77 -21.61c33.58,-23.81 -30.37,-12.42 25.37,-24.46 -9.81,25.05 4.21,11.69 -25.37,24.46zm-278.79 -16.36c-7.64,-25.94 6.72,-15.89 8.31,-18.32 27.51,16.43 25.95,-6.19 13.7,38.97 -27.91,-13.29 -13.08,9.7 -22.01,-20.65zm167.49 6.18c23.02,-27.7 -33.45,-8.62 26.82,-30.12 -11.75,31.62 6.28,17.99 -26.82,30.12zm-113.77 -17.54c4.06,42.86 7.6,-8.07 -7.28,11.17 -6.49,-5.43 -18.41,-5.91 0,-27.69 8.81,11.72 5.61,-1.07 7.28,16.52zm-188.33 5.38c-20.31,-16.18 -8.64,-10.68 0,-25.41 40.77,56.52 8.31,15.1 0,25.41zm321.67 -41.81c-0.89,-32.88 -19.52,-1.57 10.28,-4.65 17.64,-1.81 -9.66,27.22 -10.28,4.65zm96.73 -9.53l16.89 -4.58c0.83,-2.62 3.83,3.21 5.89,4.58l-11.59 6.78c-28.74,7.15 6.96,7.62 -11.2,-6.78zm-211.21 -16.55c27.64,10.51 35.18,16.22 45.97,48.55 -39.19,-10.14 -40.36,-5.77 -45.97,-48.55zm-224.21 -17.64c40.23,8.28 17.47,-1.67 29.19,29.2 -35.06,-9.26 -25.29,7.47 -29.19,-29.2zm440.9 -27.3c31.44,3.75 16.02,-3.15 21.56,21 -29.7,-2.87 -20.81,6.92 -21.56,-21zm-103.01 13.87c7.75,-4.77 -2.88,-26.39 29.7,0 -42.8,39.58 -26.5,2.43 -29.7,0zm-193.33 44.79c0,0 -35.05,40.69 -85.71,12.38 29.26,-28.53 32.91,-4.66 58.56,-24.19 27.12,-20.66 -1.49,-6.91 13.31,-46.57l47.89 12.34c-10.81,25.39 11.66,17.64 -37.5,22.38l3.45 23.66zm74.81 -105.91c-8.65,42.16 7.99,19.49 -23.13,33.76 -8.76,-43.43 1.93,-25.81 23.13,-33.76zm146.19 -56.87c41.44,26.76 19.93,38.82 -13.75,55.17l13.75 -55.17zm-362.26 866.65l-1.67 -23.09c-60.69,-3.02 -49.38,-10.84 -85.93,-43.07 36.81,-23.73 15.33,5.72 33.59,-25.7 20.87,-35.89 -9.43,-16.43 29.61,-40.14 9.14,13.9 32.06,4.4 -13.56,69.36l42.1 11.94c2.02,0.87 5.56,3.08 7.27,3.92 1.86,0.91 5.06,3.24 7.68,4.72l22.01 -77.74c-14.86,-4.98 7.25,-4.21 -15.57,4.65l-22.44 9.65c-4.52,-57.71 -11.75,-40.63 -27.16,-81 87.04,-56.51 55.34,-23.91 101.22,-20.41 16.71,-64.52 17,-100.89 28.52,-116.84 52.71,-73.06 -18.08,6.96 44.88,-87.65 47.4,-71.22 30.72,-156.6 101.36,-211.14 71.45,76.53 42.86,63.5 62.17,127.67 5.52,18.33 23.78,32.65 40.83,61.91 28.05,48.15 31.46,43.66 61.5,52.08 12.21,-16.54 -18.54,-4.58 26.07,-21.77 1.07,2.22 2.5,5.37 2.95,6.78 0.42,1.3 1.98,4.77 2.42,6.36l6.64 41.16c-13.12,-3.81 -30.03,-6.76 -40.55,-10.31 -55.89,113.54 -14.39,16.36 -22.97,102.08 -40.29,23.97 -43.82,7.79 -64.24,51.11 -38.36,-11.64 -4.57,-7.16 -24.11,-11.13 -1.24,-0.26 -4.01,-0.89 -5.21,-0.93 -16.52,-0.62 -14.46,10.76 -45.51,23.58l-10.27 -21.99c-22.48,-33.24 19.79,12.1 -8.85,-11.75 -32.64,-27.17 -69.43,17.62 -80.17,37.69 -41.84,78.23 -15.88,71.93 -8.96,134.68 -44.26,26.55 -46.93,10.27 -68.87,72.79 -12.32,35.08 -29.44,70.92 -34.44,108.74 62.58,-4.74 142.49,2.07 211.57,-0.15 67.19,-2.16 142.7,-4.26 209.33,2.56 151.23,15.46 98.62,130.31 190.87,217.67 75.43,9.31 326.39,11.37 380.19,-18.27 12.48,-80.35 -111.31,-348.92 -148.35,-432.48l-214.66 -518.66c-31.05,-46.08 -14.49,-56.25 -37.59,-105.16 -30.89,-65.42 -56.19,-129.47 -84.12,-200.87 -92.97,-237.59 -28.81,-262.58 -314.73,-254.72 -127.35,3.51 -159.39,-16.65 -215.71,76.51l-247.68 609.89c-55.17,138.46 -105.57,283.45 -161.01,420.01 -13.88,34.2 -32.76,69.74 -42.9,99.31 -7.97,23.24 -7.52,43.71 -16.27,61.2 -0.15,0.29 -116.66,159.3 -85.11,260.28 93.41,10.4 349.59,27.53 403.77,-27.59 32.66,-33.25 98.91,-264.81 132.05,-315.76z"/>
   <path class="fil0" d="M14098.45 1906.86c-40.34,-10.9 -15.11,8.58 -25,-27.39 32.86,15.12 10.52,-15.15 25,27.39zm-90.78 -155.8c14.36,-28.04 -16.62,2.95 10.59,-24.59 11.78,18.62 11.75,-9.94 4.65,17.55 -4.16,16.03 -2.7,2.54 -15.24,7.03zm24.46 -89.25l5.19 -25.55c3.86,3.09 14.52,-5.82 11.63,14.52 -3.14,22.05 2.22,0.53 -16.81,11.03zm-185.38 -46.1c-27.33,-30.46 -2.58,-18.91 0,-23.58 6.62,12.19 11.42,8.28 0,23.58zm52.77 14.32c-9.66,-38.01 -17.86,-51.23 13.93,-74.07 15.22,23.52 6.92,-0.93 8.26,28.82 3.11,69.12 1.83,4.51 18.35,58.21l-40.54 -12.97zm-33.71 -60.3c-0.4,-0.47 -33.15,6.63 0,-37.78 33.69,20.33 27.3,18.21 0,37.78zm97.83 -5.69c-15.95,-4.03 -10.09,-5.73 -19.95,-12.46l10.76 -30.75 30.67 43.19c-16.25,1.74 -3.88,4.46 -21.48,0.02zm-353.06 -83.79c2.93,-34.38 -12.71,-23.54 23.21,-26.63 -5.96,22.29 11.73,12.06 -23.21,26.63zm-40.15 -16.01c-14.92,-8.06 -0.02,-23.58 0,-23.62 6.28,12.67 17.42,-2.37 0,23.62zm427.68 -20.61c8.16,-4.4 -2.11,-20.36 26.94,0 -41.05,41.72 -25.12,1.61 -26.94,0zm75.96 -27.31c-2.09,33.82 14.35,22.87 -22.59,24.36 -1.26,-43.77 4.83,-20.71 22.59,-24.36zm-286.62 -20.32c2.17,-1.34 4.72,-4.65 5.78,-5 0.87,-0.28 5.01,-1.85 5.87,-2.06 39.5,-10.01 -7.59,-7.44 11.96,7.05 -2.05,1.47 -4.77,4.49 -5.82,4.83 -0.88,0.27 -5.04,1.78 -5.89,1.99 -41.55,10.14 9.65,8.38 -11.9,-6.81zm278.45 -43.77c22.35,34.08 3.66,21.93 0,29.39 -36.26,-24.48 -24.85,-17.16 0,-29.39zm-193.79 -50.71l9.42 46.84c21.95,13.56 -30.88,20.23 46.27,5.67 -15.71,56.48 -6.35,24.66 32.23,61.33l14.65 51.15c0.98,2.37 2.44,4.7 3.45,6.92l12.49 27.37c-36.09,14.26 -22.55,-4.99 -49.42,10.25 -23.65,13.39 1.36,22.14 -43.94,24.54 13.51,-43.18 15.5,2.22 17.63,-54.76 -23.58,10.4 -21.44,11.48 -41.83,22.3 -0.78,-36.44 6.3,-32.58 -16.78,-55.61 -18.82,19.44 -24.09,67.17 -37.35,101.01 -54.75,5.3 -59.17,5.41 -77.1,-38.2 -21.38,0.27 -41.36,7.6 -56.11,0 25.46,-27.37 35.39,-26.71 75.29,-28.07l17.23 29.84c13.85,17.48 -3.59,8.54 19.8,13.58 37.85,-42.24 -3.35,-51.28 -27.51,-77.38 -44.01,8.1 -13.36,29.15 -70.87,17.32 -12.2,-19.89 -18.52,-33.73 -12.33,-68.53 33.95,23.14 -1.94,12.79 36.07,28.56l29.21 -26.46 56.04 47.94c108.44,-55.79 74.41,1.49 128.79,2.07 -1.45,-47.87 -59.17,-55.86 -101.63,-48.76l36.33 -98.93zm-63.48 20.03c19.29,15.38 22.57,6.04 9.53,36.79 -32.52,-13.48 -33.98,-5.97 -9.53,-36.79zm195.76 -15.76c-5.53,42.57 5.27,39.79 -39.24,38.15 0.83,-36.15 5.57,-31.55 39.24,-38.15zm132.13 42.57c-28.37,12.58 -45.58,2 -59.73,-28.01 33.82,-0.7 40.6,1.44 59.73,28.01zm67.76 -14.02c-45,-6.29 -17.77,9.05 -29.79,-29.26 40.15,18.59 15.53,-12.34 29.79,29.26zm-184.77 23.83c4.89,-42.85 -2.76,-48.29 35.19,-62.47l-33.74 102.91c-35.54,-0.91 -34.95,1.88 -63.29,-12.14 21.35,-29.02 19.29,-21.77 61.84,-28.3zm-106.38 -66.98c13.67,-11.31 -4.16,-6.23 17.42,-8.49 41.45,-4.34 -6.9,-7.52 11.67,8.49 -11.68,8.57 3.85,23.77 -29.09,0zm-85.45 11.27c-14.32,-8.94 -0.25,-23.63 0,-23.99l6.73 12.08c9.47,40.34 5.3,-4.18 -6.73,11.91zm277.07 -38.67c30.46,0.07 10.39,1.94 18.94,22.12 -33.79,11.06 -15.81,10.12 -38.98,-4.25 1.09,-11.45 7.42,-17.89 20.04,-17.87zm-105.55 -7.73c19.53,28.73 5.08,16.78 0,24.32 -31.81,-23.9 -10.35,-13.67 0,-24.32zm37.91 -1.91c0.61,-22.54 1.87,-15.93 10.22,-27.46 27.86,24.68 12.65,20.37 -10.22,27.46zm190.77 -19.62c-29.97,-29.48 -0.86,-22 0,-23.49 1.54,2.33 5.23,4.97 5.66,6.15 0.33,0.92 2.09,5.1 2.35,6 9.93,35.19 6.23,-4.41 -8.01,11.33zm-114.34 -31.11c9.94,14.1 14.22,13.1 0,29.69 -27.12,-28.06 -3.74,-24.07 0,-29.69zm-35.41 -55.15c32.21,-27.24 19.59,-5.62 26.92,0 -8.49,5.68 2.56,24.22 -26.92,0zm114.55 -60.43l22.21 3.26c-25.89,27.31 -6.69,16.22 -22.21,-3.26zm-60.08 -166.37c9.55,11.27 15.41,8.3 0,25.57 -26.94,-26.33 -3.38,-21.39 0,-25.57zm-66.71 -110.05c14.42,30.84 19.31,15.47 -9.53,33.4 -4.56,-8.77 -8.89,0.44 -5.55,-18.95 4.61,-26.83 -3.19,-2.53 15.09,-14.45zm-72.07 289.19c-45.38,28.16 -11.79,-13.02 -37.22,33.59 -15.27,27.94 -6.52,27.06 -27.92,48.4 -80.62,80.46 -312.53,33.97 -403.5,52.67 -1.87,118.6 -15.99,139.92 22.94,170.91 -13.73,40.27 -30.84,-17.19 -21.13,161.33 41.65,23.71 72.54,19.9 111.35,46.32 66.01,44.94 100.76,130.21 139.22,184.83 169.31,240.53 143.25,202.28 269.25,204.42 105.31,1.79 302.39,34.53 314.4,-28.06 6.87,-35.8 -83.5,-146.91 -130.45,-210.12 -34.32,-46.2 -123.59,-162.41 -136.97,-225.96 22.17,-24.08 55.5,-38.65 81.92,-61.69 205.31,-179 247.72,-486.55 139.6,-711.67 -57.12,-118.91 -160.3,-221.22 -292.36,-260.07 -107.08,-31.5 -391.59,-57.28 -491.62,-15.95 -23.06,56.51 -6.44,264.83 -6.69,344.64 109.13,6.92 257.66,-21.57 358.98,20.49 48.13,19.99 60.71,59.56 85.51,104.51 46.72,84.64 -3.96,73.12 24.7,141.44z"/>
   <path class="fil0" d="M11913.52 1633.88c11.39,28.51 9.56,6.63 -1.05,29.03 -12.83,-8.44 -13.28,17.46 -13.58,-12.06 -0.31,-29.2 7.54,-10.79 14.63,-16.97zm-152.64 -65.36c25.99,24.33 37.12,32.06 49.56,70.18 -52.9,-4.26 -55.99,-9.37 -49.56,-70.18zm-46.52 21.95c20.66,15.08 15.45,-1.04 8.1,23.8 -39.52,-27.33 -6.14,-6.31 -8.1,-23.8zm-221.13 -138.66c11.64,25.49 14.7,1.48 -1.39,27.62 -31.36,-29.59 0.73,-26.79 1.39,-27.62zm371.27 -8.2c4.52,-2.36 -11.45,-21.66 28.05,0 -13.8,12.95 7.5,5.82 -16.29,8.37 -41.63,4.49 6.01,6.48 -11.76,-8.37zm67.04 -2.84c-34.09,-11.94 -5.85,-16.48 0,-25.19 38.57,51.7 10.46,10.6 0,25.19zm-170.66 127.75l-39.61 -0.62c4.53,-52.87 29.05,-58.45 13.78,-118.77 -25.1,11.81 -10.17,-2.25 -23.61,21.19l-24.2 81.09c-56.54,-0.12 -61.17,-2.12 -77.16,-43.57 -36.2,5.4 -34.78,15.71 -56.27,2.47 26.96,-26.08 40.89,-21.01 73.23,-35.11 26.9,31.37 -2.34,22.65 28.16,52.75 64.38,-28.5 0.58,-63.52 -19.05,-81.04 -24.29,9.64 -30.18,32.22 -59.88,19.19 -26.24,-11.5 -25.52,-32.56 -21.9,-65.26l34.15 26.53c15.87,-13.32 18.99,-17.71 36.1,-27.45 30.93,18.69 32.9,32.43 59.17,50.84 75.18,-57.82 51.06,-18.68 124.37,-1.66 -19.05,-48.44 -55.03,-59.67 -106.31,-44.71 3.89,-26.87 25.45,-80.86 44.59,-98.99l7.19 59.17c21.39,-8.83 11.23,-5.59 40.5,-12.27 -12.75,77.25 9.87,21.9 43.66,72.23 -21.64,52.2 -15.51,28.57 -74.5,41.35 -19.25,68.01 -5.59,37.99 -2.42,102.61zm66.17 -182.08c22.22,-44.5 30.74,-8.23 54.29,-31.38 23.57,-23.17 -12.2,-28.13 31.14,-56.36 23.28,26.32 5.55,7.67 17.51,43.53 9.64,28.9 1.99,-7.57 15.06,35.95 -70.66,-3.52 -57.19,20.76 -70.47,21.33l-47.52 -13.07zm-154.31 -65.42c21.9,12.58 31.21,-0.83 11.06,35.33 -28.95,-14.57 -23.16,-9.64 -11.06,-35.33zm331.89 36.51c-42.72,-4.09 -44.12,-8.23 -59.35,-40.41 40.48,7.38 47.29,6.23 59.35,40.41zm-133.43 -51.04c-8.67,56.6 17.29,30.7 -38.83,38.3 9.56,-48.93 -3.5,-30.31 38.83,-38.3zm198.61 26.58c-39.18,-12.45 -15.08,7.05 -26.34,-25.86 33.09,10.47 16.55,-10.51 26.34,25.86zm-286.4 -30.94c26.46,-32.26 -23.89,-7.78 26.74,-26.29 -13.57,38.79 16.63,18.03 -26.74,26.29zm186.26 -31.76c30.11,-0.56 2.37,-4.73 19.61,15.3 -18.56,9.02 -17.86,9.15 -38.19,-4.04 13.34,-12.38 -22.17,-10.5 18.58,-11.26zm-104.83 11.55c-2.03,-1.59 -4.88,-4.59 -5.24,-5.68 -18.9,-55.75 -9.5,2 5.24,-18.23l4.16 18.42c0.1,-1.48 -2.87,3.61 -4.16,5.49zm46.39 -56.4c22.82,12.93 20.61,-6.7 13.25,28.8 -23.96,-14.09 -24.78,4.51 -13.25,-28.8zm189 -15.8c9.01,14.44 7.34,5.27 4.64,25.03 -11.88,-8.1 -27.85,6.23 -4.64,-25.03zm-127.63 -49.29c-39.24,-6.09 -15.41,8.13 -25.74,-26.73 31.97,12.79 18.17,-7.85 25.74,26.73zm87.28 -54.16c32.66,-22.07 -27.61,-10.97 21.69,-22.07 -6.91,28.91 9.98,10.87 -21.69,22.07zm-61.64 -184.77c9.94,12.39 11.76,10.69 -4.52,24.96l4.52 -24.96zm50.71 -11.47c27.97,-22.38 8.46,-12 23.09,0 -28.26,25.01 -9.21,12.87 -23.09,0zm-107.13 -97.9c-1.09,43.39 20.32,25 -28.7,32.55 10.62,-44.97 1.72,-22.89 28.7,-32.55zm-124.89 107.55c23.21,34.8 49.73,59.3 42.42,110.11 -38.77,269.02 -230.68,190.2 -462.23,203.85 -0.25,81.31 -13.69,137.06 23.03,171.88 -28.71,56.25 -29.25,43.81 -21.49,161.98 35.08,21.51 71.74,23.6 110.42,50.91 91.76,64.8 97.45,132.83 137.9,186.02l136.42 177.97c40.13,42.37 66.35,19.11 129.06,20 66.55,0.95 261.87,19.69 305.77,-4.78 37.14,-45.14 -9.8,-78.66 -38.33,-116.32 -53.54,-70.66 -210.92,-281.44 -215.73,-355.95 109.01,-33.71 205.31,-172.94 244.17,-300.02 85.54,-279.85 -10.65,-628.61 -312.59,-717.5 -141.69,-41.71 -344.73,-49.9 -498.34,-23.85l0.22 351.32c104.79,-5.05 222.2,-13.78 320.86,10.72 72.75,18.06 64.39,22.59 98.45,73.67z"/>
   <path class="fil0" d="M8714.68 1862.87c38.99,-38.54 23.44,-3.28 27.9,0 -4.3,1.91 14.42,24.34 -27.9,0zm-99.02 -27.55c10.92,20.1 14.99,0.9 0,26.01 -35.62,-29.21 -3.01,-22.87 0,-26.01zm57.03 -2.36c-15.76,-34.62 -15.81,-26.54 9.66,-45.05 4.86,8.23 14.21,-18.97 6.27,23 -6.26,33.01 -10.83,16.99 -15.93,22.05zm-157.25 -20.41c34.28,-23.22 -24.85,-11.75 20.62,-22.97 -6.8,26.59 7.27,9.96 -20.62,22.97zm378.46 -25.92c29.45,-20.73 10.56,-10.91 26.07,0 -14.18,12.7 5.63,5.74 -15.95,8.15 -36.02,4.02 6.47,7.78 -10.11,-8.15zm-249.65 -35.18c-5.33,29.94 5.98,13.99 -20,24.47 3.56,-30.69 -7.51,-16.29 20,-24.47zm187.6 -2.93l-187.6 2.93zm215.4 -13.95c27.06,-26.08 -29.25,-13.79 20.23,-25.93 -9.14,26.12 7.28,6.77 -20.23,25.93zm-211.31 -4.13l-3.59 -35c22.28,9.33 10.81,-12.12 18.43,13.58 13.64,45.98 7.55,0.16 -14.85,21.42zm317.33 -165.9c-12.32,34.34 -17.36,24.42 -45.77,11 3.47,-23.29 28.45,-19.09 45.77,-11zm-84.79 -34.84c18.08,38 -0.48,9.39 -7.95,21.84 -21.78,-15.14 -23.75,-4.98 -9.53,-31.53 22.08,5.47 6.71,-12.94 17.48,9.69zm28.42 -28.08c9.91,-8.61 -5.34,-28.63 30.72,-3.78 -7.94,4.89 -2.21,4.13 -17.65,6.88 -1.61,0.28 -10.04,-2.14 -13.07,-3.11zm63.12 -22.83c49.97,-28.99 16.05,-6.1 22.73,0l-16.38 3.54c-0.78,-2.33 -4.17,-2.46 -6.34,-3.54zm-140.15 -19.06l25.68 0c-2.33,1.82 -5.17,5.53 -6.54,6.01 -52.85,18.65 -3.13,7.18 -19.13,-6.01zm-53.69 -38.11c49.31,-40.16 23.3,-5.86 31.35,0 -7.23,5.14 16.89,41.37 -31.35,0zm-69.1 -93.94c-27.07,-18.43 -0.62,-9.38 0.17,-12.11 10.12,-2.33 -12.44,-16.61 11.4,0.54 23.24,16.73 0.99,8.66 0.39,11.09 -9.63,3.12 12.61,17.21 -11.96,0.48zm74.56 -29.93c-26.06,22.1 -9.69,14.01 -43.35,7.27 21.03,-26.63 17.85,-41.96 43.35,-7.27zm27.12 -28.58c58.27,-34.97 15.64,-8.45 26.59,0 -2.29,1.52 -5.15,4.75 -6.44,5.13 -53.52,15.87 -1.05,7.89 -20.15,-5.13zm-120.51 0.53c16.81,-24.91 -12.52,-13.27 24.2,-24.66 -14.62,31.85 12.44,14.36 -24.2,24.66zm-113.11 -14.99c-21.06,-29.21 -0.15,-40.75 19.94,-51.18 5.73,42.18 8.64,31.73 -19.94,51.18zm42.85 -33.19l13.34 -7.2c47,-10.71 -7.3,-7.09 13.21,7.2 -53.4,39.42 -16.68,6.83 -26.54,0zm-83.69 14.24c-31.83,-11.8 -17.01,4.48 -22.9,-21.38 28.6,6.82 10.54,-9.1 22.9,21.38zm134.58 -23.67c-16.67,-17.73 0.1,-29.86 0.35,-35.17l36.78 0.69 4.25 43.78c-29.83,0.28 -22.01,11.31 -41.38,-9.3zm52.98 -47.73c37.78,-21.16 24.34,-7.93 34.51,9.53 -5.18,3.92 11.13,19.82 -24.88,7.82 -12.15,-4.04 -8.17,-12.94 -9.63,-17.35zm-219.84 -5.18c-40.37,-6.99 -15.76,7.47 -26.57,-27.62 33.94,12.78 19.04,-8.87 26.57,27.62zm241.97 -59.85l15.8 -24.91 9.34 22.57 -0.97 12.56c17.92,34.55 10.08,15.74 9.1,35.5 -44.29,-3.11 -18.62,-1.75 -28.67,-11.62l-20.56 -6.55c8.7,-24.64 -4.82,-8.64 15.95,-27.54zm78.88 -36.43c3.66,5.21 30.72,4.91 -9.52,39.85 -0.14,-0.22 -31.38,-13.15 9.52,-39.85zm-130.36 18.97c-41.64,-3.26 -21.39,7.2 -28.21,-20.2 33.22,1.64 13.62,-8.18 28.21,20.2zm186.19 -5.17c-29.56,-20.11 -23.02,-15.03 1.33,-28.19 8.82,21.04 14.59,-0.56 -1.33,28.19zm-159.84 -46.44c24.58,12.12 17.44,7.2 31.33,33.72 -55.43,-4.82 -34.46,16.09 -31.33,-33.72zm113.53 -54.65c25.72,11.34 36.85,-0.09 9.53,35.04 -31.15,-11.82 -32.2,-3.75 -9.53,-35.04zm-142.58 -20.9c5.1,-32.52 -0.92,-20.07 29.85,-31.06 5.96,30.71 5.99,46.7 -29.85,31.06zm68.29 -57.17c1.99,-1.43 4.18,-4.9 5.17,-5.25 12.83,-4.56 16.41,3.91 18.45,5.25 -11.43,5.89 14.67,32.45 -23.62,0zm81.7 6.95c21.55,-15.74 49.09,-26.88 80.78,-6.95 -48.67,32.14 -2.49,-42.21 -68.38,44.41l-12.4 -37.45zm-23.48 -49l29.43 0.75c-4.26,3.84 12.68,45.62 -29.43,-0.75zm48.18 -16.75c11.71,-11.31 -16.02,-7.14 23.47,-17.05 -9.52,26.41 5.2,18.79 -23.47,17.05zm-56.47 -36.48c2.27,-1.39 4.98,-4.82 6.03,-5.19 40.42,-14.24 4.88,-5.17 15.15,5.19 -35.51,24.39 -10.37,5.5 -21.18,0zm-140.19 -85.76c3.48,-2.19 -11.81,-31.09 30.32,0 -13.46,11.83 -10.16,15 -30.32,0zm51.97 -85.75c18.88,-10.53 -1.69,-14.81 28.55,0 -16.37,14.16 6.23,6.19 -17.68,8.82 -34.69,3.8 1.77,3.5 -10.87,-8.82zm59.79 -28.59c36.86,-19.26 17.22,-3.26 24.69,0 -7.15,7 3.81,35.54 -24.69,0zm-355.7 771.83c66.02,-9.73 20.34,5.95 75.19,10.01 35.19,2.6 50,-14.01 94.95,-11.57 117.38,6.32 191.23,133.37 109.15,225.1 -55.94,62.51 -185.41,46.55 -278.21,44.64 -1.75,119.07 -6.09,248.81 3.56,366.21 187.58,-3.58 348.59,10.87 498.81,-72.64 84.38,-46.9 147.15,-103.93 187.64,-203.77 55.48,-136.83 30.84,-345.64 -84.03,-432.9 -216.94,-164.75 -1.07,-53.06 39.85,-354.27 31.41,-231.22 -101.21,-383.32 -312.56,-449.27 -119.29,-37.22 -215.56,-17.06 -244.84,-20.45 -41.21,-4.76 -42.78,-7.36 -88.89,-2.23l-0.29 358.41c133.17,14.15 139.19,-30.39 237.82,56.76 11.04,90.93 -20.17,140.11 -48.83,207.99 -17.5,-23 -8.87,-36.77 -37.75,-33.09 -41.44,5.29 -3.41,3.28 -28.95,42.12 -65.28,-38.82 -12.69,-13.74 -86.53,-23.6 -18.2,-2.43 -13.62,-3.83 -35.83,-4.21l-0.08 48.98c2.65,16.37 22.29,17.51 22.41,17.19 0.6,-1.69 3.92,0.87 5.62,1.87 -16.2,53.33 -27.44,26.96 -28.44,94.5l0.23 134.21z"/>
   <path class="fil0" d="M8188.53 1843.81c14.33,-11.8 -5.24,-24.58 26.12,0 -1.79,1.27 -4.56,1.7 -5.27,3.92 -3.15,9.62 -20.3,-3.54 -20.84,-3.92zm-20.71 -45.44c19.52,27.91 8.33,13.64 0,30.5 -1.35,-1.78 -39.06,4.44 0,-30.5zm-98.52 -50.69c32.7,12.27 14.96,2.53 38.21,27.23 -40.2,16.13 -35.99,12.69 -38.21,-27.23zm175.72 0.85c34.35,-16.95 30.76,-9.36 39.81,24.84 -55.53,-11 -25.31,-9.05 -39.81,-24.84zm-102.92 -9.53c21.99,-9.42 25.7,-7.64 46.45,0l-0.04 34.09c-37.7,-10.38 -30.87,-8.45 -46.41,-34.09zm-222.02 -27.27c1.23,1.56 4,1.85 3.91,4.45 -0.07,2.31 1.77,4.29 1.62,4.98l-5.52 11.77c-5.02,-8.87 -25.03,20.2 0,-21.19zm161.98 -19.66c9.85,21.01 12.59,15.23 -9.52,26.75 -9.54,-22.14 -11.03,-14.79 9.52,-26.75zm-101.56 -29.29c1.15,-9.37 24.2,-42.53 11.94,-3.65 -5.31,16.86 -13.31,14.92 -11.94,3.65zm-31.83 -41.22c15.31,25.18 15.32,8.3 0,30.36l-8.41 -11.25c2.19,-22.42 -5.61,-5.63 8.41,-19.11zm190.57 -0.4c6.61,8.08 41.45,-31.9 0,22.63 -8.79,-15.95 -17.84,-6.19 0,-22.63zm-69.83 24.88c-4.14,-0.2 -46.36,-13.46 -22.07,-55.17 13.16,-22.6 0.01,-2.43 20.6,-17.04l1.47 72.21zm-77.98 -54.08c32.96,14.86 33.01,-2.39 17.63,34.58 -19.99,-13.25 -7.36,7.47 -16.46,-14.34 -8.98,-21.52 0.49,6.35 -1.17,-20.24zm186.95 -5.62c5.91,27.11 2.76,16.88 -17.93,9.04 0.25,-0.4 -2.8,-16.17 17.93,-9.04zm-220.18 -22.06c9.19,15.33 6.76,11.6 0,26.33 -15.63,-18.24 -21.82,34.78 -8.66,-13.01 12.01,-43.67 -30.1,9.02 8.66,-13.33zm149.07 3.22c-0.76,-15.91 19.61,-8.15 16.28,2.65 -0.03,0.07 -1.18,1.7 -1.32,1.72 -39.5,7.32 -13.58,25.62 -14.97,-4.37zm-136.18 -42.77c41.79,15.17 36,6.69 49.26,45.35 -60.28,-14.42 -28.89,-1.71 -49.26,-45.35zm50.22 -14.4c0.78,-18.38 20.8,-12.54 16.12,0.53 -3.26,9.07 -17.71,36.73 -16.12,-0.53zm-91.69 -25.63c0.23,0.26 11.94,-6.5 9.84,17.03 -1.99,22.06 -1.05,8.36 -9.84,19.3 -13.43,-19.27 -28.15,-10.36 0,-36.34zm142.92 67.48c-0.67,-0.85 -32.42,6.25 -6.78,-46.85 11.53,-23.86 15.09,-18.2 34.59,-22.5 -15.83,69.98 -3.1,55.79 -27.8,69.34zm-42.67 -102.7c5.55,1.91 28.65,2.75 20.99,21.04 -8.05,19.25 -2.46,7.81 -28.09,12.07l7.1 -33.11zm-80.63 15.04c-28.23,-0.07 -30.57,4.28 -57.44,-11.47l4.01 -24.99c38.01,0.16 42.78,7.74 53.43,36.46zm53.88 -87.58c12.75,-7.52 1.8,-5.77 20.47,-7.18 48.22,-3.65 -10.72,-8.02 13.66,7.18 -17.51,15.55 7.41,7.29 -20.51,10.31 -52.71,5.7 9.24,10.07 -13.62,-10.31zm310.75 -19.07c2.79,-36.63 6.57,-19.01 24.8,-9.52 -11.3,15.61 0,20.45 -24.8,9.52zm-93.79 -66.69c26.78,-16.25 23.78,-10.76 41.2,0 -13.66,30.29 -22.05,34.28 -41.2,0zm-233.29 25.49c-25.91,-25.55 -10.45,-51.83 15.54,-78.73 15.74,29.64 13.39,55.69 -15.54,78.73zm282.17 -71.12c-17.23,21.86 3.22,23.41 -31.41,6.05 6.76,-33.94 25.92,-10.04 31.41,-6.05zm-317.74 -2.01c-0.46,-11.16 6.46,-2.17 10.15,-1.17 26.11,7.05 -8.39,43.44 -10.15,1.17zm15.38 -47.64c8.01,-4.21 -6.68,-8.13 26.88,-6.3 22.7,1.25 -0.11,-1.37 18.36,7.27 -26.63,25.24 -20.14,19.1 -45.25,-0.97zm222.94 52.88l17.88 23.35 -39.24 19.06 32.75 16.76c1.21,-2.08 4.76,2.72 6.98,4.3 -7.88,53.24 -7.14,8.12 -21.52,32.47 -6.5,11.01 -1.13,16.86 -2.53,36.15l-20.02 -40.07c-3.62,-13.45 -4.16,-23.87 -5.58,-30.35 -1.49,-1.92 -3.3,-4.64 -4.03,-6.08l-16.03 -41.08c-7.55,-26.23 -3.23,-16.13 1.95,-48.32l-24.51 -24.83c-20.32,-30.99 8.65,-30.98 -71.68,-73.65 -36.77,18.33 -11.23,7.8 -34.68,26.34 -43.81,34.63 -26.58,8.56 -33.02,5.44 20.81,-22.05 23.75,-10.1 42.98,-24.4 17.6,-13.08 16.72,-25.06 21.62,-47.08l26.57 18.82c1.77,0.54 4.22,1.44 6.03,1.65 8.88,0.99 19.93,-5.33 35.99,-11.37 -14.26,57.55 -4.65,63.78 48.58,54.19 -4.29,30.06 -11.14,38.33 -20.5,56.71l64.71 8.45c-42.79,31.93 -24.27,-0.42 -47.36,33.1l34.66 10.44zm-275.26 -139.39c-7.52,-15.74 15.2,-19.49 19.78,-21.16l9.66 32.53c-30.14,-3.82 -18.47,11.59 -29.44,-11.37zm186.85 -94c13.88,29.97 9.17,9.11 0,30.28 -13.43,-9.05 -14.64,6.74 -13.28,-17.64 1.66,-29.42 4.84,-6.37 13.28,-12.64zm-123.68 -0.53c11.88,-8.99 -0.18,-5.58 15.8,-7.25l8.95 7.25c-36.05,27.74 -21.32,2.35 -24.76,0zm46.94 -37.76c30.86,8.09 20.84,-4.4 25.63,26.08 -37.83,-3.23 -21.12,3.63 -25.63,-26.08zm-100.4 12.07c-0.02,-1.42 -2.64,3.69 -3.9,5.58 -13.88,-11.81 -5.84,3.79 -7.84,-17.13 -0.1,-1.15 2.97,-3.09 3.01,-6.27 0.03,-3.72 3.26,-4.29 4.84,-6.46 5.23,9.2 5.16,3.15 6.31,18.51 0.08,1.05 -2.4,7.06 -2.42,5.77zm113.23 -50.53c18.81,-28.28 73.92,-26.55 109.12,-16.41 -13.58,32.04 -17.97,21.79 -49.43,20.26 -57.25,-2.8 -29.08,22.65 -59.68,-3.85zm-97.5 0.8c-43.54,-1.03 -14.68,9.51 -24.63,-23.6 31.76,15.13 12.2,-14.61 24.63,23.6zm56.6 -21.28c-0.38,-0.45 -40.91,-11.15 9.53,-55.68 0.47,0.55 22.59,-2.26 11.83,36.62 -7.73,27.89 5.29,5.57 -21.36,19.06zm-101.24 -55.75c33.3,-25.91 11.79,-11.9 25.17,-2.12 -8.17,5.87 2.9,21.22 -25.17,2.12zm176.78 -37.05c-1.47,47.79 12.62,16.44 -24.5,33.75 8.75,-36.47 -3.07,-21.67 24.5,-33.75zm-125.8 29.91c19.57,-20.71 -22.64,-5.01 25.64,-25.25 -12.03,27.71 4.93,16.61 -25.64,25.25zm165.36 -30.97c15.65,-12.66 -6.72,-5.57 17.01,-7.85 42.53,-4.11 -6,-5.84 12.45,7.85 -38.17,28.72 -28.12,1.08 -29.46,0zm79.29 -40.25c-10.85,28.49 6.31,15.44 -16.58,18.99 -15.64,-13.03 -14.93,19.94 -13.7,-23.96 51.26,-10.37 20.4,-0.68 30.28,4.97zm-175.33 51.9c-5.94,-8.04 -18.49,25.03 -10.69,-29.38 2.14,-14.94 7.21,-16.4 16.93,-23.99 55.2,-43.09 51.72,-5.92 51.75,-5.91 -73.43,45.53 -20.28,15.33 -57.99,59.28zm-28.25 -71.6c-9.17,-9.9 -6.31,-10.02 -0.33,-23.42 3.38,4.07 24.09,-6.67 0.33,23.42zm-105.15 -22.28c-0.07,-0.02 -35.86,21 0,-23.59 8.82,19.23 10.37,3.57 0,23.59zm40.17 -40.02c37.41,11.68 18.02,2.46 28.43,26.67 -40.6,-1.26 -25.41,14.98 -28.43,-26.67zm92.58 -4.08c-44.38,-15.71 -18.57,-0.47 -29.26,-26.13 35.68,-14.22 31.14,-11 29.26,26.13zm153.61 844.37c-13.66,-8.94 -28.91,-16.91 -53.76,-23.49 17.88,-18.28 -5.51,-28.81 44.04,-7.2l18.69 10.03c53.12,-2 12.9,1.77 34.21,-11.32l-5.12 -114.35c34.22,-18.93 29.98,-5.42 54.11,-38.63 39.64,19.16 4.98,-5.49 21.66,27.36l64.88 -2.61 0.97 -157.64c-1.45,-0.83 -4.1,-0.91 -4.91,-1.08 -100.56,-21.12 35.75,27.48 -37.19,-8.45 12.07,-23.3 -5.15,-7.44 31.24,-17.66l8.92 -113.69c-90.99,7.5 -74.34,35.8 -104.61,38.93 -35.86,3.71 -25.6,-11.92 -26.65,-13.55l46.7 -27.42c-29.11,-35.31 -52.5,-6.65 -58.86,-142.99 -3.83,-82.23 5.89,-96.11 83,-103.97l5.75 -24.49c-18.35,-9.48 -35.83,-20.93 -47.82,-42.27 44.71,0.9 47.15,-0.78 62.95,30.11 11.06,12.21 11.44,-18.9 10.01,23.06l30.48 -6.18 -1.61 -340c-91.7,-4.96 -189.95,-2.42 -282.4,-3.02 -118.46,-0.76 -169.18,-8.62 -246.1,36.16l6.94 182.35c-35.44,141.98 -3.34,89.12 3.67,166.54 3.26,36.11 -7.37,8.4 -16.71,46.7 -9.9,40.6 -6.87,526.66 23.97,606.79 -30.47,39.25 -28.51,39.73 -24.2,106.52 9.45,145.66 -26.12,309.86 41.24,388.09l496.24 -0.66 -2.67 -356.25c-54.95,9.09 -70.71,-3.06 -126.76,-7.91l-12 -81.57 -38.29 -16.22z"/>
   <path class="fil0" d="M11187.46 1568.04c2.76,-29.79 -12.66,-45.8 25.86,-19.6 -11.28,20.6 2.71,11.1 -25.86,19.6zm-58.66 -88.81c-30.94,-5.7 -6.79,9.73 -22.52,-23.2 34.74,18.7 18.34,-8.72 22.52,23.2zm63.16 -4.68c-33.09,-17.98 -29.29,-8.14 -13.01,-39.26 23.29,17.22 21.36,0.89 13.01,39.26zm100.33 -11.72c-29.4,-36.54 -32.1,-49.37 25.58,-60.71 -4.63,15.31 -6.21,24.04 -10.49,35.14 -13.72,35.59 -1.7,9.26 -15.09,25.58zm-31.51 -84.19c-24.47,21.5 -33.41,26.3 -42.65,-11.25 33.36,-14.33 26.12,-9.06 42.65,11.25zm-8.74 -28.31c1.9,-2.55 4.24,-15.93 5.23,-17.55 9.18,-14.97 3.24,-3.18 17.41,-6.2 -13.59,28.29 8.49,10.49 -22.64,23.76zm-110.78 -30.58c3.62,-2.55 -20.34,-25.31 30.24,-4.62 -7.33,6.58 16.58,34.7 -30.24,4.62zm66.12 -24.97c22.07,11.72 14.19,-7.33 16.01,15.89 2.14,26.93 -12.17,16.77 -16.01,19.29 -22.87,-39.9 -4.64,-29.29 0,-35.19zm34.79 -24.74c-40.31,3.5 -16.09,6.94 -26.79,-21.87 38.52,9.11 18.82,-8.69 26.79,21.87zm-168.18 -51.39c30.19,16.04 26.08,-2.2 16.79,41.93 -21.03,-10.19 -30.81,-15.58 -16.79,-41.93zm58.67 -21.51c26.39,9.29 17.74,2.6 27.04,28.55 -38.03,-5.14 -24.34,9.2 -27.04,-28.55zm17.55 -24.21c-29.48,-16.58 -8.27,-11.19 0,-23.05 42.73,53.8 7.76,12.86 0,23.05zm-66.71 -107.73c-29.82,-10.91 4.37,31.94 -7.25,-11.65l7.25 -10.98c9.12,19 11.37,3.11 0,22.63zm-55.85 -48.52c31.11,9.89 17.93,2.24 25.56,25.03 -37.78,-0.43 -23.46,11.15 -25.56,-25.03zm68.3 -1.85c35.01,-19.54 20.96,-11.98 32.01,9.53 -20.15,11.12 -15.87,7.71 -32.01,-9.53zm118.92 -38.11c1.65,-1.44 -17.89,-47.43 28.31,0 -26.06,15.45 -9.89,8.49 -28.31,0zm-124.27 9.42c9.76,-33.82 -0.16,-21.74 30.96,-27.94 -11.6,28.87 -3.01,18.84 -30.96,27.94zm78.66 -50.63c-40.17,-9.71 -4.65,-18.02 0,-23.79 22.87,44.13 8.51,4.79 0,23.79zm24.45 -44.54c-12.99,6.71 -20.02,6.96 -31.8,-0.33 -33.71,-20.91 -13.44,-7.59 -24.76,-34.87 42.48,7.81 41.93,6.56 56.56,35.2zm21.92 -38.73c-38.53,-12.33 -56.54,-24.6 -70.11,-47.03 12.07,-6.4 4.36,-10.03 30,-7.22 53.25,5.81 40.58,46.23 40.11,54.25zm-90.91 -115.2c34.77,-26.15 -23.57,-10.66 23.02,-26.25 -8.37,26.71 5.16,11.59 -23.02,26.25zm15.96 -106.97c-22.67,-39.22 -6.9,-6.52 0,-20.81 23.75,38.75 6.92,14.18 0,20.81zm135.51 613.45c36.28,-41.36 37.39,-0.53 27.9,-67.41 -8.37,-58.99 8.54,-230.5 12.69,-298.75 6.7,-110.3 8.18,-292.72 0.09,-401.96 -72.63,-15.1 -329.61,-17.94 -386,15.37 -33.81,59.08 -13.28,112.14 -19.61,181.04l-3.98 305.4c1.49,38.44 11.4,51.73 10.09,83.41 -6.53,158.34 -36.87,881.13 13.69,927.57 42.79,20.28 314.18,31.31 347.98,5.25 59.91,-40.3 12.86,-205.1 33.14,-338.54 14.74,-96.94 6.23,-256.43 6.34,-363.74 -1.34,-50.77 1.95,-15.31 -42.33,-47.64z"/>
   <path class="fil0" d="M13315.26 1863.57c-31.68,-9.93 -11.74,6.85 -25,-25.78 31.51,16.55 12.84,-11.5 25,25.78zm1.65 -315.14c36.75,-29.66 22.57,-2.53 26.25,0 -11.49,9.22 0.8,28.83 -26.25,0zm-62.07 -86.97c12.75,11.59 13.52,-14.24 9.97,14.85l-22.52 -0.05c-6.53,-25.64 8.9,-15.04 12.55,-14.8zm43.6 -7.53c0.22,-15.99 11.44,-14.06 27.54,-18.32l-2.89 36.12c-17.4,-4.7 -24.97,3.54 -24.66,-17.79zm66.38 -61.35c-29.35,-5.23 -17.79,-12.78 -20.35,-15.66 0.36,-2.05 21.28,-41.19 46.68,9.52 -7.16,3.26 13.6,13.23 -26.32,6.13zm62.67 -38.14c1.47,2.31 5.32,4.8 5.62,5.96 11.27,42.15 12.73,-2.21 -10.69,17.94l5.07 -23.91zm-45.69 -15.64c14.43,-10.24 9.3,-9.66 23.43,0 -11.56,6.36 12.64,31.55 -23.43,0zm-40.07 -42.62c15.27,12.67 15.07,-14.11 15.1,21.4 0.02,23.6 -2.18,7.12 -14.79,18.81 -8.94,-10.37 -6.1,15.84 -9.14,-18.18 -2.23,-24.97 3.5,-13.23 8.83,-22.03zm33.52 -21.02c-40.12,-8.52 -15.24,10.06 -26.28,-25.8 35.73,16.7 11.71,-11.49 26.28,25.8zm-166.91 -55.45c30.58,20.67 30.75,14.12 1.75,39.67 -3.99,-8.61 -6.01,-13.31 -6.55,-18.79 -1.76,-17.67 1.79,-13.02 4.81,-20.88zm66.71 -22.87c28.57,51.44 4.78,22.27 0,31.49 -20.7,-15.31 -14.84,5.01 -13.36,-18.78 1.65,-26.61 6.52,-7.34 13.36,-12.71zm3.08 -48.39l13.23 0.33c11.99,14.66 13.93,-22.2 9.78,25.94 -20.45,5.64 -13.03,6.75 -33.63,0.23 -3.38,-46.33 -1.94,-13.94 10.62,-26.49zm-52.58 -81.29c-33.01,-13.35 -15.42,6.67 -26.51,-23.52 32.62,7.45 13.6,-11.17 26.51,23.52zm-42.12 -24.61c-34.33,-6.89 -14.1,9.41 -25.53,-26.56 28.57,13.8 16.8,-5.46 25.53,26.56zm44.86 -31.57l27.25 3.86c-21.75,21.82 14.57,5.44 -16.19,9.12 -41.41,4.97 2.31,3.92 -11.06,-12.98zm117.75 -34.26c18.54,-22.26 3.47,-29.7 30.22,0 -20.65,12.91 -7.37,14.82 -30.22,0zm-125.05 11.83c10.13,-31.42 1.09,-23.27 31.96,-28.07 -14.37,44.24 1.6,15.59 -31.96,28.07zm46.98 -123.91c45.4,-11.92 43.94,-4.89 56,35.16l-56 -35.16zm6.94 -59.42c16.99,-11.31 -24.77,-12.92 26.32,-8.65 31.48,2.62 44.5,24.82 46.04,53.89 -26.27,-2.25 -58.57,-23.04 -72.36,-45.24zm6.25 -98.09c-9.91,36.46 9.61,18.97 -21.8,28.22 6.73,-35.23 -7.06,-11.61 21.8,-28.22zm129.62 742.68c-4.26,-38.57 7.06,-36.09 34.79,-53.84l0.62 -123.87c-1.95,-1.66 -5.13,-3.16 -6.58,-3.92 -1.44,-0.77 -4.8,-2.83 -6.51,-3.7l-29.04 -11.44c16.7,-57.96 31.84,2.97 33.49,-66.11 0.86,-36.13 -5.86,-60.42 -1.84,-105.41 13.45,-150.53 17.47,-467.37 9.02,-609.02 -126.51,-13.06 -266.96,-6.79 -385.26,13.38 -19.07,57.76 -20.3,56.77 -13.85,131.51 3.64,41.93 -6.38,95.81 -5.19,149.64 2.25,101.91 10.66,214.76 5.65,314.49 -2.92,58.19 -1.62,104.06 1.15,162.02 2.95,61.89 -6.42,95.81 -8.12,152.06 -3.01,99.58 -2.37,214.94 0.09,314.8 1.88,76.67 -24.56,257.43 35.06,285.5 15.92,7.49 273.83,11.55 306.34,9.27 63.9,-4.48 53.63,-44.57 56.89,-103.85l7.86 -467.23c-52.8,-7.91 44.82,26.87 -34.56,15.73z"/>
   <path class="fil0" d="M12678 1831.53c-8.65,33.66 5.25,14.18 -25.35,25.29 11.22,-35.2 -15.51,-16.77 25.35,-25.29zm-13.31 -43.37c6.76,-44.8 -1.51,-37.4 40.44,-45.39 -10.42,32.12 -4.3,29.97 -40.44,45.39zm51.02 -109.69c-1.87,14.52 5.02,55.87 -24.1,26.62 -19.74,-19.84 12.53,-23.32 24.1,-26.62zm-35.07 -95.05c-2.26,-1.87 -3.99,-6.11 -4.21,-7.72 -2.29,-16.93 4.14,-17.57 7.83,-22.64 24.25,21.27 26.07,21.54 -3.63,30.36zm-128.64 -95.91c0.95,6.11 -13.26,19.62 -10.88,3.75 5.22,-34.96 9.43,-13.12 10.88,-3.75zm46.51 -8.03c-32.08,-36.28 -4.45,-13.9 0,-21.53 5.1,9.2 34.87,-15.51 0,21.53zm24.8 -169.27c32.06,-21.98 30.49,-7.8 41.62,0 -37.65,35.76 -38.37,2.31 -41.62,0zm73.54 -19.05c-1.37,-10.08 6.77,-13.68 12.67,2.71 11.8,32.76 -11.36,6.84 -12.67,-2.71zm-154.57 -19.06c12.89,-7.83 -1.42,-4.67 16.97,-6.09 0.98,-0.06 4.96,4.37 5.69,2.35 0.82,-2.26 3.78,2.53 5.7,3.75 -12.43,10.16 1.67,6.31 -17.65,8.33 -44.47,4.67 10.16,11.05 -10.72,-8.33zm88.93 -33.89c4.06,1.13 10.1,10.87 11.39,12.57 -26.3,17.4 -17.07,26.21 -33.64,-7.26 11.49,-7.82 -16.4,-16.06 22.25,-5.3zm-133.77 -4.22c22.77,-12.33 6.44,-9.14 21.37,1.25 -25.52,21.82 -8.12,11.91 -21.37,-1.25zm194.8 -20.35c4.74,45.91 15.87,-18.06 -7.96,11.6 -24.01,-18.15 -5.93,6.82 -8.54,-17.23 -3.12,-28.7 -3.24,1.55 8.54,-10.7 8.62,10.42 6,-2.59 7.96,16.33zm-122.3 -18.76c10.55,23.74 10.46,5.67 -0.16,27.33 -38,-26.46 -4.56,-22.5 0.16,-27.33zm64.33 -13.73c18.5,42.1 2.58,4.14 -7.16,21.29 -25.68,-14.6 -25.7,-3.58 -9.52,-33.08 18.38,7.79 8.01,-7.94 16.68,11.79zm-140.56 -1.33c-21.4,-21.49 -5.79,-15.91 0,-25.23l8.28 12.85c13.6,49.51 8.09,-7.46 -8.28,12.38zm199.23 -22.58c9.66,43.59 8.72,-9.23 -8.66,13.68 -6.57,-8.45 -15.07,-12.47 -3.51,-32.37 21.84,20.79 5.9,-9.61 12.17,18.69zm59.49 -18.01c1.78,42.26 4.04,2.56 -13.85,20.11 -12.11,-27.76 -12.49,-14.32 2.86,-37.84 9.5,9.83 9.46,-18.25 10.99,17.73zm-258.72 -45.64c32.49,41.96 0.18,31.58 -3.77,35.32 -23.28,-33.4 -3.76,-26.54 3.77,-35.32zm42.94 14.86c8.21,-48.39 -2.36,-24.96 23.77,-38.63 17.18,28.5 4.2,53.06 -19.07,78.13l-4.7 -39.49zm106.21 -3.37c25.64,-25.65 -9.78,-5.85 20.47,-13.46 47.12,-11.83 -3.06,-4.79 12.46,8.95 -21.38,11.19 -1.72,11.03 -32.93,4.51zm-122.29 -104.81c16.81,13.84 10.44,-11.11 14.84,28.12 -11.82,6.29 22.53,18.44 -29.62,4.43 2.34,-36.46 -7.26,-12.86 14.79,-32.55zm125.6 -41.02c22.64,33.21 11.04,19.81 0,33.36 -36.51,-15.25 -16.51,-22.12 0,-33.36zm55.22 -27.5c18.95,13.59 2.79,-1.25 16.02,16.38 -7.28,4.48 14.24,16.82 -32.38,10.64 -21.79,-2.9 -29.07,-18.96 -36.18,-56.77 27.67,7.65 11.46,4.53 33.79,18.82 4.64,2.98 17.44,10 18.74,10.92zm73.65 -45.49l8.46 37.26c-56.09,9.32 -72.58,-0.62 -84.89,-52.04 44.6,14.79 10.82,13.51 44.84,19.89 42.29,7.96 -0.21,2.26 31.59,-5.12zm-259.85 55.03c1.82,-1.09 4.72,-2.45 6.69,-3.64l28.31 -19.35c1.86,-1.15 4.08,-2.83 6.03,-3.9l69.52 -36.08c-9,40.39 -14.78,28.4 -16.66,80.54l-42.76 -21.73 -24.98 35.61c-19.17,-6.72 -24.94,-11.75 -39.33,-22.71l13.17 -8.75zm4.06 -50.32c-13.36,19.22 -2.34,37.73 -31.74,1.4 25.33,-26.57 31.5,-1.5 31.74,-1.4zm30.85 -16.61c12.97,-13.1 -18.81,-19.03 19.25,-19.79 31.53,-0.65 3.48,-4.01 15.29,17.33 -12.71,6.48 -17.01,10.68 -34.54,2.46zm125.24 4.8c1.15,-1.87 3.64,5.99 5.3,9.09 -2.7,-1.69 -13.06,-10.05 -15.72,-11.68l-21.91 -11.22c-25.2,-12.02 -34.54,15 -23.46,-37.7 32.42,5.44 15.01,-1.14 35.93,24.51l19.85 27zm66.01 -26.07c-40.14,4.48 -14.92,9.4 -19.53,-24.55l19.53 24.55zm-47.52 -84.65c30.99,12.81 41.09,6.17 -4.33,28.93l4.33 -28.93zm-9.53 -8.23c-35.36,-26.71 -0.44,-23.26 0,-23.92 28.15,44.7 5.69,16.42 0,23.92zm49.53 -47.25c10.58,-9.7 -17.84,-12.62 24.15,-9.47l4.3 54.55 -27.74 -4.84c-1.44,-3.07 -4.27,-3.48 -6.5,-5.07 -28.22,-21.4 -6.89,8.32 -20.65,-32.26l26.45 -2.92zm-141.78 92.65c-16.89,25.46 -13.79,13.25 -50.92,21.4 -18.82,33.31 2.58,14.82 -27.34,25.67 0.73,-32.27 -2.9,-58.62 28.18,-59.88l16.6 -2c19.94,-35.74 41.58,-18.38 71.85,-39.64 45.21,-31.74 -4.37,-53.8 50.84,-57.24 -12.14,37.78 -33.44,70.88 -34.16,109.25 -83.85,-11.76 -42.65,-6.73 -55.06,2.45zm194.25 -162.38c-35.21,33.51 -49.47,-4.52 -61.32,-27.52 28.55,3.36 43.99,8.42 61.32,27.52zm-201.01 -42.43c-31.23,-4.08 -6.52,7.75 -22.29,-21.78 33.08,16.88 19.44,-11.25 22.29,21.78zm233.22 417.34l-17.14 0.98 -20.55 -5.26 4.33 -17.39 -6.79 -7.11 -42.06 5.93 12.23 37.57 45.29 5.7c-14.06,35.75 -26.49,19.4 -44.61,6.96l-32.58 -15.59 3.98 -46.76c50.08,-27.34 27.77,15.14 73.03,-30.48 45.63,-45.98 14.75,-153.48 22.01,-261.83 17.74,-264.73 -51.43,-216.96 -159.6,-213.27 -184.47,6.31 -235.23,-62.39 -241.06,136.99 -3.59,122.74 -11.19,256.3 15.23,372.46l41.83 -16.84c7.31,39.04 -2.95,27.93 -3.29,29.76 -10.49,56.18 22.16,8.05 -11.77,62.76 -26.72,43.1 -38.1,49.23 -38.69,113.58 -1.82,204.1 -18.01,468.26 2.32,662.4 8.08,77.13 -32.94,48.96 34.6,166.47 264.05,-21.53 366.59,63.11 361.26,-142.21l2.06 -844.83z"/>
   <path class="fil0" d="M14783.4 1856.25c23.52,-17.86 -18.28,-8.86 24.46,-21.02 -8.26,24.67 8.44,11.19 -24.46,21.02zm54.29 -176.1c3.02,6.36 4.04,6.01 6.75,19.82 0.34,1.8 -0.86,11.29 -1.3,14.43 -36.14,-15.58 -42.81,-13.93 -5.45,-34.25zm-31.27 -112.66c42.78,-21.68 23.99,-0.89 25.36,0 -15.29,10.84 -10.95,10.78 -25.36,0zm55.57 -3.93c22.73,-24.33 -30.76,-11.38 22.62,-25.38 -11.9,29.57 13.98,5.77 -22.62,25.38zm-141.13 -91.36c2.22,-1.64 4.58,-5.57 5.69,-6.02 51.29,-20.88 2.04,-7.16 16.82,9.8l-22.52 -3.78zm-7.04 -141.19c9.3,7.55 10.55,-17.2 13.3,22.13 -25.27,-0.07 -22.31,-1.43 -13.3,-22.13zm45.19 -20.79c0.93,-0.73 -7.08,-38.98 36.56,2.33 -39.78,25.36 -31.02,1.34 -36.56,-2.33zm92.96 -4.67c-44.86,-7.09 -18.42,5.72 -23.57,-21.48 29.61,10.02 7.4,-13.04 23.57,21.48zm-45.46 -17.61c-39.14,-12.54 -19.49,3.16 -21.95,-21.78 22.9,7.9 8.19,-4.91 21.95,21.78zm-130.75 -15.83c30.8,-15.36 15.14,-7.26 27.09,0 -13.12,12.45 4.87,6.27 -16.34,8.73 -48.46,5.6 11.4,12.45 -10.75,-8.73zm73.05 -17.22c-19.73,-17.49 -3.76,-1.77 -7.81,-24.43 60.47,12.92 24.35,25.41 24.04,26.62 -3.99,0.66 9.07,20.23 -16.22,-2.2zm-120.19 -20.88l23.32 0c-41.76,32.94 -17.47,5.89 -23.32,0zm174.9 -19.07c42.17,-23.31 14.46,-7.31 24.26,4.24l-24.26 -4.24zm-107.96 5.83c-29.48,-20.3 -2.16,-24.33 -0.82,-26.82 1.57,1.86 43.63,-15.49 0.82,26.82zm76.33 -20.37c-48.83,-3.53 -20.34,5.88 -30.09,-27.48 50.43,8.17 18.02,-14.23 30.09,27.48zm-133.65 -22.17c-40.99,-2.03 -14.26,9.27 -23.97,-25.1 32.04,16.29 14.26,-10.78 23.97,25.1zm192.3 -31.25l-0.55 23.35 -19.75 0.57c-10.84,-15.51 -18.32,26.95 -8.93,-29.4 40.33,-6.1 20.64,0.6 29.23,5.48zm45.26 -26.04c34.98,45.45 2.79,33.7 0,37.05 -12.26,-13.02 -7.2,13.66 -10.46,-19.44 -3.58,-36.43 2.2,-8.75 10.46,-17.61zm-241.84 -27.37c7.6,55.04 3.98,20.59 -5.9,33.8 -45.81,-47.17 3.17,-30.84 5.9,-33.8zm138.56 -2.5c25.55,-10.07 21.99,-11.68 37.32,9.52 -7.04,3.52 7.26,14.14 -24.44,5 -23.92,-6.9 -4.5,-2.38 -12.89,-14.52zm-74.12 -0.32c-0.76,24.31 0.72,3.16 -13.18,14.75 -13.11,-15.27 -6.06,-0.5 -7.75,-21.41 -3.5,-43.66 -4.66,4.2 7.75,-12.8 5.29,4.87 14.09,-9 13.18,19.46zm48.08 -16.84c-0.04,-1.32 -2.76,3.36 -4.09,5.09 -42.52,-41.89 -0.68,-29.7 0,-30.69 12.44,23.52 4.09,25.65 4.09,25.61zm-79.1 -68.73c-7.42,44.34 6.24,18.48 -20.26,27.35 -18.23,-28.79 -1.6,-23.23 20.26,-27.35zm256.06 11.77c-32.31,-11.96 4.1,29.54 -7.8,-11.47l7.8 11.47zm-135.4 -34.94c-6.59,22.69 -1.24,4.96 -17.05,10.28 -25.46,-32.85 0.5,-29.4 12.93,-30.3 4.57,10.7 10.37,-1.49 4.13,20.02zm-150.21 -33.86c27.7,-26.67 98.18,-80.4 97.73,7.32 -17.18,-9.44 -16.86,-11.58 -40.8,-15.19 -19.1,25.98 -4.72,16.63 -28.58,34.4l-28.34 -26.53zm211.29 0c-17.02,11.34 -25.11,23.86 -51.34,2.18 -12.98,-10.74 -15.87,-33.52 -18.69,-51.18l54.92 33.99c13.22,9.99 7.1,5.42 15.12,15.02zm-91.32 -70.45c-10.72,45.37 8.99,19.43 -26.07,34.53 5.63,-47.73 -17.4,-17.2 26.07,-34.53zm-125.54 27.92c-18.74,-2.1 -7.89,-7.37 -13.36,-16.3 37.82,-28.53 33.35,1.61 33.46,1.67 -14.31,21.5 12.71,18.32 -20.1,14.64zm279.37 20.37c-57.24,5.61 -66.99,-9.08 -81.95,-53.95 50.27,6.31 22.18,30.93 73.99,12.02 5.92,30.18 6.07,14.7 7.96,41.93zm-112.06 -37.38c-34.01,-16.91 -5.92,-15.77 0,-22.87 29.9,48.02 7.74,7.94 0,22.87zm-102.87 -10.75c-29.72,-5.18 -5.11,-0.64 -13.1,-15.47 29.76,-17.4 18.57,-18.07 32.15,9.52 -18.39,10.03 16.56,12.15 -19.05,5.94zm83.92 -16.03c-38.72,-2.61 -30.63,8.25 -34.09,-28.01 33.7,-12.11 31.04,-2.89 34.09,28.01zm-114.44 -73.17c5.69,7.82 34,-18.49 7.88,40.58l-26.64 25.63c-1.71,-2.19 -6.33,3.51 -9.53,5.2l28.29 -71.4zm156.26 -19.46c25.7,5.52 18.05,-0.36 21.9,23.62 -34.8,-0.45 -22.51,8.24 -21.9,-23.62zm-205.83 -11.62c0.05,-1.32 10.04,-18.56 14.23,3.08 1.91,9.85 -15.58,38.59 -14.23,-3.08zm273.45 -3.13c-43.41,-7.28 -24.85,7.66 -48.42,-25.46 9.21,-19.85 20.66,-18.06 44.93,-22.43l3.5 47.88zm-199 61.12c0.44,-65.45 20.24,-31.95 66.4,-61.77 53.86,-34.81 -5.65,-41.84 55.59,-63.37 -12.59,46.75 -32.39,65.17 -34.46,113.4 -20.52,-4.21 -25.43,-10.11 -43.01,-6.3 -52.88,11.46 42.91,-17.59 -19.66,9.6 -8.31,3.62 7.88,2.38 -24.86,8.44zm-16.65 -134.21c-2.17,-40.19 11.68,-9.87 14.49,-2.12 5.21,14.3 -13.92,12.84 -14.49,2.12zm240.27 -38.11c-36.39,19.34 -45.34,0.36 -55.23,-28.15 30.18,2.92 38.67,1.94 55.23,28.15zm8.73 342.03l-51.56 16.13c3.14,41.41 14.55,31.59 54.53,37.5 -7.86,7.43 2.56,26.7 -48.27,14.04 -51.32,-12.8 -28,-61.86 -16.49,-87.05l49.28 4.54c13.08,-42.05 5.19,-6.64 17.98,-26.65 22.13,-34.6 2.85,-22.64 13.31,-80.34 10.33,-57.09 3.16,-81.71 1.63,-134.66 -3.55,-121.98 37.02,-164.93 -39.41,-253.01 -59.09,-6.66 -171.82,-3.42 -238.55,-4.98 -156.46,-3.65 -118.08,87.53 -119.55,353.48 -0.99,177.77 -1.87,152.62 63.97,150.45 -6.21,53.66 -11.85,6.87 -14.13,47.85 -1.85,33.49 23.11,-6.64 -9.87,44.53 -25.43,39.45 -37.64,51.37 -36.87,109.22 2.16,165.06 5.45,425.61 -3.65,584.68 -5.88,102.85 -0.76,169.96 41.48,246.19 379.87,-30.6 362.44,102.07 360.97,-325.36l-0.45 -686.04c-15.33,-12.83 22.22,-25.57 -24.34,-10.52z"/>
  </g>
  <rect class="fil0" x="9191.48" y="2524.76" width="5759.96" height="447.9"/>
  <path class="fil1" d="M6152.71 2453.68l255.55 0 0 117.72 -102.06 0 0 112.49 95.37 0 0 111.76 -95.37 0 0 129.64 112.49 0 0 117.72 -265.98 0 0 -589.33zm633.66 178.8l-142.3 0 0 -43.57c0,-20.38 -1.86,-33.42 -5.46,-38.99 -3.61,-5.59 -9.56,-8.33 -17.99,-8.33 -9.2,0 -16.15,3.74 -20.87,11.3 -4.72,7.46 -7.07,18.76 -7.07,34.04 0,19.61 2.72,34.39 8.06,44.33 5.23,9.81 19.63,21.86 43.34,36.02 67.94,40.6 110.76,74 128.4,99.95 17.76,25.95 26.57,67.8 26.57,125.42 0,41.96 -4.98,72.88 -14.78,92.87 -9.81,19.87 -28.69,36.52 -56.88,49.93 -28.05,13.53 -60.72,20.23 -98.1,20.23 -40.98,0 -75.87,-7.82 -104.93,-23.34 -28.93,-15.53 -47.79,-35.27 -56.88,-59.24 -8.93,-24.09 -13.41,-58.23 -13.41,-102.32l0 -38.61 142.3 0 0 71.65c0,22.1 1.99,36.26 5.96,42.59 3.98,6.33 11.05,9.44 21.23,9.44 10.19,0 17.76,-3.98 22.73,-12.04 4.97,-7.96 7.45,-19.88 7.45,-35.53 0,-34.64 -4.73,-57.36 -14.17,-67.92 -9.8,-10.69 -33.64,-28.56 -71.63,-53.64 -38.01,-25.21 -63.1,-43.59 -75.52,-55.02 -12.29,-11.42 -22.59,-27.19 -30.66,-47.31 -8.07,-20.11 -12.17,-45.82 -12.17,-77.12 0,-45.07 5.7,-78.11 17.25,-98.96 11.55,-20.86 30.05,-37.12 55.76,-48.92 25.71,-11.8 56.63,-17.63 93.01,-17.63 39.73,0 73.5,6.46 101.57,19.25 27.93,12.92 46.45,29.04 55.51,48.67 9.06,19.48 13.66,52.65 13.66,99.46l0 23.34zm369.68 -178.8l0 117.72 -90.15 0 0 471.61 -153.47 0 0 -471.61 -90.89 0 0 -117.72 334.52 0zm67.04 469.37l0 119.96 -111 0 0 -119.96 111 0zm487.15 19.38l0 100.57 -323.35 0 0.23 -84.2c95.87,-156.58 152.87,-253.43 171,-290.67 18.13,-37.25 27.19,-66.32 27.19,-87.06 0,-16 -2.85,-27.94 -8.31,-35.89 -5.47,-7.81 -13.79,-11.8 -24.97,-11.8 -11.17,0 -19.62,4.36 -25.08,13.05 -5.47,8.68 -8.2,25.95 -8.2,51.77l0 55.89 -131.86 0 0 -21.49c0,-32.9 1.73,-58.97 5.09,-77.99 3.36,-18.99 11.79,-37.74 25.08,-56.12 13.42,-18.38 30.8,-32.41 52.16,-41.85 21.36,-9.43 46.95,-14.16 76.74,-14.16 58.49,0 102.68,14.54 132.74,43.47 29.93,29.04 44.96,65.69 44.96,110.01 0,33.79 -8.45,69.42 -25.34,107.05 -16.88,37.62 -66.68,117.34 -149.26,239.41l161.19 0zm403.81 -289.2l0 196.44c0,44.7 -2.49,77.12 -7.33,97.47 -4.85,20.5 -14.91,39.49 -30.18,57.26 -15.26,17.63 -33.64,30.42 -55.24,38.11 -21.5,7.82 -45.59,11.68 -72.28,11.68 -35.14,0 -64.32,-4.11 -87.67,-12.17 -23.22,-8.19 -41.72,-20.86 -55.63,-38 -13.79,-17.26 -23.6,-35.39 -29.44,-54.39 -5.82,-19.11 -8.68,-49.41 -8.68,-90.89l0 -205.5c0,-54.14 4.73,-94.63 14.04,-121.57 9.3,-26.94 27.81,-48.54 55.63,-64.82 27.69,-16.26 61.34,-24.34 100.82,-24.34 32.28,0 61.09,5.59 86.55,16.89 25.46,11.3 44.46,25.09 57.01,41.34 12.66,16.26 21.22,34.53 25.7,54.89 4.48,20.37 6.71,52.9 6.71,97.61zm-146.77 -49.29c0,-31.3 -1.5,-50.8 -4.61,-58.74 -2.99,-7.81 -10.05,-11.8 -21.35,-11.8 -10.93,0 -18.13,4.24 -21.62,12.55 -3.59,8.31 -5.32,27.69 -5.32,57.99l0 287.09c0,34.15 1.61,54.75 4.96,61.71 3.23,7.07 10.32,10.55 21.37,10.55 10.92,0 17.99,-4.1 21.47,-12.41 3.36,-8.19 5.11,-26.7 5.11,-55.52l0 -291.42zm426.28 -150.26l0 589.33 -146.78 0 0 -316.4c0,-45.69 -1.12,-73.26 -3.24,-82.44 -2.24,-9.2 -8.18,-16.27 -17.99,-20.99 -9.82,-4.73 -31.67,-7.07 -65.57,-7.07l-14.53 0 0 -68.42c71.02,-15.16 124.91,-46.58 161.67,-94l86.44 0zm337.87 255.19c21.61,8.68 38.25,21.72 49.79,39.11 11.67,17.37 17.5,58.6 17.5,123.91 0,47.55 -4.59,82.58 -13.79,105.18 -9.31,22.47 -27.18,40.98 -53.88,55.51 -26.69,14.41 -62.47,21.61 -107.42,21.61 -43.71,0 -78.23,-6.95 -103.68,-20.73 -25.58,-13.79 -43.84,-32.17 -54.89,-55.02 -11.05,-22.72 -16.51,-60.71 -16.51,-113.86 0,-35.66 2.73,-66.56 8.2,-92.76 5.45,-26.21 22.6,-47.2 51.41,-62.95 -18.14,-8.7 -31.68,-22.62 -40.73,-41.73 -9.08,-19 -13.67,-43.22 -13.67,-72.52 0,-50.66 14.04,-88.79 42.23,-114.12 28.04,-25.33 70.14,-37.99 126.15,-37.99 64.82,0 109.53,13.42 134.24,40.36 24.71,26.94 37.12,65.44 37.12,115.35 0,31.8 -4.11,54.77 -12.17,68.8 -8.08,14.03 -24.72,28.06 -49.92,41.85zm-82.45 -126.3c0,-19.98 -1.74,-33.15 -5.34,-39.48 -3.47,-6.45 -10.3,-9.69 -20.36,-9.69 -9.8,0 -16.39,3.49 -19.87,10.43 -3.35,6.84 -5.09,19.75 -5.09,38.74l0 44.71c0,17.75 1.99,29.93 5.82,36.75 3.99,6.82 10.56,10.18 19.88,10.18 9.8,0 16.37,-3.36 19.86,-10.06 3.36,-6.58 5.1,-20.35 5.1,-41.22l0 -40.36zm2.99 244.51c0,-22.61 -2.37,-37.51 -6.96,-44.96 -4.72,-7.31 -12.05,-11.05 -22.1,-11.05 -9.81,0 -16.89,3.61 -21.12,10.68 -4.34,7.19 -6.45,22.22 -6.45,45.33l0 76.25c0,25.46 2.37,41.83 7.2,49.04 4.72,7.32 12.29,10.92 22.61,10.92 10.55,0 17.62,-3.73 21.35,-11.05 3.61,-7.44 5.47,-24.09 5.47,-50.03l0 -75.13z"/>
  <rect class="fil0" x="-0" y="2524.76" width="5759.96" height="447.9"/>
 </g>
</svg>
