<?xml version="1.0" encoding="UTF-8"?>
<!DOCTYPE svg PUBLIC "-//W3C//DTD SVG 1.1//EN" "http://www.w3.org/Graphics/SVG/1.1/DTD/svg11.dtd">
<!-- Creator: CorelDRAW 2020 (64 Bit) -->
<svg xmlns="http://www.w3.org/2000/svg" xml:space="preserve" width="71.525mm" height="45.0004mm" version="1.1" style="shape-rendering:geometricPrecision; text-rendering:geometricPrecision; image-rendering:optimizeQuality; fill-rule:evenodd; clip-rule:evenodd"
viewBox="0 0 2988.4 1880.17"
 xmlns:xlink="http://www.w3.org/1999/xlink"
 xmlns:xodm="http://www.corel.com/coreldraw/odm/2003">
 <defs>
  <style type="text/css">
   <![CDATA[
    .fil0 {fill:black}
    .fil1 {fill:black;fill-rule:nonzero}
   ]]>
  </style>
 </defs>
 <g id="Camada_x0020_1">
  <metadata id="CorelCorpID_0Corel-Layer"/>
  <g id="_2436520864736">
   <path class="fil0" d="M1606.7 814.4c-11.36,-3.53 -8.49,0.28 -11.53,-11.1 16.7,1.2 8.99,-4.43 11.53,11.1zm-133.4 -7.8c-13.68,6.29 -7.29,2.63 -11.02,-3.99 12.72,-4.81 6.27,-4.16 11.02,3.99zm196.31 -10.66c7.98,-9.44 -12.96,-2.74 9.02,-10.04 -4.13,10.7 1.91,6.19 -9.02,10.04zm0.11 -41.03c13.97,3.61 13.66,3.03 19.08,18.79 -16.78,-0.79 -16.17,-2.37 -19.08,-18.79zm39.96 3.66c-17.45,0.3 -7.68,3.47 -13.15,-8.97 13.27,3.4 7.07,-2.34 13.15,8.97zm-275.13 -28.16c11.17,5.75 12.06,4.12 3.99,15.1 -10.64,-7.59 -10.08,-4.06 -3.99,-15.1zm-55.86 -6.89c12.93,4.65 6.09,-4.97 10.47,12.63 -11.41,-5.38 -6.78,3.02 -10.47,-12.63zm21.76 -11.25c14.65,-0.22 15.3,5.37 23.44,14.84l-5.28 24.24 -12.12 -20.33c-8.28,-11.21 -7.24,-0.3 -6.05,-18.75zm275.1 7.74c-0.01,-0.61 -1.29,1.45 -1.9,2.2 -13.27,-12.33 -1.56,-9.94 0,-12.06 5.96,8.88 1.91,10.35 1.9,9.86zm-223.88 3.51c19.62,-12.86 9.23,-11.55 21.28,-11.32 -0.86,7.17 0.99,4.16 -2.26,11.08 -4.77,10.17 -3.62,5.39 -8.64,10.53l-15.54 -6.93 5.15 -3.36zm-27.09 -5.67l-7.37 -13.86c14,6.6 11.86,-4.51 7.37,13.86zm312.84 -34.8c9.23,-5.39 -0.74,-7.47 12.89,0 -7.06,6.09 3.61,2.66 -7.86,3.89 -18.73,2.01 2.52,3.03 -5.03,-3.89zm-412.19 -31.88c-0.12,0.12 -1.5,10.47 -12.15,5.19 -5.54,-2.75 -3.78,-6.78 -4.03,-11.29 15.36,-0.55 7.89,-2.07 16.18,6.1zm360.05 -7.82c10.57,2.84 5.64,2.22 8.74,4.12 -38.03,4.61 -71.68,0.89 -75.45,-35.19 12.25,8.59 12.18,16.41 30.53,23.61 14.26,5.6 26.13,4.77 36.17,7.46zm-390.18 -8.97c-4.4,-10.17 -0.41,-15.27 2.64,-22.55 34.07,4.98 24.58,8.62 23.88,18.86 -7.52,-2.33 -8.66,-3.87 -14.57,-7.17l-11.96 10.86zm505.66 16.78c-16.61,-8.81 -5.5,0.98 -14.22,-10.56l-11.85 -23.64c14.14,6.43 20.51,13.93 26.07,34.2zm-470.16 -56.71c0.48,-1.13 1.77,-5.33 2.08,-6.2l2.26 -6.2c19.73,9.71 18.71,19.04 11.97,41.75 -21.5,-11.07 0.84,-9.95 -24,-16.45l7.69 -12.9zm462.91 10.26c-13.96,-1.48 -1.42,1.24 -9.63,-7.18 7.32,-3.71 13.86,-2.47 21.11,1.85 -1.53,1.4 8.97,7.5 -11.49,5.33zm-490.04 -9.31c3.2,-2.58 3.08,-7.04 11.46,0 -13.49,10.24 -4.84,5.35 -11.46,0zm512.29 -27.89c0.36,-4.31 4.93,-7.91 6.38,0.81 0.7,4.14 -7.76,15.62 -6.38,-0.81zm-522.87 -23.91l7.06 -1.86c0.29,-0.94 1.29,1.28 1.98,1.86 -14.95,10.09 -3.54,2.49 -9.04,0zm28.67 -11.95c1.01,-0.63 2.11,-2.19 2.66,-2.37 20.89,-6.96 1.54,-2.94 8.23,2.37l-10.89 0zm-35.76 2.97c-12.35,-2.72 -2.79,4.17 -8.34,-9.73 12.34,7.04 6.72,-4.84 8.34,9.73zm573.73 -31.66l-10.83 -2.14c1.12,-14.54 8.53,-5.91 10.83,2.14zm-241.5 32.23c21.39,-12.32 16.85,-15.08 46.91,-28.27 63.47,-27.86 36.17,-74.73 129.44,-24.29 7.23,3.91 1.99,-0.02 10.6,5.19 -2.43,27.69 0.55,63.14 -12.31,91.15 -32.31,70.37 -123.28,60.8 -148.8,38.17 -20.6,-18.25 -26.21,-47.83 -25.84,-81.95zm-239.1 93.77l-22.04 4.03 5.22 -17.08c0.3,-2.59 0.76,-3.02 1.14,-4.55 -2.17,-9.05 -15.2,-45.51 -20.35,-54.5 -5.89,13.59 3.37,5.57 -7.52,17.61l-3.05 -7.07 -14.87 3.08c5.54,-17.74 -2.86,-8.8 14.29,-16.04 4.99,-10.87 6.81,-6.61 9.58,-19.51 9.58,-44.5 -3.59,-52.97 -1.3,-69.58 21.36,1.72 -2.06,1.94 12.95,4.77 16.6,3.13 19.93,-9.07 37.68,-9.19 20.12,-0.13 32.75,14.7 43.07,23.7 24.3,21.17 27.35,9.69 49.6,22.15 17.33,9.71 17.61,18.91 40.33,26.27 0.21,76.65 -9.3,79.16 -57.13,98.2 5.79,5.19 -3.62,1.74 8.77,3.68l47.31 -24.99c-2.65,19.97 -14.17,29.61 -34.66,35.1 -9.12,2.44 -21.74,4.06 -32.13,0.68 -14.29,-4.65 -4.97,-3.51 -5.48,-4.91l0.14 -7.78c-28.13,-1.77 -24.07,-5.06 -35.2,13.63 -1.36,-24.22 -3.79,-19.14 -29.14,-26.14l12.48 26.56 -19.06 -5.11 -0.65 -13.02zm489.98 -138.63l-7.92 -21.31c18,17.04 13.6,-2.13 25.27,20.43l-17.36 0.88zm-539.19 -40.34c-0.59,7.25 -3.08,3.03 -6.74,4.49 -13.32,-17.29 -0.08,-12.79 0,-12.96 9.28,5.32 7.65,-2.8 6.74,8.47zm271.7 13.98c8.66,-9.92 12.61,-14.35 30.59,-17.89 -1.93,3.92 -4.87,12.83 -11.91,16.27 -8.34,4.07 -9.38,1.99 -18.68,1.62zm-65.96 -16c10.69,-4.98 19.29,2.8 26.43,11.7 -14.99,-0.53 -17.57,-0.77 -26.43,-11.7zm-171.42 -1.38c-4.06,-16.65 0.73,-15.8 17.42,-21.18 -1.11,14.4 -5.82,17.54 -17.42,21.18zm-29.87 -20.03c-9.48,-9.56 -5.74,-2.6 -3.23,-11.24 11.06,4.8 11.54,0.32 3.23,11.24zm-19.17 -14.32c0.46,1.07 6.29,2.42 1.09,12.6 -6.18,12.09 -1.85,5.62 -13.8,7.82l12.71 -20.41zm99.47 -16.07c-15.21,5.61 -11.72,-0.05 -16.18,-8.04 19.47,-1.56 11.91,-3.65 16.18,8.04zm-36.07 -9.13c-3.99,-16.16 -4.64,-1.86 -3.63,-11.06 5.77,4.36 11.05,8.78 15.68,12.22 -17.1,37.75 -14.55,-5.49 -41.23,45.53 -3.25,-28.71 2.93,-42.27 29.18,-46.69zm-45.9 1.16c-1.4,-14.33 -1.79,-9.82 -7.73,-22.75l32.61 18.76c-20.34,18.89 -9.47,13.79 -22.49,22.69l-16.59 -5.72c5.57,-11.82 -2.11,-0.11 5.55,-7.45l8.65 -5.53zm494.58 -13.41c9.04,-10.34 -14.54,-6.18 10.3,-9.3l-10.3 9.3zm-396.34 -14l10.87 3.5c-2.49,13.22 -2.24,10.38 -17.22,18.09l6.35 -21.59zm-19.08 11.47c-2.42,1.28 8.11,11.51 -13.28,0.76 -11.4,-5.73 -4.83,-3.58 -10.02,-9.9 21.89,-1.84 16.12,-6.26 23.3,9.14zm150.69 -63.73c-2.95,-11.83 -2.76,-1.58 4.35,-11.67l8.34 11.22c0.24,0.89 11.42,2.21 -2.8,6.34 -4.7,1.37 -8.71,-1.16 -9.89,-5.89zm-75.09 -24.28c4.89,6.96 7.94,5.92 3.08,14.88 -6.07,-3.41 -4.85,1 -6.34,-7.05 -3,-16.27 -0.98,-1.07 3.25,-7.83zm-0.9 -18.93c-6.48,-3.39 -0.01,-10.13 0,-10.14 1.91,4.03 10.66,-6.53 0,10.14zm-139.16 -44.48c9.07,-4.14 9.25,-6.39 15.05,3.99 -10.57,6.1 -8.27,3.5 -15.05,-3.99zm74.74 11.56c-151.95,-181.43 209.46,-168.6 281.92,-125.57 52.36,31.1 30.19,96.76 5.65,120.81 -43.95,-7.62 -70.13,-26.16 -123.53,-26.22 -8.49,13.22 -8.25,19.5 -9.52,39.12 -12.76,-41.93 -8.29,-4.83 -30.32,-38.85 -76.11,1.5 -89.79,27.49 -124.19,30.71zm315.1 -111.18l9.98 0c-21.1,14.54 -6.73,2.7 -9.98,0zm53.68 160.01c40.75,-62.86 83.55,-149.68 7.89,-217.2 -54.34,-48.49 -155.56,-64.99 -248.5,-63.97 -47.83,0.53 -96.98,5.33 -140.59,16.52 -49.54,12.72 -75.75,25.01 -98.4,56.93 -75.8,106.82 24.15,197.48 32.19,220.73 -14.84,9.15 -51.66,60.14 -58.24,84.62 -9.02,33.58 -6.36,3.99 -18.17,28.75l-5.64 18.43c-5.74,17.48 -1.63,12.02 -4.84,23.89 -2.01,7.41 -6.15,11.12 -9.61,20.96 -24.68,70.25 24.23,179.04 52.59,223.8 35.73,56.4 97.28,103.75 157.09,125.9 59.3,21.97 187.62,29.42 236.06,-6.08 0.94,-20.77 -10.6,-21.16 -2.94,-34.19 15.1,4.76 13.38,14.01 19.35,25.83 9.57,-5.16 27.71,-7.8 36.96,-15.06l29.02 -22.54c39.71,-26.43 78.3,-69.99 92.04,-115.7 8.68,-28.86 21.24,-28.93 26.75,-77.41 4.5,-39.62 -8.52,-22.72 -2.39,-44.91 2.76,-10.02 4.9,0.56 5.98,-22.57 1.45,-30.91 -6.4,-43.05 -10.1,-67.61 -2.92,-19.36 -6.14,-19.75 -12.92,-37.66 -29.82,-78.85 -42.77,-63.54 -60.5,-94.73 -8.5,-14.96 -14.52,-14.3 -23.05,-26.76z"/>
   <path class="fil0" d="M2789.41 795.31c5.2,6.1 9.82,-1.71 0.15,9.95 -4.82,-5.82 -8.64,0.08 -0.15,-9.95zm127.52 -68.89c4.21,5.69 3.06,4.12 0,9.59 -0.86,-1.38 -11.67,2.52 0,-9.59zm-46.87 7.67c0.72,-15.1 -4.82,-9.69 10.14,-10.28 -5.9,15.33 -3.62,6.11 -10.14,10.28zm-36.81 -14.13c9.11,9.13 5.55,1.51 4.16,14.13 -12.23,-5.15 -15.91,-6.61 -4.16,-14.13zm29.91 -7.45c-4.65,12.86 1.21,6.16 -10.04,10.37 3.11,-13.34 -6.67,-6.36 10.04,-10.37zm18.36 -5.43c11.93,2.81 7.85,-3.94 10.96,10.96 -15.3,-1.71 -8.51,3.61 -10.96,-10.96zm23.11 -1.13c-11.64,-14.05 -5.69,-7.55 -0.28,-14.35 4.81,6.4 4.27,-7.78 3.34,7.13 -0.48,7.78 -0.02,2.33 -3.06,7.22zm-53.17 -14.91c4.13,-2.53 -6.49,-11.48 9.44,0 -0.75,0.52 -1.87,0.79 -2.17,1.67 -0.27,0.77 -1.96,0.76 -2.29,0.69l-4.97 -2.36zm72.47 -2.25c4.59,-5.27 3.73,-5.9 8.83,-1.74l-8.83 1.74zm-24.54 -18.76c17.97,1.04 13.25,-8.92 12.2,11.39 -20.18,-2.44 -6.38,-2.97 -12.2,-11.39zm-50.2 -8.87c6.3,6.6 1.59,-2.85 4.82,11.54 -4.35,-1.77 -6.8,3.41 -7.6,-5.73 -1.55,-17.83 -8.91,-0.27 2.79,-5.81zm67.74 -5.45c12.35,16.1 1.84,5.53 0,9.34 -0.84,-1.24 -15.91,3.94 0,-9.34zm-39.85 -4.56c6.44,18.81 -2.11,14.94 -3.98,16.97 -0.25,-0.26 -6.8,-0.53 -6.29,-9.4 1.07,-18.55 6.86,-6.96 10.27,-7.57zm23.91 4.95c-2.38,-4.64 -4.12,5.41 -3.17,-8.74 0.56,-8.31 0.46,-3.5 3.17,-7.68 15.26,16.05 0.62,11.59 0,16.43zm15.94 -26.86c0.67,0.96 2.23,1.17 2.16,2.75l-2.16 7.48c-3.13,-4.55 -12.87,-3.46 0,-10.23zm-48.13 -28.52l4.05 9.02c20.64,-4.64 15.69,-7.45 27.83,5.6 -6.57,6.63 -30.34,12.21 -42.95,12.24 6.58,-15.09 -1.06,-1.96 14.71,-12.24 -4.52,-5.73 2.19,-3.53 -11.62,-7.17 -2.87,-4.52 -5.2,6.25 -2.63,-11.69 19.48,-1.78 4.97,-0.74 10.61,4.24zm40.54 -24.1c16.68,18.58 0.12,9.65 -0.38,10.14 -2.46,-6.28 -3.59,-5.97 0.38,-10.14zm-100 22.42c-8.55,-14.87 -0.69,-25.93 4.04,-35.87l22.73 7.44c0.44,0.12 1.67,0.51 2.45,0.89 -13.76,23.94 -6.92,-8.22 -27.6,25.11 -0.33,0.52 -1.01,1.67 -1.63,2.43zm-12.32 -32.45l-45.42 -0.25c-0.04,-17.41 -1.02,-19.95 9.79,-29.96 3.2,5.25 0.25,1.52 3.01,8.08l7.07 13.33c8.6,-9.79 4.17,-5.31 21.93,-5.13 8.7,-10.57 10.71,-17.81 22.4,-5.07 -16.41,9.5 -10.04,2.67 -18.78,19zm24.46 -38.74c11.78,4.94 6.74,-1.66 7.33,11.36 -10.72,-5.62 -6.06,1.6 -7.33,-11.36zm-46.03 2.17l13.65 3.82c-9.17,13.36 -9.15,11.39 -13.65,-3.82zm-42.19 22.17c-1.19,-19.5 -5.12,-14.34 13.03,-17.22 -4.83,13.22 -0.91,11.45 -13.03,17.22zm-78.39 -17.34l-2.35 -9.83c2.52,0.67 5.43,1.51 7.91,3.2l-5.56 6.63zm143.59 -15.16c10.7,-9.53 1.64,-7.24 10.61,0 -7.72,6.65 11.29,4.94 -4.41,3.22 -8.7,-0.95 -0.67,1.76 -6.2,-3.22zm-55.26 -11.22c14.84,-4.26 14.06,3.15 14.23,3.25 -3.45,14.68 -6.49,14.52 -23.21,7.97 1.31,-7.66 -11.64,-5.29 8.98,-11.22zm-61.38 5.79l2.05 8.11c-0.15,0.51 -1.5,1.67 -2.05,2.64 -4.95,-7.19 -10.28,-4.49 0,-10.75zm147.44 -10.52c3.99,6.02 3.94,0.93 3.08,11.03 -13.86,-2.39 -14.62,-3.94 -3.08,-11.03zm-127.7 29.12c-1.46,-23.39 -4.99,-23.6 17.56,-25.47 -2.84,11.7 -6.45,18.69 -17.56,25.47zm-88.2 -14.73c11.38,-11.08 -12.02,-2.7 11.15,-11.72 -5.08,11.84 1.77,6.91 -11.15,11.72zm28.61 -22.32c2.99,3.47 11.98,-1.33 0,10.65 -9.08,-8.86 -2.31,-6.61 0,-10.65zm31.66 -7.25c-1.09,19.22 5.38,10.55 -12.79,11.68 1.43,-12.22 2.59,-9.44 12.79,-11.68zm38.81 7.22c17.89,-10.29 14.51,-0.99 29.15,-15.66l4.01 4.05c22.99,19.26 28.14,2.37 28.29,29.85l-24.33 -18.63 -19.92 11.55c-14.85,-6.34 -8.88,0.86 -17.19,-11.16zm64.74 -15.94c-4.6,8.52 -0.53,12.35 -13.69,3.99 0.63,-7.67 7.4,-6.72 13.69,-3.99zm-90.88 3.99c5.45,-5.39 -3.37,-3.51 7.42,-4.65 13.54,-1.44 4.94,2.2 7.64,4.65 -10.1,8.01 -2.94,9.42 -15.07,0zm-15.6 -7.97c0.07,-9.07 -3.93,-1.61 4.25,-1.78 10.26,-0.21 -4.35,14.82 -4.25,1.78zm50.94 1.45c-17.18,0.05 -6.33,3.05 -9.76,-10.28 10.32,5.59 4.56,-4.94 9.76,10.28zm-23.88 -16.63c4.28,5.16 5.17,4.43 -1.87,10.62l1.87 -10.62zm-107.59 10.7c-13.65,-14.34 -1.75,-6.76 0,-9.59l2.95 5.1c3.99,15.84 2.18,-1.5 -2.95,4.5zm23.91 -2.65c-4.6,-6.74 -3.77,5.51 -4.32,-12.89 -0.03,-0.89 1.36,-10.27 1.65,-11.39 3.03,-11.47 3.49,-8.6 10.22,-11.92 4.05,32.93 -2.07,32.05 -7.55,36.19zm-42.62 -6.03c-11.28,-4.99 -11.59,-4.08 -15.36,-13.5 17.27,-1.23 11.66,-1.75 15.36,13.5zm6.25 -22.69c0.11,-0.05 1.97,-7.69 13.8,-1.41 6.32,3.36 4.96,5.17 6.5,13.07 -20.77,-1.53 -15.24,0.49 -20.31,-11.67zm-15.96 -12.28c3.1,18.53 3.86,-4.01 -3.46,5.08 -2.29,-3 -5.7,-4.62 -0.67,-12.1 7.17,7.29 2.36,-3.59 4.13,7.01zm16.47 3.33c-0.56,-0.84 -5.74,4.14 -3.44,-10.48 2.13,-13.43 3.61,-6.25 7.42,-8.92 8.3,13.6 7.58,12.7 -3.99,19.4zm-42.29 -13.28c-6.9,-1.56 -1.42,0.69 -4.16,-5.66 9.44,-4.1 5.97,-3.33 11.38,3.99 -3.44,1.42 -0.64,3.16 -7.22,1.68zm64.13 0.56c-1.37,-23.81 11.22,-23.71 34.84,-24.79l-10.76 26.74 -6.07 -14.06c-9.39,7.58 -7.32,9.37 -18.01,12.11zm-35.37 -11.67c-10.45,-0.79 -7.73,5.29 -8.01,-8.32 10.76,0.58 6.66,-1.76 8.01,8.32zm8.18 -26.62c12.09,5.23 17.37,4.55 20.78,19.42 -16.23,1.6 -18.84,-3.32 -20.78,-19.42zm41.73 9.62c-17.08,-3.78 -6.06,2.48 -10.98,-11.3 15.09,6.26 6.38,-7.87 10.98,11.3zm25.86 -6.93c-17.97,-3.75 -8.15,2.59 -7.98,-11.23l7.98 11.23zm-90.14 -15.43c13.29,12.22 6.05,10.22 3.98,14.95 -19.88,-7.97 -4.23,-14.54 -3.98,-14.95zm29.62 -8.2c12.63,12.69 -3.89,10.2 -11.95,11.61 1.24,-6.06 1.04,-22.57 11.95,-11.61zm-60.03 3.31c13.94,-8.54 -11.23,-4.56 10.21,-8.95 -4.35,8.73 0.66,4.12 -10.21,8.95zm25.49 -17.71c6.77,2.33 6.91,0.47 10.55,5.83 8.29,12.2 0.05,3.35 -1.5,6.73 -12.31,2.85 -8.83,3.26 -9.05,-12.56zm111.07 6.06c15.44,-10.44 -12.11,-3.11 10.57,-10.14 -4.19,10.62 2.17,5.34 -10.57,10.14zm-4.88 -24.04c-3.57,16.67 5.08,10.87 -12.97,13.25 1.07,-9.57 4.59,-8.92 12.97,-13.25zm-76.98 21.39c-2.1,-25.18 7.4,-32.51 24.43,-20.91l-6.74 7.64c-10.8,11.6 -8.71,11.24 -17.7,13.27zm56.62 -24.04c-17.35,-2.29 -8.03,2.97 -10.01,-11.1 12.1,4.32 7.17,-3.13 10.01,11.1zm-24.39 -7.61c0.99,-7.13 -4.8,-1.24 4.42,-1.53 0.13,-0 1.21,0.15 1.29,0.16 0.05,0.02 0.39,0.66 0.4,0.68 1.27,7.2 -6.57,3.98 -6.12,0.69zm-49.54 7.44c1.83,-11.5 4.06,-11.41 13.33,-16.09 -2.81,14.92 0.09,11.95 -13.33,16.09zm32.87 -24.41c4.79,6.12 7.43,4.65 0,14.01 -5.21,-5.77 -2.4,0.34 -3.08,-8.33 -1.39,-17.59 -2.5,3 3.08,-5.68zm86.45 3.69c-15.08,-0.37 -3.53,5.48 -9.27,-10.4 10.79,7.42 7.04,-2.51 9.27,10.4zm-62.53 -1.18c-5.53,-2.87 -0.96,-9.47 0,-10.96 12.44,22.34 3.45,5.97 0,10.96zm-23.91 -24.48c9.33,4.1 6.07,-7.29 6.8,9.98 -10.07,-1.61 -10.52,0.04 -6.8,-9.98zm75.74 112.62l-12.53 -5.92c-0.21,-17.73 -1.39,-4.32 5.14,-9.88 1.97,-5.42 0.05,-6.99 -2.03,-15.48 31.88,0.85 7.03,-6.09 30.22,-13.22 11.26,-3.45 21.8,-0.48 35.01,-5.25 2.72,-16.92 3.96,-20.68 -3.74,-31.94 -0.38,-0.56 -1.96,-0.66 -2.26,-2.06 -0.3,-1.4 -1.6,-1.28 -2.44,-1.86 17.51,-8.97 9.58,3.6 7.95,-21.63 -1.27,-19.7 9.31,-68.51 -3.55,-78.76 -15.63,-6.18 -81.97,6.99 -99.08,13.55 -31.32,12 -32.53,19.12 -47.38,28.02 -65.44,39.23 -92.42,117.83 -79.45,193.12 3.07,17.75 38.41,64.33 46.8,72.76 44.42,44.61 131.92,74.23 193.8,97.3 20.68,7.71 22.88,5.52 37.11,-5.07l0.68 18.15c21.97,7.6 47.1,20.14 41.45,47.53 -4.89,23.71 -22.86,23.97 -40.5,30.42 -3.93,1.44 -5.03,2.01 -8.76,3.75 -0.68,0.32 -2.37,2.48 -2.86,1.63 -0.5,-0.87 -1.98,1.03 -3.26,1.7l1.03 134.96c66.3,-2.28 156.86,-24.71 188.61,-78.08 9.11,-15.31 40.55,-22.73 40.71,-116.69 0.06,-31.19 -10.71,-60.3 -25.11,-84.27 -10.73,-17.86 -36.88,-38.83 -52.73,-50.92 -22.04,-16.81 -105.95,-73.84 -143.24,-59.58 -14.83,-8.57 9.75,6.01 -6.05,-5.76 -11.44,-8.52 -10.58,-3.86 -21.48,-10.31 -9.01,-5.32 3.44,-4.47 -27.42,-13.17 -24.22,-6.81 -34.52,-15.78 -44.64,-33.04z"/>
   <path class="fil0" d="M2243.48 805.1c-15.23,-17.75 -1.5,-6.85 1.98,-9.16l-1.98 9.16zm87.01 -81.11c-3.06,9.94 1.07,4.59 -6.63,9.41 0.29,-14.41 -5.6,-6.03 6.63,-9.41zm-47.16 -3.41c9.05,6.78 12.91,6.64 -1.07,14.4 -7.38,-10.64 -7.76,-4.19 1.07,-14.4zm50.28 -13.97c11.29,5.42 6.15,-4.85 10.18,12.38 -15.02,-3.97 -8.31,3.76 -10.18,-12.38zm-23.1 5.16c3.4,7.28 3.01,3.19 1.59,11.69 -5.69,-3.87 -12.96,2.03 -1.59,-11.69zm44.54 -7.41c-0.94,-0.55 -1.75,-2.14 -1.88,-2.67l0 -5.78c-0.06,-1.68 1.32,-2.02 1.88,-3.09 10.79,21.72 3.43,6.2 0,11.54zm-51.36 -9.42c6.25,-7.77 -10.55,-0.64 8.57,-9.25 -4.03,11.71 3.61,7.03 -8.57,9.25zm80.84 -3.09c-12.7,-5.02 -5.42,2.84 -9.32,-9.9 11.75,4.38 5.66,-3.2 9.32,9.9zm-65.35 -7c-14.41,-6.99 -4.48,-4.01 0,-9.6l2.02 7.02c0.06,-0.74 -1.42,1.68 -2.02,2.58zm39.85 -16.45c6.97,8.34 4.78,1.82 3.36,13.74 -13.73,-4.11 -18.93,-6.68 -3.36,-13.74zm-57.62 3.24c-0.01,-0.61 -1.46,1.37 -2.16,2.08 -13.27,-16.74 -0.67,-11.49 0,-12.83l2.16 10.75zm61.89 -12.48c18.23,-9.25 2.97,-3.38 9.76,0 -20.14,14.43 -7.68,2.01 -9.76,0zm-40.14 7.65c-12.37,-16.24 -7.96,-14.1 3.98,-17.52 1.57,2.96 4.06,0.23 2.62,9.19 -2.14,13.27 -3.32,5.98 -6.6,8.34zm11.16 -24.33c-13.57,-6.21 -7.51,1.83 -9.46,-9.28 10.66,2.6 3.34,-3.6 9.46,9.28zm-17.17 -21.01c-2.03,8.53 7.05,2.96 -9.96,8.43 1.23,-11.35 1.09,-8.97 9.96,-8.43zm11.97 -1.1c-0.52,-1.12 -1.97,-0.69 -2.95,-1.05 0.84,-11 18.3,-21.23 24.09,0 -4.35,1.28 -5.07,2.19 -11.29,2.38l-9.86 -1.33zm-6.41 -12.1c-22.96,0.46 -8.72,1.99 -13.19,-11.27 15.46,4.64 8.43,-2.62 13.19,11.27zm-55.85 -5.41c5.69,0.75 13.09,0.98 18.18,2.95 11.68,4.52 8.29,6.58 10.2,9.51 -14.09,7.87 -20.69,-3.8 -28.39,-12.46zm91.05 -19.42c-0.38,-17.54 5.06,-5.1 6.37,-0.89 1.84,5.92 -6.23,7.46 -6.37,0.89zm-91.05 19.42l-9.2 -3.49 1.19 -28.99c5.4,-3.24 5.49,-5.07 8.21,-6.25 12,-5.19 -7.17,-1.82 4.61,-0.07 12.94,1.93 3.09,3.15 20.24,-0.63l-1.56 27.1c-19.01,-6.19 -0.52,-7.59 -22.49,-6.39l-0.99 18.72zm-59.27 -33.96c-1.9,-2.09 -8.12,-1.93 -5.98,-15.31 1.93,-12.14 9.57,-15.15 9.97,-15.49 8.45,14.38 9.02,18.21 -3.99,30.8zm12 -5.38c2.53,-9.49 -7.8,-2.69 5.79,-9.64 8.74,-4.48 7.53,-0.18 13.61,-1.65 11.94,-2.87 6.79,-6.34 22.63,-9.07l-11.01 20.75 -31.03 -0.39zm11.91 -21.42c-10.11,-8.82 -4.79,-1.12 -5.06,-14.21 13.5,4.31 8.67,-0.46 13.52,12.02l-8.46 2.19zm47.76 -6.41c-8.2,8.27 -5.41,-2.81 -5.26,-5.26 2.64,-0.09 -4.47,-9.81 5.36,1.23 3.11,3.5 3.58,0.32 -0.1,4.03zm-169.58 -10.43l-1.7 8.48c-15.13,-7.39 -2.26,-6.48 1.7,-8.48zm151.3 0.2c-18.92,-1.66 -7.27,4.13 -11.34,-11.52 12.13,5.41 7.22,-1.72 11.34,11.52zm-64.11 -16.81c16.16,-1.8 8.43,1.81 10.93,3.07 -5.61,17.61 -12.12,16.12 -24.12,3.98 2.29,-2.18 0.87,-5.68 13.18,-7.05zm-41.07 26.61c-6.82,-11.41 -5.11,-11.92 -2.44,-26.33l17.27 -0.09c-2.92,8.57 -2.63,5.86 -7.26,14.15l-5.85 10.03c-0.22,-0.58 -1.12,1.52 -1.73,2.24zm-90.61 -17.44c10.83,-9.23 -13.95,-5.43 10.67,-9.77 -4.39,9.54 1.23,4.65 -10.67,9.77zm214.14 -3.23c-13.99,-4.72 -3,-5.91 0,-10.01 3.01,4.78 4.38,2.54 0,10.01zm-183.3 -18.28c3.88,8.97 4.56,6.35 -3.99,10.08 -7.71,-8.82 -2.23,-6.99 3.99,-10.08zm27.17 3.58l-8.06 1.47c-2.7,-5.38 -7.67,10.6 -1.91,-12.86l12.94 0.61c3.31,18.28 1.31,5.25 -2.96,10.77zm40.87 -0.13c4.17,-9.83 7.99,-10.4 35.56,-20.9 24.17,14.44 28.16,19.32 24.83,29.08 -7.47,3.47 -7.87,0.79 -24.92,-12.58l-15.5 11.87 -19.97 -7.47zm51.6 -15.94c5.61,-5.26 -2.57,-2.83 7.17,-4.01 19.79,-2.4 -4.41,-5.17 4.66,4.01 -12.41,6.19 -3.84,4.15 -11.83,0zm-77.61 0c5.87,-4.25 -1.85,-2.75 8.54,-3.76l5.23 3.76c-5.42,4.09 0.57,2.45 -7.82,3.15 -19.22,1.6 5.6,3.99 -5.95,-3.15zm29.7 -16.67c3.67,5.02 11.52,-0.03 0,11.08 -14.28,-14.06 -0.03,-11.04 0,-11.08zm-16.63 -0.19c2.09,17.36 2.77,-2.22 -4.65,3.97l1.36 -9.83c4.62,4.75 2.3,-2.36 3.3,5.86zm-113.57 0.92c0.11,-7.47 -3.23,-1.45 4.34,-1.9 10.61,-0.63 -4.53,15.72 -4.34,1.9zm30.88 -15.93c3.35,11.99 4.05,6.85 -0.3,15.46 -8.47,-6.74 -3.78,4.57 -4.89,-7.52 -1.24,-13.63 2.43,-4.98 5.19,-7.94zm-45.88 9.45c-14.97,-4.71 -8.84,5.07 -14.31,-13.42 17.69,3.11 9.54,-3 14.31,13.42zm45.58 -17.52c-9.61,-12.61 -1.59,-6.55 0,-9.83 14.27,21.98 2.89,6.61 0,9.83zm-39.74 -3.9c13.58,-6.49 17.2,-0.33 21.07,12.96 -7.53,-1.46 -6.91,0.53 -14.51,-3.79 -11.5,-6.55 -3.3,-2.14 -6.57,-9.18zm19.24 -7.97c-0.98,-13.12 4.77,-3.97 6.23,0.35 2.37,7 -5.74,6.25 -6.23,-0.35zm-15.37 -20.49c1.4,1.65 8.47,-6.7 5.18,12.1 -2.02,11.57 -4.73,5.53 -9.16,6.8 -6.73,-12.22 -2.52,-12.51 3.99,-18.89zm-19.92 8.88c4.35,10.76 3.89,6.06 -3.99,13.22 -3,-5.27 -4.09,0.56 -2.52,-8.38 1.76,-10.04 -0.09,-1.8 6.5,-4.85zm-17.79 -2.09c-16.34,0.88 -5.87,2.68 -12.27,-6.22 5.77,-1.84 -4.62,-8.46 9.74,-0.1 5.79,3.37 1.24,1.63 2.53,6.31zm87.29 -4.27l-5.75 5.71c-0.63,-0.76 -1.25,-2.06 -1.62,-2.5 -11.43,-13.55 0.26,-5.59 -10.1,-7.41l-14.04 8.04c3.53,-23.66 11.9,-22.21 34.85,-26.97l-3.34 23.13zm-74.03 -18.43c11.35,6.51 6.74,-1.56 8.49,12.92 -13.84,-4.93 -7.32,2.99 -8.49,-12.92zm36.3 1.87c-19.37,1.34 -10.99,3.08 -17.26,-10.9 18.54,1.84 11.13,-3.61 17.26,10.9zm12.52 -20.29c11.21,4.76 5.23,-1.46 10.4,11.64 -16.71,-3.37 -12.2,6.2 -10.4,-11.64zm-52.28 -7.62l2.04 4.14c5.59,4.67 4.81,-8.06 5.62,10.68l-11.64 -0.04c-8.5,-11.49 -5.65,-4.54 -4.63,-20.74 15.5,1.9 4.46,-0.71 8.6,5.97zm77.47 6.66c-0.12,-1.12 2.53,-7.87 5.48,0.78 4.97,14.58 -5.03,3.34 -5.48,-0.78zm-57.51 -19.1c10.76,6.27 13.71,5.58 0.65,13.64 -6.59,-8.91 -6.17,-2.99 -0.65,-13.64zm27.86 -8.79c3.63,4.87 5.84,4.44 0,10.86 -10.96,-11.18 -1,-9.37 0,-10.86zm-51.8 -2.76c10.49,4.86 13.24,1.05 3.98,13.62 -14.11,-4.89 -11.97,-3.63 -3.98,-13.62zm68.58 6.67c7.78,-10.06 -5.57,-2.76 10.08,-10 -5.59,11.66 2.15,7.88 -10.08,10zm40.34 -7.89c10.92,-6.82 2.6,-4.7 9.71,0 -12.2,10.14 -6.79,2.72 -9.71,0zm-82.63 4.92c-3.99,-16.35 1.44,-22.98 13.69,-28.33l8.24 7.47 -18.73 18.97c-0.5,-0.86 -2.12,1.28 -3.2,1.89zm55.33 -27.2c-9.19,-1.04 -4.28,1.58 -8.67,-5.76 9.76,1.63 5.23,-4.46 8.67,5.76zm-73.18 1.32c2.03,-15.02 0.44,-10.61 12.49,-14.6 -2.36,15.41 1.69,11.88 -12.49,14.6zm31.42 -25.37c10.86,5.56 13.63,6.27 0,15.85 -4.9,-8.7 -7.24,-2.95 0,-15.85zm122.28 12.76c11.05,-9.4 -11.92,-4.81 8.82,-9.51 -3.22,10.99 2.93,4.77 -8.82,9.51zm-38.59 -6.93c-10.92,-18.31 -2.54,-4.9 0,-10.32 2.62,5.39 4.91,4.24 0,10.32zm-65.1 -0.76c6.94,-8.78 -14.42,-13.45 11.92,-9.78 -4.25,12.04 3.74,5.05 -11.92,9.78zm-38.92 -17.51c4.53,6.06 9.48,-1.09 1.21,13.47 -6.45,-8 -6.83,-3.48 -1.21,-13.47zm87.54 5.85c-8.08,-10.79 -4.54,-9.99 0.32,-22.53 4.05,4.48 5.57,-8.02 5.03,11.33 -0.2,7.25 -2.33,6.33 -5.36,11.2zm-62.02 -14.82c7.8,18.36 0.13,9.36 -1.19,11.33 -10.99,-11.08 -1.29,-8.58 1.19,-11.33zm123.24 -0.01c0.25,-8.64 8.86,5.82 8.86,-27.89l-0.03 -41.25c-42.94,-13.44 -97.74,4.14 -138.72,27.66 -9.28,5.33 -11.73,5.77 -21.12,10.78 -21.95,11.74 -55.51,57.19 -66.3,81.29 -10.02,22.39 -10.51,79.19 -8.94,104.86 0.87,14.18 33.57,64.37 43.8,74.08 20.61,19.59 40.8,32.36 70.4,48.94 28.87,16.17 47.49,26.09 82.67,37.42 60.28,19.43 58.08,25.48 79.69,11.52 0.66,0.78 1.02,2.16 1.3,2.77l22.1 25.64c62.81,41.38 -13.8,67.03 -31.82,74.55l0.18 133.14c64.91,-3.76 122.83,-19.44 163.97,-49.72 17.61,-12.97 14.66,-16.75 25.12,-30.57 12.99,-17.16 9.79,1.42 23.46,-28.39 38.92,-84.9 8.33,-167.05 -63.43,-220.45 -25.79,-19.19 -106.24,-73.53 -144.24,-58.41l-8.03 -8.91c-2.86,-1.89 -3.58,-1.5 -8.25,-3.29 -26.51,-10.11 -6.69,-6.13 -25.6,-14.34 -3.5,-1.52 -5.09,-1.67 -9.01,-2.82 -58.89,-17.18 -52.71,-46.83 -57.5,-63.67 34.72,-0.69 2.83,-12.44 44.68,-15.34 30.97,-2.14 25.92,-1.09 25.98,-31.72 0.02,-25.21 5.14,-22.04 -9.2,-35.86z"/>
   <path class="fil0" d="M1093.74 780.28c-1.11,12.87 2.38,2.89 -8.85,8.96 6.2,-13.9 -6.02,-9.81 8.85,-8.96zm-35.77 -63.38c12.45,4.45 5.88,-1.13 10.47,10.25 -24.67,-5.4 -0.71,-0.55 -10.47,-10.25zm20.08 -36.56c-7.04,12.01 -1.86,11.97 -12.67,5.39 7.74,-10.02 -4.88,-5.29 12.67,-5.39zm-88.91 2.73c4.7,-2.14 -6.66,-11.32 9.97,0 -17.75,13.14 -6.6,1.48 -9.97,0zm30.99 -15.28c12.89,16.5 1.55,9.33 0,11.51 -8.22,-10.09 -5.34,13.19 -3.4,-4.88 0.84,-7.93 -1.36,-2.85 3.4,-6.63zm-18.54 -6.28c-6.13,15.86 3.06,4.01 -10.03,10.51 2.98,-15.34 -9.39,-9.03 10.03,-10.51zm74.32 -45.81c13.24,16.64 1.86,5.95 0,9.35 -0.5,-0.86 -13.43,2.47 0,-9.35zm-171.35 -10.73c0.64,0.65 1.94,0.66 1.95,1.92l-1.95 10.83c-0.44,-0.7 -17.82,6.68 0,-12.74zm179.32 -14.12c4.73,11.3 5.19,9.1 -7.59,11.58 0.44,-18.25 -3.97,-7.68 7.59,-11.58zm-113.83 -12.53c15.81,5.87 4.47,-3.18 10.17,10.07 -6.5,-1.61 -1.99,3.71 -6.67,-2.68 -0.5,-0.68 -2.65,-6.37 -3.5,-7.39zm23.25 -3.02l9.23 -27.21 6.91 23.43c29.59,-11.87 5.72,-8.18 18.29,7.86 4.19,5.34 4.68,4.65 8.03,8.43 18.65,20.94 -9.82,10.49 16.7,31.49 -9.17,20.89 -5.87,-5.07 -6.02,34.46l-14.47 -7.45c-0.64,0.6 -1.54,0.94 -1.84,2.47 -0.37,1.83 -3.13,4.28 -3.73,5.09 -2.87,3.94 0.66,1.81 -6.27,8.49l-23.86 -11.19c-0.84,-28.78 17.47,-22.86 2.58,-46.09 -10.33,5.84 -10.41,28.23 -15.64,41.02 -33.51,-0.55 -16.2,-10.92 -40.92,-16.33l-10.86 -2.51c39.63,-27.25 23.7,5.09 44.86,7.47 10.54,-20.15 -1.72,-20.73 -12.16,-30.37 -19.87,5.57 -11.18,16.49 -32.11,3.37l-2.96 -22.87c6.48,2.37 1.75,0.47 6.53,4.09l8.82 6.3 13.67 -11.62c7.03,10.02 9.36,13.4 22.19,21.25 34.63,-20.82 20.63,-4.53 51.71,-0.74 -5.72,-12.83 -14.11,-20.32 -32.86,-22.07 -5.19,6.3 2.85,3.64 -12.28,6.31 2.62,-21.21 1.7,-7.88 6.44,-13.09zm115.52 -18.15c4.3,5.76 10.27,-11.6 2.58,13.95l-10.5 -5.12c-19.35,-4.61 -8.47,0.26 -14.9,-13.32l22.81 4.5zm-52.17 -10.04c-1.05,18 2.65,15.78 -15.57,15.64 2.44,-13.56 1.97,-12.97 15.57,-15.64zm-80.35 8.4c11.28,3.06 6.11,-10.11 9.08,12.77 -9.86,-3.26 -13.92,0.62 -9.08,-12.77zm148.3 -10.26c15.26,6.33 10.49,-5.13 10.4,13.03 -11.54,-3.29 -6.1,4.6 -10.4,-13.03zm-53.21 20.5l4.61 -0.3c17.63,0.37 3.5,-1.26 9.84,6.03 -6.56,7.9 2.84,2.69 -8.73,4.16l-10.51 0.63 -27.3 4.84c7.67,-14.18 7.9,-8.99 23.49,-15.06 3.24,-18.68 -1.74,-12.74 9.15,-22 5.13,6.7 6.04,-1.7 -0.54,21.71zm-43.29 -31.58c0.01,0.03 12.66,15.2 -2.84,11.26 -14.53,-3.69 -0.81,-8.76 2.84,-11.26zm59.57 1.45c5.31,-3.28 4.71,-8.34 16.93,0 -18.58,16.28 -16.86,0.08 -16.93,0zm-11.75 -20.74c1.88,3.36 9.33,-1.9 0.03,11.95 -13.24,-11.01 -1.02,-10.62 -0.03,-11.95zm71.73 3.04c-15.88,-4.27 -2.94,-6.1 0,-9.51 10.63,17.24 3.46,3.45 0,9.51zm-55.79 -29.82c-13.31,-13.68 -0.64,-9.21 0,-10.32l3.19 5.39c4.47,17.54 2.51,-1.87 -3.19,4.94zm15.94 -86.09c-11.51,-7.06 -2.06,-6.78 0,-9.82l0 9.82zm-27.89 -52.99c7.02,9.46 8.12,-0.56 0,12.05 -2.49,-2.49 -6.23,-3.72 0,-12.05zm-214.78 169.69c-0.08,14.09 -1.01,31.47 -0.35,45.15 1.41,28.92 1.69,8.94 10.5,27.55 -9.7,6.88 0.84,-1.86 -9.43,3.99l-0.7 56.48c14.72,5.63 4.79,5.39 23.91,10.45 11.89,3.15 15.47,3.02 23.16,9.12 18.68,14.82 62.58,82.53 81.31,109.9 25.58,37.37 24.38,46.79 82.31,47.73 29.28,0.47 99.92,2.89 122.86,-3.41 6.57,-27.88 -8.55,-37.57 -21.17,-52.92 -10.65,-12.95 -19.69,-27.32 -30,-41.74 -13.34,-18.65 -51.13,-66.53 -53.58,-91.78 23.18,-19.5 41.37,-27.1 61.31,-52.1 55.26,-69.26 60.39,-178.97 27.52,-257.7 -21.5,-51.51 -30.91,-45.56 -49.52,-62.37 -23.66,-21.36 -25.4,-28.49 -66.79,-40.95 -58.14,-17.52 -136.98,-18.86 -201.28,-8.04l0.47 141.11c74.99,-3.98 188.19,-15.63 184.82,76.48 -1.44,39.19 -23.69,68.63 -55.97,78.42 -40.39,12.24 -86.62,0.34 -129.37,4.64z"/>
   <path class="fil0" d="M243.29 795.85c-3.81,-0.28 -4.07,3.01 -14.16,-5.19 2.87,-1.69 8.11,-21.8 14.16,5.19zm-87.88 -53.23c-1.52,-0.86 -6.53,-6 1.66,-8.99l-1.66 8.99zm33.61 -64.98c7.57,-13.19 -5.67,-3.23 12.31,-10.49 -6.25,13.61 5.08,11.23 -12.31,10.49zm-52.38 -16.56c14.05,5.92 11.29,-5.39 9.92,12.93 -13.94,-4.52 -6.27,-1.13 -9.92,-12.93zm-12.74 1.77c-2.24,15.63 3.8,10.02 -11.95,13.27 1.88,-12.29 -0.15,-8.19 11.95,-13.27zm-9.94 -5.81c11.41,-9.52 -11.77,-3.23 10.52,-10.08 -5.97,11.98 5.77,2.97 -10.52,10.08zm-2.85 -39.88c-0.53,-0.06 -2.2,0.16 -2.58,-0.8 -0.4,-0.99 -1.74,-0.66 -2.59,-1.03 7.65,-14.5 19.99,-17.15 31,1.34l-25.82 0.49zm41.21 -17.77c0.36,-6.59 -2.1,-1.57 4.09,-1.68 15.56,-0.28 -0.64,-10.66 1.65,1.01 2.03,10.38 -5.9,3.58 -5.74,0.68zm-25.77 -10.21l-13.98 5.89c1.33,-10.03 -3.11,-6.51 4.32,-10.44 12.27,-6.49 4.97,0.87 9.65,4.55zm-56.61 19.7c-15.03,-4.03 -21.13,-7.96 -24.32,-20.37 18.14,-4.49 19.42,3.81 24.32,20.37zm1.86 -17.32l3.91 -8.22c2.95,5.17 3.51,-1.81 1.56,6.33 -1.66,6.91 -0.48,0.71 -5.47,1.88zm11.64 -29.32c20.07,13.12 6.01,1.33 6.01,13.32 -7.68,-5.2 -7.07,9.32 -6.01,-13.32zm49.06 -12c-3.75,14.69 3.42,9.35 -12.05,12.83 -0.71,-14.77 -0.35,-10.02 12.05,-12.83zm-60.72 -5.44l-16.19 27.27 -18.99 -5.61 35.17 -21.66zm0 0c4.19,-10.77 1.73,-8.22 11.91,-13.86 -4.88,14.36 0.22,8.26 -11.91,13.86zm-22.5 -29.09c-17.39,10.41 -14.68,1.32 -15.99,0.28 9.45,-12.4 15.99,-0.28 15.99,-0.28zm84.26 -15.85c3.19,-8.31 1.36,-5.81 5.64,-12.34 5.1,-7.8 6.39,-6.7 8.26,-8.34 7.63,16.25 1.88,17.81 -13.9,20.68zm-97.68 -16c5.42,3.15 6.12,-2.85 5.68,6.66 -0.67,14.51 0.72,0.78 -5.68,5.68 -10.2,-12.17 -4.31,-5.99 0,-12.34zm21.15 -7.36c-16.79,-1.63 -6.52,1.96 -12.88,-5.59 5.49,-1.54 -0.02,-2.98 6.89,-0.69 11.51,3.81 0.39,-1.48 5.99,6.28zm74.19 -28.54c13.95,-6.37 11.15,-4.4 10.3,5.79 -7.83,1.2 -5.66,2.8 -10.3,-5.79zm-66.17 6.71c-3.99,6.75 4.54,1.39 -5.46,4.01 -5.95,1.56 -4.89,1.88 -5.83,-2.08 -6.58,-7.13 -4.78,6.28 -5.48,-8.65 26.8,-14.73 15.07,-12.52 30.1,-17.21 -1.91,11.82 2.27,3.62 -4.3,15.68 -7.02,12.89 -2.19,3.3 -9.03,8.24zm-30.29 -16.36c-12.1,-4.98 -3.85,0.84 -7.05,-9.9 12.63,3.78 9.79,-5.39 7.05,9.9zm22.27 38.18c42.62,-4.9 -2.36,-16.31 60.03,-2.71 -5.77,-19.37 -10.17,-21.81 -13.7,-44.56 -28.62,-3.3 -33.18,1.38 -25.72,-23.45 20.83,10.27 -3.64,-2.13 11.88,9.2 6.18,4.51 -1.88,0.62 6.45,3.92 9.15,3.63 0.25,-7.07 11.45,5.25 13.31,14.65 9.46,17.7 7.89,36.49 9.68,4.04 8.83,2.8 19.37,12.01l-9.42 11.03 8.44 38.61c-15.89,1.25 -6.39,-3.08 -19.61,0.36 -7.29,1.89 -6.35,4.5 -18.05,4.8l21.96 -31.67c-15.67,-8.82 -49.09,-11.59 -60.97,-19.28zm85.17 -68.38c1.11,-0.61 -4.51,-12.31 11.73,0 -12.96,12.16 -8.75,2.05 -11.73,0zm-23.61 11.95c2.39,-26.28 10.57,-27.98 10.82,-29.24 0.23,-1.18 1.4,-1.09 2.1,-1.65 6.39,15.3 -1.48,8.9 0.75,22.34 2.99,17.99 3.81,-1.23 7.95,21.65l-21.62 -13.1zm-73.86 -17.27c-3.71,-5.09 -3.16,-4.21 -0.89,-10.78 0.88,0.93 17.46,-8.5 0.89,10.78zm106.71 -18.95c4.06,2.84 6.63,-8.79 5.81,7.35 -0.67,13.37 -0.22,1.48 -7.5,5.06l1.7 -12.41zm-71.47 9.77c-15.21,-1.09 -5.75,2.8 -16.37,-5.43 0.42,-6.23 9.55,-15.01 16.37,5.43zm95.4 -17.97l-4.96 -4.22 7.18 -8.08c0.16,-0.18 5.37,-6.42 5.73,-6.89 10.66,3.54 18.24,3.77 21.73,13.45 -15.64,3.27 -13.98,-2.04 -29.68,5.74zm-41.79 -10.9c-8.82,-10.94 -0.1,-7.99 1.92,-10.83 15.47,17 1.29,7.87 -1.92,10.83zm-15.64 -29.89c5.25,-2.49 -10.98,-11.37 12.76,-0.41l-0.03 13.18c-11.68,1.64 -3.65,3.27 -11.84,-3.06l-0.89 -9.71zm52.62 -15.24c0.16,0.11 14.73,2.42 -0.42,19.7l12.97 -5.66 7.59 -1.13 1.44 9.72 -17.5 7.62 -15.14 6.18 3.13 -11.22 6.26 -4c-1.09,-0.76 -3.73,-4.1 -4.02,-5.86 -0.3,-1.82 -0.9,-2.66 -1.76,-3.72l-0.43 -14.61 7.88 2.96zm81.92 18.29c-15.45,0.11 -13.57,-4.68 -16.9,-17.64 14.95,1.16 20.17,2.42 16.9,17.64zm46.41 -27.03c6.45,12.41 6.63,4.4 1.66,18.79 -5.7,-4.65 -5.93,6.3 -7.98,-9.77 -1.24,-9.8 3.67,-6.72 6.31,-9.02zm-110.39 2.87c14.97,2.48 7.8,-2.31 11.82,11.59 -15.85,-2.33 -10.86,3.99 -11.82,-11.59zm87.28 -1.27c-6.38,8.86 -6.15,9.52 -19.82,3.99 5.52,-5.95 -0.49,-17.11 19.82,-3.99zm-52.73 4.67c-13.88,-3.49 -15.22,-4.87 -20.05,-16.85l21.33 -2.66 -1.28 19.51zm11.03 -21.03c4.95,-3.68 -10.7,-12.96 11.24,-1.54 3.04,18.12 0.87,5.15 -3.31,10.51l-8.58 1.18 0.65 -10.15zm-81.14 11.04c1.34,-17.12 -4.56,-8.92 12.4,-13.5 -6.74,13.42 4.87,6.23 -12.4,13.5zm135.4 -23.28l11.01 -2.96 -4.48 10.14c-6.12,5.85 8.12,3.99 -7.94,5.03 -6.25,-8.23 -10.07,-9.46 -11.93,-18.99 10.24,-0.65 10.69,3.28 13.34,6.77zm-80.07 0.71c5.43,-3.77 -1.9,-8.33 9.98,0 -3.65,3.24 2.02,10.52 -9.98,0zm103.1 71.67c3.28,-76.12 -3.65,-64.04 -5.23,-80.66 -1.29,-13.59 5.79,-1.36 5.79,-18.91l-0.09 -56.04c-54.67,2.46 -150.84,38.11 -192.26,72.01 -16.98,13.89 -26.27,24.28 -41.58,42.06 -58.88,68.41 -104.72,225.37 -58.64,253.44 -10.88,9.17 -11.12,7.13 -8.93,23.98 3.38,25.93 7.25,21.89 13.99,39.21l4.83 14.61c2.06,5.32 7.6,19.51 10.48,25.31 40.49,81.42 158.06,168.36 272.29,169.78l-2 -157.99c-56.83,-18.5 -65.08,-15.05 -102.05,-52.53 -27.61,-27.99 -39.46,-61.28 -43.52,-111.89 -3.28,-40.82 17.56,-89.27 43.58,-109.72 68.07,-53.51 48.97,-40.18 103.33,-52.68z"/>
   <path class="fil0" d="M1111.78 1543.31c7.86,4.01 11.31,-2.01 3.99,11.12 -7.96,-3.56 -11.23,-0.71 -3.99,-11.12zm47.73 -18.63c10.4,12.27 5.49,3.76 -0.35,10.79 -5.79,-17.78 1.41,-1.29 0.35,-10.79zm-83.59 -19.37c10.82,6.28 11.28,4 5.09,18.76 -3,-2.19 -5.76,2.03 -8.21,-9.07 -2.58,-11.7 2.6,-9.08 3.11,-9.69zm70.56 -1.36c-0.8,-15.45 7.97,-5.19 6.93,-0.78 -2.21,9.36 -6.89,1.41 -6.93,0.78zm-205.65 -1.14c14.63,0.41 4.19,-3.27 11.28,8.36l-11.28 -8.36zm-231.77 -6.83c3.36,-2.78 -6.98,-10.14 17.75,-1.5 -3.8,3 0.46,12.35 -17.75,1.5zm406.71 -16.42c0.54,0.82 1.77,1.06 1.73,2.39l-1.73 7.59c-5.98,-7.4 -8.31,13.18 -3.25,-5.11 4.74,-17.13 -10.91,3.01 3.25,-4.87zm-332.91 -6.08c-4.74,12.33 0.97,6.01 -9.49,9.84 3.13,-11.37 -5.45,-4.01 9.49,-9.84zm365.76 2.58c17.7,-13.7 6.53,-1.74 9.75,0 -0.97,0.41 -2.49,0.36 -2.85,1.38l-4.89 0c-0.32,-0.08 -1.29,-1.03 -2.02,-1.38zm-128.35 -10.96c9.58,6.99 10.08,2.5 3.84,15.96 -9.56,-7.27 -10.26,-3.72 -3.84,-15.96zm-89.07 6.97l10.52 0c-4.07,3.43 12.63,15.39 -10.52,0zm62.06 -11.57c-3.97,13.53 1.63,7.24 -9.26,11.19l9.26 -11.19zm-275.98 2.07l2.95 5.57c1.32,20.51 1.1,-7.52 -0.61,6.69 -10.34,-3.05 -17.75,-3.65 -2.34,-12.26zm246.84 -7.14c-4.17,14.51 5.59,7.37 -11.7,10.05 5.11,-13.15 -3.07,-6.32 11.7,-10.05zm-191.12 -5.46l3.3 5.74 -9.43 10.89c-13.06,5.58 -3.19,6.14 -19.86,2.57 1.02,-0.99 2.75,-3.58 3.33,-2.67 0.54,0.85 2.42,-1.83 3.1,-2.48l11.66 -20.17c16.02,2.41 1.65,-0.76 7.91,6.11zm-80.62 0.3c11.47,6.18 5.09,-5.44 11.63,12.88 -19.55,0.34 -9.54,4.81 -11.63,-12.88zm416.95 17.12c3.81,-15.67 -4.04,-12.55 12.66,-14.47 -1.76,26.61 -2.23,8.13 -12.66,14.47zm-198.64 -7.27l5.36 -2.57c0.44,0.18 2.17,1.16 2.61,1.37 0.56,0.28 1.57,1.97 2.55,2.76 -4.35,1.88 -7.81,10.22 -10.51,-1.55zm229.61 -12.45c5.08,-5.39 15.43,0.01 6.05,4.95 -6.84,3.61 -7.88,-3.01 -6.05,-4.95zm-206.88 4.48c5.32,-4.78 -10.28,-6.38 4.23,-3.06 9.95,2.28 -0.88,-3.13 7.16,4.42 -4.19,1.99 0.53,12.84 -11.39,-1.35zm-32.84 -7.13c12.15,15.7 1.84,5.73 0,10.08 -2.13,-4.21 -12.25,9.3 0,-10.08zm171.34 34.74c-12.27,-7.65 -15.45,-56.44 27.89,-44.16 2.59,36.11 0.91,31 -7.96,36.35 -11.2,-14.62 3.07,-5.79 -3.99,-25.25 -12.12,3.33 -8.74,-5.33 -12.71,13.29 -1.97,9.22 1.44,8.05 -3.23,19.78zm-15.05 -56.91c4.62,-6.08 -6.93,-4.83 10.79,-5.97 3.06,13.45 2.7,1.73 -0.68,14.14 -19.62,2.52 -6.74,0.07 -11.8,-2.82l1.69 -5.34zm-152.32 -3.36c4.86,5.99 7.49,-10.74 3.49,5.21 -3.41,13.56 8.25,-4.56 -5.14,7.33 -4.98,-14.33 -4.47,-8.71 1.65,-12.54zm-158.5 -3.21c10.12,-9.26 1.69,-5.43 14.88,-3.68 -5.01,14.57 -7.54,14.73 -14.88,3.68zm354.58 -11.96c13.74,-9.99 6.91,-5.38 13.78,0.51 -1.35,1.19 3.48,5.28 -6.79,3.86 -8.62,-1.19 -2.65,-0.13 -6.98,-4.37zm-176.11 -5.01c17.48,1.48 7.27,-4.09 11.69,9.38 -21.92,-3.73 -4.95,-2.14 -11.69,-9.38zm-24.12 4.22c6.35,2.34 6.53,-7.89 6.39,7.77 -4.76,-0.63 -7.07,7.48 -6.39,-7.77zm-130.75 -3.2c3.5,-9.67 -6.25,-4.63 11.7,-9.24 -1.44,12.59 3.65,16.56 -11.7,9.24zm116.93 5.36l-4.09 18.15c-4.42,-2.76 -9.92,7.4 -7.46,-11.5 1.9,-14.55 4.57,-8.51 7.2,-11.14 6.58,-10.87 0.89,-6.53 17.06,-11.43 -1.49,19.18 0.36,12.56 -12.71,15.91zm-149.4 -24.96c0.68,0.78 2.07,0.88 2.08,2.31 0.01,1.23 1.33,1.92 1.29,2.37 -0.87,8.92 1.18,1.47 -3.37,7.61 -1.68,-2.4 -11.92,0.04 0,-12.29zm355.8 35.04c15.22,8.18 25.22,6.75 33.24,23.26 -16.78,-2.66 -37.05,-8.08 -49.64,-18.78l8 -23.4 -16.33 -11.06c9.33,-5.21 20.61,-6.7 33.53,-6.57l-7.65 14.68c-1.55,5.7 -1.08,15.71 -1.14,21.87zm-335.87 -54.25c4.54,10.25 3.56,6.01 -3.99,12.8 -2.03,-4.64 -8.81,7.71 -1.88,-8.05 2.8,-6.37 0.11,-2.56 5.87,-4.75zm326.7 -0.86l0.03 9.23 -8.56 0.49c-3.55,-5.66 -8.5,11.5 -2.21,-12.91 18.01,-1.3 5.06,-0.37 10.75,3.18zm-300.47 2.77c4.41,3.35 19.65,-11.92 -0.23,10.57l0.23 -10.57zm34.84 -12.75c2.39,0.66 4.53,4.27 5.67,5.43 -13.23,6.28 -7.68,8.03 -16.13,-3.6 8.33,-4.31 -8.59,-7.13 10.46,-1.83zm-53.49 5.84c-2.01,-16.34 -1.77,-21.93 16.58,-24.19 4.26,-0.53 14.56,-0.1 18.67,0.93 13.29,3.35 9.61,5 12.67,8.02 -23.26,15.61 -28.2,13.33 -37.08,3.82l-10.85 11.41zm279.24 89.88l8.8 13.62 -1.32 11.73 -5.91 -0.12c-0.92,-0.69 -2.01,-3.24 -2.49,-2.37 -2.77,4.93 -4.39,-3.41 -5.25,-3.74 -12.74,-4.98 16.81,-2.42 -9.66,-1.45l4.38 -18.61 -1.98 -2.39c-0.92,0.87 -2.13,0.95 -2.6,2.77l-11.77 14.24c-16.81,-0.8 -21.57,-0.01 -34.49,-7.95 -3.12,-24.57 -1.67,-2.43 6.41,-10.12l10.57 -0.63c-9.64,-10.65 -14.96,-8.6 -24.58,-1.2 -5.01,3.78 8.87,8.71 -11.92,2.69 -6.44,-24.13 -1.74,-4.6 2.15,-12.6 3.78,-4.32 4.4,4.31 5.17,-10.42 1.15,-22.01 -2.64,-12.69 -6.2,-16.7l-10.31 33.17c-19.01,2 -17.67,5.02 -26.62,-8.09 7.79,-16.65 4.77,4.17 20.21,-9.83l13.99 -25.77c4.38,-11.3 -2.31,5.49 2.85,-8.87l3.52 -8.77c0.28,-0.65 0.81,-1.95 1.42,-2.8 23.4,11.86 7.4,25.39 15.15,47.66 5.72,2.49 -0.85,0.99 5.38,-0.53 0.5,-0.13 1.71,-0.62 2.32,-0.76 17.72,-4.11 12.03,-1.25 27.75,1.3l2.97 -3.85 -24.95 -15.03c-1.04,-52.18 6.38,-26.08 -8.18,-53.14 -5.84,-10.87 -3.8,0.23 -3.89,-15.28 9.33,-6.82 17.19,-11.32 34.56,-6.97 -3.52,12.88 9.68,1.83 -13.79,10.98 9.93,13.14 10.48,3.2 5.74,19.75 18.91,-3.58 14.11,-9.02 24.14,4.16l-5.44 2.4c-11.65,4.61 -42.12,18.66 -13.93,34.47l7.07 -21.58c20.45,3.93 8.97,5.02 24.03,11.06 -7.22,-23.4 1.91,-5.68 5.39,-30.33l-15.18 -11.39c10,-5.29 13.4,-0.82 23.12,2.85 -6.99,51.42 -5.89,30.96 2.62,45.27 3.1,5.21 6.34,-7.57 2.26,12.56l-24.29 -5.87c4.98,13.18 5.24,29.63 2.79,46.49zm-259.53 -127.67c-17.97,-5.6 -7.46,3.24 -12.52,-11.52 12.81,4.94 6.94,-1.83 12.52,11.52zm245.75 -10.29l10.5 4.24 3.22 -4.71c0.84,-16.4 -1.23,-7.29 4.28,-13.43l5.61 -4.09c5.04,18.02 6.83,13.84 -5.25,26.63l-5 12.18 -20.7 -11.08c4.93,-13.29 -3.05,-5.47 7.33,-9.74zm-231.81 -3.75c17.57,-11.21 2.65,-3.47 9.26,0 -3.23,2.11 6.92,16.78 -9.26,0zm209.81 0.13c-6.6,-9.5 -2.24,-5.04 0,-9.51l2.07 7.25c0.05,-0.68 -1.44,1.45 -2.07,2.26zm29.89 -9.43c-34.39,-6.31 -28.76,-11.46 -31.61,-18.58l10.03 -0.45c10.74,3.77 16.91,11.33 21.58,19.03zm-69.07 -11.77c5.07,-9.12 11.44,-12.1 21.33,-12.8l0.54 12.97c-16,5.93 -5.13,5.61 -21.87,-0.17zm61.12 -14.79c0.95,-6.65 -4.17,-0.57 3.65,-2.18 5.92,-1.22 -5.19,12.95 -3.65,2.18zm-286.31 4.4l3.58 -2.22c0.05,-0.7 -1.55,1.39 -3.58,2.22zm53.37 -16.95c-5.28,-2.92 -5.24,2.67 -6.02,-9.13 12.6,3.89 5.23,-1.14 6.02,9.13zm167.62 -11.36c-17.97,15.53 -15.36,1.64 -17.35,0 0.86,-5.83 4.52,-5.9 9.08,-6.13 11,-0.54 6.47,4.09 8.27,6.13zm-139.93 4.71c-12.18,-3.74 -7.6,3.3 -12.53,-14.29l15.31 -0.21 -2.78 14.5zm131.5 -40.06c4.93,6.29 10.44,-1.53 0,10.33 -13.67,-9.8 -2.41,-7.63 0,-10.33zm41.15 17.63c-14.09,-12.05 -15.67,-2.17 -20.77,-25.6 16.21,4.02 20.86,12.18 36.8,18.58l-8.16 29.3c-7.91,-8.65 -4.7,-0.3 -7.87,-22.28zm-192.29 -18.14c14.19,-11.4 9.53,-2.38 24.99,-7.03 9.46,-2.85 6.61,-12.33 19.07,3.04 -9.16,6.28 -13.59,-3.33 -20.44,17.77 -10.29,-2.19 -17.63,-2.18 -23.62,-13.78zm180.57 -9.04c14.04,-9.96 -12.71,-5.2 10.61,-10.23 -4.11,10.47 1.76,4.88 -10.61,10.23zm-116.6 -6.84c-3.19,-10.85 2.81,-6.65 3.48,-7.66 11.5,6.87 10.85,-2.59 5.73,16.3 -11.68,-5.56 -5.47,4.06 -9.21,-8.64zm70.05 2.58c9.62,-11.58 -13.99,-3.61 11.21,-12.59 -4.91,13.22 2.63,7.52 -11.21,12.59zm-47.58 -7.34c1.7,17.93 3.18,-3.38 -3.05,4.68 -2.72,-2.27 -7.7,-2.48 0,-11.59 3.69,4.9 2.35,-0.45 3.05,6.91zm-78.76 2.26c-8.5,-6.77 -3.61,-4.47 0,-10.63 17.05,23.64 3.47,6.32 0,10.63zm134.53 -17.49c-0.37,-13.75 -8.17,-0.66 4.3,-1.94 7.38,-0.76 -4.04,11.39 -4.3,1.94zm40.45 -3.99l7.07 -1.92c0.35,-1.09 1.6,1.34 2.47,1.92l-4.85 2.84c-12.02,2.99 2.91,3.19 -4.68,-2.84zm-88.33 -6.92c11.57,4.4 14.71,6.79 19.23,20.3 -16.39,-4.24 -16.88,-2.41 -19.23,-20.3zm-93.76 -7.38c16.83,3.46 7.31,-0.69 12.21,12.22 -14.66,-3.88 -10.58,3.13 -12.21,-12.22zm184.38 -11.41c13.15,1.57 6.7,-1.32 9.02,8.78 -12.42,-1.2 -8.7,2.89 -9.02,-8.78zm-43.08 5.8c3.24,-1.99 -1.21,-11.03 12.42,0 -17.9,16.55 -11.08,1.02 -12.42,0zm-80.85 18.73c0,0 -14.66,17.02 -35.84,5.18 12.24,-11.94 13.76,-1.95 24.49,-10.12 11.35,-8.64 -0.62,-2.9 5.57,-19.47l20.03 5.16c-4.52,10.62 4.88,7.38 -15.69,9.36l1.44 9.89zm31.29 -44.3c-3.62,17.63 3.34,8.16 -9.67,14.12 -3.67,-18.16 0.81,-10.79 9.67,-14.12zm61.14 -23.78c17.33,11.19 8.34,16.24 -5.75,23.07l5.75 -23.07zm-151.5 362.45l-0.7 -9.66c-25.38,-1.26 -20.65,-4.53 -35.94,-18.01 15.4,-9.92 6.41,2.4 14.05,-10.74 8.72,-15.01 -3.94,-6.87 12.38,-16.79 3.82,5.82 13.41,1.84 -5.67,29.01l17.61 4.99c0.85,0.37 2.33,1.29 3.05,1.64 0.78,0.38 2.11,1.36 3.21,1.97l9.21 -32.51c-6.21,-2.08 3.03,-1.76 -6.51,1.94l-9.39 4.03c-1.88,-24.13 -4.91,-16.99 -11.36,-33.87 36.4,-23.63 23.14,-10 42.34,-8.54 6.99,-26.99 7.11,-42.19 11.92,-48.86 22.05,-30.56 -7.56,2.91 18.77,-36.65 19.82,-29.79 12.85,-65.49 42.39,-88.3 29.88,32 17.92,26.55 26,53.39 2.31,7.67 9.95,13.65 17.08,25.89 11.74,20.14 13.16,18.26 25.72,21.78 5.11,-6.92 -7.75,-1.92 10.9,-9.1 0.45,0.93 1.04,2.24 1.23,2.83 0.18,0.55 0.83,2 1.02,2.67l2.77 17.21c-5.48,-1.59 -12.56,-2.83 -16.95,-4.31 -23.37,47.48 -6.02,6.84 -9.61,42.7 -16.85,10.02 -18.33,3.25 -26.86,21.38 -16.05,-4.87 -1.91,-3 -10.08,-4.65 -0.52,-0.11 -1.68,-0.37 -2.18,-0.39 -6.91,-0.26 -6.04,4.5 -19.03,9.86l-4.3 -9.2c-9.4,-13.9 8.28,5.06 -3.7,-4.91 -13.65,-11.36 -29.04,7.37 -33.53,15.77 -17.5,32.71 -6.65,30.08 -3.75,56.32 -18.5,11.11 -19.62,4.3 -28.8,30.44 -5.15,14.67 -12.31,29.66 -14.4,45.47 26.17,-1.98 59.59,0.87 88.48,-0.06 28.1,-0.91 59.68,-1.78 87.54,1.07 63.25,6.46 41.24,54.5 79.82,91.04 31.55,3.89 136.5,4.75 159,-7.65 5.22,-33.6 -46.55,-145.92 -62.04,-180.87l-89.78 -216.91c-12.99,-19.27 -6.06,-23.52 -15.72,-43.97 -12.92,-27.36 -23.5,-54.14 -35.18,-84.01 -38.88,-99.36 -12.05,-109.81 -131.62,-106.52 -53.26,1.46 -66.66,-6.96 -90.22,32l-103.58 255.06c-23.07,57.9 -44.15,118.54 -67.34,175.65 -5.8,14.3 -13.7,29.16 -17.94,41.53 -3.33,9.72 -3.14,18.28 -6.81,25.59 -0.06,0.13 -48.79,66.62 -35.59,108.85 39.07,4.35 146.2,11.52 168.86,-11.54 13.66,-13.9 41.36,-110.75 55.23,-132.05z"/>
   <path class="fil0" d="M2631.67 1566.19c-16.88,-4.56 -6.32,3.58 -10.45,-11.46 13.74,6.32 4.4,-6.33 10.45,11.46zm-37.97 -65.16c6.01,-11.73 -6.95,1.23 4.43,-10.29 4.93,7.79 4.91,-4.15 1.95,7.35 -1.74,6.71 -1.13,1.06 -6.38,2.94zm10.23 -37.33l2.17 -10.68c1.62,1.29 6.07,-2.44 4.86,6.07 -1.31,9.22 0.93,0.22 -7.03,4.61zm-77.53 -19.28c-11.43,-12.74 -1.08,-7.91 0,-9.86 2.77,5.1 4.77,3.46 0,9.86zm22.07 5.99c-4.04,-15.9 -7.47,-21.43 5.82,-30.98 6.36,9.84 2.9,-0.38 3.46,12.05 1.3,28.91 0.77,1.89 7.68,24.35l-16.95 -5.42zm-14.1 -25.22c-0.16,-0.2 -13.86,2.77 0,-15.81 14.09,8.51 11.42,7.62 0,15.81zm40.91 -2.38c-6.67,-1.68 -4.22,-2.4 -8.34,-5.21l4.5 -12.86 12.83 18.07c-6.8,0.72 -1.63,1.86 -8.99,0.01zm-147.65 -35.05c1.22,-14.37 -5.31,-9.84 9.71,-11.13 -2.5,9.32 4.9,5.04 -9.71,11.13zm-16.8 -6.7c-6.23,-3.37 -0.01,-9.86 0,-9.87 2.63,5.29 7.29,-0.99 0,9.87zm178.87 -8.62c3.41,-1.84 -0.89,-8.52 11.27,0 -17.17,17.45 -10.51,0.67 -11.27,0zm31.76 -11.42c-0.87,14.14 6,9.56 -9.44,10.18 -0.53,-18.3 2.02,-8.66 9.44,-10.18zm-119.87 -8.5c0.91,-0.56 1.97,-1.94 2.42,-2.09 0.36,-0.12 2.1,-0.77 2.46,-0.86 16.52,-4.18 -3.18,-3.11 5.01,2.95 -0.86,0.62 -2,1.88 -2.44,2.02 -0.37,0.11 -2.1,0.74 -2.47,0.83 -17.38,4.24 4.04,3.5 -4.98,-2.85zm116.46 -18.3c9.35,14.25 1.53,9.17 0,12.29 -15.17,-10.24 -10.4,-7.18 0,-12.29zm-81.04 -21.21l3.94 19.59c9.18,5.67 -12.91,8.46 19.35,2.37 -6.57,23.61 -2.66,10.31 13.48,25.65l6.12 21.39c0.41,0.99 1.02,1.96 1.44,2.9l5.23 11.44c-15.1,5.96 -9.43,-2.08 -20.67,4.29 -9.89,5.6 0.57,9.26 -18.38,10.26 5.65,-18.05 6.48,0.93 7.38,-22.9 -9.86,4.35 -8.97,4.8 -17.5,9.32 -0.32,-15.23 2.64,-13.62 -7.02,-23.26 -7.88,8.13 -10.08,28.09 -15.63,42.25 -22.89,2.21 -24.75,2.26 -32.24,-15.98 -8.95,0.11 -17.3,3.18 -23.47,0 10.65,-11.44 14.8,-11.17 31.49,-11.74l7.21 12.48c5.79,7.32 -1.5,3.57 8.28,5.68 15.84,-17.67 -1.4,-21.45 -11.51,-32.36 -18.4,3.39 -5.59,12.2 -29.64,7.25 -5.1,-8.32 -7.75,-14.11 -5.16,-28.66 14.2,9.68 -0.81,5.34 15.08,11.95l12.22 -11.07 23.44 20.05c45.35,-23.33 31.12,0.63 53.86,0.86 -0.61,-20.02 -24.75,-23.36 -42.5,-20.39l15.19 -41.37zm-26.55 8.38c8.06,6.43 9.43,2.53 3.99,15.38 -13.6,-5.63 -14.21,-2.5 -3.99,-15.38zm81.87 -6.59c-2.31,17.8 2.21,16.64 -16.41,15.95 0.35,-15.12 2.33,-13.19 16.41,-15.95zm55.26 17.8c-11.86,5.26 -19.06,0.83 -24.98,-11.72 14.14,-0.29 16.98,0.6 24.98,11.72zm28.34 -5.87c-18.82,-2.63 -7.44,3.79 -12.46,-12.23 16.79,7.78 6.5,-5.16 12.46,12.23zm-77.28 9.96c2.04,-17.92 -1.15,-20.2 14.72,-26.13l-14.11 43.04c-14.87,-0.38 -14.62,0.79 -26.47,-5.08 8.93,-12.14 8.07,-9.1 25.86,-11.84zm-44.48 -28.01c5.71,-4.73 -1.74,-2.61 7.29,-3.56 17.33,-1.81 -2.89,-3.14 4.88,3.56 -4.88,3.58 1.6,9.94 -12.17,0zm-35.74 4.71c-5.99,-3.74 -0.1,-9.88 0,-10.03l2.81 5.05c3.97,16.88 2.22,-1.75 -2.81,4.98zm115.87 -16.17c12.74,0.03 4.35,0.81 7.92,9.25 -14.13,4.63 -6.61,4.24 -16.3,-1.78 0.46,-4.78 3.1,-7.48 8.38,-7.47zm-44.14 -3.23c8.17,12.02 2.12,7.02 0,10.17 -13.3,-10 -4.32,-5.72 0,-10.17zm15.86 -0.8c0.25,-9.42 0.78,-6.66 4.27,-11.48 11.65,10.32 5.29,8.52 -4.27,11.48zm79.78 -8.2c-12.53,-12.33 -0.36,-9.2 0,-9.82 0.64,0.97 2.19,2.08 2.37,2.57 0.13,0.38 0.87,2.13 0.98,2.51 4.16,14.72 2.61,-1.84 -3.35,4.74zm-47.82 -13.01c4.16,5.9 5.95,5.48 0,12.42 -11.34,-11.74 -1.56,-10.07 0,-12.42zm-14.81 -23.06c13.47,-11.39 8.19,-2.35 11.26,0 -3.56,2.38 1.07,10.13 -11.26,0zm47.91 -25.27l9.29 1.37c-10.83,11.42 -2.8,6.78 -9.29,-1.37zm-25.13 -69.57c4,4.71 6.44,3.47 0,10.69 -11.27,-11.01 -1.41,-8.95 0,-10.69zm-27.89 -46.02c6.03,12.89 8.08,6.47 -3.99,13.96 -1.91,-3.66 -3.72,0.18 -2.33,-7.93 1.93,-11.22 -1.33,-1.05 6.31,-6.04zm-30.14 120.94c-18.98,11.77 -4.93,-5.44 -15.57,14.04 -6.38,11.69 -2.73,11.32 -11.67,20.24 -33.72,33.65 -130.71,14.21 -168.75,22.03 -0.78,49.6 -6.69,58.52 9.6,71.48 -5.74,16.84 -12.9,-7.19 -8.84,67.47 17.42,9.91 30.34,8.32 46.57,19.37 27.6,18.79 42.14,54.46 58.22,77.3 70.81,100.59 59.91,84.6 112.6,85.49 44.05,0.75 126.46,14.44 131.49,-11.74 2.88,-14.97 -34.92,-61.44 -54.55,-87.87 -14.35,-19.32 -51.68,-67.92 -57.28,-94.5 9.27,-10.07 23.21,-16.17 34.26,-25.8 85.86,-74.86 103.6,-203.48 58.38,-297.62 -23.89,-49.73 -67.04,-92.52 -122.27,-108.76 -44.78,-13.17 -163.77,-23.96 -205.6,-6.67 -9.64,23.63 -2.69,110.75 -2.8,144.13 45.64,2.89 107.76,-9.02 150.13,8.57 20.13,8.36 25.39,24.91 35.76,43.7 19.54,35.4 -1.65,30.58 10.33,59.15z"/>
   <path class="fil0" d="M1717.91 1452.02c4.76,11.92 4,2.77 -0.43,12.14 -5.36,-3.53 -5.56,7.3 -5.68,-5.04 -0.13,-12.21 3.16,-4.52 6.12,-7.1zm-63.84 -27.34c10.87,10.18 15.53,13.41 20.73,29.35 -22.12,-1.78 -23.41,-3.91 -20.73,-29.35zm-19.45 9.18c8.64,6.31 6.46,-0.43 3.39,9.96 -16.53,-11.44 -2.57,-2.64 -3.39,-9.96zm-92.48 -57.98c4.87,10.65 6.15,0.61 -0.58,11.55 -13.12,-12.37 0.31,-11.21 0.58,-11.55zm155.27 -3.43c1.88,-0.99 -4.79,-9.06 11.73,0 -5.77,5.41 3.13,2.43 -6.81,3.5 -17.41,1.87 2.51,2.71 -4.92,-3.5zm28.04 -1.19c-14.26,-4.99 -2.45,-6.89 0,-10.53 16.13,21.62 4.37,4.43 0,10.53zm-71.37 53.42l-16.56 -0.26c1.89,-22.11 12.15,-24.44 5.76,-49.67 -10.5,4.93 -4.26,-0.94 -9.88,8.86l-10.12 33.91c-23.64,-0.05 -25.58,-0.89 -32.27,-18.22 -15.13,2.26 -14.54,6.56 -23.53,1.03 11.28,-10.9 17.11,-8.79 30.63,-14.68 11.25,13.12 -0.97,9.47 11.78,22.06 26.92,-11.92 0.24,-26.56 -7.97,-33.89 -10.15,4.03 -12.62,13.47 -25.04,8.03 -10.97,-4.81 -10.67,-13.62 -9.16,-27.3l14.28 11.1c6.64,-5.57 7.95,-7.41 15.1,-11.48 12.93,7.82 13.75,13.56 24.75,21.26 31.44,-24.18 21.35,-7.81 52.01,-0.69 -7.97,-20.26 -23.01,-24.96 -44.46,-18.7 1.62,-11.24 10.64,-33.82 18.65,-41.39l3.01 24.75c8.94,-3.7 4.7,-2.34 16.94,-5.13 -5.33,32.31 4.13,9.16 18.25,30.21 -9.05,21.83 -6.48,11.95 -31.16,17.29 -8.05,28.44 -2.34,15.89 -1.01,42.91zm27.68 -76.15c9.29,-18.61 12.85,-3.44 22.7,-13.12 9.86,-9.69 -5.1,-11.77 13.02,-23.57 9.73,11.01 2.32,3.21 7.32,18.2 4.04,12.09 0.84,-3.17 6.3,15.03 -29.55,-1.47 -23.92,8.69 -29.47,8.92l-19.88 -5.46zm-64.54 -27.36c9.16,5.26 13.05,-0.34 4.63,14.77 -12.11,-6.09 -9.68,-4.03 -4.63,-14.77zm138.8 15.27c-17.87,-1.71 -18.45,-3.44 -24.82,-16.9 16.93,3.09 19.78,2.61 24.82,16.9zm-55.8 -21.34c-3.63,23.67 7.23,12.84 -16.24,16.01 4,-20.46 -1.46,-12.67 16.24,-16.01zm83.06 11.12c-16.39,-5.21 -6.31,2.95 -11.02,-10.81 13.84,4.38 6.92,-4.4 11.02,10.81zm-119.78 -12.94c11.07,-13.5 -9.99,-3.26 11.19,-11 -5.68,16.22 6.96,7.55 -11.19,11zm77.9 -13.28c12.6,-0.23 0.99,-1.98 8.21,6.4 -7.77,3.77 -7.47,3.83 -15.97,-1.69 5.57,-5.18 -9.28,-4.39 7.77,-4.7zm-43.84 4.83c-0.84,-0.66 -2.03,-1.92 -2.19,-2.38 -7.91,-23.32 -3.97,0.83 2.19,-7.63l1.74 7.7c0.04,-0.62 -1.19,1.5 -1.74,2.3zm19.4 -23.59c9.54,5.4 8.62,-2.8 5.54,12.05 -10.02,-5.9 -10.37,1.88 -5.54,-12.05zm79.04 -6.61c3.77,6.04 3.07,2.21 1.94,10.47 -4.97,-3.39 -11.65,2.61 -1.94,-10.47zm-53.38 -20.61c-16.41,-2.54 -6.44,3.41 -10.76,-11.18 13.37,5.35 7.6,-3.28 10.76,11.18zm36.5 -22.65c13.66,-9.23 -11.54,-4.59 9.07,-9.23 -2.9,12.09 4.17,4.55 -9.07,9.23zm-25.78 -77.28c4.16,5.18 4.92,4.47 -1.88,10.44l1.88 -10.44zm21.21 -4.8c11.7,-9.35 3.54,-5.01 9.66,0 -11.82,10.46 -3.86,5.39 -9.66,0zm-44.8 -40.94c-0.46,18.15 8.5,10.45 -12,13.62 4.44,-18.81 0.71,-9.57 12,-13.62zm-52.23 44.98c9.71,14.55 20.8,24.8 17.74,46.04 -16.22,112.51 -96.48,79.55 -193.31,85.25 -0.1,34.01 -5.72,57.32 9.63,71.88 -12.01,23.53 -12.24,18.33 -8.99,67.74 14.67,8.99 30.01,9.87 46.18,21.29 38.38,27.1 40.75,55.55 57.67,77.79l57.05 74.43c16.78,17.72 27.75,7.99 53.97,8.36 27.83,0.4 109.52,8.24 127.88,-1.99 15.53,-18.88 -4.1,-32.89 -16.03,-48.65 -22.39,-29.55 -88.21,-117.7 -90.23,-148.86 45.59,-14.1 85.87,-72.32 102.11,-125.47 35.78,-117.04 -4.45,-262.9 -130.73,-300.07 -59.26,-17.44 -144.17,-20.87 -208.41,-9.97l0.1 146.92c43.82,-2.11 92.93,-5.76 134.19,4.49 30.42,7.55 26.92,9.45 41.17,30.81z"/>
   <path class="fil0" d="M380.12 1547.78c16.31,-16.12 9.8,-1.37 11.67,0 -1.8,0.8 6.03,10.18 -11.67,0zm-41.41 -11.52c4.57,8.41 6.27,0.38 0,10.88 -14.9,-12.22 -1.25,-9.56 0,-10.88zm23.85 -0.99c-6.59,-14.48 -6.61,-11.1 4.04,-18.83 2.03,3.44 5.94,-7.93 2.62,9.61 -2.62,13.8 -4.52,7.11 -6.66,9.22zm-65.76 -8.53c14.34,-9.71 -10.39,-4.91 8.63,-9.61 -2.85,11.12 3.04,4.17 -8.63,9.61zm158.28 -10.84c12.32,-8.67 4.42,-4.56 10.9,0 -5.92,5.31 2.36,2.4 -6.67,3.41 -15.07,1.68 2.71,3.26 -4.23,-3.41zm-104.4 -14.72c-2.23,12.53 2.5,5.85 -8.36,10.23 1.49,-12.84 -3.15,-6.81 8.36,-10.23zm78.46 -1.22l-78.46 1.22zm90.08 -5.83c11.32,-10.91 -12.23,-5.77 8.46,-10.85 -3.82,10.93 3.04,2.83 -8.46,10.85zm-88.37 -1.73l-1.5 -14.63c9.32,3.9 4.52,-5.07 7.71,5.67 5.71,19.23 3.16,0.07 -6.2,8.96zm132.71 -69.38c-5.16,14.36 -7.26,10.21 -19.14,4.6 1.45,-9.74 11.9,-7.98 19.14,-4.6zm-35.46 -14.57c7.56,15.89 -0.2,3.93 -3.33,9.14 -9.1,-6.33 -9.93,-2.08 -3.99,-13.19 9.23,2.29 2.81,-5.41 7.32,4.05zm11.88 -11.74c4.15,-3.6 -2.24,-11.97 12.85,-1.58 -3.32,2.04 -0.92,1.73 -7.38,2.88 -0.67,0.12 -4.2,-0.89 -5.46,-1.3zm26.4 -9.55c20.89,-12.12 6.71,-2.55 9.5,0l-6.85 1.48c-0.33,-0.97 -1.75,-1.03 -2.65,-1.48zm-58.61 -7.97l10.73 0c-0.97,0.76 -2.16,2.31 -2.73,2.52 -22.1,7.8 -1.31,3 -8,-2.52zm-22.46 -15.94c20.62,-16.8 9.74,-2.45 13.12,0 -3.03,2.14 7.06,17.3 -13.12,0zm-28.9 -39.29c-11.33,-7.71 -0.26,-3.93 0.07,-5.06 4.23,-0.97 -5.2,-6.95 4.77,0.23 9.72,7 0.41,3.62 0.16,4.64 -4.02,1.3 5.28,7.2 -5,0.2zm31.18 -12.52c-10.9,9.24 -4.05,5.86 -18.13,3.04 8.8,-11.13 7.47,-17.54 18.13,-3.04zm11.34 -11.96c24.37,-14.62 6.54,-3.53 11.12,0 -0.95,0.64 -2.15,1.99 -2.69,2.15 -22.39,6.63 -0.44,3.3 -8.43,-2.15zm-50.4 0.22c7.03,-10.42 -5.23,-5.55 10.12,-10.31 -6.11,13.32 5.21,6.01 -10.12,10.31zm-47.3 -6.26c-8.81,-12.22 -0.06,-17.04 8.34,-21.4 2.4,17.64 3.61,13.27 -8.34,21.4zm17.92 -13.88l5.57 -3.01c19.66,-4.48 -3.05,-2.97 5.53,3.01 -22.33,16.49 -6.98,2.86 -11.1,0zm-35 5.95c-13.31,-4.94 -7.11,1.87 -9.57,-8.94 11.96,2.85 4.4,-3.81 9.57,8.94zm56.28 -9.9c-6.97,-7.42 0.05,-12.49 0.15,-14.71l15.39 0.28 1.78 18.31c-12.48,0.12 -9.21,4.73 -17.31,-3.89zm22.16 -19.97c15.8,-8.85 10.17,-3.32 14.43,3.99 -2.17,1.64 4.65,8.29 -10.41,3.27 -5.08,-1.69 -3.42,-5.41 -4.02,-7.26zm-91.94 -2.16c-16.88,-2.92 -6.59,3.13 -11.11,-11.55 14.19,5.34 7.96,-3.71 11.11,11.55zm101.2 -25.03l6.61 -10.42 3.91 9.43 -0.41 5.26c7.5,14.45 4.22,6.58 3.81,14.84 -18.52,-1.3 -7.79,-0.73 -12,-4.85l-8.6 -2.75c3.64,-10.3 -2.01,-3.61 6.68,-11.51zm32.99 -15.24c1.53,2.18 12.85,2.05 -3.98,16.67 -0.06,-0.09 -13.12,-5.5 3.98,-16.67zm-54.52 7.94c-17.41,-1.36 -8.94,3.01 -11.8,-8.45 13.89,0.69 5.69,-3.42 11.8,8.45zm77.87 -2.16c-12.37,-8.41 -9.63,-6.28 0.55,-11.79 3.69,8.79 6.1,-0.24 -0.55,11.79zm-66.85 -19.42c10.28,5.07 7.29,3.01 13.1,14.1 -23.18,-2.02 -14.41,6.73 -13.1,-14.1zm47.48 -22.85c10.75,4.74 15.41,-0.04 3.99,14.65 -13.03,-4.94 -13.47,-1.57 -3.99,-14.65zm-59.63 -8.74c2.13,-13.6 -0.39,-8.4 12.48,-12.99 2.49,12.84 2.51,19.52 -12.48,12.99zm28.56 -23.91c0.84,-0.6 1.75,-2.05 2.16,-2.19 5.37,-1.91 6.87,1.63 7.72,2.19 -4.78,2.47 6.13,13.57 -9.88,0zm34.17 2.91c9.02,-6.58 20.53,-11.24 33.78,-2.91 -20.36,13.44 -1.04,-17.65 -28.6,18.57l-5.19 -15.66zm-9.81 -20.49l12.3 0.31c-1.78,1.6 5.31,19.08 -12.3,-0.31zm20.15 -7.01c4.9,-4.73 -6.7,-2.99 9.82,-7.13 -3.98,11.05 2.17,7.86 -9.82,7.13zm-23.61 -15.25c0.94,-0.58 2.08,-2.01 2.52,-2.17 16.91,-5.95 2.04,-2.16 6.34,2.17 -14.85,10.2 -4.34,2.3 -8.86,0zm-58.63 -35.86c1.45,-0.92 -4.94,-13.01 12.68,0 -5.63,4.95 -4.25,6.27 -12.68,0zm21.73 -35.86c7.9,-4.4 -0.71,-6.19 11.94,0 -6.85,5.92 2.61,2.59 -7.4,3.69 -14.5,1.59 0.74,1.47 -4.55,-3.69zm25.01 -11.95c15.42,-8.06 7.21,-1.37 10.33,0 -3,2.92 1.59,14.86 -10.33,0zm-148.75 322.79c27.61,-4.07 8.5,2.49 31.44,4.18 14.71,1.09 20.91,-5.85 39.71,-4.84 49.09,2.64 79.97,55.78 45.64,94.14 -23.39,26.14 -77.54,19.47 -116.35,18.66 -0.74,49.79 -2.55,104.06 1.49,153.16 78.45,-1.5 145.78,4.55 208.61,-30.38 35.29,-19.61 61.54,-43.46 78.47,-85.21 23.21,-57.22 12.9,-144.55 -35.14,-181.04 -90.73,-68.91 -0.45,-22.19 16.67,-148.16 13.14,-96.69 -42.33,-160.31 -130.72,-187.89 -49.88,-15.57 -90.15,-7.14 -102.39,-8.55 -17.23,-1.99 -17.89,-3.08 -37.17,-0.93l-0.13 149.89c55.69,5.92 58.21,-12.71 99.46,23.74 4.62,38.03 -8.44,58.6 -20.42,86.99 -7.32,-9.62 -3.71,-15.38 -15.79,-13.84 -17.33,2.21 -1.42,1.37 -12.1,17.61 -27.3,-16.23 -5.31,-5.74 -36.19,-9.86 -7.61,-1.02 -5.69,-1.6 -14.98,-1.76l-0.03 20.48c1.11,6.85 9.32,7.33 9.37,7.19 0.25,-0.71 1.64,0.36 2.35,0.78 -6.78,22.31 -11.48,11.28 -11.9,39.52l0.1 56.13z"/>
   <path class="fil0" d="M160.08 1539.81c5.99,-4.93 -2.19,-10.27 10.93,0 -0.75,0.53 -1.91,0.71 -2.21,1.64 -1.32,4.02 -8.49,-1.48 -8.72,-1.64zm-8.66 -19c8.16,11.67 3.48,5.71 0,12.76 -0.57,-0.74 -16.34,1.86 0,-12.76zm-41.2 -21.2c13.68,5.13 6.25,1.05 15.99,11.39 -16.82,6.74 -15.05,5.3 -15.99,-11.39zm73.49 0.35c14.36,-7.09 12.87,-3.91 16.65,10.39 -23.22,-4.6 -10.59,-3.78 -16.65,-10.39zm-43.04 -3.99c9.2,-3.94 10.74,-3.2 19.42,0l-0.02 14.26c-15.77,-4.34 -12.91,-3.53 -19.4,-14.26zm-92.85 -11.4c0.51,0.65 1.67,0.77 1.63,1.86 -0.03,0.97 0.74,1.79 0.68,2.08l-2.31 4.92c-2.1,-3.71 -10.47,8.45 0,-8.86zm67.74 -8.22c4.12,8.79 5.26,6.37 -3.98,11.18 -3.99,-9.25 -4.61,-6.18 3.98,-11.18zm-42.48 -12.25c0.48,-3.92 10.12,-17.79 5,-1.53 -2.22,7.05 -5.57,6.23 -5,1.53zm-13.31 -17.24c6.4,10.53 6.41,3.48 0,12.7l-3.52 -4.71c0.92,-9.38 -2.35,-2.35 3.52,-7.99zm79.69 -0.16c2.77,3.38 17.34,-13.34 0,9.46 -3.67,-6.67 -7.46,-2.59 0,-9.46zm-29.2 10.4c-1.73,-0.08 -19.39,-5.63 -9.23,-23.07 5.5,-9.45 0,-1.02 8.61,-7.12l0.62 30.2zm-32.61 -22.61c13.79,6.21 13.8,-1 7.37,14.46 -8.36,-5.54 -3.08,3.13 -6.89,-6 -3.76,-9 0.21,2.66 -0.49,-8.46zm78.19 -2.35c2.48,11.34 1.15,7.06 -7.5,3.78 0.1,-0.16 -1.17,-6.76 7.5,-3.78zm-92.08 -9.23c3.84,6.41 2.83,4.85 0,11.01 -6.54,-7.63 -9.13,14.54 -3.63,-5.44 5.02,-18.26 -12.59,3.78 3.63,-5.57zm62.34 1.35c-0.31,-6.66 8.2,-3.41 6.81,1.11 -0.01,0.03 -0.49,0.71 -0.55,0.72 -16.52,3.06 -5.67,10.71 -6.26,-1.83zm-56.95 -17.89c17.47,6.35 15.05,2.8 20.6,18.97 -25.21,-6.03 -12.08,-0.71 -20.6,-18.97zm21 -6.02c0.33,-7.68 8.7,-5.24 6.74,0.22 -1.36,3.79 -7.41,15.36 -6.74,-0.22zm-38.34 -10.72c0.09,0.11 4.99,-2.72 4.11,7.13 -0.83,9.23 -0.44,3.5 -4.11,8.07 -5.62,-8.06 -11.78,-4.34 0,-15.2zm59.77 28.22c-0.28,-0.36 -13.56,2.62 -2.84,-19.6 4.82,-9.98 6.3,-7.61 14.46,-9.41 -6.62,29.27 -1.3,23.33 -11.62,29zm-17.85 -42.96c2.33,0.8 11.98,1.15 8.78,8.8 -3.36,8.05 -1.02,3.27 -11.75,5.05l2.97 -13.85zm-33.72 6.29c-11.8,-0.03 -12.78,1.79 -24.02,-4.79l1.68 -10.45c15.9,0.07 17.89,3.24 22.34,15.24zm22.54 -36.63c5.33,-3.14 0.75,-2.41 8.56,-3 20.17,-1.53 -4.49,-3.36 5.71,3 -7.32,6.51 3.1,3.05 -8.57,4.31 -22.05,2.39 3.86,4.21 -5.69,-4.31zm129.96 -7.97c1.16,-15.32 2.75,-7.96 10.37,-3.98 -4.72,6.52 0,8.55 -10.37,3.98zm-39.22 -27.89c11.2,-6.8 9.94,-4.5 17.23,0 -5.72,12.67 -9.23,14.34 -17.23,0zm-97.57 10.66c-10.83,-10.68 -4.37,-21.68 6.5,-32.93 6.58,12.4 5.59,23.29 -6.5,32.93zm118.01 -29.74c-7.21,9.14 1.35,9.79 -13.14,2.53 2.83,-14.2 10.84,-4.2 13.14,-2.53zm-132.88 -0.84c-0.19,-4.66 2.7,-0.9 4.25,-0.48 10.92,2.95 -3.51,18.16 -4.25,0.48zm6.43 -19.92c3.35,-1.76 -2.8,-3.41 11.24,-2.64 9.49,0.52 -0.05,-0.58 7.68,3.04 -11.14,10.55 -8.43,7.98 -18.93,-0.41zm93.24 22.11l7.48 9.76 -16.41 7.98 13.7 7.01c0.5,-0.87 1.98,1.13 2.92,1.79 -3.3,22.27 -2.98,3.4 -9,13.58 -2.72,4.61 -0.47,7.06 -1.05,15.12l-8.37 -16.75c-1.52,-5.62 -1.74,-9.98 -2.34,-12.69 -0.62,-0.81 -1.38,-1.94 -1.68,-2.54l-6.71 -17.18c-3.16,-10.97 -1.35,-6.75 0.81,-20.21l-10.25 -10.38c-8.49,-12.96 3.62,-12.96 -29.97,-30.81 -15.38,7.67 -4.7,3.27 -14.5,11.02 -18.32,14.48 -11.12,3.58 -13.81,2.28 8.7,-9.22 9.93,-4.22 17.97,-10.2 7.36,-5.47 6.99,-10.47 9.04,-19.69l11.11 7.88c0.74,0.23 1.77,0.6 2.52,0.69 3.71,0.41 8.34,-2.23 15.05,-4.75 -5.97,24.07 -1.95,26.67 20.32,22.66 -1.8,12.57 -4.66,16.03 -8.58,23.72l27.06 3.53c-17.89,13.35 -10.14,-0.18 -19.81,13.84l14.5 4.37zm-115.12 -58.29c-3.14,-6.58 6.35,-8.16 8.28,-8.85l4.04 13.6c-12.61,-1.6 -7.72,4.85 -12.31,-4.75zm78.14 -39.32c5.8,12.54 3.84,3.81 0,12.66 -5.62,-3.78 -6.12,2.82 -5.55,-7.38 0.69,-12.3 2.02,-2.66 5.55,-5.29zm-51.73 -0.22c4.97,-3.76 -0.08,-2.34 6.61,-3.03l3.74 3.03c-15.07,11.61 -8.91,0.99 -10.35,0zm19.63 -15.79c12.9,3.38 8.72,-1.84 10.72,10.9 -15.83,-1.35 -8.84,1.52 -10.72,-10.9zm-41.99 5.04c-0.01,-0.59 -1.1,1.55 -1.63,2.34 -5.8,-4.94 -2.44,1.59 -3.28,-7.16 -0.04,-0.48 1.25,-1.29 1.26,-2.63 0.02,-1.55 1.37,-1.79 2.03,-2.7 2.18,3.85 2.15,1.32 2.64,7.75 0.03,0.43 -1,2.95 -1.01,2.41zm47.36 -21.13c7.86,-11.83 30.91,-11.11 45.63,-6.87 -5.68,13.4 -7.52,9.12 -20.67,8.48 -23.94,-1.17 -12.16,9.47 -24.96,-1.61zm-40.78 0.33c-18.2,-0.43 -6.14,3.97 -10.3,-9.87 13.28,6.33 5.1,-6.11 10.3,9.87zm23.67 -8.9c-0.15,-0.19 -17.11,-4.66 3.99,-23.28 0.2,0.23 9.45,-0.95 4.95,15.31 -3.23,11.67 2.22,2.34 -8.93,7.97zm-42.34 -23.31c13.93,-10.83 4.93,-4.98 10.52,-0.89 -3.42,2.46 1.22,8.88 -10.52,0.89zm73.93 -15.5c-0.61,19.99 5.28,6.87 -10.24,14.11 3.66,-15.25 -1.29,-9.07 10.24,-14.11zm-52.61 12.51c8.18,-8.66 -9.46,-2.1 10.72,-10.56 -5.03,11.59 2.06,6.95 -10.72,10.56zm69.16 -12.95c6.54,-5.3 -2.82,-2.33 7.12,-3.29 17.79,-1.72 -2.52,-2.44 5.21,3.29 -15.96,12.01 -11.76,0.45 -12.32,0zm33.16 -16.84c-4.54,11.92 2.64,6.46 -6.94,7.95 -6.53,-5.45 -6.24,8.34 -5.73,-10.02 21.44,-4.33 8.54,-0.28 12.67,2.08zm-73.33 21.71c-2.48,-3.37 -7.73,10.47 -4.47,-12.29 0.89,-6.25 3.02,-6.86 7.09,-10.03 23.08,-18.02 21.63,-2.48 21.64,-2.48 -30.71,19.04 -8.48,6.41 -24.25,24.8zm-11.81 -29.94c-3.84,-4.14 -2.64,-4.19 -0.14,-9.79 1.41,1.7 10.08,-2.79 0.14,9.79zm-43.98 -9.32c-0.03,-0.01 -15,8.78 0,-9.86 3.69,8.05 4.34,1.49 0,9.86zm16.8 -16.73c15.64,4.88 7.53,1.02 11.89,11.15 -16.98,-0.53 -10.62,6.27 -11.89,-11.15zm38.71 -1.7c-18.56,-6.57 -7.77,-0.2 -12.24,-10.93 14.92,-5.94 13.02,-4.6 12.24,10.93zm64.24 353.12c-5.71,-3.74 -12.09,-7.07 -22.48,-9.82 7.48,-7.65 -2.31,-12.05 18.42,-3.01l7.82 4.19c22.22,-0.84 5.39,0.74 14.31,-4.74l-2.14 -47.82c14.31,-7.91 12.54,-2.27 22.63,-16.16 16.58,8.02 2.08,-2.3 9.06,11.45l27.13 -1.09 0.41 -65.92c-0.61,-0.35 -1.71,-0.38 -2.06,-0.45 -42.06,-8.84 14.95,11.49 -15.56,-3.53 5.05,-9.74 -2.15,-3.12 13.07,-7.39l3.73 -47.54c-38.06,3.14 -31.09,14.97 -43.75,16.28 -15,1.55 -10.7,-4.98 -11.14,-5.66l19.52 -11.47c-12.18,-14.77 -21.96,-2.78 -24.61,-59.8 -1.6,-34.39 2.46,-40.19 34.71,-43.49l2.4 -10.24c-7.68,-3.96 -14.98,-8.75 -20,-17.68 18.69,0.38 19.72,-0.33 26.32,12.6 4.63,5.11 4.79,-7.91 4.19,9.64l12.74 -2.59 -0.67 -142.19c-38.35,-2.07 -79.43,-1.01 -118.1,-1.26 -49.54,-0.31 -70.76,-3.6 -102.92,15.12l2.9 76.26c-14.82,59.38 -1.39,37.26 1.53,69.65 1.37,15.1 -3.08,3.52 -6.99,19.53 -4.14,16.98 -2.87,220.26 10.03,253.77 -12.75,16.42 -11.93,16.62 -10.12,44.55 3.95,60.92 -10.93,129.59 17.24,162.31l207.53 -0.28 -1.12 -148.98c-22.98,3.8 -29.57,-1.28 -53.01,-3.31l-5.02 -34.12 -16.02 -6.78z"/>
   <path class="fil0" d="M1414.26 1424.48c1.15,-12.46 -5.29,-19.16 10.82,-8.2 -4.72,8.61 1.13,4.64 -10.82,8.2zm-24.53 -37.14c-12.94,-2.39 -2.85,4.07 -9.42,-9.71 14.52,7.82 7.67,-3.65 9.42,9.71zm26.41 -1.96c-13.84,-7.52 -12.25,-3.4 -5.44,-16.42 9.74,7.21 8.93,0.37 5.44,16.42zm41.96 -4.9c-12.29,-15.28 -13.42,-20.65 10.7,-25.39 -1.93,6.4 -2.6,10.06 -4.39,14.69 -5.74,14.88 -0.71,3.87 -6.31,10.7zm-13.18 -35.21c-10.23,8.99 -13.97,11 -17.83,-4.71 13.95,-5.99 10.92,-3.79 17.83,4.71zm-3.65 -11.84c0.79,-1.06 1.77,-6.66 2.19,-7.34 3.84,-6.25 1.35,-1.33 7.28,-2.59 -5.68,11.83 3.56,4.39 -9.46,9.94zm-46.33 -12.79c1.51,-1.07 -8.51,-10.59 12.65,-1.93 -3.07,2.75 6.93,14.51 -12.65,1.93zm27.65 -10.45c9.23,4.91 5.93,-3.06 6.7,6.65 0.89,11.26 -5.09,7.01 -6.7,8.07 -9.56,-16.69 -1.94,-12.25 0,-14.72zm14.55 -10.35c-16.86,1.46 -6.73,2.9 -11.21,-9.15 16.11,3.81 7.87,-3.63 11.21,9.15zm-70.33 -21.49c12.62,6.71 10.9,-0.92 7.02,17.54 -8.79,-4.27 -12.89,-6.51 -7.02,-17.54zm24.53 -9c11.04,3.88 7.42,1.08 11.31,11.94 -15.9,-2.15 -10.17,3.84 -11.31,-11.94zm7.34 -10.12c-12.33,-6.94 -3.46,-4.68 0,-9.64 17.87,22.5 3.25,5.37 0,9.64zm-27.89 -45.06c-12.47,-4.56 1.83,13.36 -3.04,-4.87l3.04 -4.59c3.81,7.95 4.75,1.3 0,9.46zm-23.36 -20.29c13.01,4.13 7.5,0.93 10.69,10.46 -15.8,-0.18 -9.81,4.67 -10.69,-10.46zm28.57 -0.78c14.64,-8.17 8.76,-5.01 13.38,3.99 -8.43,4.65 -6.64,3.23 -13.38,-3.99zm49.73 -15.94c0.69,-0.6 -7.48,-19.84 11.84,0 -10.89,6.46 -4.14,3.55 -11.84,0zm-51.97 3.94c4.08,-14.14 -0.07,-9.1 12.95,-11.69 -4.85,12.07 -1.26,7.88 -12.95,11.69zm32.89 -21.17c-16.8,-4.06 -1.95,-7.54 0,-9.95 9.56,18.45 3.56,2 0,9.95zm10.22 -18.63c-5.43,2.81 -8.37,2.91 -13.29,-0.13 -14.1,-8.74 -5.62,-3.18 -10.35,-14.58 17.76,3.27 17.54,2.74 23.65,14.72zm9.17 -16.19c-16.12,-5.16 -23.65,-10.29 -29.32,-19.67 5.04,-2.67 1.82,-4.19 12.55,-3.02 22.27,2.44 16.97,19.34 16.78,22.69zm-38.02 -48.18c14.54,-10.93 -9.86,-4.45 9.63,-10.98 -3.51,11.18 2.15,4.85 -9.63,10.98zm6.67 -44.74c-9.48,-16.4 -2.88,-2.72 0,-8.7 9.93,16.21 2.9,5.93 0,8.7zm56.67 256.55c15.17,-17.3 15.64,-0.22 11.67,-28.19 -3.5,-24.67 3.57,-96.4 5.3,-124.94 2.81,-46.13 3.42,-122.41 0.04,-168.1 -30.37,-6.31 -137.84,-7.5 -161.43,6.43 -14.13,24.71 -5.55,46.9 -8.2,75.71l-1.66 127.72c0.62,16.08 4.77,21.64 4.22,34.89 -2.74,66.21 -15.43,368.5 5.72,387.92 17.89,8.48 131.39,13.09 145.52,2.2 25.06,-16.85 5.38,-85.78 13.86,-141.58 6.16,-40.54 2.61,-107.24 2.65,-152.12 -0.56,-21.23 0.81,-6.4 -17.71,-19.93z"/>
   <path class="fil0" d="M2304.13 1548.08c-13.25,-4.15 -4.91,2.87 -10.45,-10.78 13.18,6.92 5.37,-4.81 10.45,10.78zm0.69 -131.79c15.37,-12.41 9.43,-1.06 10.98,0 -4.8,3.85 0.33,12.06 -10.98,0zm-25.96 -36.37c5.33,4.85 5.65,-5.95 4.17,6.21l-9.42 -0.02c-2.73,-10.72 3.72,-6.29 5.25,-6.19zm18.23 -3.15c0.1,-6.69 4.79,-5.88 11.52,-7.66l-1.21 15.1c-7.27,-1.96 -10.44,1.47 -10.31,-7.44zm27.76 -25.66c-12.28,-2.19 -7.44,-5.34 -8.51,-6.55 0.15,-0.86 8.9,-17.23 19.52,3.98 -3,1.37 5.69,5.54 -11.01,2.57zm26.21 -15.95c0.62,0.96 2.23,2 2.36,2.49 4.71,17.62 5.32,-0.92 -4.47,7.5l2.12 -9.99zm-19.1 -6.54c6.03,-4.28 3.89,-4.04 9.79,0 -4.83,2.66 5.29,13.19 -9.79,0zm-16.76 -17.82c6.38,5.29 6.3,-5.9 6.31,8.95 0.01,9.87 -0.91,2.98 -6.18,7.87 -3.74,-4.34 -2.55,6.63 -3.82,-7.61 -0.93,-10.44 1.47,-5.53 3.7,-9.21zm14.01 -8.79c-16.78,-3.56 -6.37,4.21 -10.99,-10.79 14.94,6.99 4.89,-4.8 10.99,10.79zm-69.8 -23.19c12.79,8.64 12.86,5.9 0.73,16.59 -1.67,-3.6 -2.51,-5.56 -2.74,-7.86 -0.74,-7.39 0.75,-5.44 2.01,-8.73zm27.89 -9.56c11.95,21.51 2,9.31 0,13.17 -8.65,-6.4 -6.2,2.1 -5.59,-7.85 0.69,-11.13 2.73,-3.07 5.59,-5.31zm1.29 -20.24l5.53 0.13c5.01,6.13 5.83,-9.28 4.09,10.85 -8.55,2.36 -5.44,2.82 -14.06,0.09 -1.41,-19.37 -0.81,-5.82 4.45,-11.08zm-21.99 -34c-13.8,-5.58 -6.45,2.79 -11.09,-9.83 13.64,3.12 5.69,-4.68 11.09,9.83zm-17.61 -10.29c-14.36,-2.89 -5.9,3.93 -10.68,-11.11 11.95,5.77 7.02,-2.28 10.68,11.11zm18.76 -13.2l11.4 1.61c-9.1,9.13 6.09,2.28 -6.77,3.82 -17.32,2.08 0.97,1.64 -4.63,-5.43zm49.24 -14.33c7.75,-9.31 1.45,-12.43 12.63,0 -8.64,5.4 -3.08,6.19 -12.63,0zm-52.3 4.95c4.23,-13.14 0.46,-9.74 13.37,-11.74 -6.01,18.5 0.67,6.52 -13.37,11.74zm19.64 -51.83c18.99,-4.98 18.38,-2.04 23.42,14.7l-23.42 -14.7zm2.9 -24.85c7.11,-4.73 -10.36,-5.4 11.01,-3.62 13.17,1.1 18.61,10.38 19.26,22.54 -10.99,-0.94 -24.5,-9.63 -30.27,-18.92zm2.62 -41.02c-4.15,15.25 4.02,7.93 -9.12,11.8 2.81,-14.73 -2.96,-4.85 9.12,-11.8zm54.2 310.6c-1.78,-16.13 2.96,-15.09 14.55,-22.52l0.26 -51.8c-0.81,-0.69 -2.14,-1.32 -2.75,-1.64 -0.6,-0.32 -2.01,-1.18 -2.72,-1.54l-12.14 -4.79c6.98,-24.24 13.32,1.25 14,-27.65 0.36,-15.11 -2.45,-25.27 -0.77,-44.08 5.62,-62.96 7.31,-195.47 3.78,-254.7 -52.91,-5.46 -111.64,-2.85 -161.13,5.59 -7.97,24.15 -8.49,23.74 -5.79,55 1.52,17.53 -2.67,40.07 -2.17,62.58 0.94,42.62 4.46,89.81 2.37,131.52 -1.22,24.34 -0.68,43.52 0.48,67.75 1.23,25.89 -2.69,40.07 -3.4,63.59 -1.26,41.64 -0.99,89.89 0.04,131.66 0.79,32.06 -10.27,107.66 14.66,119.39 6.66,3.14 114.52,4.83 128.11,3.88 26.72,-1.88 22.43,-18.64 23.79,-43.44l3.29 -195.4c-22.09,-3.31 18.74,11.24 -14.46,6.57z"/>
   <path class="fil0" d="M2037.63 1534.68c-3.62,14.08 2.19,5.93 -10.6,10.57 4.69,-14.72 -6.48,-7.01 10.6,-10.57zm-5.57 -18.13c2.83,-18.74 -0.63,-15.65 16.92,-18.98 -4.36,13.43 -1.8,12.53 -16.92,18.98zm21.34 -45.88c-0.78,6.07 2.1,23.37 -10.07,11.13 -8.26,-8.3 5.24,-9.75 10.07,-11.13zm-14.67 -39.75c-0.94,-0.78 -1.66,-2.56 -1.76,-3.23 -0.96,-7.08 1.73,-7.35 3.28,-9.46 10.14,8.9 10.9,9.01 -1.52,12.7zm-53.79 -40.11c0.39,2.56 -5.54,8.21 -4.55,1.57 2.18,-14.62 3.94,-5.48 4.55,-1.57zm19.44 -3.36c-13.41,-15.17 -1.86,-5.81 0,-9 2.14,3.84 14.58,-6.48 0,9zm10.37 -70.79c13.41,-9.19 12.76,-3.26 17.41,0 -15.75,14.95 -16.05,0.97 -17.41,0zm30.76 -7.97c-0.58,-4.22 2.83,-5.72 5.3,1.13 4.93,13.7 -4.75,2.86 -5.3,-1.13zm-64.65 -7.98c5.39,-3.28 -0.59,-1.95 7.1,-2.54 0.41,-0.03 2.08,1.83 2.38,0.98 0.34,-0.94 1.58,1.06 2.39,1.57 -5.19,4.25 0.7,2.64 -7.38,3.49 -18.6,1.95 4.24,4.62 -4.49,-3.49zm37.19 -14.17c1.69,0.47 4.22,4.55 4.76,5.26 -11.01,7.27 -7.14,10.96 -14.07,-3.04 4.8,-3.27 -6.86,-6.71 9.3,-2.22zm-55.95 -1.76c9.52,-5.15 2.7,-3.82 8.94,0.52 -10.67,9.13 -3.4,4.98 -8.94,-0.52zm81.47 -8.51c1.98,19.2 6.63,-7.55 -3.33,4.85 -10.04,-7.59 -2.48,2.85 -3.57,-7.21 -1.3,-12 -1.35,0.65 3.57,-4.47 3.61,4.36 2.52,-1.08 3.33,6.83zm-51.15 -7.84c4.42,9.92 4.38,2.37 -0.07,11.43 -15.89,-11.07 -1.91,-9.41 0.07,-11.43zm26.9 -5.74c7.74,17.61 1.08,1.73 -2.99,8.91 -10.74,-6.1 -10.75,-1.5 -3.98,-13.83 7.68,3.25 3.35,-3.32 6.97,4.93zm-58.78 -0.56c-8.95,-8.98 -2.43,-6.65 0,-10.55l3.46 5.37c5.68,20.71 3.38,-3.12 -3.46,5.18zm83.32 -9.44c4.04,18.22 3.65,-3.86 -3.62,5.72 -2.75,-3.53 -6.3,-5.21 -1.46,-13.53 9.13,8.69 2.47,-4.02 5.08,7.82zm24.88 -7.54c0.74,17.67 1.69,1.07 -5.79,8.41 -5.06,-11.61 -5.22,-5.99 1.2,-15.82 3.97,4.11 3.96,-7.63 4.59,7.41zm-108.2 -19.09c13.59,17.55 0.08,13.21 -1.58,14.77 -9.73,-13.96 -1.57,-11.1 1.58,-14.77zm17.95 6.21c3.43,-20.24 -0.98,-10.43 9.94,-16.16 7.19,11.92 1.75,22.19 -7.97,32.67l-1.97 -16.52zm44.42 -1.41c10.72,-10.73 -4.09,-2.44 8.56,-5.63 19.7,-4.95 -1.28,-2 5.21,3.75 -8.95,4.68 -0.72,4.61 -13.77,1.88zm-51.15 -43.83c7.03,5.78 4.37,-4.65 6.2,11.76 -4.94,2.63 9.42,7.71 -12.39,1.85 0.98,-15.24 -3.03,-5.37 6.18,-13.61zm52.53 -17.16c9.46,13.89 4.62,8.28 0,13.95 -15.27,-6.38 -6.91,-9.25 0,-13.95zm23.09 -11.5c7.93,5.68 1.17,-0.52 6.7,6.85 -3.04,1.87 5.95,7.04 -13.54,4.45 -9.11,-1.21 -12.16,-7.93 -15.13,-23.74 11.57,3.2 4.8,1.89 14.13,7.88 1.94,1.24 7.29,4.18 7.83,4.57zm30.8 -19.03l3.54 15.58c-23.45,3.9 -30.35,-0.26 -35.5,-21.76 18.65,6.18 4.53,5.65 18.75,8.32 17.69,3.33 -0.08,0.94 13.21,-2.14zm-108.67 23.02c0.76,-0.46 1.97,-1.03 2.8,-1.52l11.84 -8.1c0.78,-0.48 1.7,-1.18 2.52,-1.63l29.08 -15.09c-3.76,16.89 -6.18,11.88 -6.97,33.68l-17.88 -9.09 -10.45 14.89c-8.02,-2.81 -10.43,-4.91 -16.45,-9.5l5.51 -3.66zm1.69 -21.05c-5.59,8.04 -0.98,15.78 -13.27,0.59 10.59,-11.12 13.17,-0.63 13.27,-0.59zm12.9 -6.94c5.43,-5.48 -7.86,-7.96 8.05,-8.28 13.19,-0.27 1.46,-1.68 6.39,7.25 -5.31,2.71 -7.12,4.47 -14.44,1.03zm52.38 2c0.48,-0.78 1.52,2.51 2.21,3.81 -1.12,-0.71 -5.46,-4.2 -6.57,-4.89l-9.17 -4.69c-10.54,-5.03 -14.44,6.28 -9.81,-15.76 13.55,2.28 6.27,-0.48 15.02,10.25l8.31 11.29zm27.6 -10.9c-16.79,1.87 -6.23,3.93 -8.16,-10.27l8.16 10.27zm-19.88 -35.41c12.96,5.36 17.18,2.59 -1.8,12.1l1.8 -12.1zm-3.99 -3.44c-14.78,-11.18 -0.18,-9.73 0,-10 11.78,18.69 2.38,6.87 0,10zm20.72 -19.76c4.42,-4.06 -7.47,-5.28 10.09,-3.97l1.8 22.81 -11.6 -2.02c-0.61,-1.29 -1.78,-1.45 -2.72,-2.12 -11.81,-8.95 -2.89,3.48 -8.64,-13.5l11.06 -1.22zm-59.3 38.75c-7.06,10.65 -5.77,5.54 -21.3,8.95 -7.87,13.93 1.08,6.2 -11.43,10.74 0.3,-13.5 -1.22,-24.52 11.79,-25.04l6.94 -0.84c8.34,-14.94 17.39,-7.68 30.05,-16.57 18.91,-13.28 -1.83,-22.5 21.26,-23.94 -5.07,15.8 -13.98,29.64 -14.28,45.68 -35.06,-4.92 -17.83,-2.81 -23.03,1.03zm81.24 -67.91c-14.72,14.02 -20.69,-1.89 -25.65,-11.51 11.94,1.4 18.4,3.52 25.65,11.51zm-84.06 -17.74c-13.06,-1.7 -2.73,3.24 -9.33,-9.1 13.84,7.06 8.13,-4.71 9.33,9.1zm97.53 174.54l-7.17 0.41 -8.59 -2.2 1.8 -7.27 -2.84 -2.97 -17.59 2.48 5.12 15.72 18.94 2.39c-5.88,14.95 -11.08,8.11 -18.66,2.91l-13.62 -6.51 1.66 -19.55c20.95,-11.44 11.62,6.33 30.55,-12.75 19.08,-19.23 6.16,-64.19 9.2,-109.5 7.42,-110.71 -21.51,-90.74 -66.74,-89.19 -77.15,2.64 -98.38,-26.09 -100.81,57.29 -1.5,51.34 -4.68,107.19 6.37,155.77l17.49 -7.04c3.06,16.32 -1.23,11.68 -1.37,12.44 -4.39,23.49 9.27,3.37 -4.92,26.25 -11.18,18.03 -15.94,20.59 -16.18,47.51 -0.76,85.35 -7.54,195.83 0.97,277.02 3.38,32.26 -13.78,20.47 14.47,69.62 110.43,-9 153.31,26.39 151.08,-59.48l0.86 -353.31z"/>
   <path class="fil0" d="M2918.12 1545.02c9.84,-7.47 -7.64,-3.71 10.23,-8.79 -3.46,10.32 3.53,4.68 -10.23,8.79zm22.7 -73.65c1.26,2.66 1.69,2.51 2.82,8.29 0.15,0.75 -0.36,4.72 -0.54,6.03 -15.11,-6.51 -17.9,-5.83 -2.28,-14.32zm-13.07 -47.12c17.89,-9.07 10.03,-0.37 10.6,0 -6.39,4.53 -4.58,4.51 -10.6,0zm23.23 -1.64c9.51,-10.18 -12.86,-4.76 9.46,-10.62 -4.97,12.37 5.85,2.41 -9.46,10.62zm-59.02 -38.21c0.93,-0.69 1.92,-2.34 2.38,-2.52 21.45,-8.73 0.85,-2.99 7.04,4.1l-9.42 -1.58zm-2.95 -59.05c3.89,3.16 4.42,-7.19 5.56,9.26 -10.56,-0.03 -9.33,-0.6 -5.56,-9.26zm18.9 -8.69c0.38,-0.31 -2.97,-16.3 15.29,0.97 -16.64,10.6 -12.98,0.56 -15.29,-0.97zm38.88 -1.96c-18.76,-2.97 -7.7,2.4 -9.86,-8.98 12.38,4.19 3.1,-5.46 9.86,8.98zm-19.01 -7.37c-16.37,-5.24 -8.15,1.32 -9.18,-9.1 9.58,3.3 3.43,-2.06 9.18,9.1zm-54.68 -6.62c12.89,-6.42 6.33,-3.03 11.34,0 -5.49,5.21 2.03,2.63 -6.84,3.65 -20.26,2.34 4.77,5.21 -4.5,-3.65zm30.55 -7.2c-8.25,-7.32 -1.57,-0.74 -3.26,-10.22 25.29,5.4 10.18,10.63 10.05,11.13 -1.67,0.28 3.79,8.46 -6.79,-0.92zm-50.26 -8.74l9.75 0c-17.47,13.78 -7.31,2.47 -9.75,0zm73.14 -7.97c17.64,-9.75 6.05,-3.06 10.15,1.77l-10.15 -1.77zm-45.15 2.44c-12.33,-8.49 -0.9,-10.17 -0.34,-11.21 0.65,0.78 18.24,-6.48 0.34,11.21zm31.93 -8.52c-20.43,-1.47 -8.51,2.47 -12.58,-11.49 21.09,3.41 7.53,-5.95 12.58,11.49zm-55.89 -9.27c-17.15,-0.84 -5.96,3.88 -10.03,-10.5 13.4,6.81 5.97,-4.51 10.03,10.5zm80.42 -13.07l-0.23 9.76 -8.26 0.24c-4.53,-6.48 -7.66,11.27 -3.74,-12.3 16.87,-2.55 8.63,0.25 12.23,2.29zm18.92 -10.88c14.63,19 1.17,14.09 0,15.5 -5.12,-5.44 -3.01,5.71 -4.37,-8.13 -1.5,-15.23 0.92,-3.66 4.37,-7.36zm-101.14 -11.45c3.18,23.01 1.66,8.61 -2.47,14.13 -19.15,-19.72 1.33,-12.9 2.47,-14.13zm57.95 -1.04c10.68,-4.21 9.2,-4.88 15.61,3.98 -2.95,1.47 3.04,5.91 -10.22,2.09 -10,-2.89 -1.88,-1 -5.39,-6.07zm-31 -0.14c-0.32,10.17 0.3,1.32 -5.51,6.17 -5.49,-6.39 -2.54,-0.21 -3.24,-8.96 -1.47,-18.25 -1.95,1.76 3.24,-5.35 2.21,2.03 5.89,-3.77 5.51,8.13zm20.11 -7.04c-0.01,-0.56 -1.15,1.4 -1.71,2.12 -17.78,-17.52 -0.28,-12.42 0,-12.84 5.2,9.84 1.71,10.73 1.71,10.71zm-33.08 -28.75c-3.1,18.54 2.61,7.73 -8.47,11.44 -7.63,-12.05 -0.67,-9.71 8.47,-11.44zm107.09 4.92c-13.51,-5.01 1.71,12.35 -3.27,-4.8l3.27 4.8zm-56.63 -14.62c-2.76,9.49 -0.52,2.08 -7.13,4.3 -10.65,-13.74 0.21,-12.3 5.41,-12.68 1.91,4.47 4.33,-0.62 1.72,8.37zm-62.82 -14.16c11.59,-11.16 41.06,-33.63 40.87,3.06 -7.19,-3.95 -7.05,-4.84 -17.06,-6.35 -7.99,10.86 -1.97,6.96 -11.95,14.39l-11.86 -11.1zm88.37 0c-7.12,4.74 -10.5,9.98 -21.47,0.91 -5.43,-4.49 -6.64,-14.02 -7.82,-21.4l22.97 14.21c5.52,4.17 2.97,2.27 6.32,6.28zm-38.2 -29.46c-4.48,18.97 3.76,8.12 -10.9,14.44 2.36,-19.97 -7.27,-7.19 10.9,-14.44zm-52.5 11.68c-7.83,-0.88 -3.3,-3.08 -5.59,-6.82 15.82,-11.93 13.95,0.68 13.99,0.7 -5.98,9 5.31,7.66 -8.41,6.13zm116.84 8.52c-23.93,2.35 -28.01,-3.8 -34.27,-22.57 21.02,2.64 9.28,12.94 30.95,5.03 2.47,12.63 2.54,6.15 3.33,17.54zm-46.86 -15.63c-14.22,-7.08 -2.48,-6.6 0,-9.56 12.51,20.08 3.24,3.32 0,9.56zm-43.02 -4.5c-12.43,-2.16 -2.14,-0.27 -5.48,-6.47 12.45,-7.28 7.77,-7.56 13.45,3.98 -7.7,4.19 6.93,5.08 -7.97,2.49zm35.1 -6.71c-16.19,-1.09 -12.81,3.45 -14.26,-11.72 14.09,-5.06 12.98,-1.21 14.26,11.72zm-47.86 -30.6c2.38,3.27 14.22,-7.73 3.29,16.97l-11.14 10.72c-0.71,-0.91 -2.65,1.47 -3.99,2.18l11.83 -29.87zm65.35 -8.13c10.74,2.31 7.55,-0.15 9.16,9.88 -14.55,-0.19 -9.41,3.45 -9.16,-9.88zm-86.08 -4.86c0.02,-0.56 4.19,-7.77 5.95,1.29 0.8,4.12 -6.51,16.14 -5.95,-1.29zm114.36 -1.31c-18.15,-3.05 -10.4,3.2 -20.26,-10.65 3.86,-8.3 8.64,-7.55 18.79,-9.38l1.47 20.03zm-83.23 25.56c0.18,-27.38 8.47,-13.36 27.77,-25.83 22.53,-14.56 -2.36,-17.5 23.25,-26.51 -5.26,19.55 -13.55,27.26 -14.41,47.43 -8.59,-1.76 -10.64,-4.23 -17.99,-2.64 -22.11,4.79 17.95,-7.36 -8.22,4.02 -3.48,1.51 3.29,0.99 -10.4,3.53zm-6.96 -56.13c-0.9,-16.8 4.88,-4.12 6.06,-0.88 2.17,5.97 -5.82,5.37 -6.06,0.88zm100.48 -15.94c-15.22,8.09 -18.96,0.15 -23.09,-11.77 12.62,1.22 16.17,0.81 23.09,11.77zm3.65 143.05l-21.56 6.74c1.31,17.32 6.08,13.21 22.8,15.69 -3.29,3.1 1.07,11.17 -20.19,5.87 -21.46,-5.35 -11.71,-25.87 -6.89,-36.4l20.61 1.9c5.47,-17.58 2.17,-2.78 7.52,-11.14 9.25,-14.47 1.19,-9.47 5.56,-33.6 4.32,-23.88 1.32,-34.18 0.69,-56.32 -1.48,-51.01 15.48,-68.97 -16.48,-105.81 -24.71,-2.79 -71.86,-1.42 -99.77,-2.08 -65.43,-1.53 -49.38,36.61 -50,147.83 -0.41,74.34 -0.78,63.83 26.75,62.91 -2.6,22.44 -4.96,2.88 -5.91,20.01 -0.77,14.01 9.66,-2.78 -4.12,18.62 -10.63,16.5 -15.74,21.49 -15.43,45.68 0.9,69.03 2.28,178 -1.53,244.52 -2.46,43.01 -0.31,71.08 17.35,102.96 158.86,-12.8 151.58,42.69 150.96,-136.06l-0.19 -286.91c-6.41,-5.36 9.29,-10.69 -10.18,-4.4z"/>
   <path class="fil0" d="M777.05 771c-6.19,-4.6 -0.02,-10.09 0,-10.12 9.33,18.73 2.51,6.66 0,10.12zm7.86 -130.95c2.41,2.94 9.64,-2.03 0.76,9.67 -3.61,-5.92 -2.96,-3.29 -0.76,-9.67zm-24.47 -31.64c-1.93,8.83 3.42,12.61 -10.19,5.9 1.29,-5.54 4.13,-4.45 10.19,-5.9zm20.59 -8.79c3.57,4.6 6.74,3.55 0,13.73 -5.54,-6.07 -2.49,0.19 -3.23,-8.68 -0.04,-0.53 1.22,-1.24 1.24,-2.59 0.01,-1.49 1.35,-1.63 1.99,-2.46zm14.29 -2.74c8.56,-9.37 -13.58,-3.88 10.2,-10.18 -6.01,13.81 5.2,4.51 -10.2,10.18zm14.5 -14.18c-16.36,-2.01 -12.12,1.01 -17.4,-12.28 13.6,-8.49 16.59,-1.59 17.4,12.28zm-1.28 -23.16l9.99 0c-0.93,0.64 -2.16,1.95 -2.66,2.1 -0.39,0.12 -2.18,0.77 -2.57,0.87 -17.28,4.24 2.52,2.9 -4.77,-2.97zm-12.52 -8.57l-3.03 5.49c-3.55,-3.86 -6.61,-4.73 0,-13.85 3.46,5.65 2.41,0.43 3.03,8.36zm-1.14 -16.46c12.39,-8.92 -12.99,-6.92 8.81,-9.17 -3.09,10.5 2.65,3.77 -8.81,9.17zm-49.66 -17.3l0.31 12.75 -7.86 -5.37c-4.35,-6.69 -5.61,10.38 -3.85,-12.73 16.02,-0.64 6.48,-0.46 11.4,5.36zm14.15 -14.05c16.14,5.57 8.29,-6.79 11.72,14.03 -14.56,-6.09 -7.7,3.34 -11.72,-14.03zm-20.26 -5.89c-16.87,-3.87 -6.99,2.18 -9.86,-8.9 9.93,3.58 5.06,-1.56 9.86,8.9zm29.97 -3.26c-17.67,-6.46 -1.9,-7.87 0,-10.08 10.29,18.52 3.47,3.79 0,10.08zm27.89 -9.89l0 -9.27c3.14,7.38 5.67,-0.25 0,9.27zm-55.79 -44.32c4.27,7.73 8.03,-0.53 0,11.23 -13.9,-11.86 -1.04,-9.99 0,-11.23zm-21.75 -3.79c4.37,-2.03 -5.9,-10.76 10.09,0 -0.86,0.75 -1.88,2.28 -2.36,2.46 -21.09,8 -0.35,3.41 -7.72,-2.46zm74.2 -23.91c9.39,-6.81 2.28,-6.13 12.06,0 -4.46,3.43 -3.7,7 -12.06,0zm-50.22 7.13c9.01,-9.57 -12.21,-8.88 13.3,-11.92 -5.24,13.5 2.1,6.74 -13.3,11.92zm41.56 -36.33c-16.71,-3.17 -14.56,-1.6 -21.35,-16.81 17.84,2.44 16.49,1.35 21.35,16.81zm-18.19 -40.56c17.72,1.39 31.07,5.36 25.8,21.68l-18.43 -9.47c-8.52,-4.41 -6.72,-0.45 -7.37,-12.21zm-8.24 -29.86c1.02,-0.49 2.33,-1.75 2.84,-1.88l5 0c0.34,-0.99 1.4,1.29 2.14,1.88 -18.45,14.27 -5.85,2.49 -9.97,0zm61.35 209.98c16.7,-10.1 11.69,-13.03 10.21,-34.64l1.92 -239.09c0.68,-12.18 1.05,-25.75 -2.1,-36.81 -193.22,-7.47 -150.03,-1.66 -157.98,88.61 -2.92,33.19 4.29,110.18 3.34,143.95 -0.42,14.97 -4.21,18.6 -3.06,39.43 3.84,70 -1.89,84.98 -1.75,143.38 0.5,217.05 -13.61,203.03 78.58,199.85 28.51,-0.98 57.88,2.87 79.59,-7.97 6.44,-24.68 3.57,-185.83 3.56,-231.74 -0.02,-53.54 6.07,-47.56 -12.3,-64.97z"/>
   <path class="fil0" d="M446.3 746.4l0 -9.83c1.74,3.87 12.02,-7.48 0,9.83zm28.05 -3.86c-13.55,-2.63 -4.87,2.65 -10.05,-9.73 11.9,4.92 7.52,-2.87 10.05,9.73zm-43.99 -24.11c4.07,2.83 8.18,-1.13 6.81,11.5 -1.37,12.6 -5.68,7.91 -6.81,8.85 -5.67,-11.89 -4.75,-10.29 0,-20.36zm54.21 26.17c2.71,-16.49 1.09,-21.7 14.76,-18.68 1.95,10.42 -2.62,12.74 -14.76,18.68zm27.2 -36.15c15.37,-0.88 14.51,3.62 19.14,16.34 -17.1,-1.72 -18.38,0.5 -19.14,-16.34zm-25.62 -20.4c5.38,10.36 4.27,2.61 0.03,9.95 -12.61,-9.47 -3.12,-6.36 -0.03,-9.95zm25.34 -4.5c6.85,6.58 4.45,-6.76 6.5,10.85 -8.26,1.5 -4.61,3.15 -15.8,-2.52l-1.56 -13.35 10.86 5.02zm14.51 -12.7c2.19,3.01 2.74,-0.57 3.72,8.04 1.37,12 0.7,1.74 -3.08,7.26 -10.44,-8.62 -8.78,-3.89 -0.64,-15.3zm-78.39 13.55c8.85,-9.58 -13.78,-2.82 11.9,-11.3 -6.67,14.41 5.7,5.64 -11.9,11.3zm-44.74 -17.25c4.35,16.6 5.24,17.18 -5.96,27.9l-6.44 -19.09 -45.6 6.52 0.65 160.67c70.96,-3.93 119.03,-28.84 166.32,-58.71 36.59,-23.11 97.77,-77.14 93.09,-125.99 -38.51,-27.25 -72.67,-29.11 -83.78,-34.36 -8.62,-4.07 -14.51,-12.81 -24.68,-16.07 -35.44,-11.39 -40.13,33.63 -93.59,59.13z"/>
   <path class="fil0" d="M549.91 335.71c6.79,8.18 5.72,-12.77 3.91,5.58 -1.14,11.59 1.74,1.15 -3.91,8.57 -7.82,-10.81 -5.36,12.41 -3.66,-5.92 0.95,-10.12 -3.04,-1.88 3.66,-8.23zm-19.92 -14.9c10.24,5.97 11.68,6.37 3.98,19.18 -0.65,-0.67 -3.64,3 -6.95,-9.15 -5.26,-19.31 -0.83,-4.77 2.97,-10.02zm-9.01 -8.51c-16.06,-18.86 0.89,-14.11 1.04,-14.36 9.12,6.48 7.79,-5.75 5.91,8.59 -1.22,9.3 -2.01,2.63 -6.95,5.77zm-164.93 -23.74c15.18,-14.68 12.89,-1.6 14.71,0 -8.64,5.02 -1.66,8.69 -14.71,0zm54.39 -18.43c-14.81,-5.42 -2.26,-6.91 0,-10.11 10.16,18.89 0,10.11 0,10.11zm26.61 -23c-4.81,18.5 2.41,9.33 -9.28,12.14 0.54,-15.08 -4.94,-5.62 9.28,-12.14zm-92.22 101.21c10.64,20.73 18.33,2.55 69.14,32.32 9.13,5.35 22.72,13.65 30.37,21.3 11.78,11.81 11.47,20.53 25.06,27.01 27.71,13.21 53.12,-11.3 74.22,-18.66 120.73,-42.14 49.19,-58.91 20.82,-104.78l-24.71 -22.58c-0.33,-0.34 -4.5,-6.1 -5.19,-7.04 -17.12,-23.29 -93.92,-66.1 -133.07,-63.24 -0.79,0.05 -1.96,0.07 -2.72,0.17 -11.54,1.47 -6.91,-2.41 -16.8,9.08 0,-1.32 -0.02,-7.68 -0.22,-8.58 -2.22,-9.92 -1.28,-5.2 -3.2,-9l-33.78 -1.17c0.24,27.42 -2.9,33.79 3.23,58.72 3.34,13.57 -3.53,4.55 -3.19,46.56 0.11,13.29 0.08,26.59 0.03,39.88z"/>
   <path class="fil0" d="M2090.63 767.35c-1.14,17.96 3.34,5.95 -9.39,15.2 2.9,-14.28 -2.95,-8.91 9.39,-15.2zm-148.46 -118.6c-19.04,19.83 5.19,70.45 14.4,86.09 31.91,54.23 47.35,46.16 81.11,70.44 7.36,5.29 -5.42,-1.37 7.33,4.83 8.57,4.17 32.03,8.64 43.37,11.46 25.87,6.42 61.71,18.28 89.26,14.95 0.44,-34.22 2.11,-76.34 0.42,-109.82 -0.39,-7.66 0.44,-6.19 -2.05,-12.75 -5.25,-13.86 -13.93,-15.22 -23.22,-17 -34.85,-6.66 -22.88,-1.01 -64.51,-41.93 -14.69,-14.45 -17.26,-14.34 -43.97,-13.64 -20.79,0.55 -91.09,-4.16 -102.16,7.36z"/>
   <path class="fil0" d="M2632.77 767.36c7.99,6.69 16.7,0.15 1.22,13.27l-1.22 -13.27zm72.95 -27.67c12.07,13.09 2.65,8.01 0,11.17 -3.73,-6.72 -8.38,-2.34 0,-11.17zm17.63 -38.83c-90.02,-4.35 -53.87,-58.17 -125.03,-60.74 -24.07,-0.86 -66.04,-1.06 -88.72,1.7 -51.91,6.3 -11.67,90.25 17.02,120.7 37.09,39.37 32.13,22.92 53.78,37.44 14.72,9.87 -4.26,2.21 14.36,10.09 14.68,6.22 105.59,30.78 128.33,24.44l0.26 -133.63z"/>
   <path class="fil0" d="M2889.51 340.37c7.92,-6.27 0.71,-8.69 10.17,0 -14.92,12.12 -8.7,1.08 -10.17,0zm-110.31 -19.82c-8.72,-7.98 -6.45,10.81 -5.44,-5.33 0.74,-11.86 -1.53,-1.83 3.69,-8.05l1.75 13.38zm83.86 -24.57c15.39,5.06 4.46,-2.98 10.61,11.41 -13.96,-5.34 -3.57,-1.73 -10.61,-11.41zm-65.68 -0.01c0.98,1.22 14.91,-8.03 0.74,11.13 -3.54,-6.32 -6.45,-2.47 -0.74,-11.13zm181.03 97.02c5.45,-19.55 -9.66,-61.99 -20.02,-78.26 -5.47,-8.6 -4.81,-5.02 -9.82,-13.94 -9.48,-16.92 -6.97,-21.87 -35.98,-43.74 -34.29,-25.85 -100.07,-52.05 -155.42,-55.23 -3.02,34.27 -0.75,75.63 -1.12,110.84 -0.57,54.23 22.23,23.12 53.1,59.76 24.59,29.19 15.21,42.47 71.9,39.41 30.26,-1.63 82.35,5.62 97.36,-18.83z"/>
   <path class="fil0" d="M2340.38 345.87c0.9,-0.98 3.07,-6.86 3.58,-7.53 5,-6.47 0.65,-1.19 7.02,-1.99 -5.89,10.77 3.08,3.56 -10.6,9.52zm-112.84 -40.15c9.07,12.83 6.56,4.56 0,14.52 -5.11,-4.6 -3.42,2.22 -4.43,-7.57 -1.37,-13.24 2.89,-5.41 4.43,-6.95zm97.17 0.69c-15.94,-2.81 -6.64,3.07 -10.68,-11.14 13.66,6.72 4.96,-4.59 10.68,11.14zm-114.13 38.98c84.1,24.44 42.68,46.67 78.43,61.18 17.32,7.03 123.19,4.85 132.35,-3.69 19.02,-15.84 4.68,-59.81 -5.48,-79.46 -26.01,-50.3 -59.98,-78.36 -115.89,-99.08 -36.49,-13.52 -42.97,-18.53 -89.47,-22.24l0.07 143.3z"/>
   <path class="fil0" d="M229.14 790.66c10.09,8.2 10.35,4.91 14.16,5.19 -6.05,-26.99 -11.29,-6.88 -14.16,-5.19z"/>
   <path class="fil0" d="M155.41 742.62l1.66 -8.99c-8.18,2.99 -3.18,8.13 -1.66,8.99z"/>
  </g>
  <g id="_2436520813088">
   <rect class="fil0" x="-0" y="1731.74" width="1062.68" height="131.8"/>
   <rect class="fil0" x="1925.72" y="1731.74" width="1062.68" height="131.8"/>
  </g>
  <path class="fil1" d="M1138.5 1718.32l68.71 0 0 31.65 -27.44 0 0 30.25 25.64 0 0 30.05 -25.64 0 0 34.85 30.25 0 0 31.65 -71.51 0 0 -158.45zm170.36 48.07l-38.26 0 0 -11.72c0,-5.48 -0.5,-8.98 -1.47,-10.48 -0.97,-1.5 -2.57,-2.24 -4.84,-2.24 -2.47,0 -4.34,1 -5.61,3.04 -1.27,2.01 -1.9,5.04 -1.9,9.15 0,5.27 0.73,9.25 2.17,11.92 1.4,2.64 5.28,5.87 11.65,9.68 18.26,10.92 29.78,19.9 34.52,26.87 4.78,6.98 7.14,18.23 7.14,33.72 0,11.28 -1.34,19.6 -3.97,24.97 -2.64,5.34 -7.71,9.82 -15.29,13.42 -7.54,3.64 -16.32,5.44 -26.37,5.44 -11.02,0 -20.4,-2.1 -28.21,-6.28 -7.78,-4.17 -12.85,-9.48 -15.29,-15.93 -2.4,-6.48 -3.61,-15.66 -3.61,-27.51l0 -10.38 38.26 0 0 19.27c0,5.94 0.53,9.75 1.6,11.45 1.07,1.7 2.97,2.54 5.71,2.54 2.74,0 4.78,-1.07 6.11,-3.24 1.33,-2.14 2,-5.34 2,-9.55 0,-9.31 -1.27,-15.42 -3.81,-18.26 -2.64,-2.87 -9.05,-7.68 -19.26,-14.42 -10.22,-6.78 -16.96,-11.72 -20.3,-14.79 -3.3,-3.07 -6.07,-7.31 -8.24,-12.72 -2.17,-5.41 -3.27,-12.32 -3.27,-20.73 0,-12.12 1.53,-21 4.64,-26.61 3.1,-5.61 8.08,-9.98 14.99,-13.15 6.91,-3.17 15.23,-4.74 25.01,-4.74 10.68,0 19.76,1.74 27.31,5.18 7.51,3.47 12.49,7.81 14.92,13.09 2.44,5.24 3.67,14.16 3.67,26.74l0 6.28zm99.39 -48.07l0 31.65 -24.24 0 0 126.8 -41.26 0 0 -126.8 -24.44 0 0 -31.65 89.94 0zm18.02 126.2l0 32.25 -29.84 0 0 -32.25 29.84 0zm130.97 5.21l0 27.04 -86.93 0 0.06 -22.64c25.77,-42.1 41.1,-68.14 45.97,-78.15 4.88,-10.01 7.31,-17.83 7.31,-23.41 0,-4.3 -0.76,-7.51 -2.24,-9.65 -1.47,-2.1 -3.71,-3.17 -6.71,-3.17 -3,0 -5.28,1.17 -6.74,3.51 -1.47,2.34 -2.21,6.98 -2.21,13.92l0 15.02 -35.45 0 0 -5.78c0,-8.85 0.46,-15.86 1.37,-20.97 0.9,-5.11 3.17,-10.15 6.74,-15.09 3.61,-4.94 8.28,-8.72 14.02,-11.25 5.74,-2.54 12.62,-3.81 20.63,-3.81 15.73,0 27.61,3.91 35.69,11.69 8.05,7.81 12.09,17.66 12.09,29.58 0,9.08 -2.27,18.66 -6.81,28.78 -4.54,10.12 -17.93,31.55 -40.13,64.37l43.34 0zm108.57 -77.75l0 52.82c0,12.02 -0.67,20.73 -1.97,26.21 -1.3,5.51 -4.01,10.62 -8.11,15.39 -4.1,4.74 -9.05,8.18 -14.85,10.25 -5.78,2.1 -12.25,3.14 -19.43,3.14 -9.45,0 -17.29,-1.1 -23.57,-3.27 -6.24,-2.2 -11.22,-5.61 -14.96,-10.22 -3.71,-4.64 -6.34,-9.51 -7.91,-14.62 -1.57,-5.14 -2.34,-13.29 -2.34,-24.44l0 -55.25c0,-14.56 1.27,-25.44 3.77,-32.69 2.5,-7.24 7.48,-13.05 14.96,-17.43 7.45,-4.37 16.49,-6.54 27.11,-6.54 8.68,0 16.42,1.5 23.27,4.54 6.84,3.04 11.95,6.74 15.33,11.11 3.41,4.37 5.71,9.28 6.91,14.76 1.2,5.48 1.8,14.22 1.8,26.24zm-39.46 -13.25c0,-8.41 -0.4,-13.66 -1.24,-15.79 -0.8,-2.1 -2.7,-3.17 -5.74,-3.17 -2.94,0 -4.88,1.14 -5.81,3.37 -0.97,2.24 -1.43,7.45 -1.43,15.59l0 77.19c0,9.18 0.43,14.72 1.33,16.59 0.87,1.9 2.77,2.84 5.74,2.84 2.94,0 4.84,-1.1 5.77,-3.34 0.9,-2.2 1.37,-7.18 1.37,-14.92l0 -78.35zm114.61 -40.4l0 158.45 -39.46 0 0 -85.07c0,-12.28 -0.3,-19.7 -0.87,-22.16 -0.6,-2.47 -2.2,-4.37 -4.84,-5.64 -2.64,-1.27 -8.52,-1.9 -17.63,-1.9l-3.91 0 0 -18.4c19.09,-4.07 33.58,-12.52 43.46,-25.27l23.24 0zm90.84 68.61c5.81,2.34 10.28,5.84 13.39,10.52 3.14,4.67 4.7,15.76 4.7,33.32 0,12.79 -1.23,22.2 -3.71,28.28 -2.5,6.04 -7.31,11.02 -14.49,14.92 -7.18,3.87 -16.8,5.81 -28.88,5.81 -11.75,0 -21.03,-1.87 -27.88,-5.57 -6.88,-3.71 -11.79,-8.65 -14.76,-14.79 -2.97,-6.11 -4.44,-16.32 -4.44,-30.61 0,-9.58 0.74,-17.89 2.21,-24.94 1.47,-7.04 6.07,-12.69 13.82,-16.93 -4.88,-2.34 -8.52,-6.08 -10.95,-11.22 -2.44,-5.11 -3.67,-11.62 -3.67,-19.5 0,-13.62 3.77,-23.87 11.35,-30.68 7.54,-6.81 18.86,-10.22 33.92,-10.22 17.43,0 29.45,3.61 36.09,10.85 6.64,7.24 9.98,17.59 9.98,31.01 0,8.55 -1.1,14.72 -3.27,18.5 -2.17,3.77 -6.64,7.55 -13.42,11.25zm-22.17 -33.96c0,-5.37 -0.47,-8.91 -1.44,-10.62 -0.93,-1.73 -2.77,-2.6 -5.47,-2.6 -2.64,0 -4.41,0.94 -5.34,2.8 -0.9,1.84 -1.37,5.31 -1.37,10.42l0 12.02c0,4.77 0.53,8.05 1.57,9.88 1.07,1.83 2.84,2.74 5.34,2.74 2.64,0 4.4,-0.9 5.34,-2.7 0.9,-1.77 1.37,-5.47 1.37,-11.08l0 -10.85zm0.8 65.74c0,-6.08 -0.64,-10.09 -1.87,-12.09 -1.27,-1.97 -3.24,-2.97 -5.94,-2.97 -2.64,0 -4.54,0.97 -5.68,2.87 -1.17,1.93 -1.73,5.97 -1.73,12.19l0 20.5c0,6.84 0.64,11.25 1.93,13.19 1.27,1.97 3.3,2.94 6.08,2.94 2.84,0 4.74,-1 5.74,-2.97 0.97,-2 1.47,-6.48 1.47,-13.45l0 -20.2z"/>
 </g>
</svg>
