<?xml version="1.0" encoding="UTF-8"?>
<!DOCTYPE svg PUBLIC "-//W3C//DTD SVG 1.1//EN" "http://www.w3.org/Graphics/SVG/1.1/DTD/svg11.dtd">
<!-- Creator: CorelDRAW 2020 (64 Bit) -->
<svg xmlns="http://www.w3.org/2000/svg" xml:space="preserve" width="71.525mm" height="45.0004mm" version="1.1" style="shape-rendering:geometricPrecision; text-rendering:geometricPrecision; image-rendering:optimizeQuality; fill-rule:evenodd; clip-rule:evenodd"
viewBox="0 0 18366.31 11555.28"
 xmlns:xlink="http://www.w3.org/1999/xlink"
 xmlns:xodm="http://www.corel.com/coreldraw/odm/2003">
 <defs>
  <style type="text/css">
   <![CDATA[
    .fil0 {fill:black}
    .fil1 {fill:red}
    .fil2 {fill:black;fill-rule:nonzero}
   ]]>
  </style>
 </defs>
 <g id="Camada_x0020_1">
  <metadata id="CorelCorpID_0Corel-Layer"/>
  <g id="_2436512952592">
   <path class="fil0" d="M9874.57 5005.21c-69.84,-21.7 -52.15,1.75 -70.87,-68.23 102.64,7.4 55.26,-27.24 70.87,68.23zm-819.85 -47.94c-84.1,38.65 -44.78,16.15 -67.71,-24.52 78.16,-29.58 38.54,-25.55 67.71,24.52zm1206.51 -65.51c49.02,-58.01 -79.65,-16.82 55.46,-61.73 -25.37,65.79 11.76,38.06 -55.46,61.73zm0.67 -252.19c85.84,22.19 83.97,18.64 117.25,115.5 -103.15,-4.85 -99.37,-14.59 -117.25,-115.5zm245.56 22.52c-107.26,1.82 -47.22,21.34 -80.81,-55.16 81.58,20.88 43.47,-14.35 80.81,55.16zm-1690.91 -173.05c68.64,35.36 74.11,25.29 24.5,92.8 -65.38,-46.63 -61.94,-24.93 -24.5,-92.8zm-343.32 -42.32c79.45,28.58 37.41,-30.53 64.35,77.63 -70.15,-33.07 -41.68,18.54 -64.35,-77.63zm133.71 -69.15c90.03,-1.34 94.06,33 144.08,91.21l-32.43 148.98 -74.47 -124.95c-50.89,-68.92 -44.47,-1.82 -37.18,-115.24zm1690.73 47.58c-0.05,-3.77 -7.91,8.94 -11.68,13.53 -81.53,-75.8 -9.6,-61.06 0,-74.13 36.64,54.57 11.76,63.58 11.68,60.6zm-1375.96 21.57c120.58,-79.04 56.72,-71 130.8,-69.59 -5.26,44.04 6.09,25.55 -13.87,68.1 -29.32,62.5 -22.26,33.15 -53.08,64.73l-95.52 -42.57 31.66 -20.67zm-166.5 -34.82l-45.27 -85.17c86.02,40.55 72.87,-27.71 45.27,85.17zm1922.65 -213.87c56.72,-33.15 -4.55,-45.94 79.22,0 -43.37,37.44 22.19,16.36 -48.33,23.93 -115.12,12.35 15.48,18.64 -30.89,-23.93zm-2533.28 -195.92c-0.74,0.74 -9.22,64.35 -74.65,31.89 -34.02,-16.92 -23.21,-41.68 -24.78,-69.41 94.39,-3.39 48.51,-12.74 99.43,37.52zm2212.82 -48.04c64.99,17.44 34.69,13.66 53.72,25.29 -233.7,28.35 -440.51,5.5 -463.7,-216.29 75.31,52.79 74.83,100.84 187.66,145.13 87.67,34.41 160.57,29.3 222.32,45.86zm-2398.01 -55.16c-27.04,-62.5 -2.52,-93.85 16.25,-138.61 209.41,30.63 151.04,52.97 146.78,115.91 -46.2,-14.33 -53.23,-23.8 -89.54,-44.04l-73.49 66.74zm3107.73 103.1c-102.07,-54.13 -33.82,6.01 -87.41,-64.91l-72.82 -145.29c86.92,39.52 126.03,85.61 160.23,210.2zm-2889.54 -348.56c2.98,-6.93 10.86,-32.77 12.81,-38.11l13.89 -38.13c121.28,59.7 115.01,117.04 73.54,256.6 -132.11,-68.05 5.19,-61.17 -147.52,-101.07l47.27 -79.29zm2844.96 63.04c-85.79,-9.09 -8.7,7.6 -59.16,-44.14 44.99,-22.8 85.17,-15.18 129.75,11.38 -9.37,8.63 55.11,46.12 -70.59,32.77zm-3011.69 -57.24c19.7,-15.87 18.92,-43.24 70.46,0 -82.91,62.91 -29.76,32.89 -70.46,0zm3148.45 -171.43c2.21,-26.47 30.3,-48.58 39.24,4.98 4.29,25.45 -47.71,95.98 -39.24,-4.98zm-3213.47 -146.96l43.4 -11.4c1.8,-5.8 7.91,7.86 12.17,11.4 -91.88,61.99 -21.75,15.28 -55.57,0zm176.23 -73.47c6.19,-3.88 12.97,-13.46 16.33,-14.59 128.39,-42.75 9.48,-18.08 50.59,14.59l-66.92 0zm-219.75 18.26c-75.93,-16.74 -17.13,25.65 -51.23,-59.8 75.83,43.29 41.29,-29.74 51.23,59.8zm3526.05 -194.59l-66.53 -13.15c6.91,-89.33 52.43,-36.33 66.53,13.15zm-1484.2 198.08c131.47,-75.72 103.59,-92.67 288.29,-173.76 390.08,-171.22 222.27,-459.28 795.54,-149.27 44.42,24.03 12.25,-0.1 65.17,31.89 -14.94,170.17 3.36,388.07 -75.65,560.22 -198.54,432.5 -757.66,373.64 -914.53,234.6 -126.59,-112.19 -161.1,-293.94 -158.82,-503.68zm-1469.46 576.32l-135.43 24.78 32.1 -105c1.85,-15.89 4.7,-18.59 6.98,-27.94 -13.33,-55.62 -93.44,-279.71 -125.08,-334.92 -36.18,83.53 20.72,34.2 -46.2,108.26l-18.75 -43.42 -91.39 18.92c34.05,-109 -17.59,-54.1 87.85,-98.55 30.66,-66.81 41.83,-40.6 58.88,-119.92 58.88,-273.47 -22.08,-325.55 -7.99,-427.62 131.27,10.58 -12.69,11.94 79.58,29.32 102.02,19.23 122.48,-55.72 231.57,-56.49 123.64,-0.82 201.27,90.36 264.72,145.65 149.37,130.11 168.06,59.57 304.83,136.15 106.49,59.68 108.21,116.25 247.87,161.44 1.28,471.09 -57.16,486.5 -351.1,603.54 35.59,31.92 -22.26,10.71 53.9,22.6l290.78 -153.58c-16.31,122.72 -87.1,182.01 -213.03,215.72 -56.06,15 -133.63,24.96 -197.49,4.16 -87.85,-28.61 -30.56,-21.54 -33.66,-30.15l0.87 -47.84c-172.87,-10.86 -147.93,-31.12 -216.31,83.79 -8.37,-148.88 -23.32,-117.66 -179.08,-160.67l76.73 163.24 -117.14 -31.43 -4.01 -80.04zm3011.33 -852l-48.66 -130.96c110.62,104.72 83.61,-13.07 155.33,125.54l-106.67 5.42zm-3313.77 -247.95c-3.62,44.58 -18.9,18.64 -41.44,27.58 -81.86,-106.26 -0.49,-78.58 0,-79.65 57.06,32.71 47.02,-17.2 41.44,52.08zm1669.85 85.89c53.23,-60.99 77.47,-88.2 187.99,-109.98 -11.86,24.09 -29.92,78.86 -73.21,100.02 -51.25,25.04 -57.65,12.25 -114.78,9.96zm-405.38 -98.32c65.71,-30.58 118.56,17.2 162.41,71.92 -92.11,-3.24 -108,-4.75 -162.41,-71.92zm-1053.52 -8.5c-24.96,-102.33 4.47,-97.09 107.05,-130.16 -6.8,88.51 -35.8,107.77 -107.05,130.16zm-183.57 -123.08c-58.24,-58.75 -35.31,-15.97 -19.82,-69.07 68,29.5 70.95,1.95 19.82,69.07zm-117.79 -88.02c2.8,6.55 38.67,14.87 6.7,77.42 -37.98,74.31 -11.38,34.51 -84.81,48.04l78.11 -125.46zm611.35 -98.78c-93.47,34.49 -72.03,-0.31 -99.45,-49.43 119.63,-9.58 73.21,-22.42 99.45,49.43zm-221.71 -56.08c-24.55,-99.3 -28.53,-11.45 -22.29,-67.97 35.44,26.78 67.92,53.95 96.37,75.08 -105.1,232 -89.44,-33.72 -253.42,279.84 -19.95,-176.43 18,-259.79 179.34,-286.95zm-282.1 7.11c-8.6,-88.08 -11.02,-60.34 -47.53,-139.79l200.42 115.29c-125,116.09 -58.21,84.74 -138.23,139.43l-101.97 -35.15c34.2,-72.67 -12.99,-0.67 34.13,-45.78l53.18 -34zm3039.6 -82.4c55.54,-63.55 -89.36,-38 63.3,-57.19l-63.3 57.19zm-2435.88 -86.05l66.81 21.52c-15.28,81.25 -13.79,63.78 -105.82,111.16l39.01 -132.68zm-117.27 70.49c-14.89,7.86 49.87,70.74 -81.61,4.65 -70.08,-35.23 -29.71,-22.01 -61.58,-60.83 134.55,-11.32 99.09,-38.49 143.18,56.18zm926.13 -391.69c-18.13,-72.69 -16.97,-9.71 26.76,-71.72l51.23 68.95c1.49,5.44 70.18,13.56 -17.18,38.98 -28.89,8.4 -53.54,-7.14 -60.81,-36.21zm-461.51 -149.22c30.07,42.81 48.81,36.36 18.95,91.47 -37.34,-20.95 -29.81,6.14 -38.95,-43.34 -18.44,-99.97 -6.01,-6.6 20,-48.12zm-5.52 -116.35c-39.85,-20.82 -0.08,-62.24 0,-62.32 11.71,24.78 65.53,-40.16 0,62.32zm-855.26 -273.37c55.75,-25.42 56.85,-39.29 92.47,24.5 -64.94,37.46 -50.84,21.49 -92.47,-24.5zm459.36 71.05c-933.84,-1115.02 1287.3,-1036.19 1732.66,-771.73 321.82,191.12 185.52,594.66 34.72,742.46 -270.11,-46.84 -430.98,-160.75 -759.23,-161.16 -52.18,81.25 -50.71,119.87 -58.52,240.42 -78.45,-257.71 -50.97,-29.71 -186.37,-238.76 -467.78,9.24 -551.82,168.96 -763.26,188.76zm1936.57 -683.32l61.35 0c-129.67,89.39 -41.37,16.59 -61.35,0zm329.94 983.4c250.41,-386.35 513.49,-919.92 48.48,-1334.88 -333.97,-298.02 -956.08,-399.4 -1527.26,-393.13 -293.96,3.24 -596.02,32.74 -864.07,101.56 -304.44,78.16 -465.55,153.68 -604.77,349.87 -465.85,656.49 148.45,1213.7 197.82,1356.58 -91.18,56.24 -317.51,369.61 -357.93,520.06 -55.41,206.4 -39.11,24.5 -111.7,176.72l-34.67 113.24c-35.28,107.41 -10.04,73.9 -29.76,146.83 -12.33,45.53 -37.82,68.33 -59.09,128.83 -151.71,431.73 148.91,1100.34 323.19,1375.43 219.57,346.66 597.86,637.61 965.45,773.79 364.42,135.04 1153.1,180.8 1450.79,-37.36 5.75,-127.65 -65.15,-130.03 -18.08,-210.12 92.8,29.25 82.22,86.12 118.94,158.74 58.8,-31.74 170.27,-47.97 227.12,-92.57l178.36 -138.53c244.05,-162.47 481.21,-430.16 565.66,-711.05 53.36,-177.38 130.52,-177.82 164.39,-475.74 27.68,-243.48 -52.33,-139.61 -14.71,-275.99 16.97,-61.58 30.09,3.42 36.77,-138.69 8.94,-189.99 -39.31,-264.59 -62.06,-415.5 -17.92,-118.97 -37.75,-121.36 -79.4,-231.44 -183.29,-484.57 -262.87,-390.51 -371.82,-582.18 -52.23,-91.93 -89.26,-87.87 -141.67,-164.44z"/>
   <path class="fil0" d="M17143.31 4887.89c31.97,37.46 60.37,-10.5 0.95,61.14 -29.61,-35.8 -53.08,0.51 -0.95,-61.14zm783.7 -423.38c25.88,34.97 18.8,25.32 0,58.96 -5.26,-8.5 -71.69,15.51 0,-58.96zm-288.08 47.12c4.42,-92.8 -29.61,-59.55 62.35,-63.17 -36.28,94.21 -22.24,37.57 -62.35,63.17zm-226.22 -86.87c56,56.13 34.13,9.27 25.58,86.84 -75.13,-31.64 -97.78,-40.65 -25.58,-86.84zm183.83 -45.78c-28.55,79.04 7.42,37.85 -61.7,63.71 19.1,-82.02 -41.01,-39.08 61.7,-63.71zm112.86 -33.36c73.34,17.26 48.22,-24.21 67.38,67.33 -94.01,-10.53 -52.28,22.21 -67.38,-67.33zm142 -6.93c-71.54,-86.36 -34.95,-46.43 -1.75,-88.2 29.58,39.34 26.22,-47.84 20.54,43.83 -2.95,47.79 -0.13,14.33 -18.8,44.37zm-326.75 -91.65c25.4,-15.54 -39.88,-70.56 58.01,0 -4.62,3.18 -11.48,4.88 -13.35,10.25 -1.64,4.72 -12.07,4.65 -14.1,4.26l-30.56 -14.51zm445.36 -13.81c28.22,-32.41 22.9,-36.26 54.28,-10.68l-54.28 10.68zm-150.83 -115.32c110.42,6.42 81.45,-54.8 74.98,69.97 -124.03,-15 -39.24,-18.26 -74.98,-69.97zm-308.5 -54.51c38.72,40.55 9.78,-17.51 29.61,70.92 -26.71,-10.89 -41.78,20.98 -46.73,-35.23 -9.55,-109.57 -54.75,-1.64 17.13,-35.69zm416.35 -33.48c75.93,98.96 11.32,33.97 0,57.42 -5.14,-7.63 -97.81,24.24 0,-57.42zm-244.92 -28.04c39.6,115.58 -12.97,91.83 -24.47,104.28 -1.52,-1.62 -41.8,-3.26 -38.65,-57.75 6.6,-114.01 42.19,-42.75 63.12,-46.53zm146.93 30.4c-14.61,-28.5 -25.29,33.28 -19.46,-53.74 3.42,-51.07 2.85,-21.49 19.46,-47.22 93.78,98.66 3.83,71.23 0,100.97zm97.99 -165.08c4.11,5.88 13.71,7.22 13.3,16.9l-13.3 45.99c-19.26,-27.96 -79.09,-21.29 0,-62.89zm-295.81 -175.28l24.88 55.41c126.88,-28.5 96.42,-45.76 171.07,34.41 -40.39,40.75 -186.45,75.03 -263.95,75.21 40.47,-92.72 -6.5,-12.04 90.39,-75.21 -27.78,-35.23 13.48,-21.72 -71.44,-44.04 -17.62,-27.81 -31.97,38.39 -16.15,-71.82 119.71,-10.96 30.53,-4.52 65.2,26.04zm249.16 -148.14c102.51,114.19 0.72,59.32 -2.34,62.32 -15.12,-38.57 -22.08,-36.72 2.34,-62.32zm-614.61 137.81c-52.54,-91.39 -4.26,-159.38 24.86,-220.45l139.71 45.71c2.72,0.74 10.27,3.16 15.05,5.5 -84.58,147.14 -42.52,-50.51 -169.63,154.33 -2,3.21 -6.21,10.27 -9.99,14.92zm-75.72 -199.44l-279.12 -1.54c-0.26,-106.98 -6.24,-122.64 60.16,-184.14 19.64,32.28 1.52,9.32 18.51,49.66l43.45 81.91c52.87,-60.14 25.6,-32.64 134.76,-31.51 53.49,-64.99 65.81,-109.47 137.69,-31.15 -100.86,58.37 -61.73,16.43 -115.45,116.76zm150.35 -238.09c72.39,30.38 41.42,-10.19 45.04,69.84 -65.86,-34.51 -37.23,9.86 -45.04,-69.84zm-282.9 13.35l83.92 23.47c-56.36,82.12 -56.24,70 -83.92,-23.47zm-259.27 136.25c-7.32,-119.81 -31.46,-88.1 80.06,-105.82 -29.68,81.27 -5.57,70.36 -80.06,105.82zm-481.77 -106.54l-14.43 -60.42c15.51,4.13 33.36,9.3 48.61,19.7l-34.18 40.73zm882.51 -93.16c65.79,-58.6 10.09,-44.53 65.22,0 -47.45,40.88 69.38,30.38 -27.09,19.77 -53.46,-5.85 -4.13,10.84 -38.13,-19.77zm-339.62 -68.95c91.18,-26.17 86.43,19.39 87.43,19.98 -21.21,90.23 -39.9,89.26 -142.64,48.97 8.04,-47.07 -71.57,-32.53 55.21,-68.95zm-377.24 35.56l12.58 49.87c-0.9,3.13 -9.24,10.27 -12.58,16.23 -30.4,-44.22 -63.17,-27.6 0,-66.1zm906.13 -64.66c24.5,36.98 24.24,5.7 18.95,67.79 -85.17,-14.69 -89.85,-24.19 -18.95,-67.79zm-784.85 178.98c-8.99,-143.77 -30.69,-145.03 107.93,-156.51 -17.44,71.9 -39.65,114.88 -107.93,156.51zm-542.04 -90.52c69.95,-68.1 -73.9,-16.61 68.54,-72.03 -31.25,72.8 10.86,42.45 -68.54,72.03zm175.84 -137.2c18.36,21.34 73.62,-8.19 0,65.48 -55.82,-54.44 -14.23,-40.62 0,-65.48zm194.59 -44.55c-6.68,118.15 33.05,64.81 -78.58,71.77 8.78,-75.08 15.95,-58.03 78.58,-71.77zm238.55 44.37c109.95,-63.25 89.21,-6.06 179.13,-96.27l24.65 24.88c141.28,118.35 172.97,14.56 173.87,183.44l-149.55 -114.47 -122.43 70.97c-91.26,-38.98 -54.57,5.29 -105.67,-68.56zm397.88 -97.96c-28.3,52.36 -3.26,75.9 -84.15,24.5 3.88,-47.15 45.5,-41.29 84.15,-24.5zm-558.55 24.5c33.51,-33.12 -20.7,-21.57 45.63,-28.61 83.2,-8.83 30.38,13.51 46.97,28.61 -62.06,49.2 -18.08,57.88 -92.6,0zm-95.88 -48.97c0.44,-55.72 -24.14,-9.91 26.11,-10.96 63.07,-1.31 -26.71,91.05 -26.11,10.96zm313.04 8.88c-105.59,0.33 -38.93,18.75 -59.98,-63.17 63.43,34.38 28.01,-30.35 59.98,63.17zm-146.78 -102.22c26.32,31.71 31.79,27.24 -11.5,65.3l11.5 -65.3zm-661.24 65.76c-83.86,-88.15 -10.76,-41.52 0,-58.96l18.15 31.33c24.52,97.37 13.38,-9.22 -18.15,27.63zm146.96 -16.31c-28.3,-41.44 -23.19,33.84 -26.58,-79.19 -0.15,-5.5 8.35,-63.12 10.17,-69.97 18.64,-70.51 21.44,-52.87 62.78,-73.23 24.91,202.4 -12.71,196.95 -46.37,222.4zm-261.94 -37.08c-69.33,-30.69 -71.23,-25.09 -94.39,-82.94 106.15,-7.58 71.67,-10.78 94.39,82.94zm38.39 -139.46c0.67,-0.31 12.12,-47.25 84.84,-8.65 38.85,20.67 30.48,31.79 39.96,80.35 -127.62,-9.37 -93.65,3 -124.8,-71.69zm-98.06 -75.49c19.08,113.88 23.75,-24.65 -21.26,31.25 -14.05,-18.41 -35.05,-28.37 -4.13,-74.34 44.09,44.78 14.51,-22.08 25.4,43.09zm101.2 20.47c-3.44,-5.16 -35.28,25.47 -21.13,-64.4 13.07,-82.56 22.19,-38.41 45.63,-54.82 51,83.56 46.58,78.06 -24.5,119.22zm-259.91 -81.61c-42.39,-9.58 -8.76,4.21 -25.58,-34.79 58.01,-25.19 36.72,-20.47 69.95,24.5 -21.13,8.76 -3.9,19.44 -44.37,10.3zm394.16 3.47c-8.42,-146.31 68.95,-145.7 214.13,-152.37l-66.15 164.34 -37.31 -86.38c-57.7,46.58 -44.99,57.57 -110.67,74.42zm-217.37 -71.72c-64.22,-4.85 -47.53,32.53 -49.25,-51.15 66.15,3.57 40.91,-10.84 49.25,51.15zm50.3 -163.6c74.31,32.12 106.74,27.96 127.72,119.38 -99.76,9.83 -115.78,-20.41 -127.72,-119.38zm256.45 59.14c-104.95,-23.24 -37.26,15.23 -67.48,-69.43 92.72,38.47 39.24,-48.35 67.48,69.43zm158.95 -42.57c-110.42,-23.06 -50.07,15.89 -49.02,-69l49.02 69zm-554.01 -94.8c81.68,75.08 37.18,62.83 24.47,91.88 -122.15,-48.97 -26.01,-89.36 -24.47,-91.88zm182.06 -50.41c77.65,77.98 -23.93,62.68 -73.41,71.36 7.6,-37.23 6.37,-138.69 73.41,-71.36zm-368.92 20.34c85.66,-52.51 -69,-28.04 62.76,-55 -26.76,53.64 4.06,25.34 -62.76,55zm156.66 -108.82c41.6,14.33 42.45,2.88 64.84,35.82 50.97,74.95 0.28,20.57 -9.19,41.37 -75.65,17.49 -54.26,20.03 -55.64,-77.19zm682.63 37.23c94.91,-64.14 -74.44,-19.1 64.97,-62.35 -25.76,65.25 13.33,32.84 -64.97,62.35zm-30.02 -147.73c-21.93,102.46 31.22,66.79 -79.71,81.43 6.6,-58.8 28.22,-54.82 79.71,-81.43zm-473.12 131.45c-12.92,-154.76 45.5,-199.83 150.17,-128.49l-41.39 46.97c-66.4,71.31 -53.51,69.1 -108.77,81.53zm347.99 -147.75c-106.64,-14.07 -49.35,18.23 -61.5,-68.2 74.34,26.58 44.06,-19.23 61.5,68.2zm-149.88 -46.79c6.09,-43.83 -29.48,-7.6 27.19,-9.37 0.82,-0.03 7.45,0.9 7.93,1 0.28,0.1 2.41,4.03 2.47,4.16 7.83,44.27 -40.39,24.45 -37.59,4.21zm-304.49 45.71c11.22,-70.67 24.93,-70.15 81.91,-98.91 -17.26,91.7 0.54,73.47 -81.91,98.91zm201.98 -150.04c29.43,37.59 45.68,28.58 0,86.1 -32.02,-35.44 -14.74,2.11 -18.95,-51.18 -8.55,-108.11 -15.36,18.46 18.95,-34.92zm531.28 22.65c-92.67,-2.29 -21.72,33.69 -56.98,-63.94 66.3,45.58 43.27,-15.41 56.98,63.94zm-384.33 -7.27c-33.97,-17.67 -5.91,-58.21 0,-67.35 76.47,137.28 21.18,36.72 0,67.35zm-146.96 -150.47c57.31,25.19 37.28,-44.78 41.78,61.35 -61.88,-9.89 -64.66,0.26 -41.78,-61.35zm465.49 692.13l-77.01 -36.39c-1.31,-108.95 -8.53,-26.58 31.61,-60.7 12.09,-33.33 0.33,-42.93 -12.48,-95.16 195.95,5.21 43.19,-37.44 185.76,-81.25 69.2,-21.21 133.99,-2.93 215.16,-32.28 16.72,-103.97 24.34,-127.08 -22.96,-196.31 -2.34,-3.44 -12.02,-4.08 -13.89,-12.66 -1.85,-8.63 -9.83,-7.86 -15.02,-11.43 107.62,-55.13 58.91,22.11 48.87,-132.94 -7.81,-121.1 57.24,-421.07 -21.8,-484.06 -96.09,-37.98 -503.78,42.99 -608.91,83.27 -192.46,73.77 -199.9,117.5 -291.19,172.22 -402.17,241.09 -568.03,724.18 -488.3,1186.87 18.85,109.08 236.03,395.34 287.65,447.19 273.01,274.14 810.74,456.22 1191.06,598.02 127.11,47.4 140.59,33.95 228.05,-31.17l4.16 111.55c135.02,46.73 289.44,123.79 254.75,292.14 -30.07,145.72 -140.51,147.34 -248.92,186.94 -24.16,8.83 -30.94,12.33 -53.85,23.03 -4.19,1.98 -14.59,15.23 -17.59,9.99 -3.06,-5.34 -12.17,6.32 -20.03,10.48l6.32 829.46c407.49,-13.99 964.01,-151.84 1159.16,-479.85 56,-94.08 249.21,-139.69 250.21,-717.19 0.36,-191.71 -65.84,-370.61 -154.3,-517.93 -65.94,-109.75 -226.69,-238.65 -324.06,-312.94 -135.48,-103.33 -651.15,-453.81 -880.32,-366.17 -91.16,-52.69 59.91,36.93 -37.21,-35.38 -70.31,-52.38 -65.02,-23.7 -132.04,-63.35 -55.36,-32.71 21.13,-27.5 -168.5,-80.91 -148.83,-41.88 -212.18,-96.99 -274.37,-203.09z"/>
   <path class="fil0" d="M13788.1 4948.03c-93.6,-109.11 -9.22,-42.11 12.17,-56.29l-12.17 56.29zm534.75 -498.49c-18.82,61.06 6.6,28.19 -40.75,57.85 1.8,-88.59 -34.41,-37.05 40.75,-57.85zm-289.83 -20.98c55.59,41.68 79.32,40.83 -6.57,88.51 -45.37,-65.38 -47.68,-25.76 6.57,-88.51zm309.01 -85.84c69.36,33.33 37.8,-29.84 62.55,76.11 -92.31,-24.42 -51.07,23.11 -62.55,-76.11zm-141.95 31.71c20.9,44.73 18.51,19.62 9.76,71.85 -34.97,-23.78 -79.65,12.51 -9.76,-71.85zm273.75 -45.53c-5.75,-3.39 -10.73,-13.17 -11.56,-16.41l0 -35.54c-0.36,-10.35 8.09,-12.43 11.56,-18.98 66.3,133.5 21.11,38.11 0,70.92zm-315.64 -57.9c38.41,-47.76 -64.86,-3.9 52.67,-56.88 -24.78,71.95 22.21,43.22 -52.67,56.88zm496.85 -18.98c-78.06,-30.84 -33.33,17.46 -57.29,-60.83 72.21,26.94 34.79,-19.7 57.29,60.83zm-401.61 -43.01c-88.59,-42.99 -27.55,-24.63 0,-58.98l12.43 43.11c0.36,-4.52 -8.7,10.3 -12.43,15.87zm244.92 -101.07c42.83,51.23 29.38,11.2 20.67,84.46 -84.35,-25.24 -116.35,-41.09 -20.67,-84.46zm-354.1 19.9c-0.08,-3.77 -8.96,8.42 -13.28,12.79 -81.58,-102.89 -4.11,-70.64 0,-78.83l13.28 66.04zm380.37 -76.73c112.03,-56.83 18.28,-20.75 60.01,0 -123.79,88.67 -47.22,12.38 -60.01,0zm-246.69 46.99c-76.03,-99.84 -48.89,-86.64 24.47,-107.69 9.63,18.21 24.96,1.39 16.1,56.47 -13.12,81.58 -20.41,36.75 -40.57,51.23zm68.59 -149.5c-83.4,-38.16 -46.14,11.25 -58.11,-57.03 65.51,16 20.52,-22.11 58.11,57.03zm-105.54 -129.14c-12.51,52.43 43.32,18.18 -61.19,51.79 7.55,-69.77 6.73,-55.16 61.19,-51.79zm73.57 -6.78c-3.21,-6.88 -12.12,-4.21 -18.13,-6.47 5.19,-67.58 112.44,-130.5 148.06,0 -26.71,7.86 -31.17,13.43 -69.36,14.64l-60.57 -8.17zm-39.36 -74.34c-141.1,2.85 -53.56,12.25 -81.07,-69.28 95.01,28.53 51.79,-16.13 81.07,69.28zm-343.27 -33.23c35,4.62 80.45,6.01 111.75,18.13 71.77,27.81 50.92,40.47 62.71,58.47 -86.59,48.35 -127.13,-23.37 -174.46,-76.6zm559.58 -119.33c-2.34,-107.82 31.1,-31.35 39.13,-5.47 11.3,36.39 -38.29,45.86 -39.13,5.47zm-559.58 119.33l-56.54 -21.44 7.32 -178.16c33.2,-19.93 33.74,-31.15 50.46,-38.39 73.75,-31.92 -44.04,-11.2 28.32,-0.44 79.55,11.84 19,19.34 124.39,-3.85l-9.6 166.52c-116.86,-38.06 -3.21,-46.63 -138.23,-39.29l-6.11 115.04zm-364.24 -208.71c-11.66,-12.84 -49.89,-11.84 -36.77,-94.11 11.89,-74.62 58.83,-93.13 61.29,-95.19 51.95,88.36 55.41,111.93 -24.52,189.3zm73.75 -33.07c15.54,-58.34 -47.97,-16.56 35.56,-59.24 53.74,-27.53 46.27,-1.13 83.66,-10.14 73.39,-17.62 41.73,-38.98 139.1,-55.75l-67.64 127.52 -190.69 -2.39zm73.21 -131.65c-62.14,-54.21 -29.43,-6.91 -31.1,-87.31 82.99,26.47 53.26,-2.85 83.09,73.88l-52 13.43zm293.5 -39.42c-50.41,50.82 -33.25,-17.26 -32.33,-32.33 16.23,-0.56 -27.5,-60.29 32.92,7.55 19.13,21.49 22.03,1.98 -0.59,24.78zm-1042.23 -64.12l-10.45 52.1c-93.01,-45.42 -13.92,-39.83 10.45,-52.1zm929.86 1.26c-116.3,-10.22 -44.71,25.37 -69.66,-70.82 74.54,33.25 44.37,-10.55 69.66,70.82zm-394.03 -103.3c99.3,-11.04 51.82,11.12 67.2,18.87 -34.49,108.23 -74.47,99.07 -148.21,24.47 14.05,-13.38 5.34,-34.9 81.01,-43.34zm-252.42 163.54c-41.91,-70.1 -31.4,-73.29 -14.97,-161.82l106.13 -0.56c-17.92,52.69 -16.18,36.03 -44.6,86.95l-35.92 61.65c-1.36,-3.59 -6.91,9.35 -10.63,13.79zm-556.86 -107.18c66.56,-56.72 -85.71,-33.36 65.58,-60.04 -26.96,58.65 7.58,28.55 -65.58,60.04zm1316.06 -19.87c-86,-29.02 -18.44,-36.31 0,-61.55 18.49,29.35 26.94,15.64 0,61.55zm-1126.55 -112.32c23.86,55.11 28.04,39.03 -24.5,61.96 -47.4,-54.21 -13.71,-42.99 24.5,-61.96zm166.99 22.03l-49.53 9.06c-16.61,-33.07 -47.15,65.17 -11.76,-79.01l79.5 3.75c20.36,112.32 8.04,32.25 -18.21,66.2zm251.21 -0.82c25.63,-60.4 49.1,-63.89 218.55,-128.47 148.52,88.77 173.07,118.76 152.58,178.75 -45.89,21.34 -48.38,4.83 -153.17,-77.32l-95.24 72.98 -122.72 -45.94zm317.1 -97.96c34.46,-32.33 -15.77,-17.38 44.04,-24.65 121.64,-14.74 -27.12,-31.79 28.66,24.65 -76.26,38.03 -23.6,25.5 -72.69,0zm-476.97 0c36.1,-26.14 -11.38,-16.92 52.51,-23.11l32.12 23.11c-33.3,25.11 3.52,15.05 -48.04,19.36 -118.12,9.83 34.43,24.55 -36.59,-19.36zm182.52 -102.48c22.55,30.87 70.79,-0.15 0,68.12 -87.74,-86.38 -0.15,-67.87 0,-68.12zm-102.22 -1.16c12.86,106.67 17.05,-13.64 -28.61,24.42l8.35 -60.42c28.37,29.2 14.15,-14.48 20.26,36zm-697.98 5.67c0.67,-45.91 -19.87,-8.91 26.68,-11.68 65.22,-3.88 -27.86,96.63 -26.68,11.68zm189.79 -97.89c20.57,73.67 24.88,42.09 -1.85,95.01 -52.08,-41.44 -23.24,28.07 -30.04,-46.2 -7.63,-83.76 14.92,-30.63 31.89,-48.81zm-282 58.08c-91.98,-28.94 -54.34,31.15 -87.95,-82.45 108.72,19.13 58.62,-18.44 87.95,82.45zm280.15 -107.67c-59.09,-77.5 -9.76,-40.24 0,-60.4 87.72,135.09 17.74,40.62 0,60.4zm-244.25 -23.96c83.48,-39.9 105.69,-2.03 129.52,79.68 -46.3,-8.99 -42.5,3.24 -89.15,-23.29 -70.67,-40.24 -20.29,-13.12 -40.37,-56.39zm118.27 -48.99c-6.01,-80.66 29.32,-24.42 38.31,2.13 14.59,43.01 -35.31,38.41 -38.31,-2.13zm-94.44 -125.95c8.63,10.12 52.05,-41.16 31.82,74.34 -12.43,71.08 -29.04,34 -56.31,41.78 -41.34,-75.08 -15.46,-76.85 24.5,-116.12zm-122.43 54.57c26.71,66.15 23.91,37.26 -24.5,81.27 -18.41,-32.38 -25.11,3.47 -15.46,-51.48 10.84,-61.7 -0.54,-11.09 39.96,-29.79zm-109.34 -12.84c-100.4,5.39 -36.08,16.49 -75.42,-38.21 35.44,-11.3 -28.37,-52 59.88,-0.59 35.56,20.72 7.6,10.01 15.54,38.8zm536.49 -26.27l-35.33 35.08c-3.88,-4.7 -7.68,-12.66 -9.96,-15.36 -70.23,-83.25 1.59,-34.33 -62.06,-45.55l-86.3 49.4c21.7,-145.42 73.13,-136.51 214.18,-165.75l-20.52 142.18zm-454.99 -113.24c69.77,39.98 41.39,-9.6 52.2,79.42 -85.05,-30.3 -44.96,18.36 -52.2,-79.42zm223.09 11.48c-119.07,8.22 -67.56,18.95 -106.08,-67.02 113.96,11.3 68.41,-22.21 106.08,67.02zm76.96 -124.72c68.89,29.27 32.15,-8.99 63.89,71.51 -102.71,-20.7 -74.98,38.13 -63.89,-71.51zm-321.29 -46.84l12.56 25.42c34.36,28.71 29.56,-49.51 34.54,65.63l-71.51 -0.23c-52.26,-70.59 -34.72,-27.91 -28.45,-127.49 95.24,11.68 27.42,-4.39 52.87,36.67zm476.12 40.96c-0.74,-6.91 15.56,-48.35 33.66,4.78 30.56,89.59 -30.92,20.54 -33.66,-4.78zm-353.43 -117.4c66.12,38.54 84.28,34.28 4.01,83.84 -40.49,-54.75 -37.93,-18.39 -4.01,-83.84zm171.25 -54.05c22.31,29.92 35.87,27.27 0,66.74 -67.38,-68.71 -6.16,-57.6 0,-66.74zm-318.36 -16.97c64.48,29.86 81.35,6.45 24.47,83.71 -86.69,-30.04 -73.54,-22.31 -24.47,-83.71zm421.46 41.01c47.84,-61.81 -34.23,-16.95 61.96,-61.45 -34.33,71.67 13.2,48.45 -61.96,61.45zm247.9 -48.51c67.12,-41.91 15.97,-28.91 59.68,0 -74.98,62.35 -41.73,16.72 -59.68,0zm-507.86 30.25c-24.55,-100.5 8.83,-141.2 84.12,-174.12l50.64 45.91 -115.09 116.58c-3.06,-5.26 -13.04,7.88 -19.67,11.63zm340.03 -167.16c-56.47,-6.37 -26.29,9.71 -53.28,-35.38 60.01,9.99 32.12,-27.42 53.28,35.38zm-449.73 8.14c12.45,-92.34 2.72,-65.22 76.75,-89.72 -14.53,94.73 10.4,73 -76.75,89.72zm193.1 -155.89c66.76,34.18 83.79,38.54 0,97.42 -30.12,-53.49 -44.53,-18.15 0,-97.42zm751.5 78.42c67.92,-57.78 -73.23,-29.58 54.21,-58.47 -19.8,67.56 18,29.32 -54.21,58.47zm-237.19 -42.57c-67.1,-112.55 -15.64,-30.12 0,-63.43 16.07,33.12 30.15,26.09 0,63.43zm-400.12 -4.7c42.65,-53.95 -88.62,-82.68 73.26,-60.09 -26.14,73.98 22.98,31.02 -73.26,60.09zm-239.22 -107.64c27.84,37.26 58.26,-6.7 7.45,82.79 -39.62,-49.17 -41.98,-21.42 -7.45,-82.79zm537.98 35.92c-49.64,-66.33 -27.89,-61.4 1.98,-138.48 24.91,27.53 34.25,-49.28 30.94,69.64 -1.26,44.58 -14.3,38.88 -32.92,68.84zm-381.14 -91.05c47.97,112.86 0.8,57.52 -7.32,69.61 -67.53,-68.1 -7.91,-52.72 7.32,-69.61zm757.4 -0.05c1.52,-53.1 54.46,35.74 54.46,-171.43l-0.21 -253.52c-263.89,-82.58 -600.69,25.45 -852.57,169.99 -57.03,32.74 -72.1,35.44 -129.78,66.28 -134.89,72.18 -341.16,351.46 -407.49,499.57 -61.6,137.63 -64.61,486.7 -54.95,644.47 5.34,87.13 206.32,395.6 269.16,455.3 126.64,120.38 250.72,198.85 432.68,300.77 177.46,99.4 291.86,160.33 508.09,230 370.48,119.43 356.93,156.59 489.73,70.79 4.06,4.78 6.29,13.3 7.99,17l135.81 157.59c386.05,254.34 -84.84,411.93 -195.59,458.18l1.1 818.26c398.91,-23.14 754.89,-119.48 1007.71,-305.54 108.26,-79.71 90.1,-102.97 154.38,-187.89 79.83,-105.49 60.19,8.73 144.18,-174.51 239.17,-521.75 51.2,-1026.64 -389.85,-1354.88 -158.49,-117.97 -652.94,-451.88 -886.49,-359.01l-49.35 -54.77c-17.59,-11.63 -21.98,-9.24 -50.71,-20.21 -162.9,-62.14 -41.14,-37.64 -157.3,-88.13 -21.52,-9.32 -31.28,-10.27 -55.36,-17.31 -361.96,-105.61 -323.96,-287.83 -353.38,-391.34 213.36,-4.21 17.38,-76.44 274.6,-94.26 190.33,-13.17 159.31,-6.68 159.67,-194.97 0.13,-154.94 31.61,-135.43 -56.54,-220.42z"/>
   <path class="fil0" d="M6721.98 4795.5c-6.83,79.09 14.61,17.74 -54.36,55.08 38.08,-85.41 -37,-60.32 54.36,-55.08zm-219.86 -389.54c76.55,27.35 36.15,-6.96 64.32,63.01 -151.63,-33.18 -4.37,-3.36 -64.32,-63.01zm123.38 -224.71c-43.27,73.82 -11.4,73.59 -77.86,33.15 47.56,-61.6 -29.99,-32.51 77.86,-33.15zm-546.43 16.79c28.86,-13.12 -40.93,-69.59 61.27,0 -109.11,80.76 -40.57,9.09 -61.27,0zm190.48 -93.88c79.19,101.4 9.53,57.37 0,70.77 -50.53,-61.99 -32.82,81.04 -20.88,-29.99 5.19,-48.71 -8.37,-17.49 20.88,-40.78zm-113.93 -38.59c-37.7,97.45 18.82,24.65 -61.65,64.58 18.31,-94.26 -57.72,-55.49 61.65,-64.58zm456.79 -281.54c81.37,102.28 11.43,36.57 0,57.47 -3.06,-5.32 -82.56,15.2 0,-57.47zm-1053.09 -65.94c3.9,4.01 11.91,4.03 11.99,11.79l-11.99 66.53c-2.7,-4.29 -109.49,41.03 0,-78.32zm1102.06 -86.77c29.07,69.46 31.87,55.93 -46.66,71.15 2.7,-112.16 -24.42,-47.17 46.66,-71.15zm-699.6 -76.98c97.19,36.05 27.48,-19.52 62.53,61.86 -39.93,-9.91 -12.25,22.8 -41.01,-16.46 -3.08,-4.19 -16.28,-39.16 -21.52,-45.4zm142.9 -18.57l56.72 -167.24 42.47 144c181.88,-72.95 35.13,-50.25 112.39,48.33 25.76,32.84 28.73,28.61 49.38,51.79 114.6,128.7 -60.37,64.45 102.64,193.56 -56.36,128.39 -36.1,-31.15 -37,211.79l-88.95 -45.76c-3.9,3.67 -9.45,5.75 -11.32,15.18 -2.29,11.25 -19.26,26.29 -22.9,31.3 -17.62,24.21 4.03,11.12 -38.54,52.18l-146.65 -68.79c-5.19,-176.87 107.36,-140.49 15.84,-283.28 -63.5,35.9 -63.96,173.48 -96.11,252.11 -205.96,-3.39 -99.58,-67.12 -251.49,-100.35l-66.74 -15.41c243.53,-167.5 145.65,31.3 275.73,45.91 64.79,-123.82 -10.58,-127.39 -74.72,-186.63 -122.1,34.23 -68.71,101.33 -197.34,20.7l-18.21 -140.56c39.8,14.59 10.76,2.88 40.11,25.14l54.23 38.75 84.04 -71.44c43.19,61.6 57.52,82.35 136.38,130.6 212.85,-127.95 126.77,-27.84 317.82,-4.57 -35.18,-78.86 -86.74,-124.9 -201.93,-135.63 -31.89,38.7 17.54,22.37 -75.44,38.8 16.13,-130.37 10.45,-48.4 39.6,-80.48zm709.95 -111.52c26.45,35.41 63.12,-71.31 15.84,85.71l-64.5 -31.48c-118.92,-28.35 -52.08,1.62 -91.54,-81.86l140.2 27.63zm-320.64 -61.7c-6.47,110.62 16.28,96.99 -95.68,96.14 15,-83.35 12.12,-79.73 95.68,-96.14zm-493.84 51.64c69.33,18.82 37.54,-62.14 55.82,78.5 -60.57,-20.05 -85.56,3.83 -55.82,-78.5zm911.45 -63.07c93.78,38.9 64.48,-31.56 63.94,80.06 -70.95,-20.23 -37.46,28.27 -63.94,-80.06zm-327.01 125.98l28.32 -1.82c108.36,2.26 21.52,-7.73 60.5,37.05 -40.34,48.56 17.44,16.54 -53.64,25.58l-64.61 3.85 -167.81 29.74c47.15,-87.18 48.53,-55.23 144.36,-92.57 19.93,-114.83 -10.68,-78.32 56.21,-135.22 31.53,41.19 37.13,-10.45 -3.34,133.4zm-266.05 -194.08c0.08,0.15 77.83,93.44 -17.46,69.2 -89.28,-22.7 -4.96,-53.82 17.46,-69.2zm366.12 8.88c32.61,-20.13 28.96,-51.25 104.05,0 -114.19,100.07 -103.61,0.51 -104.05,0zm-72.23 -127.44c11.53,20.62 57.37,-11.68 0.15,73.47 -81.4,-67.66 -6.27,-65.25 -0.15,-73.47zm440.82 18.67c-97.6,-26.24 -18.08,-37.52 0,-58.44 65.33,105.95 21.24,21.18 0,58.44zm-342.85 -183.24c-81.81,-84.07 -3.95,-56.62 0,-63.45l19.59 33.1c27.45,107.77 15.43,-11.5 -19.59,30.35zm97.96 -529.12c-70.74,-43.4 -12.63,-41.65 0,-60.37l0 60.37zm-171.43 -325.68c43.17,58.16 49.89,-3.42 0,74.03 -15.33,-15.33 -38.29,-22.88 0,-74.03zm-1319.99 1042.87c-0.49,86.61 -6.19,193.41 -2.13,277.5 8.65,177.72 10.37,54.93 64.55,169.3 -59.62,42.27 5.16,-11.4 -57.96,24.55l-4.31 347.14c90.44,34.61 29.43,33.12 146.93,64.25 73.05,19.34 95.06,18.54 142.31,56.03 114.81,91.11 384.63,507.22 499.75,675.41 157.2,229.69 149.81,287.57 505.86,293.32 179.98,2.88 614.09,17.74 755.07,-20.95 40.39,-171.38 -52.56,-230.9 -130.14,-325.27 -65.43,-79.58 -121.02,-167.94 -184.37,-256.55 -81.96,-114.6 -314.22,-408.87 -329.3,-564.05 142.46,-119.87 254.27,-166.57 376.83,-320.21 339.65,-425.67 371.15,-1099.92 169.12,-1583.8 -132.14,-316.56 -189.99,-280.02 -304.36,-383.32 -145.44,-131.29 -156.12,-175.07 -410.49,-251.7 -357.34,-107.67 -841.83,-115.89 -1237.05,-49.4l2.88 867.25c460.9,-24.47 1156.6,-96.06 1135.87,470.01 -8.83,240.89 -145.62,421.82 -343.98,481.95 -248.21,75.24 -532.36,2.08 -795.07,28.53z"/>
   <path class="fil0" d="M1495.24 4891.18c-23.42,-1.69 -24.98,18.51 -87,-31.89 17.64,-10.37 49.82,-133.99 87,31.89zm-540.11 -327.14c-9.35,-5.26 -40.11,-36.87 10.19,-55.23l-10.19 55.23zm206.58 -399.37c46.53,-81.07 -34.82,-19.82 75.67,-64.45 -38.39,83.66 31.22,69.02 -75.67,64.45zm-321.93 -101.76c86.33,36.39 69.41,-33.15 60.96,79.47 -85.66,-27.76 -38.54,-6.96 -60.96,-79.47zm-78.29 10.89c-13.76,96.09 23.34,61.6 -73.41,81.55 11.56,-75.55 -0.9,-50.33 73.41,-81.55zm-61.09 -35.69c70.13,-58.49 -72.31,-19.87 64.66,-61.96 -36.69,73.64 35.46,18.28 -64.66,61.96zm-17.54 -245.12c-3.29,-0.39 -13.51,0.98 -15.87,-4.93 -2.44,-6.09 -10.68,-4.06 -15.92,-6.32 47.02,-89.1 122.84,-105.38 190.51,8.24l-158.72 3zm253.26 -109.23c2.21,-40.49 -12.92,-9.65 25.11,-10.35 95.6,-1.69 -3.93,-65.53 10.14,6.19 12.51,63.81 -36.28,22.01 -35.26,4.16zm-158.36 -62.76l-85.89 36.18c8.17,-61.63 -19.13,-39.98 26.58,-64.17 75.42,-39.9 30.53,5.37 59.32,27.99zm-347.91 121.05c-92.36,-24.75 -129.88,-48.94 -149.45,-125.18 111.47,-27.58 119.33,23.39 149.45,125.18zm11.4 -106.44l24.06 -50.51c18.13,31.76 21.57,-11.12 9.58,38.93 -10.19,42.45 -2.93,4.37 -33.64,11.58zm71.54 -180.18c123.33,80.6 36.93,8.19 36.93,81.84 -47.17,-31.97 -43.42,57.29 -36.93,-81.84zm301.49 -73.72c-23.06,90.28 21.03,57.47 -74.08,78.83 -4.39,-90.75 -2.13,-61.58 74.08,-78.83zm-373.16 -33.46l-99.48 167.58 -116.68 -34.49 216.16 -133.09zm0 0c25.78,-66.17 10.61,-50.53 73.21,-85.17 -29.99,88.23 1.36,50.74 -73.21,85.17zm-138.25 -178.77c-106.87,63.96 -90.23,8.14 -98.3,1.75 58.08,-76.24 98.3,-1.75 98.3,-1.75zm517.88 -97.4c19.59,-51.05 8.37,-35.72 34.64,-75.85 31.35,-47.94 39.29,-41.16 50.77,-51.25 46.91,99.89 11.56,109.44 -85.41,127.11zm-600.36 -98.32c33.3,19.36 37.62,-17.54 34.92,40.96 -4.11,89.21 4.44,4.8 -34.92,34.9 -62.68,-74.77 -26.5,-36.82 0,-75.85zm130.01 -45.24c-103.17,-10.04 -40.08,12.07 -79.14,-34.33 33.72,-9.48 -0.1,-18.31 42.32,-4.26 70.72,23.44 2.41,-9.09 36.82,38.59zm455.97 -175.38c85.74,-39.16 68.54,-27.01 63.32,35.56 -48.15,7.4 -34.79,17.23 -63.32,-35.56zm-406.69 41.26c-24.52,41.47 27.89,8.55 -33.56,24.65 -36.59,9.6 -30.07,11.53 -35.82,-12.76 -40.44,-43.81 -29.4,38.57 -33.66,-53.15 164.73,-90.52 92.6,-76.96 184.96,-105.79 -11.71,72.64 13.94,22.26 -26.42,96.4 -43.17,79.24 -13.48,20.29 -55.49,50.66zm-186.17 -100.53c-74.39,-30.63 -23.68,5.16 -43.32,-60.86 77.63,23.24 60.19,-33.12 43.32,60.86zm136.89 234.65c261.94,-30.09 -14.48,-100.22 368.94,-16.64 -35.44,-119.02 -62.47,-134.04 -84.2,-273.88 -175.9,-20.29 -203.91,8.5 -158.1,-144.11 128.01,63.12 -22.37,-13.07 73,56.54 38,27.73 -11.58,3.8 39.65,24.09 56.26,22.31 1.54,-43.45 70.36,32.25 81.78,90.05 58.14,108.77 48.51,224.25 59.5,24.81 54.28,17.23 119.07,73.82l-57.9 67.82 51.9 237.29c-97.68,7.65 -39.26,-18.92 -120.53,2.18 -44.78,11.63 -39.03,27.68 -110.96,29.5l134.99 -194.61c-96.32,-54.23 -301.69,-71.21 -374.72,-118.5zm523.45 -420.27c6.83,-3.75 -27.71,-75.65 72.1,0 -79.68,74.72 -53.8,12.61 -72.1,0zm-145.08 73.47c14.69,-161.49 64.94,-171.94 66.48,-179.72 1.44,-7.27 8.6,-6.73 12.92,-10.12 39.29,94.06 -9.09,54.67 4.62,137.33 18.36,110.54 23.39,-7.55 48.84,133.04l-132.86 -80.53zm-453.94 -106.15c-22.8,-31.3 -19.41,-25.86 -5.47,-66.25 5.39,5.7 107.33,-52.23 5.47,66.25zm655.79 -116.48c24.93,17.46 40.73,-54.03 35.69,45.17 -4.13,82.17 -1.36,9.09 -46.12,31.1l10.43 -76.26zm-439.25 60.06c-93.49,-6.68 -35.33,17.23 -100.61,-33.36 2.57,-38.31 58.67,-92.24 100.61,33.36zm586.34 -110.42l-30.48 -25.93 44.12 -49.66c1,-1.13 33.02,-39.44 35.2,-42.32 65.51,21.75 112.11,23.16 133.55,82.66 -96.14,20.08 -85.94,-12.56 -182.39,35.26zm-256.86 -67.02c-54.21,-67.23 -0.59,-49.1 11.81,-66.56 95.06,104.51 7.93,48.38 -11.81,66.56zm-96.14 -183.68c32.25,-15.28 -67.51,-69.87 78.4,-2.52l-0.18 81.01c-71.8,10.07 -22.44,20.11 -72.77,-18.82l-5.44 -59.68zm323.37 -93.65c0.98,0.69 90.52,14.89 -2.57,121.1l79.71 -34.77 46.66 -6.93 8.86 59.75 -107.57 46.84 -93.03 38 19.23 -68.95 38.47 -24.6c-6.68,-4.65 -22.9,-25.19 -24.7,-36 -1.85,-11.2 -5.55,-16.33 -10.84,-22.88l-2.67 -89.77 48.45 18.21zm503.45 112.42c-94.96,0.69 -83.4,-28.73 -103.89,-108.41 91.85,7.11 123.97,14.87 103.89,108.41zm285.26 -166.14c39.65,76.26 40.78,27.04 10.22,115.5 -35.05,-28.55 -36.46,38.72 -49.02,-60.06 -7.63,-60.24 22.57,-41.29 38.8,-55.44zm-678.42 17.62c92,15.23 47.92,-14.17 72.64,71.21 -97.42,-14.3 -66.76,24.52 -72.64,-71.21zm536.39 -7.81c-39.24,54.44 -37.82,58.52 -121.82,24.5 33.9,-36.54 -3,-105.18 121.82,-24.5zm-324.08 28.71c-85.3,-21.47 -93.52,-29.92 -123.23,-103.59l131.11 -16.33 -7.88 119.92zm67.82 -129.24c30.43,-22.6 -65.76,-79.68 69.07,-9.48 18.67,111.39 5.37,31.66 -20.34,64.61l-52.72 7.24 3.98 -62.37zm-498.7 67.84c8.22,-105.23 -28.01,-54.82 76.21,-82.94 -41.39,82.48 29.94,38.31 -76.21,82.94zm832.15 -143.08l67.69 -18.18 -27.53 62.35c-37.62,35.92 49.89,24.55 -48.81,30.89 -38.41,-50.59 -61.86,-58.14 -73.34,-116.68 62.96,-4.01 65.71,20.13 81.99,41.62zm-492.12 4.34c33.38,-23.19 -11.66,-51.2 61.35,0 -22.42,19.9 12.43,64.66 -61.35,0zm633.66 440.48c20.16,-467.83 -22.42,-393.57 -32.15,-495.72 -7.93,-83.51 35.59,-8.37 35.59,-116.19l-0.54 -344.4c-336.02,15.1 -927.06,234.21 -1181.63,442.54 -104.33,85.38 -161.46,149.22 -255.55,258.5 -361.88,420.43 -643.62,1385.08 -360.39,1557.64 -66.87,56.36 -68.36,43.83 -54.87,147.39 20.77,159.36 44.55,134.55 86,240.99l29.71 89.77c12.66,32.69 46.71,119.92 64.43,155.56 248.87,500.39 971.43,1034.73 1673.47,1043.43l-12.27 -970.97c-349.27,-113.68 -399.96,-92.47 -627.21,-322.83 -169.71,-172.04 -242.5,-376.62 -267.46,-687.64 -20.13,-250.9 107.95,-548.67 267.82,-674.31 418.35,-328.86 300.97,-246.92 635.07,-323.78z"/>
   <path class="fil0" d="M6832.83 9485c48.3,24.65 69.54,-12.35 24.5,68.36 -48.89,-21.88 -69.02,-4.39 -24.5,-68.36zm293.32 -114.52c63.94,75.42 33.74,23.08 -2.13,66.33 -35.59,-109.29 8.65,-7.91 2.13,-66.33zm-513.74 -119.07c66.51,38.57 69.33,24.6 31.3,115.32 -18.41,-13.46 -35.41,12.48 -50.43,-55.75 -15.84,-71.9 16,-55.8 19.13,-59.57zm433.65 -8.35c-4.9,-94.98 48.99,-31.87 42.57,-4.78 -13.58,57.52 -42.37,8.68 -42.57,4.78zm-1263.88 -7.01c89.92,2.52 25.76,-20.08 69.31,51.36l-69.31 -51.36zm-1424.42 -41.96c20.62,-17.1 -42.91,-62.35 109.08,-9.22 -23.37,18.41 2.8,75.9 -109.08,9.22zm2499.56 -100.92c3.34,5.03 10.89,6.5 10.63,14.66l-10.63 46.66c-36.75,-45.5 -51.05,81.01 -20,-31.38 29.14,-105.28 -67.05,18.51 20,-29.94zm-2046.01 -37.36c-29.12,75.78 5.98,36.93 -58.34,60.5 19.21,-69.87 -33.48,-24.65 58.34,-60.5zm2247.92 15.84c108.8,-84.2 40.11,-10.71 59.93,0 -5.96,2.49 -15.33,2.23 -17.49,8.47l-30.04 0.03c-1.98,-0.46 -7.91,-6.34 -12.4,-8.5zm-788.83 -67.35c58.88,42.96 61.94,15.38 23.62,98.09 -58.73,-44.65 -63.07,-22.85 -23.62,-98.09zm-547.38 42.86l64.66 0c-24.98,21.11 77.6,94.6 -64.66,0zm381.4 -71.08c-24.42,83.17 9.99,44.5 -56.93,68.77l56.93 -68.77zm-1696.15 12.71l18.13 34.23c8.14,126.03 6.78,-46.22 -3.77,41.11 -63.55,-18.77 -109.08,-22.44 -14.35,-75.34zm1517.04 -43.86c-25.63,89.18 34.33,45.3 -71.92,61.78 31.4,-80.81 -18.85,-38.83 71.92,-61.78zm-1174.57 -33.59l20.29 35.28 -57.98 66.92c-80.3,34.28 -19.59,37.75 -122.07,15.82 6.29,-6.09 16.92,-21.98 20.47,-16.38 3.31,5.24 14.87,-11.27 19.08,-15.25l71.64 -123.95c98.48,14.79 10.14,-4.67 48.58,37.57zm-495.46 1.85c70.51,37.98 31.3,-33.46 71.46,79.17 -120.12,2.11 -58.62,29.56 -71.46,-79.17zm2562.5 105.2c23.39,-96.29 -24.83,-77.14 77.83,-88.92 -10.84,163.57 -13.71,49.97 -77.83,88.92zm-1220.82 -44.71l32.92 -15.82c2.7,1.13 13.33,7.14 16.02,8.42 3.42,1.72 9.65,12.12 15.66,16.95 -26.73,11.53 -47.99,62.81 -64.61,-9.55zm1411.17 -76.52c31.2,-33.15 94.83,0.08 37.21,30.43 -42.06,22.19 -48.43,-18.49 -37.21,-30.43zm-1271.48 27.53c32.71,-29.35 -63.19,-39.24 26.01,-18.82 61.17,14.02 -5.42,-19.26 44.01,27.14 -25.73,12.25 3.24,78.91 -70.02,-8.32zm-201.8 -43.81c74.7,96.47 11.32,35.23 0,61.96 -13.07,-25.86 -75.31,57.16 0,-61.96zm1053.06 213.51c-75.39,-47.04 -94.98,-346.86 171.4,-271.42 15.95,221.91 5.57,190.53 -48.94,223.4 -68.84,-89.85 18.87,-35.56 -24.5,-155.2 -74.47,20.47 -53.72,-32.74 -78.09,81.68 -12.09,56.67 8.83,49.48 -19.87,121.53zm-92.47 -349.74c28.37,-37.39 -42.57,-29.68 66.33,-36.72 18.82,82.63 16.61,10.66 -4.19,86.92 -120.58,15.48 -41.44,0.44 -72.54,-17.36l10.4 -32.84zm-936.12 -20.62c29.89,36.82 46.04,-66.02 21.44,32.02 -20.93,83.33 50.71,-28.01 -31.58,45.04 -30.61,-88.05 -27.5,-53.51 10.14,-77.06zm-974.13 -19.75c62.22,-56.9 10.37,-33.36 91.47,-22.62 -30.81,89.57 -46.32,90.54 -91.47,22.62zm2179.18 -73.49c84.46,-61.37 42.47,-33.05 84.66,3.11 -8.27,7.34 21.36,32.43 -41.75,23.73 -52.97,-7.32 -16.31,-0.77 -42.91,-26.83zm-1082.36 -30.76c107.44,9.09 44.65,-25.14 71.82,57.67 -134.71,-22.93 -30.4,-13.15 -71.82,-57.67zm-148.21 25.91c39.03,14.38 40.16,-48.48 39.26,47.74 -29.27,-3.85 -43.42,45.96 -39.26,-47.74zm-803.55 -19.64c21.49,-59.44 -38.44,-28.43 71.9,-56.77 -8.86,77.37 22.42,101.79 -71.9,56.77zm718.63 32.95l-25.16 111.57c-27.19,-16.97 -60.99,45.5 -45.86,-70.67 11.66,-89.41 28.09,-52.28 44.27,-68.46 40.47,-66.81 5.5,-40.16 104.87,-70.26 -9.14,117.86 2.21,77.16 -78.11,97.81zm-918.17 -153.38c4.16,4.8 12.71,5.42 12.79,14.17 0.08,7.58 8.19,11.81 7.93,14.56 -5.37,54.85 7.24,9.04 -20.72,46.79 -10.3,-14.76 -73.23,0.26 0,-75.52zm2186.73 215.36c93.55,50.3 155.02,41.5 204.27,142.95 -103.12,-16.33 -227.71,-49.66 -305.11,-115.42l49.15 -143.82 -100.35 -67.94c57.37,-31.99 126.64,-41.19 206.07,-40.37l-47.04 90.21c-9.55,35.03 -6.62,96.52 -6.98,134.4zm-2064.24 -333.41c27.89,62.99 21.88,36.95 -24.5,78.68 -12.48,-28.53 -54.16,47.38 -11.58,-49.46 17.2,-39.13 0.69,-15.74 36.08,-29.22zm2007.85 -5.26l0.15 56.72 -52.61 3.03c-21.8,-34.77 -52.23,70.67 -13.61,-79.32 110.7,-7.99 31.12,-2.26 66.07,19.57zm-1846.62 17c27.09,20.57 120.79,-73.23 -1.39,64.94l1.39 -64.94zm214.1 -78.37c14.69,4.08 27.86,26.22 34.85,33.36 -81.32,38.62 -47.2,49.33 -99.12,-22.13 51.2,-26.47 -52.79,-43.83 64.27,-11.22zm-328.76 35.87c-12.38,-100.43 -10.89,-134.76 101.92,-148.65 26.17,-3.24 89.49,-0.64 114.76,5.73 81.68,20.59 59.06,30.74 77.86,49.3 -142.92,95.93 -173.3,81.91 -227.87,23.47l-66.66 70.15zm1716.17 552.41l54.08 83.69 -8.09 72.1 -36.33 -0.72c-5.62,-4.24 -12.33,-19.93 -15.33,-14.59 -17.05,30.33 -26.99,-20.95 -32.25,-23.01 -78.29,-30.61 103.33,-14.89 -59.37,-8.94l26.91 -114.34 -12.2 -14.66c-5.67,5.34 -13.1,5.83 -16,17.02l-72.31 87.51c-103.33,-4.9 -132.58,-0.08 -212,-48.87 -19.18,-151.01 -10.25,-14.92 39.39,-62.22l64.97 -3.88c-59.24,-65.43 -91.93,-52.87 -151.04,-7.37 -30.76,23.24 54.49,53.51 -73.23,16.51 -39.6,-148.29 -10.71,-28.27 13.22,-77.42 23.21,-26.53 27.04,26.5 31.76,-64.07 7.06,-135.3 -16.23,-77.98 -38.08,-102.64l-63.37 203.88c-116.81,12.27 -108.59,30.87 -163.62,-49.74 47.89,-102.35 29.3,25.63 124.18,-60.42l86 -158.38c26.94,-69.46 -14.23,33.74 17.54,-54.51l21.65 -53.9c1.72,-3.98 4.96,-11.99 8.76,-17.18 143.82,72.87 45.5,156.05 93.08,292.91 35.18,15.28 -5.21,6.06 33.05,-3.24 3.08,-0.77 10.53,-3.8 14.25,-4.67 108.93,-25.24 73.93,-7.7 170.53,7.96l18.28 -23.65 -153.35 -92.36c-6.42,-320.67 39.18,-160.28 -50.3,-326.6 -35.9,-66.79 -23.34,1.44 -23.91,-93.88 57.31,-41.91 105.64,-69.59 212.38,-42.83 -21.62,79.17 59.47,11.27 -84.74,67.46 61.04,80.78 64.43,19.67 35.31,121.36 116.25,-22.03 86.69,-55.44 148.34,25.58l-33.43 14.76c-71.62,28.35 -258.86,114.68 -85.61,211.84l43.45 -132.63c125.67,24.16 55.13,30.87 147.68,67.94 -44.37,-143.82 11.73,-34.92 33.1,-186.4l-93.29 -70c61.47,-32.48 82.32,-5.03 142.1,17.49 -42.93,316.05 -36.18,190.3 16.13,278.25 19.03,32.02 38.95,-46.5 13.87,77.19l-149.29 -36.1c30.61,80.99 32.2,182.08 17.15,285.75zm-1595.05 -784.65c-110.42,-34.43 -45.86,19.9 -76.93,-70.82 78.75,30.35 42.65,-11.25 76.93,70.82zm1510.36 -63.25l64.53 26.04 19.8 -28.96c5.19,-100.79 -7.58,-44.78 26.29,-82.56l34.49 -25.11c30.99,110.72 41.98,85.07 -32.25,163.67l-30.71 74.83 -127.21 -68.07c30.33,-81.68 -18.75,-33.61 45.07,-59.83zm-1424.65 -23.06c108,-68.87 16.28,-21.31 56.93,0 -19.87,12.99 42.55,103.1 -56.93,0zm1289.48 0.77c-40.57,-58.39 -13.74,-30.99 0,-58.42l12.74 44.55c0.33,-4.19 -8.86,8.94 -12.74,13.87zm183.73 -57.98c-211.36,-38.8 -176.77,-70.46 -194.26,-114.22l61.65 -2.75c66.02,23.16 103.95,69.64 132.6,116.96zm-424.49 -72.31c31.17,-56.06 70.31,-74.39 131.09,-78.68l3.31 79.73c-98.32,36.44 -31.51,34.46 -134.4,-1.05zm375.62 -90.88c5.83,-40.88 -25.65,-3.52 22.42,-13.4 36.36,-7.5 -31.87,79.58 -22.42,13.4zm-1759.65 27.06l22.01 -13.66c0.33,-4.29 -9.55,8.53 -22.01,13.66zm328.01 -104.18c-32.43,-17.92 -32.2,16.43 -36.98,-56.08 77.45,23.93 32.12,-6.98 36.98,56.08zm1030.16 -69.84c-110.42,95.42 -94.42,10.07 -106.64,0 5.29,-35.82 27.76,-36.26 55.82,-37.64 67.58,-3.34 39.75,25.16 50.82,37.64zm-859.96 28.94c-74.85,-22.98 -46.73,20.26 -76.98,-87.85l94.08 -1.28 -17.1 89.13zm808.19 -246.18c30.27,38.65 64.14,-9.4 0,63.5 -84.02,-60.24 -14.84,-46.86 0,-63.5zm252.9 108.34c-86.61,-74.06 -96.32,-13.33 -127.67,-157.36 99.61,24.68 128.19,74.88 226.17,114.19l-50.15 180.08c-48.58,-53.15 -28.91,-1.85 -48.35,-136.92zm-1181.79 -111.49c87.23,-70.05 58.57,-14.64 153.58,-43.19 58.11,-17.49 40.6,-75.8 117.22,18.67 -56.31,38.59 -83.51,-20.47 -125.62,109.18 -63.27,-13.43 -108.36,-13.4 -145.18,-84.66zm1109.78 -55.54c86.3,-61.22 -78.09,-31.94 65.2,-62.86 -25.24,64.35 10.81,30.02 -65.2,62.86zm-716.6 -42.06c-19.62,-66.69 17.28,-40.88 21.39,-47.09 70.69,42.24 66.66,-15.95 35.2,100.17 -71.77,-34.15 -33.61,24.93 -56.59,-53.08zm430.52 15.87c59.14,-71.18 -85.97,-22.16 68.92,-77.39 -30.2,81.25 16.18,46.25 -68.92,77.39zm-292.45 -45.09c10.45,110.19 19.57,-20.75 -18.72,28.73 -16.69,-13.97 -47.32,-15.23 0,-71.21 22.65,30.12 14.43,-2.75 18.72,42.47zm-484.03 13.87c-52.23,-41.6 -22.21,-27.45 0,-65.33 104.79,145.26 21.34,38.83 0,65.33zm826.79 -107.46c-2.29,-84.53 -50.2,-4.06 26.4,-11.94 45.35,-4.67 -24.81,69.97 -26.4,11.94zm248.62 -24.5l43.42 -11.79c2.13,-6.7 9.83,8.24 15.15,11.79l-29.79 17.44c-73.88,18.36 17.9,19.59 -28.79,-17.44zm-542.89 -42.55c71.08,27.01 90.41,41.7 118.17,124.77 -100.76,-26.06 -103.77,-14.84 -118.17,-124.77zm-576.24 -45.37c103.41,21.29 44.91,-4.26 75.03,75.08 -90.1,-23.83 -65.02,19.21 -75.03,-75.08zm1133.2 -70.15c80.83,9.63 41.19,-8.11 55.44,53.98 -76.34,-7.4 -53.49,17.77 -55.44,-53.98zm-264.74 35.62c19.93,-12.22 -7.42,-67.82 76.32,0 -110.01,101.74 -68.1,6.27 -76.32,0zm-496.92 115.14c0,0 -90.08,104.59 -220.27,31.82 75.21,-73.36 84.58,-11.99 150.5,-62.17 69.74,-53.1 -3.83,-17.79 34.23,-119.69l123.1 31.69c-27.81,65.27 29.97,45.37 -96.42,57.54l8.86 60.81zm192.3 -272.24c-22.24,108.36 20.54,50.12 -59.44,86.79 -22.55,-111.62 4.96,-66.33 59.44,-86.79zm375.75 -146.16c106.49,68.79 51.23,99.81 -35.36,141.79l35.36 -141.79zm-931.12 2227.56l-4.29 -59.37c-155.99,-7.75 -126.93,-27.84 -220.88,-110.7 94.65,-60.96 39.39,14.74 86.36,-66.02 53.62,-92.26 -24.24,-42.24 76.08,-103.2 23.5,35.74 82.43,11.32 -34.85,178.31l108.21 30.66c5.21,2.26 14.33,7.93 18.72,10.07 4.78,2.34 12.99,8.35 19.72,12.12l56.59 -199.78c-38.18,-12.79 18.62,-10.84 -40.01,11.94l-57.7 24.78c-11.58,-148.29 -30.2,-104.41 -69.82,-208.17 223.71,-145.24 142.23,-61.47 260.2,-52.46 42.96,-165.86 43.7,-259.32 73.29,-300.31 135.5,-187.81 -46.48,17.9 115.37,-225.27 121.82,-183.09 78.96,-402.51 260.53,-542.68 183.65,196.69 110.13,163.18 159.77,328.14 14.2,47.12 61.14,83.89 104.95,159.1 72.13,123.77 80.89,112.24 158.07,133.89 31.4,-42.52 -47.66,-11.79 66.99,-55.95 2.75,5.7 6.42,13.79 7.58,17.41 1.08,3.36 5.11,12.27 6.24,16.38l17.05 105.77c-33.69,-9.78 -77.16,-17.38 -104.2,-26.5 -143.64,291.83 -36.98,42.06 -59.06,262.41 -103.53,61.6 -112.62,20 -165.08,131.37 -98.63,-29.94 -11.76,-18.44 -61.96,-28.61 -3.18,-0.67 -10.3,-2.29 -13.4,-2.41 -42.47,-1.59 -37.13,27.66 -116.94,60.6l-26.42 -56.52c-57.75,-85.41 50.89,31.1 -22.73,-30.2 -83.92,-69.82 -178.46,45.3 -206.07,96.91 -107.54,201.06 -40.85,184.86 -23.06,346.14 -113.73,68.28 -120.58,26.42 -177.03,187.09 -31.64,90.18 -75.67,182.29 -88.51,279.48 160.85,-12.17 366.25,5.34 543.81,-0.36 172.69,-5.57 366.76,-10.94 538.01,6.55 388.72,39.72 253.47,334.95 490.58,559.5 193.9,23.91 838.91,29.2 977.21,-46.99 32.07,-206.53 -286.11,-896.81 -381.3,-1111.58l-551.75 -1333.08c-79.81,-118.4 -37.23,-144.57 -96.6,-270.26 -79.4,-168.14 -144.44,-332.76 -216.24,-516.31 -238.94,-610.68 -74.03,-674.87 -808.91,-654.66 -327.35,8.99 -409.7,-42.81 -554.47,196.64l-636.59 1567.58c-141.79,355.87 -271.37,728.54 -413.86,1079.54 -35.64,87.9 -84.2,179.23 -110.26,255.24 -20.47,59.73 -19.31,112.34 -41.83,157.28 -0.36,0.77 -299.84,409.46 -218.75,668.99 240.12,26.73 898.56,70.79 1037.81,-70.92 83.94,-85.43 254.19,-680.63 339.41,-811.56z"/>
   <path class="fil0" d="M16173.91 9625.56c-103.71,-28.04 -38.83,22.03 -64.25,-70.41 84.46,38.85 27.04,-38.93 64.25,70.41zm-233.36 -400.45c36.93,-72.08 -42.73,7.58 27.22,-63.22 30.3,47.89 30.2,-25.52 11.97,45.14 -10.68,41.21 -6.96,6.5 -39.18,18.08zm62.86 -229.41l13.33 -65.66c9.94,7.91 37.34,-15 29.89,37.31 -8.04,56.67 5.7,1.36 -43.22,28.35zm-476.46 -118.48c-70.26,-78.32 -6.62,-48.63 0,-60.6 17,31.33 29.32,21.29 0,60.6zm135.63 36.8c-24.86,-97.73 -45.94,-131.68 35.77,-190.4 39.11,60.45 17.79,-2.36 21.24,74.08 7.99,177.69 4.72,11.61 47.17,149.63l-104.18 -33.3zm-86.66 -154.99c-1,-1.21 -85.17,17.02 0,-97.14 86.61,52.28 70.2,46.84 0,97.14zm251.44 -14.64c-41.01,-10.35 -25.93,-14.76 -51.28,-32.02l27.66 -79.06 78.86 111.03c-41.8,4.44 -9.99,11.45 -55.23,0.05zm-907.44 -215.39c7.52,-88.33 -32.66,-60.47 59.65,-68.43 -15.36,57.26 30.12,30.97 -59.65,68.43zm-103.23 -41.16c-38.31,-20.7 -0.05,-60.6 0,-60.68 16.15,32.53 44.78,-6.11 0,60.68zm1099.28 -52.95c20.95,-11.32 -5.44,-52.33 69.25,0 -105.54,107.23 -64.58,4.13 -69.25,0zm195.21 -70.2c-5.34,86.92 36.9,58.78 -58.03,62.58 -3.26,-112.47 12.4,-53.21 58.03,-62.58zm-736.68 -52.26c5.6,-3.44 12.12,-11.94 14.87,-12.84 2.23,-0.72 12.89,-4.75 15.1,-5.29 101.53,-25.7 -19.52,-19.13 30.76,18.13 -5.26,3.8 -12.27,11.56 -15,12.43 -2.26,0.69 -12.92,4.57 -15.15,5.11 -106.8,26.06 24.83,21.52 -30.58,-17.54zm715.73 -112.47c57.44,87.56 9.4,56.36 0,75.55 -93.21,-62.91 -63.89,-44.12 0,-75.55zm-498.08 -130.34l24.21 120.38c56.39,34.82 -79.37,51.97 118.92,14.59 -40.39,145.13 -16.36,63.37 82.84,157.64l37.62 131.47c2.52,6.06 6.29,12.07 8.86,17.79l32.12 70.33c-92.78,36.64 -57.98,-12.81 -127.06,26.35 -60.78,34.43 3.49,56.9 -112.93,63.07 34.72,-110.96 39.83,5.7 45.35,-140.72 -60.6,26.73 -55.11,29.5 -107.54,57.29 -1.98,-93.62 16.2,-83.74 -43.11,-142.92 -48.4,50 -61.94,172.63 -96.04,259.66 -140.69,13.61 -152.09,13.92 -198.13,-98.22 -54.98,0.69 -106.31,19.57 -144.23,0 65.43,-70.33 90.98,-68.66 193.51,-72.13l44.32 76.68c35.56,44.96 -9.22,21.95 50.87,34.92 97.32,-108.59 -8.58,-131.83 -70.72,-198.9 -113.09,20.82 -34.33,74.95 -182.14,44.55 -31.35,-51.15 -47.61,-86.69 -31.71,-176.15 87.28,59.47 -4.98,32.84 92.7,73.41l75.11 -68.05 144.03 123.23c278.69,-143.39 191.25,3.85 331.02,5.32 -3.72,-123.05 -152.09,-143.54 -261.22,-125.34l93.37 -254.24zm-163.16 51.48c49.56,39.52 57.98,15.54 24.5,94.55 -83.61,-34.61 -87.33,-15.36 -24.5,-94.55zm503.14 -40.52c-14.23,109.41 13.58,102.28 -100.86,98.04 2.16,-92.9 14.33,-81.07 100.86,-98.04zm339.62 109.41c-72.9,32.3 -117.14,5.11 -153.53,-72.03 86.92,-1.8 104.36,3.7 153.53,72.03zm174.18 -36.05c-115.68,-16.15 -45.71,23.26 -76.6,-75.19 103.2,47.79 39.93,-31.71 76.6,75.19zm-474.94 61.24c12.56,-110.11 -7.09,-124.13 90.46,-160.57l-86.72 264.54c-91.36,-2.36 -89.82,4.83 -162.7,-31.22 54.87,-74.6 49.58,-55.93 158.95,-72.75zm-273.4 -172.12c35.1,-29.09 -10.71,-16.05 44.78,-21.85 106.51,-11.14 -17.77,-19.31 29.99,21.85 -30.02,22.03 9.86,61.09 -74.77,0zm-219.63 28.94c-36.8,-22.96 -0.64,-60.7 0,-61.63l17.28 31.02c24.37,103.71 13.66,-10.73 -17.28,30.61zm712.11 -99.37c78.32,0.15 26.71,4.96 48.69,56.83 -86.84,28.43 -40.65,26.04 -100.2,-10.91 2.8,-29.4 19.08,-45.99 51.51,-45.91zm-271.29 -19.87c50.23,73.85 13.04,43.11 0,62.5 -81.73,-61.45 -26.58,-35.15 0,-62.5zm97.45 -4.93c1.57,-57.9 4.8,-40.96 26.27,-70.56 71.62,63.43 32.51,52.36 -26.27,70.56zm490.32 -50.41c-77.03,-75.8 -2.21,-56.54 0,-60.37 3.95,5.98 13.46,12.76 14.59,15.82 0.82,2.34 5.34,13.07 6.01,15.41 25.55,90.46 16.02,-11.3 -20.59,29.14zm-293.89 -79.99c25.58,36.26 36.57,33.66 0,76.34 -69.72,-72.16 -9.6,-61.88 0,-76.34zm-91 -141.74c82.79,-70.02 50.35,-14.46 69.23,0 -21.85,14.61 6.55,62.27 -69.23,0zm294.43 -155.33l57.08 8.4c-66.53,70.2 -17.18,41.68 -57.08,-8.4zm-154.43 -427.59c24.57,28.94 39.6,21.34 0,65.71 -69.25,-67.69 -8.68,-55 0,-65.71zm-171.43 -282.85c37.05,79.24 49.64,39.75 -24.5,85.82 -11.73,-22.52 -22.85,1.13 -14.3,-48.71 11.86,-68.95 -8.19,-6.47 38.8,-37.1zm-185.24 743.31c-116.63,72.36 -30.33,-33.46 -95.7,86.3 -39.21,71.82 -16.77,69.56 -71.74,124.41 -207.22,206.81 -803.32,87.33 -1037.12,135.38 -4.8,304.85 -41.11,359.65 58.98,439.3 -35.28,103.48 -79.29,-44.19 -54.34,414.65 107.08,60.91 186.47,51.13 286.23,119.02 169.66,115.5 258.96,334.69 357.8,475.07 435.17,618.23 368.2,519.93 692.05,525.43 270.7,4.6 777.23,88.74 808.09,-72.16 17.69,-91.98 -214.62,-377.6 -335.28,-540.04 -88.18,-118.74 -317.64,-417.42 -352.05,-580.79 56.98,-61.88 142.67,-99.37 210.59,-158.59 527.69,-460.05 636.72,-1250.55 358.8,-1829.16 -146.8,-305.65 -412.03,-568.59 -751.47,-668.45 -275.19,-80.96 -1006.48,-147.24 -1263.6,-41.01 -59.27,145.24 -16.54,680.68 -17.2,885.82 280.48,17.77 662.29,-55.46 922.67,52.67 123.72,51.38 156.07,153.07 219.78,268.59 120.07,217.57 -10.14,187.94 63.5,363.55z"/>
   <path class="fil0" d="M10558.04 8923.93c29.27,73.26 24.6,17.02 -2.67,74.6 -32.97,-21.7 -34.15,44.89 -34.92,-30.97 -0.77,-75.06 19.41,-27.76 37.59,-43.63zm-392.34 -168.01c66.79,62.55 95.42,82.43 127.39,180.39 -135.94,-10.94 -143.87,-24.06 -127.39,-180.39zm-119.56 56.41c53.1,38.77 39.72,-2.67 20.82,61.19 -101.58,-70.28 -15.79,-16.23 -20.82,-61.19zm-568.36 -356.36c29.92,65.48 37.77,3.77 -3.54,70.97 -80.63,-76.03 1.87,-68.87 3.54,-70.97zm954.28 -21.08c11.58,-6.09 -29.43,-55.7 72.1,0 -35.46,33.25 19.26,14.94 -41.88,21.52 -107,11.5 15.43,16.67 -30.22,-21.52zm172.3 -7.29c-87.61,-30.69 -15.07,-42.37 0,-64.73 99.12,132.88 26.86,27.24 0,64.73zm-438.66 328.32l-101.79 -1.59c11.63,-135.89 74.65,-150.22 35.41,-305.24 -64.5,30.33 -26.17,-5.78 -60.7,54.46l-62.19 208.4c-145.31,-0.28 -157.23,-5.44 -198.31,-111.96 -93.01,13.87 -89.36,40.34 -144.62,6.32 69.31,-67.02 105.13,-54 188.22,-90.21 69.15,80.6 -5.98,58.19 72.41,135.58 165.44,-73.29 1.46,-163.26 -48.99,-208.3 -62.4,24.75 -77.57,82.81 -153.91,49.33 -67.43,-29.58 -65.56,-83.69 -56.29,-167.76l87.77 68.2c40.83,-34.2 48.84,-45.53 92.8,-70.54 79.47,48.04 84.53,83.33 152.09,130.65 193.23,-148.63 131.24,-48.02 319.64,-4.24 -48.97,-124.54 -141.44,-153.38 -273.22,-114.94 9.96,-69.07 65.4,-207.84 114.6,-254.39l18.49 152.09c54.95,-22.73 28.86,-14.38 104.1,-31.53 -32.77,198.54 25.37,56.29 112.19,185.65 -55.62,134.14 -39.85,73.44 -191.48,106.26 -49.46,174.82 -14.38,97.65 -6.21,263.74zm170.09 -467.98c57.08,-114.37 78.99,-21.13 139.54,-80.63 60.57,-59.57 -31.35,-72.34 80.04,-144.88 59.8,67.66 14.25,19.75 44.99,111.88 24.81,74.29 5.14,-19.46 38.72,92.39 -181.62,-9.01 -147.01,53.38 -181.13,54.82l-122.15 -33.59zm-396.65 -168.14c56.31,32.33 80.22,-2.11 28.45,90.8 -74.44,-37.44 -59.52,-24.75 -28.45,-90.8zm853.05 93.83c-109.8,-10.5 -113.39,-21.13 -152.55,-103.87 104.05,18.98 121.59,16.02 152.55,103.87zm-342.93 -131.16c-22.31,145.47 44.42,78.91 -99.84,98.42 24.6,-125.77 -8.99,-77.88 99.84,-98.42zm510.48 68.33c-100.74,-31.99 -38.77,18.13 -67.71,-66.46 85.05,26.91 42.55,-27.01 67.71,66.46zm-736.14 -79.53c68.05,-82.94 -61.37,-20.03 68.77,-67.61 -34.9,99.71 42.75,46.37 -68.77,67.61zm478.74 -81.63c77.42,-1.44 6.09,-12.15 50.43,39.31 -47.74,23.16 -45.94,23.52 -98.17,-10.4 34.25,-31.82 -57.01,-26.99 47.74,-28.91zm-269.44 29.68c-5.19,-4.08 -12.51,-11.81 -13.43,-14.61 -48.61,-143.31 -24.42,5.11 13.43,-46.86l10.68 47.35c0.26,-3.83 -7.34,9.24 -10.68,14.12zm119.25 -144.95c58.62,33.2 52.95,-17.23 34.05,74.03 -61.6,-36.23 -63.71,11.56 -34.05,-74.03zm485.78 -40.65c23.16,37.13 18.85,13.58 11.91,64.35 -30.56,-20.85 -71.59,16.02 -11.91,-64.35zm-328.06 -126.7c-100.86,-15.64 -39.6,20.93 -66.15,-68.69 82.17,32.87 46.71,-20.18 66.15,68.69zm224.32 -139.18c83.94,-56.72 -70.95,-28.22 55.77,-56.72 -17.79,74.31 25.63,27.94 -55.77,56.72zm-158.43 -474.94c25.55,31.84 30.25,27.48 -11.58,64.17l11.58 -64.17zm130.34 -29.48c71.92,-57.49 21.75,-30.81 59.37,0 -72.67,64.27 -23.7,33.1 -59.37,0zm-275.35 -251.62c-2.8,111.55 52.26,64.25 -73.75,83.69 27.27,-115.58 4.39,-58.83 73.75,-83.69zm-320.98 276.45c59.65,89.44 127.83,152.4 109.03,282.97 -99.66,691.46 -592.93,488.89 -1188.08,523.96 -0.64,208.99 -35.18,352.25 59.21,441.74 -73.82,144.59 -75.21,112.62 -55.26,416.35 90.18,55.26 184.42,60.65 283.82,130.86 235.88,166.52 250.46,341.42 354.44,478.1l350.64 457.43c103.15,108.93 170.55,49.12 331.71,51.41 171.04,2.47 673.08,50.61 785.93,-12.25 95.45,-116.04 -25.19,-202.16 -98.53,-299 -137.63,-181.62 -542.12,-723.35 -554.52,-914.89 280.17,-86.64 527.74,-444.46 627.57,-771.12 219.88,-719.3 -27.35,-1615.72 -803.44,-1844.18 -364.19,-107.18 -886.05,-128.24 -1280.85,-61.29l0.59 902.97c269.31,-12.94 571.11,-35.38 824.71,27.58 186.96,46.43 165.47,58.06 253.03,189.35z"/>
   <path class="fil0" d="M2336.17 9512.48c100.22,-99.07 60.24,-8.42 71.74,0 -11.07,4.93 37.05,62.58 -71.74,0zm-254.5 -70.79c28.07,51.66 38.54,2.31 0,66.84 -91.54,-75.08 -7.7,-58.78 0,-66.84zm146.57 -6.09c-40.52,-88.97 -40.65,-68.2 24.86,-115.76 12.45,21.13 36.49,-48.76 16.1,59.09 -16.07,84.84 -27.81,43.68 -40.96,56.67zm-404.17 -52.43c88.1,-59.68 -63.84,-30.2 53.03,-59.03 -17.51,68.36 18.69,25.6 -53.03,59.03zm972.74 -66.61c75.7,-53.28 27.17,-28.04 66.99,0 -36.41,32.61 14.48,14.74 -40.98,20.93 -92.6,10.32 16.64,20.03 -26.01,-20.93zm-641.65 -90.44c-13.71,76.98 15.38,35.95 -51.41,62.89 9.14,-78.88 -19.34,-41.88 51.41,-62.89zm482.18 -7.52l-482.18 7.52zm553.62 -35.82c69.56,-67.05 -75.16,-35.44 52.02,-66.66 -23.5,67.15 18.69,17.41 -52.02,66.66zm-543.09 -10.63l-9.24 -89.92c57.29,23.98 27.81,-31.15 47.38,34.87 35.08,118.17 19.41,0.41 -38.13,55.05zm815.62 -426.39c-31.69,88.26 -44.63,62.73 -117.66,28.25 8.91,-59.83 73.13,-49.05 117.66,-28.25zm-217.93 -89.57c46.45,97.68 -1.26,24.16 -20.47,56.16 -55.95,-38.9 -61.01,-12.79 -24.5,-81.07 56.75,14.1 17.28,-33.23 44.96,24.91zm73.03 -72.16c25.5,-22.13 -13.74,-73.59 78.96,-9.73 -20.41,12.56 -5.65,10.63 -45.37,17.72 -4.13,0.72 -25.81,-5.5 -33.59,-7.99zm162.26 -58.7c128.42,-74.52 41.24,-15.66 58.39,0l-42.09 9.12c-2.03,-5.98 -10.73,-6.34 -16.31,-9.12zm-360.21 -48.97l65.97 0c-5.98,4.65 -13.28,14.2 -16.79,15.46 -135.84,47.92 -8.04,18.44 -49.17,-15.46zm-138.02 -97.96c126.75,-103.25 59.88,-15.07 80.6,0 -18.62,13.17 43.4,106.33 -80.6,0zm-177.59 -241.45c-69.61,-47.38 -1.59,-24.14 0.44,-31.12 25.99,-5.98 -31.97,-42.73 29.3,1.39 59.73,43.01 2.54,22.24 0.98,28.5 -24.73,8.01 32.43,44.24 -30.71,1.23zm191.64 -76.93c-66.97,56.8 -24.91,36 -111.44,18.67 54.08,-68.43 45.89,-107.82 111.44,-18.67zm69.69 -73.49c149.78,-89.87 40.19,-21.72 68.36,0 -5.85,3.9 -13.22,12.22 -16.54,13.2 -137.58,40.78 -2.72,20.29 -51.82,-13.2zm-309.73 1.36c43.22,-64.02 -32.15,-34.1 62.19,-63.37 -37.54,81.86 31.99,36.93 -62.19,63.37zm-290.73 -38.49c-54.13,-75.08 -0.39,-104.74 51.25,-131.55 14.76,108.41 22.21,81.53 -51.25,131.55zm110.16 -85.3l34.25 -18.51c120.82,-27.53 -18.77,-18.26 33.97,18.51 -137.25,101.33 -42.91,17.56 -68.23,0zm-215.13 36.59c-81.81,-30.35 -43.7,11.48 -58.83,-54.95 73.49,17.51 27.06,-23.42 58.83,54.95zm345.91 -60.83c-42.86,-45.58 0.28,-76.78 0.9,-90.39l94.57 1.75 10.91 112.52c-76.7,0.74 -56.59,29.09 -106.38,-23.88zm136.2 -122.72c97.09,-54.36 62.53,-20.39 88.69,24.52 -13.33,10.07 28.61,50.92 -63.96,20.08 -31.2,-10.37 -21,-33.25 -24.73,-44.6zm-565.07 -13.3c-103.74,-17.95 -40.52,19.21 -68.28,-70.97 87.2,32.82 48.94,-22.83 68.28,70.97zm621.95 -153.81l40.6 -64.02 24.01 57.98 -2.49 32.3c46.09,88.8 25.93,40.44 23.42,91.21 -113.83,-7.96 -47.89,-4.47 -73.72,-29.84l-52.85 -16.87c22.37,-63.32 -12.38,-22.21 41.03,-70.77zm202.73 -93.65c9.4,13.4 78.96,12.61 -24.47,102.43 -0.36,-0.54 -80.66,-33.79 24.47,-102.43zm-335.05 48.79c-107.03,-8.37 -54.95,18.51 -72.52,-51.92 85.38,4.21 35,-21.03 72.52,51.92zm478.59 -13.28c-76.01,-51.69 -59.16,-38.62 3.39,-72.46 22.7,54.05 37.49,-1.46 -3.39,72.46zm-410.85 -119.35c63.17,31.15 44.83,18.51 80.53,86.66 -142.46,-12.4 -88.56,41.34 -80.53,-86.66zm291.81 -140.46c66.1,29.14 94.73,-0.23 24.5,90.03 -80.06,-30.38 -82.76,-9.63 -24.5,-90.03zm-366.45 -53.72c13.07,-83.61 -2.39,-51.61 76.7,-79.83 15.33,78.93 15.43,119.99 -76.7,79.83zm175.51 -146.96c5.14,-3.67 10.73,-12.58 13.28,-13.48 33,-11.71 42.21,10.04 47.45,13.48 -29.4,15.15 37.7,83.43 -60.73,0zm210 17.87c55.41,-40.42 126.18,-69.1 207.63,-17.87 -125.1,82.61 -6.39,-108.46 -175.74,114.14l-31.89 -96.27zm-60.32 -125.93l75.62 1.9c-10.91,9.86 32.61,117.27 -75.62,-1.9zm123.82 -43.09c30.12,-29.07 -41.19,-18.36 60.34,-43.81 -24.47,67.89 13.33,48.3 -60.34,43.81zm-145.11 -93.75c5.8,-3.54 12.76,-12.38 15.48,-13.33 103.92,-36.59 12.53,-13.28 38.95,13.33 -91.26,62.71 -26.68,14.15 -54.44,0zm-360.34 -220.4c8.94,-5.65 -30.35,-79.94 77.96,0 -34.59,30.4 -26.11,38.52 -77.96,0zm133.58 -220.42c48.53,-27.04 -4.34,-38.03 73.39,0 -42.09,36.39 16.02,15.95 -45.45,22.67 -89.13,9.78 4.55,9.01 -27.94,-22.67zm153.68 -73.47c94.75,-49.53 44.29,-8.4 63.48,0 -18.41,17.97 9.76,91.31 -63.48,0zm-914.22 1983.82c169.68,-25.04 52.26,15.3 193.25,25.7 90.41,6.68 128.52,-35.98 244.05,-29.74 301.69,16.25 491.51,342.83 280.51,578.58 -143.75,160.64 -476.54,119.63 -715.06,114.7 -4.52,306.03 -15.69,639.51 9.14,941.28 482.13,-9.19 895.94,27.94 1282.06,-186.73 216.9,-120.53 378.21,-267.1 482.29,-523.71 142.62,-351.69 79.29,-888.41 -215.95,-1112.66 -557.6,-423.48 -2.75,-136.4 102.43,-910.6 80.73,-594.27 -260.17,-985.22 -803.39,-1154.72 -306.57,-95.7 -554.03,-43.86 -629.27,-52.56 -105.92,-12.25 -109.95,-18.92 -228.46,-5.73l-0.77 921.18c342.29,36.36 357.77,-78.09 611.27,145.88 28.37,233.72 -51.84,360.14 -125.51,534.62 -44.96,-59.14 -22.78,-94.55 -97.04,-85.05 -106.51,13.58 -8.73,8.42 -74.39,108.23 -167.81,-99.76 -32.64,-35.28 -222.42,-60.63 -46.76,-6.24 -35,-9.83 -92.06,-10.81l-0.21 125.87c6.8,42.09 57.26,45.04 57.6,44.19 1.52,-4.34 10.07,2.23 14.46,4.8 -41.65,137.1 -70.56,69.31 -73.13,242.89l0.62 344.99z"/>
   <path class="fil0" d="M983.83 9463.48c36.82,-30.3 -13.46,-63.14 67.15,0 -4.6,3.26 -11.71,4.37 -13.58,10.07 -8.09,24.73 -52.18,-9.09 -53.56,-10.07zm-53.21 -116.78c50.18,71.74 21.39,35.08 0,78.4 -3.49,-4.57 -100.4,11.4 0,-78.4zm-253.24 -130.27c84.07,31.53 38.44,6.47 98.24,70 -103.35,41.44 -92.52,32.59 -98.24,-70zm451.65 2.16c88.28,-43.55 79.09,-24.06 102.35,63.84 -142.72,-28.25 -65.07,-23.24 -102.35,-63.84zm-264.51 -24.5c56.52,-24.21 66.02,-19.64 119.35,0l-0.1 87.61c-96.91,-26.65 -79.35,-21.72 -119.25,-87.61zm-570.65 -70.08c3.13,3.98 10.25,4.75 10.01,11.43 -0.15,5.93 4.55,11.02 4.19,12.79l-14.2 30.25c-12.92,-22.83 -64.35,51.92 0,-54.46zm416.32 -50.53c25.29,54 32.33,39.13 -24.47,68.74 -24.52,-56.88 -28.35,-38 24.47,-68.74zm-261.07 -75.29c2.95,-24.11 62.19,-109.31 30.71,-9.37 -13.66,43.32 -34.23,38.31 -30.71,9.37zm-81.78 -105.97c39.34,64.71 39.36,21.36 0,78.06l-21.65 -28.94c5.65,-57.62 -14.43,-14.46 21.65,-49.12zm489.79 -1c17.02,20.77 106.54,-82.02 0,58.14 -22.57,-40.98 -45.84,-15.89 0,-58.14zm-179.46 63.91c-10.66,-0.51 -119.15,-34.59 -56.72,-141.79 33.79,-58.06 0.03,-6.24 52.92,-43.78l3.8 185.58zm-200.44 -138.97c84.74,38.18 84.84,-6.14 45.32,88.85 -51.36,-34.05 -18.9,19.21 -42.32,-36.85 -23.08,-55.31 1.28,16.36 -3,-52zm480.52 -14.46c15.23,69.66 7.09,43.37 -46.07,23.21 0.62,-1 -7.22,-41.57 46.07,-23.21zm-565.9 -56.7c23.6,39.39 17.38,29.81 0,67.69 -40.19,-46.89 -56.08,89.36 -22.29,-33.46 30.87,-112.21 -77.37,23.21 22.29,-34.23zm383.12 8.27c-1.93,-40.91 50.41,-20.98 41.86,6.8 -0.05,0.15 -3,4.37 -3.39,4.42 -101.53,18.8 -34.87,65.84 -38.47,-11.22zm-349.99 -109.95c107.39,39.01 92.49,17.2 126.59,116.58 -154.92,-37.05 -74.24,-4.39 -126.59,-116.58zm129.06 -37c2.03,-47.22 53.49,-32.23 41.44,1.36 -8.35,23.32 -45.53,94.42 -41.44,-1.36zm-235.65 -65.86c0.56,0.67 30.69,-16.72 25.27,43.81 -5.08,56.7 -2.7,21.49 -25.27,49.61 -34.51,-49.56 -72.39,-26.65 0,-93.42zm367.35 173.46c-1.75,-2.21 -83.35,16.07 -17.44,-120.43 29.61,-61.32 38.75,-46.76 88.87,-57.83 -40.7,179.9 -7.96,143.39 -71.44,178.26zm-109.7 -264c14.3,4.93 73.64,7.06 53.95,54.1 -20.67,49.46 -6.29,20.08 -72.21,31.02l18.26 -85.12zm-207.25 38.65c-72.54,-0.15 -78.55,11.02 -147.6,-29.45l10.3 -64.22c97.71,0.41 109.93,19.9 137.3,93.67zm138.51 -225.09c32.77,-19.31 4.62,-14.84 52.61,-18.44 123.95,-9.37 -27.58,-20.65 35.08,18.44 -45.01,39.98 19.05,18.75 -52.69,26.5 -135.5,14.66 23.73,25.88 -35,-26.5zm798.72 -48.99c7.14,-94.16 16.9,-48.89 63.71,-24.47 -29.02,40.08 0,52.56 -63.71,24.47zm-241.07 -171.4c68.84,-41.78 61.09,-27.66 105.9,0 -35.13,77.86 -56.7,88.1 -105.9,0zm-599.64 65.51c-66.58,-65.66 -26.83,-133.24 39.96,-202.4 40.47,76.19 34.38,143.16 -39.96,202.4zm725.25 -182.8c-44.29,56.16 8.27,60.16 -80.73,15.56 17.38,-87.25 66.61,-25.81 80.73,-15.56zm-816.67 -5.19c-1.18,-28.66 16.61,-5.55 26.11,-2.98 67.1,18.1 -21.6,111.62 -26.11,2.98zm39.52 -122.43c20.59,-10.84 -17.18,-20.93 69.1,-16.2 58.34,3.21 -0.28,-3.54 47.22,18.69 -68.48,64.84 -51.79,49.07 -116.32,-2.49zm573.03 135.91l45.96 59.98 -100.86 49.02 84.17 43.09c3.08,-5.34 12.2,6.96 17.92,11.02 -20.26,136.86 -18.33,20.88 -55.31,83.45 -16.72,28.32 -2.88,43.37 -6.47,92.9l-51.46 -102.97c-9.32,-34.56 -10.71,-61.35 -14.38,-78.01 -3.83,-4.96 -8.47,-11.91 -10.32,-15.64l-41.21 -105.59c-19.41,-67.43 -8.32,-41.47 5.01,-124.21l-63.01 -63.81c-52.2,-79.65 22.24,-79.63 -184.22,-189.33 -94.55,47.12 -28.89,20.08 -89.13,67.71 -112.6,89 -68.36,22.01 -84.87,13.99 53.49,-56.65 61.04,-25.93 110.47,-62.71 45.24,-33.61 42.99,-64.38 55.57,-121l68.28 48.4c4.55,1.39 10.86,3.7 15.51,4.21 22.83,2.54 51.23,-13.71 92.52,-29.22 -36.67,147.91 -11.97,163.93 124.87,139.28 -11.04,77.27 -28.66,98.53 -52.72,145.77l166.32 21.72c-109.95,82.04 -62.35,-1.08 -121.74,85.07l89.1 26.83zm-707.51 -358.26c-19.31,-40.44 39.06,-50.12 50.87,-54.39l24.81 83.58c-77.47,-9.81 -47.45,29.81 -75.67,-29.2zm480.26 -241.63c35.67,77.06 23.57,23.44 0,77.83 -34.51,-23.24 -37.59,17.33 -34.1,-45.35 4.26,-75.6 12.4,-16.36 34.1,-32.48zm-317.9 -1.36c30.56,-23.11 -0.46,-14.35 40.65,-18.62l22.98 18.62c-92.65,71.33 -54.77,6.06 -63.63,0zm120.66 -97.04c79.29,20.8 53.56,-11.32 65.86,67.02 -97.27,-8.29 -54.31,9.32 -65.86,-67.02zm-258.09 30.99c-0.05,-3.65 -6.75,9.5 -9.99,14.35 -35.67,-30.35 -15.02,9.76 -20.18,-44.01 -0.26,-2.95 7.65,-7.93 7.73,-16.15 0.1,-9.55 8.4,-10.99 12.45,-16.61 13.4,23.68 13.22,8.11 16.2,47.61 0.21,2.67 -6.14,18.15 -6.21,14.82zm291.06 -129.85c48.33,-72.69 189.97,-68.28 280.43,-42.21 -34.9,82.35 -46.2,56.03 -127.03,52.1 -147.16,-7.22 -74.75,58.19 -153.4,-9.89zm-250.62 2.05c-111.88,-2.64 -37.72,24.42 -63.3,-60.68 81.63,38.88 31.35,-37.54 63.3,60.68zm145.47 -54.72c-0.95,-1.16 -105.15,-28.66 24.5,-143.08 1.23,1.41 58.06,-5.83 30.4,94.08 -19.87,71.72 13.64,14.35 -54.9,48.99zm-260.22 -143.26c85.61,-66.58 30.33,-30.61 64.68,-5.47 -21,15.1 7.47,54.57 -64.68,5.47zm454.38 -95.24c-3.75,122.84 32.46,42.24 -62.94,86.74 22.47,-93.73 -7.91,-55.72 62.94,-86.74zm-323.34 76.88c50.3,-53.23 -58.16,-12.89 65.89,-64.89 -30.92,71.21 12.69,42.7 -65.89,64.89zm425.05 -79.6c40.19,-32.56 -17.31,-14.33 43.73,-20.21 109.31,-10.55 -15.46,-15 31.99,20.21 -98.12,73.8 -72.28,2.77 -75.72,0zm203.81 -103.48c-27.89,73.23 16.23,39.7 -42.65,48.84 -40.16,-33.51 -38.34,51.25 -35.2,-61.6 131.78,-26.63 52.46,-1.72 77.86,12.76zm-450.68 133.42c-15.25,-20.7 -47.5,64.32 -27.48,-75.55 5.5,-38.39 18.54,-42.14 43.55,-61.63 141.87,-110.75 132.94,-15.25 132.99,-15.23 -188.71,117.04 -52.13,39.42 -149.06,152.4zm-72.59 -184.04c-23.57,-25.45 -16.23,-25.78 -0.87,-60.19 8.68,10.43 61.94,-17.15 0.87,60.19zm-270.29 -57.29c-0.18,-0.05 -92.16,53.98 0,-60.63 22.67,49.46 26.68,9.17 0,60.63zm103.28 -102.84c96.14,30.02 46.3,6.29 73.05,68.54 -104.33,-3.24 -65.27,38.52 -73.05,-68.54zm237.93 -10.48c-114.06,-40.39 -47.74,-1.21 -75.21,-67.17 91.7,-36.51 80.04,-28.25 75.21,67.17zm394.83 2170.24c-35.08,-23.01 -74.31,-43.47 -138.17,-60.37 45.96,-47.02 -14.17,-74.08 113.19,-18.51l48.04 25.78c136.53,-5.16 33.15,4.55 87.95,-29.12l-13.17 -293.91c87.97,-48.63 77.06,-13.94 139.07,-99.3 101.92,49.28 12.79,-14.12 55.7,70.36l166.75 -6.73 2.49 -405.15c-3.75,-2.13 -10.53,-2.34 -12.63,-2.77 -258.48,-54.31 91.88,70.64 -95.6,-21.72 31.02,-59.88 -13.2,-19.16 80.32,-45.42l22.93 -292.19c-233.9,19.28 -191.1,92 -268.9,100.04 -92.16,9.55 -65.76,-30.63 -68.48,-34.79l119.99 -70.49c-74.83,-90.75 -134.94,-17.1 -151.27,-367.53 -9.83,-211.36 15.12,-247.02 213.33,-267.26l14.76 -62.94c-47.17,-24.34 -92.06,-53.77 -122.9,-108.64 114.88,2.31 121.18,-2 161.77,77.42 28.45,31.38 29.43,-48.61 25.76,59.27l78.32 -15.92 -4.13 -873.88c-235.67,-12.71 -488.19,-6.21 -725.82,-7.75 -304.49,-1.93 -434.86,-22.13 -632.56,92.95l17.85 468.68c-91.05,364.94 -8.55,229.02 9.42,428.03 8.4,92.8 -18.95,21.62 -42.96,120.02 -25.45,104.38 -17.67,1353.68 61.63,1559.61 -78.34,100.89 -73.31,102.15 -62.19,273.78 24.27,374.39 -67.15,796.46 105.97,997.52l1275.46 -1.72 -6.86 -915.63c-141.2,23.37 -181.75,-7.88 -325.78,-20.34l-30.84 -209.69 -98.45 -41.68z"/>
   <path class="fil0" d="M8691.88 8754.69c7.09,-76.6 -32.51,-117.73 66.48,-50.38 -28.99,52.92 6.93,28.5 -66.48,50.38zm-150.76 -228.25c-79.55,-14.66 -17.49,24.98 -57.88,-59.65 89.26,48.07 47.15,-22.42 57.88,59.65zm162.34 -12.04c-85.05,-46.22 -75.31,-20.9 -33.46,-100.92 59.86,44.29 54.9,2.29 33.46,100.92zm257.86 -30.09c-75.55,-93.93 -82.5,-126.9 65.76,-156.07 -11.89,39.34 -15.97,61.81 -26.96,90.31 -35.26,91.47 -4.37,23.8 -38.8,65.76zm-80.99 -216.39c-62.89,55.23 -85.84,67.58 -109.59,-28.94 85.74,-36.82 67.1,-23.29 109.59,28.94zm-22.44 -72.8c4.85,-6.52 10.86,-40.96 13.43,-45.12 23.6,-38.44 8.32,-8.17 44.73,-15.95 -34.9,72.72 21.85,26.96 -58.16,61.06zm-284.75 -78.58c9.27,-6.57 -52.31,-65.07 77.73,-11.86 -18.87,16.92 42.6,89.18 -77.73,11.86zm169.94 -64.2c56.72,30.15 36.44,-18.82 41.16,40.88 5.5,69.2 -31.3,43.09 -41.16,49.58 -58.78,-102.58 -11.91,-75.31 0,-90.46zm89.41 -63.58c-103.61,8.99 -41.37,17.85 -68.87,-56.21 99.02,23.44 48.35,-22.31 68.87,56.21zm-432.27 -132.06c77.57,41.24 67.02,-5.65 43.14,107.77 -54.05,-26.22 -79.19,-40.03 -43.14,-107.77zm150.78 -55.29c67.87,23.86 45.63,6.65 69.51,73.39 -97.73,-13.22 -62.53,23.62 -69.51,-73.39zm45.12 -62.22c-75.78,-42.63 -21.26,-28.79 0,-59.24 109.85,138.25 19.98,33.02 0,59.24zm-171.43 -276.91c-76.65,-28.01 11.22,82.09 -18.67,-29.94l18.67 -28.19c23.42,48.84 29.22,7.99 0,58.14zm-143.57 -124.69c79.99,25.4 46.12,5.73 65.68,64.3 -97.09,-1.1 -60.27,28.68 -65.68,-64.3zm175.59 -4.78c89.95,-50.2 53.85,-30.76 82.25,24.5 -51.79,28.58 -40.8,19.85 -82.25,-24.5zm305.62 -97.94c4.26,-3.7 -45.99,-121.92 72.77,0 -66.94,39.67 -25.42,21.8 -72.77,0zm-319.39 24.21c25.06,-86.92 -0.41,-55.9 79.58,-71.82 -29.84,74.18 -7.73,48.4 -79.58,71.82zm202.16 -130.14c-103.28,-24.96 -11.97,-46.35 0,-61.17 58.75,113.42 21.85,12.3 0,61.17zm62.81 -114.5c-33.38,17.28 -51.46,17.9 -81.71,-0.82 -86.66,-53.74 -34.54,-19.54 -63.63,-89.62 109.16,20.08 107.77,16.84 145.34,90.44zm56.36 -99.53c-99.04,-31.71 -145.34,-63.22 -180.21,-120.89 30.99,-16.43 11.2,-25.76 77.11,-18.57 136.84,14.97 104.3,118.84 103.1,139.46zm-233.67 -296.12c89.36,-67.17 -60.6,-27.37 59.16,-67.48 -21.54,68.69 13.22,29.81 -59.16,67.48zm41.01 -274.94c-58.24,-100.81 -17.72,-16.74 0,-53.49 61.04,99.63 17.79,36.46 0,53.49zm348.3 1576.72c93.26,-106.31 96.11,-1.36 71.74,-173.22 -21.52,-151.63 21.95,-592.47 32.59,-767.88 17.26,-283.49 21.03,-752.34 0.23,-1033.14 -186.68,-38.77 -847.17,-46.09 -992.13,39.52 -86.87,151.86 -34.13,288.21 -50.41,465.29l-10.22 784.96c3.83,98.81 29.3,132.99 25.96,214.41 -16.82,406.95 -94.8,2264.74 35.18,2384.09 109.95,52.13 807.5,80.48 894.37,13.51 153.99,-103.59 33.07,-527.17 85.2,-870.16 37.85,-249.13 16.02,-659.06 16.31,-934.89 -3.44,-130.5 5.01,-39.34 -108.82,-122.48z"/>
   <path class="fil0" d="M14160.89 9514.28c-81.43,-25.5 -30.17,17.62 -64.25,-66.22 80.99,42.55 33.02,-29.58 64.25,66.22zm4.26 -809.97c94.47,-76.26 57.98,-6.52 67.48,0 -29.53,23.68 2.05,74.11 -67.48,0zm-159.56 -223.55c32.77,29.81 34.74,-36.59 25.63,38.16l-57.88 -0.1c-16.77,-65.89 22.88,-38.65 32.25,-38.06zm112.06 -19.34c0.59,-41.11 29.43,-36.13 70.82,-47.09l-7.45 92.83c-44.71,-12.07 -64.14,9.06 -63.37,-45.73zm170.61 -157.72c-75.44,-13.43 -45.73,-32.82 -52.31,-40.24 0.92,-5.26 54.69,-105.87 119.99,24.47 -18.44,8.4 34.95,34.02 -67.69,15.77zm161.08 -98.01c3.8,5.91 13.69,12.3 14.48,15.33 28.94,108.31 32.71,-5.67 -27.5,46.09l13.02 -61.42zm-117.4 -40.19c37.05,-26.32 23.88,-24.86 60.19,0 -29.71,16.33 32.48,81.07 -60.19,0zm-103 -109.54c39.21,32.53 38.72,-36.28 38.77,54.98 0.05,60.68 -5.57,18.31 -38,48.38 -22.96,-26.68 -15.69,40.73 -23.5,-46.76 -5.73,-64.14 9.01,-33.97 22.73,-56.59zm86.12 -54.03c-103.12,-21.9 -39.16,25.86 -67.53,-66.3 91.8,42.93 30.07,-29.53 67.53,66.3zm-428.98 -142.51c78.58,53.13 79.01,36.26 4.47,101.94 -10.25,-22.11 -15.43,-34.18 -16.82,-48.3 -4.52,-45.4 4.6,-33.43 12.35,-53.64zm171.43 -58.78c73.44,132.22 12.3,57.24 0,80.91 -53.18,-39.34 -38.13,12.89 -34.33,-48.27 4.26,-68.41 16.77,-18.85 34.33,-32.64zm7.93 -124.39l33.97 0.82c30.81,37.67 35.82,-57.03 25.14,66.69 -52.56,14.48 -33.46,17.36 -86.43,0.56 -8.68,-119.04 -4.96,-35.8 27.32,-68.07zm-135.14 -208.97c-84.84,-34.31 -39.62,17.15 -68.15,-60.42 83.81,19.16 34.95,-28.73 68.15,60.42zm-108.26 -63.22c-88.23,-17.74 -36.26,24.16 -65.61,-68.3 73.44,35.46 43.17,-14.02 65.61,68.3zm115.29 -81.14l70.05 9.89c-55.93,56.08 37.44,13.99 -41.62,23.47 -106.44,12.76 5.93,10.07 -28.43,-33.36zm302.64 -88.05c47.63,-57.21 8.91,-76.37 77.65,0 -53.08,33.18 -18.92,38.06 -77.65,0zm-321.41 30.4c26.01,-80.76 2.8,-59.83 82.14,-72.18 -36.95,113.7 4.11,40.06 -82.14,72.18zm120.71 -318.51c116.71,-30.63 112.93,-12.56 143.95,90.36l-143.95 -90.36zm17.85 -152.73c43.68,-29.07 -63.66,-33.2 67.66,-22.24 80.91,6.75 114.37,63.78 118.35,138.53 -67.56,-5.78 -150.58,-59.21 -186.01,-116.3zm16.1 -252.11c-25.5,93.73 24.7,48.76 -56.03,72.54 17.28,-90.52 -18.18,-29.81 56.03,-72.54zm333.12 1908.89c-10.91,-99.12 18.18,-92.72 89.41,-138.38l1.59 -318.38c-5.01,-4.24 -13.15,-8.09 -16.92,-10.07 -3.7,-1.95 -12.33,-7.24 -16.74,-9.48l-74.62 -29.43c42.91,-148.96 81.84,7.65 86.05,-169.91 2.23,-92.85 -15.07,-155.3 -4.72,-270.9 34.56,-386.92 44.94,-1201.3 23.21,-1565.34 -325.19,-33.56 -686.15,-17.49 -990.25,34.38 -48.99,148.45 -52.18,145.9 -35.56,338.03 9.32,107.75 -16.41,246.25 -13.35,384.61 5.8,261.94 27.4,551.98 14.56,808.32 -7.52,149.58 -4.16,267.44 2.95,416.4 7.58,159.1 -16.51,246.25 -20.88,390.82 -7.73,255.93 -6.09,552.47 0.23,809.14 4.83,197.05 -63.12,661.68 90.08,733.78 40.93,19.28 703.84,29.68 787.37,23.86 164.24,-11.53 137.87,-114.55 146.21,-266.95l20.23 -1200.89c-135.73,-20.34 115.17,69.07 -88.85,40.39z"/>
   <path class="fil0" d="M12522.99 9431.93c-22.26,86.51 13.48,36.44 -65.15,64.99 28.84,-90.44 -39.85,-43.09 65.15,-64.99zm-34.23 -111.44c17.38,-115.17 -3.88,-96.16 103.97,-116.66 -26.81,82.56 -11.07,77.03 -103.97,116.66zm131.14 -281.95c-4.8,37.31 12.92,143.62 -61.91,68.43 -50.74,-51 32.17,-59.93 61.91,-68.43zm-90.13 -244.28c-5.8,-4.8 -10.22,-15.74 -10.81,-19.87 -5.88,-43.5 10.66,-45.14 20.13,-58.16 62.35,54.67 66.99,55.36 -9.32,78.04zm-330.61 -246.54c2.41,15.74 -34.07,50.46 -27.96,9.63 13.38,-89.85 24.24,-33.69 27.96,-9.63zm119.51 -20.62c-82.43,-93.26 -11.43,-35.72 0,-55.34 13.12,23.62 89.62,-39.85 0,55.34zm63.73 -435.07c82.4,-56.49 78.4,-20.05 107,0 -96.78,91.88 -98.63,5.93 -107,0zm189.04 -48.97c-3.54,-25.93 17.41,-35.15 32.56,6.96 30.3,84.17 -29.22,17.59 -32.56,-6.96zm-397.32 -49.02c33.12,-20.13 -3.65,-11.97 43.63,-15.64 2.52,-0.18 12.76,11.22 14.64,6.01 2.11,-5.78 9.73,6.52 14.66,9.63 -31.92,26.14 4.29,16.23 -45.35,21.44 -114.32,11.97 26.09,28.37 -27.58,-21.44zm228.59 -87.1c10.4,2.9 25.93,27.96 29.27,32.33 -67.64,44.71 -43.88,67.33 -86.46,-18.69 29.53,-20.11 -42.19,-41.26 57.19,-13.64zm-343.86 -10.84c58.52,-31.66 16.59,-23.5 54.95,3.21 -65.58,56.08 -20.9,30.63 -54.95,-3.21zm500.72 -52.31c12.17,117.99 40.78,-46.43 -20.49,29.84 -61.7,-46.66 -15.25,17.51 -21.95,-44.32 -8.01,-73.75 -8.29,3.98 21.95,-27.48 22.16,26.78 15.46,-6.65 20.49,41.96zm-314.38 -48.2c27.14,60.99 26.91,14.56 -0.41,70.26 -97.68,-68.05 -11.71,-57.83 0.41,-70.26zm165.34 -35.31c47.56,108.21 6.62,10.66 -18.39,54.75 -66.02,-37.52 -66.04,-9.22 -24.47,-85.02 47.22,20 20.59,-20.41 42.86,30.27zm-361.24 -3.42c-55.03,-55.21 -14.92,-40.88 0,-64.81l21.29 33c34.92,127.29 20.8,-19.18 -21.29,31.82zm512.05 -58.01c24.83,112.01 22.44,-23.73 -22.26,35.13 -16.9,-21.72 -38.7,-32.05 -8.99,-83.17 56.11,53.41 15.15,-24.7 31.25,48.04zm152.91 -46.32c4.57,108.62 10.37,6.6 -35.59,51.69 -31.12,-71.36 -32.1,-36.8 7.37,-97.24 24.39,25.24 24.32,-46.91 28.22,45.55zm-664.96 -117.3c83.51,107.87 0.46,81.17 -9.71,90.77 -59.8,-85.82 -9.65,-68.2 9.71,-90.77zm110.34 38.18c21.11,-124.39 -6.03,-64.12 61.09,-99.3 44.17,73.26 10.78,136.38 -48.99,200.8l-12.09 -101.51zm273.01 -8.65c65.89,-65.92 -25.14,-15.02 52.61,-34.59 121.07,-30.4 -7.88,-12.3 32.02,23.03 -54.98,28.76 -4.44,28.35 -84.64,11.56zm-314.35 -269.36c43.22,35.54 26.86,-28.55 38.13,72.28 -30.38,16.15 57.9,47.4 -76.14,11.35 6.01,-93.67 -18.64,-33.02 38,-83.63zm322.85 -105.43c58.16,85.35 28.37,50.89 0,85.74 -93.83,-39.21 -42.47,-56.85 0,-85.74zm141.9 -70.69c48.71,34.9 7.19,-3.21 41.19,42.11 -18.69,11.5 36.59,43.24 -83.2,27.32 -56,-7.42 -74.72,-48.74 -93.01,-145.9 71.13,19.67 29.48,11.63 86.87,48.4 11.91,7.63 44.83,25.68 48.15,28.07zm189.3 -116.94l21.75 95.78c-144.13,23.98 -186.55,-1.59 -218.19,-133.76 114.63,38 27.84,34.72 115.24,51.15 108.7,20.44 -0.51,5.78 81.19,-13.17zm-667.86 141.46c4.65,-2.8 12.12,-6.32 17.18,-9.35l72.77 -49.76c4.78,-2.93 10.48,-7.24 15.51,-9.99l178.69 -92.75c-23.14,103.82 -37.98,73 -42.83,207.02l-109.88 -55.85 -64.2 91.52c-49.3,-17.26 -64.09,-30.2 -101.09,-58.37l33.84 -22.47zm10.4 -129.37c-34.33,49.4 -6.01,96.99 -81.55,3.62 65.07,-68.33 80.96,-3.88 81.55,-3.62zm79.29 -42.68c33.36,-33.69 -48.33,-48.92 49.48,-50.89 81.07,-1.64 8.96,-10.3 39.29,44.58 -32.66,16.67 -43.73,27.45 -88.77,6.32zm321.93 12.3c2.93,-4.8 9.32,15.43 13.61,23.39 -6.91,-4.34 -33.56,-25.83 -40.37,-30.04l-56.34 -28.84c-64.76,-30.89 -88.77,38.57 -60.27,-96.88 83.3,13.99 38.54,-2.93 92.31,62.99l51.05 69.38zm169.63 -66.97c-103.17,11.5 -38.31,24.14 -50.18,-63.09l50.18 63.09zm-122.15 -217.6c79.68,32.92 105.61,15.89 -11.09,74.36l11.09 -74.36zm-24.5 -21.13c-90.85,-68.69 -1.13,-59.8 0,-61.47 72.39,114.86 14.64,42.21 0,61.47zm127.34 -121.46c27.19,-24.93 -45.89,-32.43 62.04,-24.37l11.04 140.2 -71.28 -12.4c-3.72,-7.91 -10.96,-8.94 -16.72,-13.02 -72.57,-55.03 -17.74,21.36 -53.08,-82.94l68 -7.47zm-364.45 238.14c-43.4,65.43 -35.44,34.05 -130.88,54.98 -48.35,85.64 6.62,38.11 -70.26,65.99 1.85,-82.97 -7.47,-150.68 72.44,-153.91l42.65 -5.16c51.25,-91.83 106.87,-47.22 184.7,-101.87 116.19,-81.61 -11.22,-138.3 130.65,-147.11 -31.17,97.09 -85.94,182.16 -87.79,280.77 -215.49,-30.22 -109.59,-17.28 -141.51,6.32zm499.29 -417.37c-90.46,86.15 -127.16,-11.61 -157.61,-70.72 73.39,8.63 113.09,21.62 157.61,70.72zm-516.62 -109.06c-80.27,-10.48 -16.79,19.93 -57.31,-55.95 85.05,43.37 50,-28.94 57.31,55.95zm599.41 1072.68l-44.04 2.52 -52.82 -13.53 11.09 -44.68 -17.46 -18.28 -108.11 15.23 31.46 96.6 116.4 14.66c-36.13,91.88 -68.12,49.87 -114.68,17.87l-83.74 -40.03 10.22 -120.17c128.75,-70.31 71.39,38.9 187.73,-78.34 117.25,-118.2 37.88,-394.52 56.54,-672.97 45.6,-680.42 -132.19,-557.68 -410.18,-548.15 -474.17,16.23 -604.62,-160.36 -619.59,352.07 -9.24,315.51 -28.76,658.77 39.13,957.33l107.51 -43.29c18.8,100.32 -7.58,71.8 -8.45,76.47 -26.96,144.39 56.95,20.72 -30.25,161.31 -68.71,110.8 -97.96,126.57 -99.45,291.96 -4.7,524.55 -46.32,1203.54 5.96,1702.54 20.77,198.24 -84.66,125.82 88.92,427.88 678.67,-55.34 942.21,162.21 928.5,-365.55l5.29 -2171.42z"/>
   <path class="fil0" d="M17934.4 9495.48c60.45,-45.94 -46.97,-22.8 62.89,-54.03 -21.26,63.4 21.7,28.73 -62.89,54.03zm139.54 -452.63c7.75,16.33 10.37,15.43 17.36,50.95 0.9,4.62 -2.21,28.99 -3.34,37.08 -92.88,-40.03 -110.03,-35.82 -14.02,-88.02zm-80.35 -289.57c109.93,-55.75 61.63,-2.29 65.17,0 -39.29,27.86 -28.14,27.71 -65.17,0zm142.8 -10.09c58.44,-62.55 -79.06,-29.25 58.14,-65.25 -30.56,76.03 35.92,14.84 -58.14,65.25zm-362.73 -234.83c5.7,-4.24 11.79,-14.35 14.64,-15.51 131.86,-53.64 5.24,-18.39 43.24,25.19l-57.88 -9.68zm-18.1 -362.91c23.93,19.41 27.14,-44.19 34.18,56.9 -64.91,-0.21 -57.31,-3.67 -34.18,-56.9zm116.17 -53.41c2.36,-1.9 -18.23,-100.2 93.96,5.98 -102.25,65.17 -79.76,3.44 -93.96,-5.98zm238.94 -12.02c-115.32,-18.23 -47.35,14.74 -60.57,-55.18 76.08,25.73 19.03,-33.54 60.57,55.18zm-116.84 -45.27c-100.61,-32.23 -50.1,8.14 -56.44,-55.95 58.85,20.29 21.06,-12.63 56.44,55.95zm-336.08 -40.7c79.19,-39.44 38.93,-18.64 69.66,0 -33.74,31.99 12.51,16.15 -42.04,22.44 -124.54,14.41 29.3,31.99 -27.63,-22.44zm187.76 -44.24c-50.69,-44.99 -9.65,-4.55 -20.05,-62.81 155.4,33.2 62.55,65.33 61.78,68.43 -10.25,1.72 23.32,52.02 -41.73,-5.62zm-308.88 -53.69l59.93 0c-107.36,84.66 -44.94,15.15 -59.93,0zm449.52 -48.99c108.39,-59.91 37.18,-18.8 62.37,10.86l-62.37 -10.86zm-277.48 14.97c-75.75,-52.18 -5.52,-62.5 -2.08,-68.92 4.01,4.78 112.11,-39.8 2.08,68.92zm196.21 -52.36c-125.54,-9.04 -52.31,15.15 -77.34,-70.61 129.6,20.98 46.3,-36.57 77.34,70.61zm-343.52 -56.98c-105.38,-5.19 -36.64,23.83 -61.63,-64.5 82.38,41.88 36.67,-27.71 61.63,64.5zm494.25 -80.32l-1.41 60.01 -50.77 1.49c-27.86,-39.85 -47.09,69.28 -22.98,-75.6 103.69,-15.66 53.05,1.54 75.16,14.1zm116.3 -66.89c89.92,116.78 7.19,86.59 0,95.24 -31.48,-33.46 -18.51,35.08 -26.86,-50 -9.19,-93.62 5.65,-22.49 26.86,-45.24zm-621.57 -70.36c19.52,141.44 10.19,52.9 -15.2,86.87 -117.71,-121.23 8.17,-79.29 15.2,-86.87zm356.13 -6.42c65.66,-25.88 56.52,-30.02 95.91,24.47 -18.1,9.01 18.69,36.33 -62.78,12.84 -61.47,-17.77 -11.58,-6.14 -33.12,-37.31zm-190.51 -0.85c-1.98,62.47 1.85,8.14 -33.87,37.93 -33.72,-39.26 -15.59,-1.31 -19.93,-55.05 -9.01,-112.19 -11.99,10.81 19.93,-32.87 13.58,12.48 36.18,-23.16 33.87,50zm123.56 -43.27c-0.08,-3.42 -7.09,8.63 -10.5,13.04 -109.29,-107.67 -1.72,-76.34 0,-78.88 31.97,60.45 10.5,65.92 10.5,65.84zm-203.32 -176.67c-19.05,113.96 16.05,47.48 -52.05,70.31 -46.86,-74.03 -4.11,-59.7 52.05,-70.31zm658.16 30.25c-83.04,-30.76 10.53,75.93 -20.08,-29.48l20.08 29.48zm-348.04 -89.82c-16.95,58.32 -3.18,12.76 -43.83,26.45 -65.43,-84.43 1.28,-75.6 33.25,-77.91 11.71,27.5 26.63,-3.83 10.58,51.46zm-386.07 -87c71.21,-68.56 252.34,-206.68 251.18,18.82 -44.17,-24.27 -43.32,-29.76 -104.84,-39.06 -49.12,66.76 -12.12,42.75 -73.47,88.44l-72.87 -68.2zm543.09 0c-43.78,29.12 -64.55,61.32 -131.96,5.57 -33.36,-27.6 -40.83,-86.15 -48.04,-131.52l141.15 87.36c33.95,25.65 18.26,13.94 38.85,38.59zm-234.75 -181.08c-27.53,116.6 23.11,49.92 -66.99,88.74 14.51,-122.72 -44.71,-44.22 66.99,-88.74zm-322.67 71.77c-48.15,-5.42 -20.26,-18.95 -34.33,-41.93 97.22,-73.31 85.71,4.16 86,4.29 -36.75,55.29 32.66,47.09 -51.66,37.64zm718.06 52.36c-147.08,14.43 -172.17,-23.34 -210.64,-138.69 129.21,16.23 57.01,79.53 190.2,30.89 15.2,77.6 15.61,37.8 20.44,107.8zm-288.01 -96.09c-87.41,-43.5 -15.25,-40.57 0,-58.78 76.85,123.41 19.9,20.41 0,58.78zm-264.41 -27.63c-76.39,-13.3 -13.15,-1.64 -33.69,-39.75 76.52,-44.76 47.74,-46.45 82.66,24.47 -47.3,25.78 42.57,31.2 -48.97,15.28zm215.7 -41.21c-99.53,-6.73 -78.75,21.18 -87.61,-72 86.59,-31.12 79.76,-7.45 87.61,72zm-294.14 -188.09c14.64,20.11 87.38,-47.53 20.23,104.3l-68.46 65.86c-4.39,-5.6 -16.28,9.04 -24.5,13.38l72.72 -183.55zm401.63 -50c66.02,14.2 46.4,-0.95 56.29,60.7 -89.44,-1.16 -57.85,21.18 -56.29,-60.7zm-529.05 -29.86c0.1,-3.42 25.78,-47.74 36.54,7.91 4.93,25.29 -40.03,99.17 -36.54,-7.91zm702.84 -8.04c-111.57,-18.72 -63.89,19.7 -124.49,-65.43 23.7,-51.02 53.13,-46.43 115.47,-57.65l9.01 123.08zm-511.51 157.1c1.13,-168.24 52.05,-82.12 170.66,-158.77 138.46,-89.49 -14.51,-107.57 142.87,-162.9 -32.33,120.17 -83.25,167.52 -88.54,291.5 -52.77,-10.81 -65.38,-26.01 -110.57,-16.2 -135.91,29.45 110.31,-45.24 -50.51,24.68 -21.39,9.27 20.23,6.11 -63.91,21.7zm-42.81 -344.99c-5.55,-103.28 30.02,-25.34 37.26,-5.42 13.35,36.72 -35.8,33 -37.26,5.42zm617.56 -97.96c-93.52,49.71 -116.5,0.92 -141.92,-72.34 77.57,7.5 99.37,4.98 141.92,72.34zm22.44 879.14l-132.5 41.44c8.04,106.46 37.36,81.19 140.15,96.42 -20.23,19.08 6.55,68.64 -124.1,36.05 -131.91,-32.87 -71.98,-159 -42.37,-223.73l126.67 11.66c33.61,-108.05 13.33,-17.08 46.22,-68.48 56.85,-88.92 7.32,-58.21 34.18,-206.5 26.55,-146.75 8.14,-210.05 4.21,-346.14 -9.12,-313.5 95.16,-423.9 -101.3,-650.3 -151.89,-17.13 -441.61,-8.76 -613.14,-12.79 -402.15,-9.37 -303.49,224.99 -307.29,908.57 -2.54,456.89 -4.8,392.29 164.42,386.66 -15.97,137.92 -30.45,17.69 -36.31,123 -4.72,86.07 59.39,-17.08 -25.34,114.45 -65.35,101.43 -96.76,132.06 -94.8,280.74 5.55,424.25 14.02,1093.94 -9.37,1502.76 -15.12,264.36 -1.93,436.84 106.62,632.76 976.36,-78.65 931.58,262.35 927.8,-836.24l-1.16 -1763.32c-39.39,-32.95 57.08,-65.68 -62.58,-27.01z"/>
   <path class="fil0" d="M4775.63 4738.47c-38.06,-28.27 -0.1,-62.01 0,-62.22 57.34,115.14 15.41,40.96 0,62.22zm48.3 -804.81c14.84,18.08 59.24,-12.51 4.7,59.42 -22.21,-36.41 -18.18,-20.23 -4.7,-59.42zm-150.37 -194.44c-11.84,54.26 21,77.47 -62.6,36.28 7.91,-34.07 25.37,-27.35 62.6,-36.28zm126.57 -54c21.93,28.3 41.44,21.83 0,84.4 -34.07,-37.34 -15.3,1.18 -19.85,-53.36 -0.26,-3.29 7.52,-7.63 7.63,-15.92 0.08,-9.17 8.27,-10.01 12.22,-15.12zm87.82 -16.82c52.61,-57.57 -83.48,-23.83 62.68,-62.58 -36.93,84.87 31.94,27.73 -62.68,62.58zm89.1 -87.18c-100.53,-12.33 -74.47,6.19 -106.92,-75.44 83.61,-52.15 101.97,-9.76 106.92,75.44zm-7.88 -142.36l61.42 0c-5.73,3.9 -13.28,11.97 -16.33,12.92 -2.41,0.74 -13.38,4.75 -15.79,5.37 -106.23,26.09 15.51,17.82 -29.3,-18.28zm-76.93 -52.69l-18.64 33.77c-21.83,-23.75 -40.65,-29.07 0,-85.15 21.26,34.74 14.82,2.64 18.64,51.38zm-7.01 -101.15c76.14,-54.82 -79.86,-42.52 54.13,-56.36 -18.98,64.5 16.31,23.16 -54.13,56.36zm-305.21 -106.33l1.9 78.34 -48.3 -33.02c-26.76,-41.11 -34.46,63.78 -23.68,-78.24 98.45,-3.9 39.8,-2.82 70.08,32.92zm86.97 -86.36c99.17,34.2 50.95,-41.7 72.05,86.25 -89.51,-37.44 -47.35,20.52 -72.05,-86.25zm-124.49 -36.21c-103.69,-23.78 -42.93,13.4 -60.57,-54.72 61.04,22.03 31.12,-9.6 60.57,54.72zm184.16 -20.03c-108.62,-39.7 -11.66,-48.35 0,-61.94 63.22,113.83 21.34,23.29 0,61.94zm171.4 -60.75l0 -56.98c19.31,45.35 34.82,-1.57 0,56.98zm-342.85 -272.39c26.22,47.5 49.33,-3.24 0,69.05 -85.46,-72.9 -6.39,-61.4 0,-69.05zm-133.65 -23.32c26.89,-12.45 -36.28,-66.12 61.99,0 -5.26,4.6 -11.58,13.99 -14.53,15.12 -129.6,49.17 -2.16,20.93 -47.45,-15.12zm456.02 -146.93c57.72,-41.86 13.99,-37.7 74.11,0 -27.42,21.06 -22.73,43.04 -74.11,0zm-308.65 43.81c55.39,-58.8 -75.06,-54.57 81.73,-73.26 -32.2,82.97 12.89,41.44 -81.73,73.26zm255.4 -223.27c-102.71,-19.49 -89.46,-9.86 -131.22,-103.3 109.65,15.02 101.33,8.32 131.22,103.3zm-111.8 -249.28c108.93,8.53 190.94,32.95 158.56,133.24l-113.29 -58.21c-52.33,-27.09 -41.32,-2.77 -45.27,-75.03zm-50.64 -183.52c6.27,-3 14.3,-10.73 17.46,-11.58l30.71 0c2.08,-6.11 8.58,7.91 13.12,11.58 -113.39,87.69 -35.98,15.3 -61.29,0zm377.03 1290.51c102.66,-62.09 71.87,-80.09 62.73,-212.9l11.81 -1469.41c4.16,-74.85 6.47,-158.28 -12.92,-226.25 -1187.49,-45.94 -922.08,-10.22 -970.94,544.56 -17.95,203.99 26.37,677.16 20.52,884.72 -2.57,92 -25.86,114.29 -18.82,242.32 23.62,430.19 -11.63,522.29 -10.78,881.2 3.08,1333.93 -83.63,1247.78 482.96,1228.26 175.23,-6.01 355.69,17.64 489.14,-48.97 39.6,-151.68 21.95,-1142.06 21.88,-1424.21 -0.1,-329.07 37.31,-292.27 -75.57,-399.32z"/>
   <path class="fil0" d="M2742.92 4587.28l0 -60.4c10.71,23.78 73.88,-45.99 0,60.4zm172.38 -23.73c-83.25,-16.18 -29.92,16.28 -61.78,-59.78 73.11,30.22 46.2,-17.62 61.78,59.78zm-270.34 -148.19c25.04,17.41 50.25,-6.96 41.83,70.69 -8.4,77.42 -34.9,48.63 -41.83,54.41 -34.87,-73.08 -29.22,-63.25 0,-125.1zm333.17 160.82c16.64,-101.33 6.7,-133.37 90.7,-114.81 11.97,64.02 -16.1,78.29 -90.7,114.81zm167.16 -222.17c94.47,-5.42 89.18,22.26 117.66,100.45 -105.08,-10.55 -112.93,3.08 -117.66,-100.45zm-157.48 -125.39c33.05,63.68 26.24,16.05 0.15,61.14 -77.5,-58.21 -19.18,-39.11 -0.15,-61.14zm155.76 -27.66c42.11,40.47 27.32,-41.52 39.93,66.69 -50.79,9.22 -28.32,19.36 -97.09,-15.51l-9.6 -82.04 66.76 30.87zm89.15 -78.04c13.48,18.51 16.84,-3.49 22.88,49.43 8.45,73.72 4.31,10.71 -18.95,44.63 -64.17,-53 -53.95,-23.93 -3.93,-94.06zm-481.77 83.27c54.36,-58.91 -84.69,-17.33 73.16,-69.46 -40.98,88.54 35.03,34.69 -73.16,69.46zm-274.96 -106.03c26.76,102.05 32.17,105.61 -36.62,171.48l-39.6 -117.35 -280.28 40.08 4.01 987.48c436.12,-24.14 731.55,-177.26 1022.17,-360.83 224.86,-142.03 600.89,-474.12 572.11,-774.33 -236.68,-167.47 -446.65,-178.9 -514.87,-211.15 -52.97,-25.04 -89.21,-78.7 -151.71,-98.78 -217.8,-69.97 -246.64,206.68 -575.22,363.4z"/>
   <path class="fil0" d="M3379.66 2063.22c41.75,50.25 35.15,-78.47 24.06,34.31 -7.01,71.21 10.68,7.09 -24.06,52.69 -48.04,-66.43 -32.95,76.26 -22.47,-36.41 5.83,-62.17 -18.67,-11.56 22.47,-50.59zm-122.43 -91.54c62.94,36.72 71.77,39.16 24.47,117.86 -3.98,-4.11 -22.37,18.44 -42.73,-56.26 -32.3,-118.66 -5.11,-29.3 18.26,-61.6zm-55.36 -52.28c-98.68,-115.94 5.5,-86.74 6.37,-88.23 56.03,39.8 47.89,-35.36 36.33,52.79 -7.5,57.13 -12.33,16.15 -42.7,35.44zm-1013.65 -145.9c93.29,-90.23 79.24,-9.86 90.39,0 -53.13,30.84 -10.22,53.41 -90.39,0zm334.3 -113.29c-91.03,-33.33 -13.92,-42.45 0,-62.14 62.42,116.07 0,62.14 0,62.14zm163.57 -141.36c-29.58,113.73 14.79,57.37 -57.01,74.62 3.34,-92.7 -30.38,-34.51 57.01,-74.62zm-566.74 622c65.38,127.39 112.62,15.69 424.95,198.65 56.13,32.89 139.66,83.86 186.65,130.93 72.41,72.59 70.49,126.18 153.99,165.98 170.27,81.17 326.47,-69.46 456.17,-114.68 742,-258.96 302.33,-362.04 127.93,-643.98l-151.86 -138.76c-2.05,-2.08 -27.68,-37.52 -31.89,-43.27 -105.2,-143.13 -577.22,-406.25 -817.82,-388.64 -4.88,0.33 -12.04,0.44 -16.69,1.03 -70.92,9.04 -42.47,-14.82 -103.23,55.8 0,-8.14 -0.1,-47.17 -1.34,-52.72 -13.66,-60.99 -7.86,-31.94 -19.64,-55.29l-207.61 -7.16c1.46,168.53 -17.85,207.66 19.85,360.91 20.52,83.38 -21.7,27.94 -19.62,286.13 0.67,81.68 0.46,163.39 0.15,245.07z"/>
   <path class="fil0" d="M12848.74 4716.03c-7.04,110.36 20.52,36.54 -57.72,93.42 17.85,-87.74 -18.15,-54.77 57.72,-93.42zm-912.4 -728.9c-117.02,121.84 31.87,432.96 88.51,529.12 196.13,333.3 291.04,283.67 498.52,432.91 45.24,32.53 -33.3,-8.42 45.04,29.71 52.67,25.63 196.87,53.08 266.57,70.41 158.97,39.47 379.24,112.34 548.59,91.9 2.7,-210.3 12.94,-469.17 2.59,-674.95 -2.41,-47.09 2.72,-38.03 -12.58,-78.34 -32.25,-85.17 -85.61,-93.55 -142.72,-104.46 -214.16,-40.93 -140.59,-6.21 -396.45,-257.71 -90.28,-88.82 -106.05,-88.15 -270.24,-83.84 -127.8,3.36 -559.84,-25.58 -627.83,45.24z"/>
   <path class="fil0" d="M16180.66 4716.1c49.1,41.11 102.64,0.92 7.52,81.55l-7.52 -81.55zm448.34 -170.04c74.18,80.42 16.28,49.23 0,68.66 -22.9,-41.32 -51.48,-14.35 0,-68.66zm108.36 -238.65c-553.24,-26.76 -331.07,-357.52 -768.42,-373.31 -147.91,-5.32 -405.89,-6.5 -545.25,10.43 -319.03,38.72 -71.69,554.67 104.61,741.82 227.97,241.99 197.49,140.84 330.53,230.1 90.44,60.68 -26.17,13.56 88.23,62.04 90.21,38.21 648.91,189.15 788.7,150.22l1.59 -821.29z"/>
   <path class="fil0" d="M17758.53 2091.87c48.66,-38.54 4.37,-53.44 62.47,0 -91.7,74.47 -53.49,6.65 -62.47,0zm-677.96 -121.82c-53.56,-49.05 -39.62,66.46 -33.43,-32.77 4.52,-72.87 -9.42,-11.25 22.7,-49.48l10.73 82.25zm515.39 -151.01c94.6,31.1 27.4,-18.33 65.2,70.1 -85.79,-32.82 -21.93,-10.63 -65.2,-70.1zm-403.69 -0.05c6.03,7.47 91.65,-49.35 4.55,68.41 -21.78,-38.85 -39.62,-15.2 -4.55,-68.41zm1112.61 596.27c33.48,-120.12 -59.39,-381.01 -123.02,-480.95 -33.64,-52.87 -29.58,-30.87 -60.34,-85.69 -58.29,-103.97 -42.83,-134.43 -221.14,-268.82 -210.74,-158.85 -615.04,-319.9 -955.2,-339.47 -18.54,210.61 -4.62,464.8 -6.91,681.19 -3.52,333.28 136.61,142.08 326.37,367.25 151.14,179.41 93.47,261.02 441.9,242.2 185.96,-10.04 506.14,34.56 598.35,-115.71z"/>
   <path class="fil0" d="M14383.65 2125.69c5.52,-6.01 18.87,-42.16 22.03,-46.3 30.74,-39.75 3.98,-7.34 43.14,-12.22 -36.21,66.2 18.9,21.85 -65.17,58.52zm-693.49 -246.77c55.72,78.86 40.29,28.04 0,89.23 -31.4,-28.27 -21,13.64 -27.22,-46.53 -8.4,-81.35 17.77,-33.23 27.22,-42.7zm597.2 4.24c-97.99,-17.28 -40.8,18.85 -65.63,-68.48 83.97,41.29 30.45,-28.22 65.63,68.48zm-701.4 239.55c516.88,150.19 262.3,286.85 482,375.98 106.46,43.22 757.1,29.79 813.38,-22.7 116.91,-97.37 28.76,-367.56 -33.69,-488.32 -159.85,-309.14 -368.61,-481.62 -712.26,-608.96 -224.27,-83.09 -264.1,-113.91 -549.87,-136.71l0.44 880.71z"/>
   <path class="fil0" d="M1408.24 4859.29c62.01,50.41 63.58,30.2 87,31.89 -37.18,-165.88 -69.36,-42.27 -87,-31.89z"/>
   <path class="fil0" d="M955.13 4564.04l10.19 -55.23c-50.3,18.36 -19.54,49.97 -10.19,55.23z"/>
  </g>
  <g id="_2436512974144">
   <rect class="fil1" x="-0" y="10643.04" width="6531.09" height="810.02"/>
   <rect class="fil1" x="11835.22" y="10643.04" width="6531.09" height="810.02"/>
  </g>
  <path class="fil2" d="M6997.1 10560.56l422.25 0 0 194.51 -168.65 0 0 185.88 157.59 0 0 184.68 -157.59 0 0 214.21 185.88 0 0 194.51 -439.48 0 0 -973.79zm1047.03 295.45l-235.13 0 0 -72c0,-33.66 -3.08,-55.21 -9.04,-64.43 -5.96,-9.24 -15.79,-13.76 -29.74,-13.76 -15.2,0 -26.68,6.16 -34.49,18.67 -7.78,12.33 -11.68,30.99 -11.68,56.24 0,32.41 4.49,56.83 13.33,73.26 8.63,16.2 32.43,36.1 71.62,59.5 112.24,67.1 183.01,122.28 212.15,165.16 29.35,42.88 43.91,112.03 43.91,207.25 0,69.33 -8.22,120.43 -24.42,153.45 -16.2,32.84 -47.4,60.34 -93.98,82.5 -46.35,22.37 -100.32,33.43 -162.08,33.43 -67.71,0 -125.36,-12.92 -173.38,-38.57 -47.81,-25.65 -78.99,-58.26 -93.98,-97.89 -14.76,-39.8 -22.16,-96.22 -22.16,-169.07l0 -63.81 235.13 0 0 118.4c0,36.51 3.29,59.91 9.86,70.36 6.57,10.48 18.26,15.61 35.08,15.61 16.84,0 29.35,-6.57 37.57,-19.9 8.19,-13.15 12.3,-32.84 12.3,-58.7 0,-57.24 -7.81,-94.78 -23.39,-112.21 -16.2,-17.67 -55.59,-47.2 -118.38,-88.64 -62.81,-41.65 -104.25,-72.03 -124.77,-90.9 -20.31,-18.87 -37.34,-44.94 -50.66,-78.19 -13.35,-33.23 -20.11,-75.7 -20.11,-127.42 0,-74.47 9.42,-129.06 28.5,-163.52 19.08,-34.46 49.66,-61.35 92.13,-80.83 42.47,-19.49 93.57,-29.14 153.68,-29.14 65.66,0 121.46,10.68 167.83,31.82 46.17,21.34 76.75,47.99 91.72,80.42 14.97,32.2 22.57,87 22.57,164.34l0 38.57zm610.83 -295.45l0 194.51 -148.96 0 0 779.28 -253.6 0 0 -779.28 -150.19 0 0 -194.51 552.75 0zm110.78 775.58l0 198.21 -183.42 0 0 -198.21 183.42 0zm804.93 32.02l0 166.19 -534.29 0 0.39 -139.12c158.41,-258.73 252.6,-418.76 282.54,-480.31 29.97,-61.55 44.94,-109.57 44.94,-143.85 0,-26.45 -4.7,-46.17 -13.74,-59.29 -9.04,-12.92 -22.78,-19.49 -41.24,-19.49 -18.46,0 -32.43,7.19 -41.44,21.54 -9.04,14.35 -13.56,42.88 -13.56,85.56l0 92.34 -217.88 0 0 -35.51c0,-54.36 2.85,-97.45 8.4,-128.85 5.55,-31.38 19.49,-62.37 41.44,-92.72 22.16,-30.38 50.89,-53.56 86.18,-69.15 35.31,-15.59 77.57,-23.39 126.8,-23.39 96.65,0 169.68,24.01 219.34,71.82 49.46,47.99 74.29,108.54 74.29,181.78 0,55.82 -13.97,114.7 -41.86,176.87 -27.91,62.17 -110.19,193.9 -246.64,395.6l266.33 0zm667.25 -477.87l0 324.6c0,73.85 -4.11,127.42 -12.12,161.05 -8.01,33.87 -24.63,65.25 -49.87,94.6 -25.22,29.14 -55.59,50.28 -91.29,62.99 -35.51,12.92 -75.31,19.28 -119.43,19.28 -58.06,0 -106.28,-6.78 -144.85,-20.11 -38.36,-13.53 -68.95,-34.46 -91.93,-62.78 -22.78,-28.53 -38.98,-58.47 -48.63,-89.87 -9.63,-31.58 -14.35,-81.66 -14.35,-150.19l0 -339.57c0,-89.46 7.81,-156.35 23.19,-200.88 15.38,-44.53 45.96,-80.22 91.93,-107.1 45.76,-26.89 101.35,-40.21 166.6,-40.21 53.33,0 100.94,9.24 143,27.91 42.06,18.67 73.47,41.44 94.19,68.3 20.93,26.89 35.08,57.06 42.47,90.7 7.4,33.66 11.09,87.41 11.09,161.28zm-242.53 -81.45c0,-51.72 -2.47,-83.94 -7.6,-97.06 -4.93,-12.92 -16.61,-19.49 -35.28,-19.49 -18.05,0 -29.97,6.98 -35.72,20.72 -5.93,13.74 -8.81,45.76 -8.81,95.83l0 474.38c0,56.41 2.67,90.46 8.19,101.97 5.34,11.68 17.05,17.44 35.31,17.44 18.05,0 29.74,-6.78 35.49,-20.52 5.55,-13.53 8.42,-44.12 8.42,-91.72l0 -481.54zm704.38 -248.28l0 973.79 -242.53 0 0 -522.81c0,-75.49 -1.85,-121.05 -5.34,-136.22 -3.7,-15.2 -13.53,-26.89 -29.74,-34.69 -16.23,-7.81 -52.33,-11.68 -108.34,-11.68l-24.01 0 0 -113.06c117.35,-25.04 206.4,-76.96 267.13,-155.33l142.82 0zm558.29 421.66c35.69,14.35 63.19,35.9 82.27,64.63 19.28,28.71 28.91,96.83 28.91,204.76 0,78.58 -7.58,136.45 -22.78,173.79 -15.38,37.13 -44.91,67.71 -89.03,91.72 -44.12,23.8 -103.23,35.69 -177.49,35.69 -72.23,0 -129.26,-11.48 -171.32,-34.25 -42.27,-22.78 -72.44,-53.15 -90.7,-90.9 -18.26,-37.54 -27.3,-100.32 -27.3,-188.14 0,-58.91 4.52,-109.98 13.56,-153.27 9.01,-43.29 37.34,-77.98 84.94,-104.02 -29.97,-14.38 -52.33,-37.36 -67.3,-68.95 -15,-31.4 -22.57,-71.41 -22.57,-119.84 0,-83.71 23.19,-146.7 69.77,-188.55 46.35,-41.86 115.91,-62.78 208.46,-62.78 107.1,0 180.98,22.16 221.81,66.69 40.83,44.53 61.35,108.13 61.35,190.61 0,52.54 -6.78,90.49 -20.11,113.68 -13.35,23.19 -40.83,46.37 -82.48,69.15zm-136.25 -208.69c0,-33.02 -2.88,-54.77 -8.83,-65.25 -5.73,-10.66 -17.02,-16 -33.64,-16 -16.2,0 -27.09,5.75 -32.84,17.23 -5.52,11.3 -8.4,32.64 -8.4,64.02l0 73.88c0,29.32 3.29,49.46 9.63,60.73 6.57,11.27 17.44,16.82 32.84,16.82 16.2,0 27.06,-5.55 32.82,-16.61 5.55,-10.89 8.42,-33.64 8.42,-68.12l0 -66.69zm4.93 404.02c0,-37.36 -3.9,-61.99 -11.5,-74.29 -7.78,-12.09 -19.9,-18.26 -36.51,-18.26 -16.2,0 -27.91,5.96 -34.9,17.64 -7.16,11.89 -10.66,36.72 -10.66,74.9l0 125.98c0,42.06 3.9,69.13 11.89,81.04 7.81,12.09 20.31,18.05 37.36,18.05 17.44,0 29.12,-6.16 35.28,-18.26 5.96,-12.3 9.04,-39.8 9.04,-82.68l0 -124.13z"/>
 </g>
</svg>
