<?xml version="1.0" encoding="UTF-8"?>
<!DOCTYPE svg PUBLIC "-//W3C//DTD SVG 1.1//EN" "http://www.w3.org/Graphics/SVG/1.1/DTD/svg11.dtd">
<!-- Creator: CorelDRAW 2020 (64 Bit) -->
<svg xmlns="http://www.w3.org/2000/svg" xml:space="preserve" width="71.525mm" height="38.5497mm" version="1.1" style="shape-rendering:geometricPrecision; text-rendering:geometricPrecision; image-rendering:optimizeQuality; fill-rule:evenodd; clip-rule:evenodd"
viewBox="0 0 7138.27 3847.3"
 xmlns:xlink="http://www.w3.org/1999/xlink"
 xmlns:xodm="http://www.corel.com/coreldraw/odm/2003">
 <defs>
  <style type="text/css">
   <![CDATA[
    .fil0 {fill:black}
   ]]>
  </style>
 </defs>
 <g id="Camada_x0020_1">
  <metadata id="CorelCorpID_0Corel-Layer"/>
  <g id="_2436644109328">
   <path class="fil0" d="M3837.86 1945.33c-27.15,-8.43 -20.27,0.68 -27.55,-26.52 39.89,2.87 21.48,-10.59 27.55,26.52zm-318.64 -18.63c-32.68,15.02 -17.41,6.28 -26.32,-9.53 30.38,-11.5 14.98,-9.93 26.32,9.53zm468.93 -25.46c19.05,-22.55 -30.96,-6.54 21.56,-23.99 -9.86,25.57 4.57,14.79 -21.56,23.99zm0.26 -98.01c33.36,8.62 32.63,7.25 45.57,44.89 -40.09,-1.89 -38.62,-5.67 -45.57,-44.89zm95.44 8.75c-41.69,0.71 -18.35,8.29 -31.41,-21.44 31.71,8.11 16.9,-5.58 31.41,21.44zm-657.19 -67.26c26.68,13.74 28.8,9.83 9.52,36.07 -25.41,-18.12 -24.07,-9.69 -9.52,-36.07zm-133.43 -16.45c30.88,11.11 14.54,-11.87 25.01,30.17 -27.27,-12.85 -16.2,7.21 -25.01,-30.17zm51.97 -26.88c34.99,-0.52 36.56,12.82 56,35.45l-12.6 57.9 -28.94 -48.56c-19.78,-26.79 -17.29,-0.71 -14.45,-44.79zm657.12 18.49c-0.02,-1.47 -3.07,3.47 -4.54,5.26 -31.69,-29.46 -3.73,-23.73 0,-28.81 14.24,21.21 4.57,24.71 4.54,23.55zm-534.78 8.38c46.87,-30.72 22.05,-27.59 50.84,-27.05 -2.05,17.12 2.37,9.93 -5.39,26.47 -11.4,24.29 -8.65,12.88 -20.63,25.16l-37.13 -16.55 12.31 -8.03zm-64.71 -13.53l-17.59 -33.1c33.43,15.76 28.32,-10.77 17.59,33.1zm747.26 -83.12c22.05,-12.88 -1.77,-17.85 30.79,0 -16.86,14.55 8.62,6.36 -18.78,9.3 -44.74,4.8 6.02,7.25 -12.01,-9.3zm-984.59 -76.15c-0.29,0.29 -3.58,25.01 -29.01,12.4 -13.22,-6.58 -9.02,-16.2 -9.63,-26.98 36.69,-1.32 18.85,-4.95 38.64,14.58zm860.04 -18.67c25.26,6.78 13.48,5.31 20.88,9.83 -90.83,11.02 -171.21,2.14 -180.22,-84.06 29.27,20.52 29.08,39.19 72.93,56.41 34.07,13.37 62.41,11.39 86.41,17.82zm-932.01 -21.44c-10.51,-24.29 -0.98,-36.48 6.32,-53.87 81.39,11.91 58.7,20.59 57.05,45.05 -17.95,-5.57 -20.69,-9.25 -34.8,-17.12l-28.56 25.94zm1207.85 40.07c-39.67,-21.04 -13.14,2.34 -33.97,-25.23l-28.3 -56.47c33.78,15.36 48.98,33.27 62.28,81.7zm-1123.05 -135.47c1.16,-2.69 4.22,-12.73 4.98,-14.81l5.4 -14.82c47.14,23.2 44.7,45.49 28.58,99.73 -51.35,-26.45 2.02,-23.77 -57.34,-39.28l18.37 -30.82zm1105.73 24.5c-33.34,-3.53 -3.38,2.95 -22.99,-17.16 17.49,-8.86 33.1,-5.9 50.43,4.42 -3.64,3.35 21.42,17.92 -27.44,12.73zm-1170.53 -22.25c7.65,-6.17 7.36,-16.81 27.39,0 -32.23,24.45 -11.57,12.78 -27.39,0zm1223.68 -66.63c0.86,-10.29 11.78,-18.88 15.25,1.94 1.67,9.89 -18.54,37.31 -15.25,-1.94zm-1248.95 -57.12l16.87 -4.43c0.7,-2.26 3.07,3.05 4.73,4.43 -35.71,24.09 -8.45,5.94 -21.6,0zm68.49 -28.55c2.41,-1.51 5.04,-5.23 6.35,-5.67 49.9,-16.62 3.68,-7.03 19.66,5.67l-26.01 0zm-85.41 7.1c-29.51,-6.51 -6.66,9.97 -19.91,-23.24 29.47,16.83 16.05,-11.56 19.91,23.24zm1370.44 -75.63l-25.86 -5.11c2.68,-34.72 20.38,-14.12 25.86,5.11zm-576.85 76.99c51.1,-29.43 40.26,-36.02 112.05,-67.54 151.61,-66.55 86.39,-178.5 309.19,-58.01 17.27,9.34 4.76,-0.04 25.33,12.4 -5.81,66.14 1.31,150.83 -29.4,217.74 -77.17,168.09 -294.47,145.22 -355.44,91.18 -49.2,-43.6 -62.62,-114.24 -61.73,-195.76zm-571.12 223.99l-52.64 9.63 12.48 -40.81c0.72,-6.18 1.83,-7.23 2.71,-10.86 -5.18,-21.62 -36.32,-108.71 -48.61,-130.17 -14.06,32.47 8.05,13.29 -17.95,42.08l-7.29 -16.88 -35.52 7.36c13.23,-42.37 -6.84,-21.03 34.14,-38.3 11.92,-25.97 16.26,-15.78 22.88,-46.61 22.88,-106.29 -8.58,-126.53 -3.1,-166.2 51.02,4.11 -4.93,4.64 30.93,11.4 39.65,7.48 47.61,-21.66 90,-21.96 48.05,-0.32 78.22,35.12 102.88,56.61 58.05,50.57 65.32,23.15 118.47,52.91 41.39,23.19 42.06,45.18 96.34,62.74 0.5,183.09 -22.22,189.08 -136.46,234.57 13.83,12.41 -8.65,4.16 20.95,8.78l113.01 -59.69c-6.34,47.69 -33.85,70.74 -82.79,83.84 -21.79,5.83 -51.94,9.7 -76.76,1.62 -34.14,-11.12 -11.88,-8.37 -13.08,-11.72l0.34 -18.59c-67.19,-4.22 -57.5,-12.1 -84.07,32.57 -3.25,-57.86 -9.06,-45.73 -69.6,-62.45l29.82 63.44 -45.53 -12.22 -1.56 -31.11zm1170.39 -331.14l-18.91 -50.9c42.99,40.7 32.5,-5.08 60.37,48.79l-41.46 2.11zm-1287.93 -96.37c-1.41,17.33 -7.35,7.25 -16.11,10.72 -31.82,-41.3 -0.19,-30.54 0,-30.96 22.18,12.71 18.27,-6.69 16.11,20.24zm649.01 33.38c20.69,-23.7 30.11,-34.28 73.06,-42.74 -4.61,9.36 -11.63,30.65 -28.45,38.87 -19.92,9.73 -22.41,4.76 -44.61,3.87zm-157.56 -38.21c25.54,-11.89 46.08,6.69 63.12,27.95 -35.8,-1.26 -41.98,-1.85 -63.12,-27.95zm-409.46 -3.3c-9.7,-39.77 1.74,-37.73 41.61,-50.59 -2.64,34.4 -13.91,41.89 -41.61,50.59zm-71.35 -47.83c-22.63,-22.83 -13.72,-6.21 -7.7,-26.85 26.43,11.47 27.58,0.76 7.7,26.85zm-45.78 -34.21c1.09,2.54 15.03,5.78 2.6,30.09 -14.76,28.88 -4.42,13.41 -32.96,18.67l30.36 -48.76zm237.61 -38.39c-36.33,13.4 -27.99,-0.12 -38.65,-19.21 46.5,-3.72 28.45,-8.71 38.65,19.21zm-86.17 -21.8c-9.54,-38.59 -11.09,-4.45 -8.66,-26.42 13.77,10.41 26.4,20.97 37.46,29.18 -40.85,90.17 -34.76,-13.1 -98.49,108.76 -7.75,-68.57 7,-100.97 69.7,-111.53zm-109.64 2.76c-3.34,-34.23 -4.28,-23.45 -18.47,-54.33l77.89 44.81c-48.58,45.12 -22.62,32.93 -53.72,54.19l-39.63 -13.66c13.29,-28.24 -5.05,-0.26 13.26,-17.79l20.67 -13.21zm1181.37 -32.03c21.59,-24.7 -34.73,-14.77 24.6,-22.23l-24.6 22.23zm-946.73 -33.44l25.97 8.36c-5.94,31.58 -5.36,24.79 -41.13,43.2l15.16 -51.57zm-45.58 27.4c-5.79,3.05 19.38,27.5 -31.72,1.81 -27.24,-13.69 -11.55,-8.55 -23.93,-23.64 52.3,-4.4 38.51,-14.96 55.65,21.84zm359.95 -152.24c-7.05,-28.25 -6.6,-3.77 10.4,-27.87l19.91 26.8c0.58,2.12 27.28,5.27 -6.68,15.15 -11.23,3.26 -20.81,-2.77 -23.63,-14.07zm-179.37 -57.99c11.69,16.64 18.97,14.13 7.37,35.55 -14.51,-8.14 -11.59,2.39 -15.14,-16.85 -7.17,-38.85 -2.34,-2.56 7.77,-18.7zm-2.15 -45.22c-15.49,-8.09 -0.03,-24.19 0,-24.22 4.55,9.63 25.47,-15.61 0,24.22zm-332.41 -106.25c21.67,-9.88 22.1,-15.27 35.94,9.52 -25.24,14.56 -19.76,8.35 -35.94,-9.52zm178.53 27.61c-362.95,-433.37 500.32,-402.73 673.42,-299.94 125.08,74.28 72.11,231.12 13.49,288.56 -104.98,-18.2 -167.51,-62.48 -295.08,-62.64 -20.28,31.58 -19.71,46.59 -22.74,93.44 -30.49,-100.16 -19.81,-11.55 -72.44,-92.79 -181.81,3.59 -214.47,65.67 -296.65,73.36zm752.67 -265.58l23.84 0c-50.4,34.74 -16.08,6.45 -23.84,0zm128.23 382.21c97.33,-150.16 199.57,-357.54 18.84,-518.82 -129.8,-115.83 -371.59,-155.23 -593.59,-152.8 -114.25,1.26 -231.65,12.72 -335.83,39.47 -118.32,30.38 -180.94,59.73 -235.05,135.98 -181.06,255.15 57.69,471.72 76.89,527.25 -35.44,21.86 -123.4,143.65 -139.11,202.13 -21.54,80.22 -15.2,9.52 -43.41,68.68l-13.47 44.01c-13.71,41.75 -3.9,28.72 -11.57,57.07 -4.79,17.69 -14.7,26.56 -22.96,50.07 -58.96,167.8 57.87,427.66 125.61,534.57 85.34,134.73 232.37,247.82 375.23,300.74 141.64,52.49 448.17,70.27 563.87,-14.52 2.24,-49.61 -25.32,-50.54 -7.03,-81.67 36.07,11.37 31.96,33.47 46.23,61.7 22.85,-12.34 66.18,-18.64 88.27,-35.98l69.32 -53.84c94.85,-63.14 187.03,-167.19 219.85,-276.36 20.74,-68.94 50.73,-69.11 63.89,-184.9 10.76,-94.63 -20.34,-54.26 -5.72,-107.27 6.6,-23.93 11.7,1.33 14.29,-53.9 3.47,-73.84 -15.28,-102.83 -24.12,-161.49 -6.97,-46.24 -14.67,-47.17 -30.86,-89.95 -71.24,-188.33 -102.17,-151.78 -144.51,-226.27 -20.3,-35.73 -34.69,-34.15 -55.06,-63.91z"/>
   <path class="fil0" d="M6662.94 1899.73c12.43,14.56 23.46,-4.08 0.37,23.76 -11.51,-13.91 -20.63,0.2 -0.37,-23.76zm304.59 -164.55c10.06,13.59 7.31,9.84 0,22.91 -2.05,-3.3 -27.86,6.03 0,-22.91zm-111.97 18.31c1.72,-36.07 -11.51,-23.14 24.23,-24.55 -14.1,36.62 -8.64,14.6 -24.23,24.55zm-87.92 -33.76c21.77,21.82 13.26,3.6 9.94,33.75 -29.2,-12.3 -38,-15.8 -9.94,-33.75zm71.45 -17.79c-11.1,30.72 2.88,14.71 -23.98,24.76 7.43,-31.88 -15.94,-15.19 23.98,-24.76zm43.86 -12.96c28.5,6.71 18.74,-9.41 26.19,26.17 -36.54,-4.09 -20.32,8.63 -26.19,-26.17zm55.19 -2.69c-27.8,-33.56 -13.58,-18.04 -0.68,-34.28 11.5,15.29 10.19,-18.59 7.98,17.04 -1.15,18.57 -0.05,5.57 -7.31,17.25zm-127 -35.62c9.87,-6.04 -15.5,-27.43 22.55,0 -1.8,1.24 -4.46,1.9 -5.19,3.98 -0.64,1.84 -4.69,1.81 -5.48,1.66l-11.88 -5.64zm173.09 -5.37c10.97,-12.59 8.9,-14.09 21.1,-4.15l-21.1 4.15zm-58.62 -44.82c42.91,2.5 31.66,-21.3 29.14,27.2 -48.2,-5.83 -15.25,-7.1 -29.14,-27.2zm-119.9 -21.19c15.05,15.76 3.8,-6.81 11.51,27.57 -10.38,-4.23 -16.24,8.15 -18.16,-13.69 -3.71,-42.59 -21.28,-0.64 6.66,-13.87zm161.82 -13.01c29.51,38.46 4.4,13.2 0,22.32 -2,-2.96 -38.01,9.42 0,-22.32zm-95.19 -10.9c15.39,44.92 -5.04,35.69 -9.51,40.53 -0.59,-0.63 -16.25,-1.27 -15.02,-22.45 2.56,-44.31 16.4,-16.62 24.53,-18.08zm57.11 11.82c-5.68,-11.08 -9.83,12.93 -7.56,-20.89 1.33,-19.85 1.11,-8.35 7.56,-18.35 36.45,38.34 1.49,27.68 0,39.24zm38.08 -64.16c1.6,2.29 5.33,2.8 5.17,6.57l-5.17 17.87c-7.49,-10.87 -30.74,-8.27 0,-24.44zm-114.97 -68.12l9.67 21.54c49.31,-11.08 37.48,-17.78 66.49,13.37 -15.7,15.84 -72.47,29.16 -102.59,29.23 15.73,-36.04 -2.52,-4.68 35.13,-29.23 -10.8,-13.69 5.24,-8.44 -27.76,-17.12 -6.85,-10.81 -12.43,14.92 -6.28,-27.91 46.53,-4.26 11.87,-1.76 25.34,10.12zm96.84 -57.58c39.84,44.38 0.28,23.05 -0.91,24.22 -5.88,-14.99 -8.58,-14.27 0.91,-24.22zm-238.87 53.56c-20.42,-35.52 -1.66,-61.95 9.66,-85.68l54.3 17.76c1.06,0.29 3.99,1.23 5.85,2.14 -32.87,57.19 -16.53,-19.63 -65.93,59.98 -0.78,1.25 -2.42,3.99 -3.88,5.8zm-29.43 -77.52l-108.48 -0.6c-0.1,-41.58 -2.43,-47.66 23.38,-71.57 7.63,12.54 0.59,3.62 7.2,19.3l16.89 31.84c20.55,-23.37 9.95,-12.68 52.38,-12.25 20.79,-25.26 25.58,-42.55 53.51,-12.11 -39.2,22.68 -23.99,6.39 -44.87,45.38zm58.43 -92.54c28.13,11.81 16.1,-3.96 17.51,27.15 -25.6,-13.41 -14.47,3.83 -17.51,-27.15zm-109.95 5.19l32.61 9.12c-21.91,31.92 -21.86,27.21 -32.61,-9.12zm-100.77 52.95c-2.84,-46.57 -12.23,-34.24 31.12,-41.13 -11.54,31.59 -2.17,27.35 -31.12,41.13zm-187.25 -41.41l-5.61 -23.48c6.03,1.61 12.96,3.61 18.89,7.65l-13.28 15.83zm343 -36.21c25.57,-22.77 3.92,-17.31 25.35,0 -18.44,15.89 26.97,11.81 -10.53,7.68 -20.78,-2.28 -1.61,4.21 -14.82,-7.68zm-132 -26.8c35.44,-10.17 33.59,7.53 33.98,7.76 -8.24,35.07 -15.51,34.69 -55.44,19.03 3.12,-18.29 -27.81,-12.64 21.46,-26.8zm-146.62 13.82l4.89 19.38c-0.35,1.22 -3.59,3.99 -4.89,6.31 -11.82,-17.19 -24.55,-10.73 0,-25.69zm352.18 -25.13c9.52,14.37 9.42,2.22 7.37,26.35 -33.1,-5.71 -34.92,-9.4 -7.37,-26.35zm-305.04 69.56c-3.49,-55.88 -11.93,-56.37 41.95,-60.83 -6.78,27.94 -15.41,44.65 -41.95,60.83zm-210.67 -35.18c27.19,-26.47 -28.72,-6.46 26.64,-27.99 -12.15,28.29 4.22,16.5 -26.64,27.99zm68.34 -53.32c7.14,8.29 28.61,-3.18 0,25.45 -21.7,-21.16 -5.53,-15.79 0,-25.45zm75.63 -17.32c-2.59,45.92 12.84,25.19 -30.54,27.89 3.41,-29.18 6.2,-22.56 30.54,-27.89zm92.72 17.25c42.73,-24.58 34.67,-2.36 69.62,-37.42l9.58 9.67c54.91,46 67.23,5.66 67.58,71.3l-58.12 -44.49 -47.59 27.59c-35.47,-15.15 -21.21,2.06 -41.07,-26.65zm154.64 -38.07c-11,20.35 -1.27,29.5 -32.7,9.52 1.51,-18.32 17.68,-16.05 32.7,-9.52zm-217.09 9.52c13.02,-12.87 -8.04,-8.38 17.73,-11.12 32.34,-3.43 11.81,5.25 18.25,11.12 -24.12,19.12 -7.03,22.5 -35.99,0zm-37.27 -19.03c0.17,-21.66 -9.38,-3.85 10.15,-4.26 24.51,-0.51 -10.38,35.39 -10.15,4.26zm121.67 3.45c-41.04,0.13 -15.13,7.29 -23.31,-24.55 24.65,13.36 10.89,-11.8 23.31,24.55zm-57.05 -39.73c10.23,12.33 12.36,10.59 -4.47,25.38l4.47 -25.38zm-257 25.56c-32.6,-34.26 -4.18,-16.14 0,-22.91l7.06 12.18c9.53,37.84 5.2,-3.58 -7.06,10.74zm57.12 -6.34c-11,-16.11 -9.01,13.15 -10.33,-30.78 -0.06,-2.14 3.24,-24.53 3.95,-27.2 7.25,-27.41 8.33,-20.55 24.4,-28.46 9.68,78.66 -4.94,76.55 -18.02,86.44zm-101.81 -14.41c-26.95,-11.93 -27.68,-9.75 -36.69,-32.24 41.26,-2.94 27.85,-4.19 36.69,32.24zm14.92 -54.2c0.26,-0.12 4.71,-18.36 32.97,-3.36 15.1,8.03 11.85,12.36 15.53,31.23 -49.6,-3.64 -36.4,1.17 -48.5,-27.86zm-38.11 -29.34c7.42,44.26 9.23,-9.58 -8.26,12.15 -5.46,-7.16 -13.62,-11.03 -1.61,-28.89 17.14,17.41 5.64,-8.58 9.87,16.75zm39.33 7.95c-1.34,-2.01 -13.71,9.9 -8.21,-25.03 5.08,-32.09 8.62,-14.93 17.73,-21.31 19.82,32.48 18.1,30.34 -9.52,46.34zm-101.02 -31.72c-16.48,-3.72 -3.4,1.64 -9.94,-13.52 22.55,-9.79 14.27,-7.95 27.19,9.52 -8.21,3.4 -1.52,7.55 -17.25,4zm153.19 1.35c-3.27,-56.87 26.8,-56.63 83.22,-59.22l-25.71 63.87 -14.5 -33.57c-22.43,18.1 -17.49,22.38 -43.01,28.92zm-84.48 -27.87c-24.96,-1.89 -18.47,12.64 -19.14,-19.88 25.71,1.39 15.9,-4.21 19.14,19.88zm19.55 -63.58c28.88,12.49 41.49,10.87 49.64,46.4 -38.77,3.82 -45,-7.93 -49.64,-46.4zm99.67 22.98c-40.79,-9.03 -14.48,5.92 -26.23,-26.99 36.04,14.95 15.25,-18.79 26.23,26.99zm61.78 -16.55c-42.91,-8.96 -19.46,6.18 -19.05,-26.82l19.05 26.82zm-215.32 -36.85c31.75,29.18 14.45,24.42 9.51,35.71 -47.48,-19.03 -10.11,-34.73 -9.51,-35.71zm70.76 -19.59c30.18,30.31 -9.3,24.36 -28.53,27.73 2.95,-14.47 2.48,-53.9 28.53,-27.73zm-143.38 7.9c33.29,-20.41 -26.82,-10.9 24.39,-21.38 -10.4,20.85 1.58,9.85 -24.39,21.38zm60.89 -42.3c16.17,5.57 16.5,1.12 25.2,13.92 19.81,29.13 0.11,7.99 -3.57,16.08 -29.4,6.8 -21.09,7.78 -21.63,-30zm265.31 14.47c36.89,-24.93 -28.93,-7.43 25.25,-24.23 -10.01,25.36 5.18,12.76 -25.25,24.23zm-11.67 -57.42c-8.52,39.82 12.14,25.96 -30.98,31.65 2.56,-22.85 10.97,-21.31 30.98,-31.65zm-183.88 51.09c-5.02,-60.15 17.68,-77.67 58.36,-49.94l-16.09 18.25c-25.81,27.71 -20.8,26.86 -42.28,31.69zm135.25 -57.43c-41.45,-5.47 -19.18,7.09 -23.9,-26.51 28.89,10.33 17.13,-7.48 23.9,26.51zm-58.25 -18.18c2.37,-17.04 -11.46,-2.95 10.57,-3.64 0.32,-0.01 2.89,0.35 3.08,0.39 0.11,0.04 0.94,1.57 0.96,1.62 3.04,17.21 -15.7,9.5 -14.61,1.64zm-118.34 17.76c4.36,-27.47 9.69,-27.27 31.84,-38.44 -6.71,35.64 0.21,28.55 -31.84,38.44zm78.5 -58.31c11.44,14.61 17.75,11.11 0,33.46 -12.45,-13.77 -5.73,0.82 -7.37,-19.89 -3.32,-42.02 -5.97,7.18 7.37,-13.57zm206.49 8.8c-36.02,-0.89 -8.44,13.09 -22.15,-24.85 25.77,17.71 16.82,-5.99 22.15,24.85zm-149.37 -2.82c-13.2,-6.87 -2.3,-22.62 0,-26.18 29.72,53.35 8.23,14.27 0,26.18zm-57.12 -58.48c22.28,9.79 14.49,-17.41 16.24,23.84 -24.05,-3.84 -25.13,0.1 -16.24,-23.84zm180.92 269l-29.93 -14.14c-0.51,-42.35 -3.31,-10.33 12.29,-23.59 4.7,-12.95 0.13,-16.69 -4.85,-36.99 76.16,2.03 16.79,-14.55 72.2,-31.58 26.9,-8.24 52.08,-1.14 83.62,-12.54 6.5,-40.41 9.46,-49.39 -8.92,-76.3 -0.91,-1.34 -4.67,-1.59 -5.4,-4.92 -0.72,-3.35 -3.82,-3.05 -5.84,-4.44 41.83,-21.43 22.89,8.59 18.99,-51.67 -3.03,-47.07 22.25,-163.65 -8.47,-188.13 -37.35,-14.76 -195.8,16.71 -236.66,32.37 -74.8,28.67 -77.7,45.67 -113.17,66.94 -156.31,93.7 -220.77,281.46 -189.78,461.29 7.33,42.4 91.74,153.65 111.8,173.8 106.11,106.55 315.1,177.32 462.92,232.43 49.4,18.42 54.64,13.19 88.63,-12.12l1.62 43.35c52.48,18.16 112.5,48.11 99.01,113.54 -11.69,56.64 -54.61,57.27 -96.75,72.66 -9.39,3.43 -12.03,4.79 -20.93,8.95 -1.63,0.77 -5.67,5.92 -6.84,3.88 -1.19,-2.08 -4.73,2.46 -7.78,4.07l2.46 322.38c158.37,-5.44 374.67,-59.01 450.52,-186.5 21.77,-36.57 96.86,-54.29 97.25,-278.74 0.14,-74.51 -25.59,-144.04 -59.97,-201.3 -25.63,-42.65 -88.1,-92.76 -125.95,-121.63 -52.66,-40.16 -253.08,-176.38 -342.15,-142.32 -35.43,-20.48 23.28,14.35 -14.46,-13.75 -27.33,-20.36 -25.27,-9.21 -51.32,-24.62 -21.52,-12.71 8.21,-10.69 -65.49,-31.45 -57.84,-16.28 -82.47,-37.69 -106.64,-78.93z"/>
   <path class="fil0" d="M5358.9 1923.11c-36.38,-42.41 -3.58,-16.37 4.73,-21.88l-4.73 21.88zm207.84 -193.74c-7.32,23.73 2.56,10.96 -15.84,22.49 0.7,-34.43 -13.37,-14.4 15.84,-22.49zm-112.65 -8.15c21.61,16.2 30.83,15.87 -2.55,34.4 -17.63,-25.41 -18.53,-10.01 2.55,-34.4zm120.1 -33.36c26.96,12.95 14.69,-11.6 24.31,29.58 -35.88,-9.49 -19.85,8.98 -24.31,-29.58zm-55.17 12.33c8.12,17.39 7.2,7.62 3.79,27.92 -13.59,-9.24 -30.96,4.86 -3.79,-27.92zm106.4 -17.69c-2.24,-1.32 -4.17,-5.12 -4.49,-6.38l0 -13.81c-0.14,-4.02 3.14,-4.83 4.49,-7.38 25.77,51.89 8.2,14.81 0,27.57zm-122.68 -22.51c14.93,-18.56 -25.21,-1.52 20.47,-22.11 -9.63,27.96 8.63,16.8 -20.47,22.11zm193.11 -7.38c-30.34,-11.99 -12.95,6.79 -22.27,-23.64 28.06,10.47 13.52,-7.65 22.27,23.64zm-156.09 -16.72c-34.43,-16.71 -10.71,-9.57 0,-22.92l4.83 16.76c0.14,-1.76 -3.38,4 -4.83,6.17zm95.19 -39.28c16.65,19.91 11.42,4.35 8.03,32.82 -32.78,-9.81 -45.22,-15.97 -8.03,-32.82zm-137.63 7.73c-0.03,-1.47 -3.48,3.27 -5.16,4.97 -31.71,-39.99 -1.6,-27.46 0,-30.64l5.16 25.67zm147.84 -29.82c43.54,-22.09 7.11,-8.06 23.32,0 -48.11,34.46 -18.35,4.81 -23.32,0zm-95.88 18.26c-29.55,-38.8 -19,-33.67 9.51,-41.86 3.74,7.08 9.7,0.54 6.26,21.95 -5.1,31.71 -7.93,14.28 -15.77,19.91zm26.66 -58.1c-32.42,-14.83 -17.93,4.37 -22.58,-22.17 25.46,6.22 7.97,-8.59 22.58,22.17zm-41.02 -50.19c-4.86,20.38 16.84,7.07 -23.78,20.13 2.93,-27.12 2.61,-21.44 23.78,-20.13zm28.59 -2.63c-1.25,-2.67 -4.71,-1.64 -7.05,-2.51 2.02,-26.27 43.7,-50.72 57.55,0 -10.38,3.05 -12.12,5.22 -26.96,5.69l-23.54 -3.17zm-15.3 -28.89c-54.84,1.11 -20.82,4.76 -31.51,-26.93 36.93,11.09 20.13,-6.27 31.51,26.93zm-133.41 -12.91c13.6,1.8 31.27,2.34 43.43,7.05 27.89,10.81 19.79,15.73 24.37,22.72 -33.65,18.79 -49.41,-9.08 -67.8,-29.77zm217.49 -46.38c-0.91,-41.91 12.09,-12.19 15.21,-2.13 4.39,14.14 -14.88,17.82 -15.21,2.13zm-217.49 46.38l-21.98 -8.33 2.84 -69.24c12.9,-7.74 13.11,-12.11 19.61,-14.92 28.66,-12.41 -17.12,-4.35 11.01,-0.17 30.92,4.6 7.39,7.52 48.34,-1.5l-3.73 64.72c-45.42,-14.79 -1.25,-18.12 -53.72,-15.27l-2.38 44.71zm-141.57 -81.12c-4.53,-4.99 -19.39,-4.6 -14.29,-36.58 4.62,-29 22.86,-36.2 23.82,-37 20.19,34.34 21.54,43.5 -9.53,73.57zm28.66 -12.85c6.04,-22.67 -18.64,-6.44 13.82,-23.02 20.89,-10.7 17.98,-0.44 32.52,-3.94 28.52,-6.85 16.22,-15.15 54.06,-21.67l-26.29 49.56 -74.11 -0.93zm28.45 -51.17c-24.15,-21.07 -11.44,-2.68 -12.09,-33.93 32.26,10.29 20.7,-1.11 32.3,28.71l-20.21 5.22zm114.07 -15.32c-19.59,19.75 -12.92,-6.71 -12.56,-12.56 6.31,-0.22 -10.69,-23.43 12.79,2.93 7.44,8.35 8.56,0.77 -0.23,9.63zm-405.07 -24.92l-4.06 20.25c-36.15,-17.65 -5.41,-15.48 4.06,-20.25zm361.4 0.49c-45.2,-3.97 -17.38,9.86 -27.08,-27.53 28.97,12.92 17.25,-4.1 27.08,27.53zm-153.14 -40.15c38.59,-4.29 20.14,4.32 26.12,7.34 -13.4,42.07 -28.94,38.5 -57.61,9.51 5.46,-5.2 2.08,-13.56 31.49,-16.85zm-98.1 63.56c-16.29,-27.25 -12.21,-28.48 -5.82,-62.89l41.25 -0.22c-6.97,20.48 -6.29,14 -17.34,33.79l-13.96 23.96c-0.53,-1.4 -2.68,3.63 -4.13,5.36zm-216.43 -41.66c25.87,-22.05 -33.31,-12.96 25.49,-23.33 -10.48,22.79 2.94,11.1 -25.49,23.33zm511.5 -7.72c-33.42,-11.28 -7.17,-14.11 0,-23.92 7.19,11.41 10.47,6.08 0,23.92zm-437.85 -43.65c9.27,21.42 10.9,15.17 -9.52,24.08 -18.42,-21.07 -5.33,-16.71 9.52,-24.08zm64.9 8.56l-19.25 3.52c-6.46,-12.85 -18.32,25.33 -4.57,-30.71l30.9 1.46c7.91,43.65 3.12,12.54 -7.08,25.73zm97.64 -0.32c9.96,-23.47 19.08,-24.83 84.94,-49.93 57.72,34.5 67.27,46.16 59.3,69.47 -17.83,8.29 -18.8,1.88 -59.53,-30.05l-37.02 28.36 -47.69 -17.85zm123.24 -38.07c13.39,-12.56 -6.13,-6.76 17.12,-9.58 47.28,-5.73 -10.54,-12.36 11.14,9.58 -29.64,14.78 -9.17,9.91 -28.25,0zm-185.38 0c14.03,-10.16 -4.42,-6.58 20.41,-8.98l12.49 8.98c-12.94,9.76 1.37,5.85 -18.67,7.52 -45.91,3.82 13.38,9.54 -14.22,-7.52zm70.94 -39.83c8.76,12 27.52,-0.06 0,26.48 -34.1,-33.57 -0.06,-26.38 0,-26.48zm-39.73 -0.45c5,41.46 6.63,-5.3 -11.12,9.49l3.24 -23.48c11.03,11.35 5.5,-5.63 7.87,13.99zm-271.28 2.21c0.26,-17.84 -7.72,-3.46 10.37,-4.54 25.35,-1.51 -10.83,37.56 -10.37,4.54zm73.76 -38.04c7.99,28.63 9.67,16.36 -0.72,36.93 -20.24,-16.11 -9.03,10.91 -11.68,-17.95 -2.96,-32.56 5.8,-11.91 12.4,-18.97zm-109.6 22.57c-35.75,-11.25 -21.12,12.11 -34.18,-32.05 42.26,7.44 22.78,-7.17 34.18,32.05zm108.88 -41.85c-22.96,-30.12 -3.79,-15.64 0,-23.47 34.09,52.51 6.9,15.79 0,23.47zm-94.93 -9.31c32.45,-15.51 41.08,-0.79 50.34,30.97 -17.99,-3.49 -16.52,1.26 -34.65,-9.05 -27.47,-15.64 -7.88,-5.1 -15.69,-21.92zm45.97 -19.04c-2.34,-31.35 11.4,-9.49 14.89,0.83 5.67,16.72 -13.72,14.93 -14.89,-0.83zm-36.71 -48.95c3.35,3.93 20.23,-16 12.37,28.89 -4.83,27.62 -11.29,13.21 -21.89,16.24 -16.07,-29.18 -6.01,-29.87 9.52,-45.13zm-47.59 21.21c10.38,25.71 9.29,14.48 -9.52,31.59 -7.16,-12.58 -9.76,1.35 -6.01,-20.01 4.21,-23.98 -0.21,-4.31 15.53,-11.58zm-42.5 -4.99c-39.02,2.1 -14.02,6.41 -29.31,-14.85 13.77,-4.39 -11.03,-20.21 23.27,-0.23 13.82,8.05 2.95,3.89 6.04,15.08zm208.51 -10.21l-13.73 13.63c-1.51,-1.83 -2.98,-4.92 -3.87,-5.97 -27.3,-32.36 0.62,-13.34 -24.12,-17.7l-33.54 19.2c8.43,-56.52 28.42,-53.05 83.24,-64.42l-7.97 55.26zm-176.84 -44.01c27.12,15.54 16.09,-3.73 20.29,30.87 -33.05,-11.78 -17.48,7.14 -20.29,-30.87zm86.71 4.46c-46.28,3.19 -26.26,7.37 -41.23,-26.05 44.29,4.39 26.59,-8.63 41.23,26.05zm29.91 -48.47c26.78,11.38 12.5,-3.49 24.83,27.79 -39.92,-8.04 -29.14,14.82 -24.83,-27.79zm-124.87 -18.2l4.88 9.88c13.35,11.16 11.49,-19.24 13.42,25.51l-27.79 -0.09c-20.31,-27.44 -13.49,-10.85 -11.06,-49.55 37.02,4.54 10.66,-1.71 20.55,14.25zm185.05 15.92c-0.29,-2.68 6.05,-18.79 13.08,1.86 11.88,34.82 -12.02,7.98 -13.08,-1.86zm-137.37 -45.63c25.7,14.98 32.75,13.32 1.56,32.59 -15.74,-21.28 -14.74,-7.15 -1.56,-32.59zm66.56 -21.01c8.67,11.63 13.94,10.6 0,25.94 -26.19,-26.71 -2.4,-22.39 0,-25.94zm-123.73 -6.6c25.06,11.61 31.62,2.51 9.51,32.54 -33.69,-11.68 -28.58,-8.67 -9.51,-32.54zm163.8 15.94c18.59,-24.02 -13.3,-6.59 24.08,-23.88 -13.34,27.85 5.13,18.83 -24.08,23.88zm96.35 -18.85c26.09,-16.29 6.21,-11.24 23.19,0 -29.14,24.23 -16.22,6.5 -23.19,0zm-197.39 11.76c-9.54,-39.06 3.43,-54.88 32.69,-67.68l19.68 17.84 -44.73 45.31c-1.19,-2.05 -5.07,3.06 -7.64,4.52zm132.16 -64.97c-21.95,-2.48 -10.22,3.77 -20.71,-13.75 23.32,3.88 12.49,-10.66 20.71,13.75zm-174.79 3.16c4.84,-35.89 1.06,-25.35 29.83,-34.87 -5.65,36.82 4.04,28.37 -29.83,34.87zm75.05 -60.59c25.95,13.28 32.57,14.98 0,37.86 -11.71,-20.79 -17.31,-7.06 0,-37.86zm292.08 30.48c26.4,-22.46 -28.46,-11.5 21.07,-22.72 -7.69,26.26 7,11.4 -21.07,22.72zm-92.19 -16.55c-26.08,-43.74 -6.08,-11.71 0,-24.65 6.25,12.87 11.72,10.14 0,24.65zm-155.51 -1.83c16.58,-20.97 -34.44,-32.14 28.47,-23.35 -10.16,28.75 8.93,12.06 -28.47,23.35zm-92.97 -41.84c10.82,14.48 22.64,-2.6 2.89,32.18 -15.4,-19.11 -16.32,-8.32 -2.89,-32.18zm209.09 13.96c-19.29,-25.78 -10.84,-23.86 0.77,-53.82 9.68,10.7 13.31,-19.15 12.03,27.07 -0.49,17.33 -5.56,15.11 -12.79,26.76zm-148.13 -35.39c18.64,43.86 0.31,22.36 -2.84,27.06 -26.25,-26.47 -3.07,-20.49 2.84,-27.06zm294.37 -0.02c0.59,-20.64 21.17,13.89 21.17,-66.63l-0.08 -98.53c-102.57,-32.1 -233.46,9.89 -331.36,66.07 -22.17,12.72 -28.02,13.77 -50.44,25.76 -52.43,28.05 -132.6,136.6 -158.37,194.16 -23.94,53.49 -25.11,189.16 -21.36,250.48 2.08,33.86 80.19,153.75 104.61,176.96 49.22,46.79 97.45,77.29 168.16,116.9 68.97,38.63 113.43,62.32 197.48,89.39 143.99,46.42 138.72,60.86 190.34,27.52 1.58,1.86 2.45,5.17 3.1,6.61l52.78 61.25c150.04,98.85 -32.97,160.1 -76.02,178.07l0.43 318.03c155.04,-8.99 293.4,-46.44 391.66,-118.75 42.08,-30.98 35.02,-40.02 60,-73.02 31.03,-41 23.39,3.39 56.04,-67.82 92.95,-202.79 19.9,-399.01 -151.52,-526.59 -61.6,-45.85 -253.77,-175.63 -344.54,-139.53l-19.18 -21.29c-6.84,-4.52 -8.54,-3.59 -19.71,-7.85 -63.31,-24.15 -15.99,-14.63 -61.14,-34.25 -8.36,-3.62 -12.16,-3.99 -21.52,-6.73 -140.68,-41.05 -125.91,-111.87 -137.35,-152.1 82.92,-1.64 6.76,-29.71 106.73,-36.64 73.97,-5.12 61.92,-2.59 62.06,-75.78 0.05,-60.22 12.29,-52.64 -21.98,-85.67z"/>
   <path class="fil0" d="M2612.57 1863.82c-2.65,30.74 5.68,6.9 -21.13,21.41 14.8,-33.19 -14.38,-23.44 21.13,-21.41zm-85.45 -151.4c29.75,10.63 14.05,-2.7 25,24.49 -58.93,-12.89 -1.7,-1.31 -25,-24.49zm47.95 -87.34c-16.82,28.69 -4.43,28.6 -30.26,12.88 18.48,-23.94 -11.66,-12.63 30.26,-12.88zm-212.38 6.53c11.22,-5.1 -15.91,-27.05 23.81,0 -42.41,31.39 -15.77,3.53 -23.81,0zm74.03 -36.49c30.78,39.41 3.7,22.3 0,27.51 -19.64,-24.09 -12.75,31.5 -8.11,-11.66 2.02,-18.93 -3.25,-6.8 8.11,-15.85zm-44.28 -15c-14.65,37.87 7.32,9.58 -23.96,25.1 7.12,-36.64 -22.44,-21.57 23.96,-25.1zm177.54 -109.42c31.63,39.75 4.44,14.21 0,22.34 -1.19,-2.07 -32.09,5.91 0,-22.34zm-409.29 -25.63c1.52,1.56 4.63,1.57 4.66,4.58l-4.66 25.86c-1.05,-1.67 -42.56,15.95 0,-30.44zm428.33 -33.72c11.3,27 12.39,21.74 -18.13,27.65 1.05,-43.59 -9.49,-18.33 18.13,-27.65zm-271.91 -29.92c37.77,14.01 10.68,-7.58 24.3,24.04 -15.52,-3.85 -4.76,8.86 -15.94,-6.4 -1.2,-1.63 -6.33,-15.22 -8.36,-17.64zm55.54 -7.22l22.05 -65 16.51 55.97c70.69,-28.35 13.65,-19.53 43.68,18.78 10.01,12.76 11.17,11.12 19.19,20.13 44.54,50.02 -23.46,25.05 39.89,75.23 -21.91,49.9 -14.03,-12.11 -14.38,82.32l-34.57 -17.78c-1.52,1.43 -3.67,2.24 -4.4,5.9 -0.89,4.37 -7.49,10.22 -8.9,12.17 -6.85,9.41 1.57,4.32 -14.98,20.28l-57 -26.74c-2.02,-68.74 41.73,-54.6 6.16,-110.1 -24.68,13.95 -24.86,67.43 -37.36,97.98 -80.05,-1.32 -38.7,-26.09 -97.75,-39l-25.94 -5.99c94.65,-65.1 56.61,12.17 107.17,17.84 25.18,-48.12 -4.11,-49.51 -29.04,-72.54 -47.46,13.3 -26.71,39.38 -76.7,8.04l-7.08 -54.63c15.47,5.67 4.18,1.12 15.59,9.77l21.08 15.06 32.66 -27.76c16.79,23.94 22.36,32.01 53,50.76 82.73,-49.73 49.27,-10.82 123.52,-1.78 -13.67,-30.65 -33.71,-48.54 -78.48,-52.71 -12.4,15.04 6.82,8.69 -29.32,15.08 6.27,-50.67 4.06,-18.81 15.39,-31.28zm275.93 -43.34c10.28,13.76 24.53,-27.71 6.16,33.31l-25.07 -12.24c-46.22,-11.02 -20.24,0.63 -35.58,-31.82l54.49 10.74zm-124.62 -23.98c-2.51,42.99 6.33,37.69 -37.19,37.37 5.83,-32.4 4.71,-30.99 37.19,-37.37zm-191.94 20.07c26.95,7.32 14.59,-24.15 21.7,30.51 -23.54,-7.79 -33.25,1.49 -21.7,-30.51zm354.24 -24.51c36.45,15.12 25.06,-12.27 24.85,31.12 -27.58,-7.86 -14.56,10.99 -24.85,-31.12zm-127.1 48.96l11.01 -0.71c42.12,0.88 8.36,-3 23.51,14.4 -15.68,18.87 6.78,6.43 -20.85,9.94l-25.11 1.5 -65.22 11.56c18.32,-33.88 18.86,-21.47 56.11,-35.98 7.74,-44.63 -4.15,-30.44 21.85,-52.56 12.26,16.01 14.43,-4.06 -1.3,51.85zm-103.4 -75.43c0.03,0.06 30.25,36.32 -6.79,26.9 -34.7,-8.82 -1.93,-20.92 6.79,-26.9zm142.3 3.45c12.67,-7.82 11.26,-19.92 40.44,0 -44.38,38.89 -40.27,0.2 -40.44,0zm-28.07 -49.53c4.48,8.01 22.3,-4.54 0.06,28.55 -31.64,-26.3 -2.44,-25.36 -0.06,-28.55zm171.33 7.26c-37.93,-10.2 -7.03,-14.58 0,-22.71 25.39,41.18 8.25,8.23 0,22.71zm-133.25 -71.22c-31.8,-32.67 -1.54,-22.01 0,-24.66l7.61 12.86c10.67,41.89 6,-4.47 -7.61,11.8zm38.07 -205.65c-27.5,-16.87 -4.91,-16.19 0,-23.46l0 23.46zm-66.63 -126.58c16.78,22.6 19.39,-1.33 0,28.77 -5.96,-5.96 -14.88,-8.89 0,-28.77zm-513.03 405.32c-0.19,33.66 -2.41,75.17 -0.83,107.85 3.36,69.07 4.03,21.35 25.09,65.8 -23.17,16.43 2.01,-4.43 -22.53,9.54l-1.68 134.92c35.15,13.45 11.44,12.87 57.11,24.97 28.39,7.52 36.95,7.21 55.31,21.78 44.62,35.41 149.49,197.14 194.23,262.51 61.1,89.27 58.22,111.77 196.61,114 69.95,1.12 238.67,6.9 293.46,-8.14 15.7,-66.61 -20.43,-89.74 -50.58,-126.42 -25.43,-30.93 -47.04,-65.27 -71.66,-99.71 -31.86,-44.54 -122.13,-158.91 -127.98,-219.22 55.37,-46.59 98.82,-64.74 146.46,-124.45 132.01,-165.44 144.25,-427.5 65.73,-615.56 -51.36,-123.03 -73.84,-108.83 -118.29,-148.98 -56.53,-51.03 -60.68,-68.04 -159.54,-97.82 -138.88,-41.85 -327.19,-45.04 -480.79,-19.2l1.12 337.07c179.13,-9.51 449.52,-37.34 441.47,182.68 -3.43,93.62 -56.6,163.94 -133.69,187.32 -96.47,29.24 -206.91,0.81 -309.01,11.09z"/>
   <path class="fil0" d="M581.14 1901.01c-9.1,-0.66 -9.71,7.2 -33.81,-12.4 6.86,-4.03 19.36,-52.08 33.81,12.4zm-209.92 -127.15c-3.63,-2.05 -15.59,-14.33 3.96,-21.47l-3.96 21.47zm80.29 -155.22c18.08,-31.51 -13.53,-7.7 29.41,-25.05 -14.92,32.52 12.14,26.83 -29.41,25.05zm-125.12 -39.55c33.55,14.14 26.98,-12.88 23.69,30.89 -33.29,-10.79 -14.98,-2.7 -23.69,-30.89zm-30.43 4.23c-5.35,37.35 9.07,23.94 -28.53,31.7 4.49,-29.36 -0.35,-19.56 28.53,-31.7zm-23.74 -13.87c27.26,-22.73 -28.1,-7.72 25.13,-24.08 -14.26,28.62 13.78,7.11 -25.13,24.08zm-6.82 -95.27c-1.28,-0.15 -5.25,0.38 -6.17,-1.92 -0.95,-2.37 -4.15,-1.58 -6.19,-2.46 18.27,-34.63 47.74,-40.96 74.04,3.2l-61.69 1.17zm98.43 -42.46c0.86,-15.74 -5.02,-3.75 9.76,-4.02 37.16,-0.66 -1.53,-25.47 3.94,2.41 4.86,24.8 -14.1,8.55 -13.7,1.62zm-61.55 -24.39l-33.38 14.06c3.17,-23.95 -7.44,-15.54 10.33,-24.94 29.31,-15.51 11.87,2.09 23.05,10.88zm-135.22 47.05c-35.9,-9.62 -50.48,-19.02 -58.08,-48.65 43.32,-10.72 46.38,9.09 58.08,48.65zm4.43 -41.37l9.35 -19.63c7.05,12.35 8.38,-4.32 3.72,15.13 -3.96,16.5 -1.14,1.7 -13.07,4.5zm27.8 -70.03c47.93,31.33 14.35,3.18 14.35,31.81 -18.33,-12.43 -16.88,22.27 -14.35,-31.81zm117.18 -28.65c-8.96,35.09 8.17,22.34 -28.79,30.64 -1.71,-35.27 -0.83,-23.93 28.79,-30.64zm-145.03 -13l-38.66 65.13 -45.35 -13.4 84.01 -51.73zm0 0c10.02,-25.72 4.12,-19.64 28.45,-33.1 -11.66,34.29 0.53,19.72 -28.45,33.1zm-53.73 -69.48c-41.54,24.86 -35.07,3.16 -38.2,0.68 22.57,-29.63 38.2,-0.68 38.2,-0.68zm201.28 -37.85c7.61,-19.84 3.25,-13.88 13.46,-29.48 12.19,-18.63 15.27,-16 19.73,-19.92 18.23,38.82 4.49,42.54 -33.19,49.4zm-233.33 -38.21c12.94,7.52 14.62,-6.82 13.57,15.92 -1.6,34.67 1.73,1.87 -13.57,13.56 -24.36,-29.06 -10.3,-14.31 0,-29.48zm50.53 -17.58c-40.1,-3.9 -15.58,4.69 -30.76,-13.34 13.1,-3.68 -0.04,-7.12 16.45,-1.66 27.49,9.11 0.94,-3.53 14.31,15zm177.22 -68.16c33.32,-15.22 26.64,-10.5 24.61,13.82 -18.71,2.87 -13.52,6.7 -24.61,-13.82zm-158.06 16.04c-9.53,16.12 10.84,3.32 -13.04,9.58 -14.22,3.73 -11.69,4.48 -13.92,-4.96 -15.72,-17.03 -11.43,14.99 -13.08,-20.66 64.02,-35.18 35.99,-29.91 71.89,-41.12 -4.55,28.23 5.42,8.65 -10.27,37.47 -16.78,30.8 -5.24,7.88 -21.57,19.69zm-72.36 -39.07c-28.91,-11.91 -9.2,2.01 -16.84,-23.65 30.17,9.03 23.39,-12.87 16.84,23.65zm53.2 91.2c101.81,-11.7 -5.63,-38.95 143.39,-6.47 -13.77,-46.26 -24.28,-52.1 -32.72,-106.45 -68.36,-7.88 -79.25,3.3 -61.45,-56.01 49.75,24.53 -8.69,-5.08 28.37,21.98 14.77,10.78 -4.5,1.48 15.41,9.36 21.87,8.67 0.6,-16.89 27.35,12.54 31.79,35 22.59,42.28 18.85,87.16 23.12,9.64 21.1,6.7 46.28,28.69l-22.51 26.36 20.17 92.23c-37.96,2.97 -15.26,-7.36 -46.85,0.85 -17.41,4.52 -15.17,10.76 -43.12,11.47l52.47 -75.64c-37.44,-21.08 -117.26,-27.67 -145.64,-46.06zm203.44 -163.34c2.65,-1.46 -10.77,-29.4 28.02,0 -30.97,29.04 -20.91,4.9 -28.02,0zm-56.39 28.55c5.71,-62.76 25.24,-66.83 25.84,-69.85 0.56,-2.82 3.34,-2.61 5.02,-3.93 15.27,36.56 -3.53,21.25 1.8,53.37 7.14,42.96 9.09,-2.93 18.98,51.71l-51.64 -31.3zm-176.43 -41.26c-8.86,-12.17 -7.54,-10.05 -2.13,-25.75 2.1,2.22 41.72,-20.3 2.13,25.75zm254.88 -45.27c9.69,6.79 15.83,-21 13.87,17.56 -1.61,31.94 -0.53,3.53 -17.92,12.09l4.05 -29.64zm-170.72 23.34c-36.34,-2.59 -13.73,6.7 -39.1,-12.96 1,-14.89 22.8,-35.85 39.1,12.96zm227.89 -42.91l-11.85 -10.08 17.15 -19.3c0.39,-0.44 12.83,-15.33 13.68,-16.45 25.46,8.45 43.57,9 51.91,32.13 -37.37,7.8 -33.4,-4.88 -70.89,13.7zm-99.83 -26.05c-21.07,-26.13 -0.23,-19.08 4.59,-25.87 36.95,40.62 3.08,18.8 -4.59,25.87zm-37.37 -71.39c12.54,-5.94 -26.24,-27.16 30.47,-0.98l-0.07 31.49c-27.9,3.91 -8.72,7.81 -28.28,-7.32l-2.12 -23.19zm125.68 -36.4c0.38,0.27 35.18,5.79 -1,47.07l30.98 -13.51 18.13 -2.69 3.44 23.22 -41.81 18.2 -36.16 14.77 7.48 -26.8 14.95 -9.56c-2.59,-1.81 -8.9,-9.79 -9.6,-13.99 -0.72,-4.35 -2.16,-6.35 -4.21,-8.89l-1.04 -34.89 18.83 7.08zm195.67 43.69c-36.91,0.27 -32.42,-11.17 -40.38,-42.14 35.7,2.76 48.18,5.78 40.38,42.14zm110.87 -64.57c15.41,29.64 15.85,10.51 3.97,44.89 -13.62,-11.1 -14.17,15.05 -19.05,-23.34 -2.96,-23.41 8.77,-16.05 15.08,-21.55zm-263.67 6.85c35.76,5.92 18.62,-5.51 28.23,27.67 -37.86,-5.56 -25.95,9.53 -28.23,-27.67zm208.47 -3.03c-15.25,21.16 -14.7,22.74 -47.35,9.52 13.17,-14.2 -1.17,-40.88 47.35,-9.52zm-125.96 11.16c-33.15,-8.34 -36.35,-11.63 -47.89,-40.26l50.96 -6.35 -3.06 46.61zm26.36 -50.23c11.83,-8.78 -25.56,-30.97 26.85,-3.68 7.26,43.29 2.09,12.31 -7.9,25.11l-20.49 2.81 1.55 -24.24zm-193.82 26.37c3.19,-40.9 -10.89,-21.31 29.62,-32.24 -16.09,32.06 11.64,14.89 -29.62,32.24zm323.43 -55.61l26.31 -7.07 -10.7 24.23c-14.62,13.96 19.39,9.54 -18.97,12.01 -14.93,-19.66 -24.04,-22.59 -28.5,-45.35 24.47,-1.56 25.54,7.82 31.87,16.18zm-191.27 1.69c12.97,-9.01 -4.53,-19.9 23.84,0 -8.71,7.73 4.83,25.13 -23.84,0zm246.28 171.2c7.83,-181.83 -8.71,-152.97 -12.5,-192.67 -3.08,-32.46 13.83,-3.25 13.83,-45.16l-0.21 -133.85c-130.6,5.87 -360.31,91.03 -459.25,172 -40.55,33.18 -62.75,57.99 -99.32,100.47 -140.65,163.4 -250.15,538.33 -140.07,605.39 -25.99,21.91 -26.57,17.04 -21.33,57.29 8.07,61.94 17.32,52.3 33.42,93.66l11.55 34.89c4.92,12.7 18.15,46.61 25.04,60.46 96.73,194.48 377.56,402.16 650.41,405.54l-4.77 -377.38c-135.75,-44.18 -155.45,-35.94 -243.77,-125.47 -65.96,-66.87 -94.25,-146.38 -103.95,-267.26 -7.82,-97.52 41.96,-213.24 104.09,-262.08 162.6,-127.82 116.98,-95.97 246.83,-125.84z"/>
   <path class="fil0" d="M2655.66 3686.45c18.77,9.58 27.03,-4.8 9.52,26.57 -19,-8.5 -26.83,-1.71 -9.52,-26.57zm114 -44.51c24.85,29.31 13.11,8.97 -0.83,25.78 -13.83,-42.48 3.36,-3.07 0.83,-25.78zm-199.67 -46.28c25.85,14.99 26.95,9.56 12.17,44.82 -7.16,-5.23 -13.76,4.85 -19.6,-21.67 -6.16,-27.94 6.22,-21.69 7.44,-23.15zm168.54 -3.24c-1.91,-36.92 19.04,-12.39 16.55,-1.86 -5.28,22.36 -16.47,3.37 -16.55,1.86zm-491.22 -2.72c34.95,0.98 10.01,-7.8 26.94,19.96l-26.94 -19.96zm-553.62 -16.31c8.01,-6.65 -16.68,-24.23 42.4,-3.58 -9.08,7.16 1.09,29.5 -42.4,3.58zm971.48 -39.22c1.3,1.96 4.23,2.52 4.13,5.7l-4.13 18.13c-14.28,-17.68 -19.84,31.49 -7.77,-12.2 11.33,-40.92 -26.06,7.2 7.77,-11.64zm-795.2 -14.52c-11.32,29.45 2.33,14.35 -22.67,23.51 7.47,-27.16 -13.01,-9.58 22.67,-23.51zm873.68 6.16c42.29,-32.72 15.59,-4.16 23.29,0 -2.32,0.97 -5.96,0.87 -6.8,3.29l-11.68 0.01c-0.77,-0.18 -3.07,-2.47 -4.82,-3.3zm-306.59 -26.18c22.88,16.7 24.07,5.98 9.18,38.12 -22.82,-17.36 -24.51,-8.88 -9.18,-38.12zm-212.75 16.66l25.13 0c-9.71,8.2 30.16,36.77 -25.13,0zm148.23 -27.62c-9.49,32.33 3.88,17.3 -22.13,26.73l22.13 -26.73zm-659.23 4.94l7.05 13.3c3.16,48.98 2.63,-17.96 -1.47,15.98 -24.7,-7.3 -42.4,-8.72 -5.58,-29.28zm589.61 -17.05c-9.96,34.66 13.34,17.6 -27.95,24.01 12.21,-31.41 -7.33,-15.09 27.95,-24.01zm-456.51 -13.05l7.88 13.71 -22.54 26.01c-31.21,13.32 -7.61,14.67 -47.45,6.15 2.45,-2.37 6.58,-8.54 7.95,-6.37 1.29,2.04 5.78,-4.38 7.42,-5.93l27.84 -48.17c38.27,5.75 3.94,-1.82 18.88,14.6zm-192.57 0.72c27.41,14.76 12.17,-13 27.77,30.77 -46.69,0.82 -22.78,11.49 -27.77,-30.77zm995.94 40.89c9.09,-37.43 -9.65,-29.98 30.25,-34.56 -4.21,63.57 -5.33,19.42 -30.25,34.56zm-474.48 -17.38l12.79 -6.15c1.05,0.44 5.18,2.77 6.23,3.27 1.33,0.67 3.75,4.71 6.09,6.59 -10.39,4.48 -18.65,24.41 -25.11,-3.71zm548.47 -29.74c12.13,-12.88 36.86,0.03 14.46,11.83 -16.35,8.62 -18.82,-7.19 -14.46,-11.83zm-494.17 10.7c12.71,-11.41 -24.56,-15.25 10.11,-7.32 23.77,5.45 -2.11,-7.49 17.11,10.55 -10,4.76 1.26,30.67 -27.22,-3.23zm-78.43 -17.03c29.03,37.5 4.4,13.69 0,24.08 -5.08,-10.05 -29.27,22.22 0,-24.08zm409.28 82.98c-29.3,-18.28 -36.92,-134.81 66.62,-105.49 6.2,86.25 2.17,74.05 -19.02,86.83 -26.76,-34.92 7.34,-13.82 -9.52,-60.32 -28.94,7.95 -20.88,-12.72 -30.35,31.75 -4.7,22.03 3.43,19.23 -7.72,47.24zm-35.94 -135.93c11.03,-14.53 -16.55,-11.54 25.78,-14.27 7.32,32.12 6.46,4.14 -1.63,33.78 -46.87,6.02 -16.11,0.17 -28.19,-6.75l4.04 -12.76zm-363.83 -8.01c11.62,14.31 17.89,-25.66 8.33,12.45 -8.13,32.39 19.71,-10.89 -12.28,17.51 -11.9,-34.22 -10.69,-20.8 3.94,-29.95zm-378.61 -7.67c24.18,-22.12 4.03,-12.96 35.55,-8.79 -11.98,34.81 -18,35.19 -35.55,8.79zm846.96 -28.56c32.82,-23.85 16.51,-12.84 32.9,1.21 -3.21,2.85 8.3,12.6 -16.23,9.22 -20.59,-2.84 -6.34,-0.3 -16.68,-10.43zm-420.67 -11.96c41.76,3.53 17.36,-9.77 27.91,22.42 -52.36,-8.91 -11.82,-5.11 -27.91,-22.42zm-57.61 10.07c15.17,5.59 15.61,-18.84 15.26,18.55 -11.38,-1.5 -16.88,17.86 -15.26,-18.55zm-312.31 -7.63c8.35,-23.1 -14.94,-11.05 27.94,-22.07 -3.44,30.07 8.71,39.56 -27.94,22.07zm279.3 12.8l-9.78 43.36c-10.57,-6.6 -23.7,17.68 -17.82,-27.47 4.53,-34.75 10.92,-20.32 17.21,-26.61 15.73,-25.97 2.14,-15.61 40.76,-27.31 -3.55,45.81 0.86,29.99 -30.36,38.01zm-356.86 -59.61c1.62,1.87 4.94,2.11 4.97,5.51 0.03,2.94 3.18,4.59 3.08,5.66 -2.09,21.32 2.81,3.51 -8.05,18.18 -4,-5.74 -28.46,0.1 0,-29.35zm849.9 83.7c36.36,19.55 60.25,16.13 79.39,55.56 -40.08,-6.35 -88.5,-19.3 -118.58,-44.86l19.1 -55.9 -39 -26.41c22.3,-12.44 49.22,-16.01 80.09,-15.69l-18.28 35.06c-3.71,13.61 -2.57,37.52 -2.71,52.24zm-802.29 -129.58c10.84,24.48 8.5,14.36 -9.52,30.58 -4.85,-11.09 -21.05,18.41 -4.5,-19.22 6.69,-15.21 0.27,-6.12 14.02,-11.36zm780.37 -2.05l0.06 22.05 -20.45 1.18c-8.47,-13.51 -20.3,27.47 -5.29,-30.83 43.02,-3.1 12.1,-0.88 25.68,7.6zm-717.71 6.61c10.53,7.99 46.95,-28.46 -0.54,25.24l0.54 -25.24zm83.21 -30.46c5.71,1.59 10.83,10.19 13.54,12.96 -31.61,15.01 -18.34,19.17 -38.52,-8.6 19.9,-10.29 -20.52,-17.04 24.98,-4.36zm-127.78 13.94c-4.81,-39.03 -4.23,-52.38 39.61,-57.77 10.17,-1.26 34.78,-0.25 44.6,2.23 31.75,8 22.95,11.95 30.26,19.16 -55.55,37.29 -67.36,31.84 -88.56,9.12l-25.91 27.27zm667.01 214.7l21.02 32.53 -3.14 28.02 -14.12 -0.28c-2.19,-1.65 -4.79,-7.74 -5.96,-5.67 -6.63,11.79 -10.49,-8.14 -12.54,-8.94 -30.43,-11.9 40.16,-5.79 -23.07,-3.47l10.46 -44.44 -4.74 -5.7c-2.21,2.08 -5.09,2.27 -6.22,6.62l-28.1 34.01c-40.16,-1.91 -51.53,-0.03 -82.4,-18.99 -7.46,-58.69 -3.98,-5.8 15.31,-24.18l25.25 -1.51c-23.02,-25.43 -35.73,-20.55 -58.7,-2.86 -11.96,9.03 21.18,20.8 -28.46,6.42 -15.39,-57.64 -4.16,-10.99 5.14,-30.09 9.02,-10.31 10.51,10.3 12.35,-24.9 2.74,-52.59 -6.31,-30.31 -14.8,-39.89l-24.63 79.24c-45.4,4.77 -42.21,12 -63.59,-19.33 18.61,-39.78 11.39,9.96 48.26,-23.48l33.42 -61.56c10.47,-27 -5.53,13.11 6.82,-21.19l8.41 -20.95c0.67,-1.55 1.93,-4.66 3.4,-6.68 55.9,28.32 17.68,60.65 36.18,113.84 13.67,5.94 -2.03,2.36 12.84,-1.26 1.2,-0.3 4.09,-1.48 5.54,-1.82 42.34,-9.81 28.73,-2.99 66.28,3.09l7.11 -9.19 -59.6 -35.9c-2.5,-124.63 15.23,-62.3 -19.55,-126.94 -13.95,-25.96 -9.07,0.56 -9.29,-36.49 22.28,-16.29 41.06,-27.05 82.55,-16.65 -8.4,30.77 23.11,4.38 -32.93,26.22 23.72,31.4 25.04,7.64 13.72,47.17 45.18,-8.56 33.69,-21.55 57.66,9.94l-12.99 5.74c-27.83,11.02 -100.61,44.57 -33.27,82.34l16.89 -51.55c48.84,9.39 21.43,12 57.4,26.41 -17.25,-55.9 4.56,-13.57 12.86,-72.45l-36.26 -27.21c23.89,-12.62 32,-1.96 55.23,6.8 -16.69,122.84 -14.06,73.96 6.27,108.14 7.4,12.45 15.14,-18.07 5.39,30l-58.02 -14.03c11.9,31.48 12.52,70.77 6.67,111.06zm-619.93 -304.96c-42.91,-13.38 -17.82,7.73 -29.9,-27.53 30.61,11.8 16.58,-4.37 29.9,27.53zm587.02 -24.58l25.08 10.12 7.69 -11.26c2.02,-39.17 -2.94,-17.41 10.22,-32.09l13.4 -9.76c12.05,43.03 16.32,33.06 -12.54,63.61l-11.94 29.08 -49.44 -26.46c11.79,-31.75 -7.29,-13.06 17.52,-23.25zm-553.71 -8.96c41.98,-26.77 6.33,-8.28 22.13,0 -7.72,5.05 16.54,40.07 -22.13,0zm501.17 0.3c-15.77,-22.69 -5.34,-12.05 0,-22.7l4.95 17.32c0.13,-1.63 -3.44,3.47 -4.95,5.39zm71.41 -22.54c-82.15,-15.08 -68.7,-27.39 -75.5,-44.39l23.96 -1.07c25.66,9 40.4,27.07 51.54,45.46zm-164.98 -28.1c12.12,-21.79 27.33,-28.91 50.95,-30.58l1.29 30.99c-38.21,14.16 -12.25,13.39 -52.24,-0.41zm145.99 -35.32c2.27,-15.89 -9.97,-1.37 8.71,-5.21 14.13,-2.91 -12.39,30.93 -8.71,5.21zm-683.91 10.52l8.55 -5.31c0.13,-1.67 -3.71,3.31 -8.55,5.31zm127.49 -40.49c-12.6,-6.97 -12.52,6.39 -14.37,-21.8 30.1,9.3 12.49,-2.71 14.37,21.8zm400.38 -27.15c-42.91,37.09 -36.7,3.91 -41.45,0 2.06,-13.92 10.79,-14.09 21.7,-14.63 26.27,-1.3 15.45,9.78 19.75,14.63zm-334.23 11.25c-29.09,-8.93 -18.16,7.87 -29.92,-34.14l36.57 -0.5 -6.65 34.64zm314.11 -95.68c11.77,15.02 24.93,-3.65 0,24.68 -32.65,-23.41 -5.77,-18.21 0,-24.68zm98.29 42.11c-33.66,-28.78 -37.44,-5.18 -49.62,-61.16 38.71,9.59 49.82,29.1 87.9,44.38l-19.49 69.99c-18.88,-20.66 -11.24,-0.72 -18.79,-53.21zm-459.31 -43.33c33.9,-27.23 22.76,-5.69 59.69,-16.79 22.58,-6.8 15.78,-29.46 45.56,7.26 -21.89,15 -32.46,-7.95 -48.82,42.44 -24.59,-5.22 -42.12,-5.21 -56.43,-32.9zm431.33 -21.59c33.54,-23.79 -30.35,-12.42 25.34,-24.43 -9.81,25.01 4.2,11.67 -25.34,24.43zm-278.51 -16.35c-7.62,-25.92 6.72,-15.89 8.31,-18.3 27.48,16.42 25.91,-6.2 13.68,38.93 -27.89,-13.27 -13.06,9.69 -22,-20.63zm167.33 6.17c22.98,-27.66 -33.41,-8.61 26.79,-30.08 -11.74,31.58 6.29,17.97 -26.79,30.08zm-113.66 -17.53c4.06,42.82 7.6,-8.06 -7.28,11.17 -6.49,-5.43 -18.39,-5.92 0,-27.67 8.8,11.71 5.61,-1.07 7.28,16.51zm-188.12 5.39c-20.3,-16.17 -8.63,-10.67 0,-25.39 40.73,56.46 8.29,15.09 0,25.39zm321.34 -41.77c-0.89,-32.85 -19.51,-1.58 10.26,-4.64 17.62,-1.82 -9.64,27.2 -10.26,4.64zm96.63 -9.52l16.88 -4.58c0.83,-2.6 3.82,3.2 5.89,4.58l-11.58 6.78c-28.71,7.14 6.96,7.61 -11.19,-6.78zm-211 -16.54c27.62,10.5 35.14,16.21 45.93,48.49 -39.16,-10.13 -40.33,-5.77 -45.93,-48.49zm-223.96 -17.63c40.19,8.27 17.46,-1.66 29.16,29.18 -35.02,-9.26 -25.27,7.47 -29.16,-29.18zm440.43 -27.27c31.42,3.74 16.01,-3.15 21.55,20.98 -29.67,-2.87 -20.79,6.91 -21.55,-20.98zm-102.89 13.84c7.74,-4.75 -2.88,-26.36 29.66,0 -42.75,39.54 -26.47,2.44 -29.66,0zm-193.13 44.75c0,0 -35.01,40.65 -85.61,12.37 29.23,-28.51 32.87,-4.66 58.49,-24.16 27.11,-20.64 -1.49,-6.92 13.3,-46.52l47.84 12.32c-10.81,25.37 11.65,17.63 -37.48,22.37l3.44 23.63zm74.74 -105.81c-8.64,42.12 7.98,19.48 -23.1,33.73 -8.76,-43.38 1.93,-25.78 23.1,-33.73zm146.04 -56.81c41.39,26.74 19.91,38.79 -13.74,55.11l13.74 -55.11zm-361.89 865.76l-1.67 -23.07c-60.63,-3.01 -49.33,-10.82 -85.85,-43.02 36.79,-23.69 15.31,5.73 33.56,-25.66 20.84,-35.86 -9.42,-16.42 29.57,-40.11 9.13,13.89 32.04,4.4 -13.54,69.3l42.06 11.92c2.03,0.88 5.57,3.08 7.28,3.91 1.86,0.91 5.05,3.24 7.66,4.71l22 -77.65c-14.84,-4.97 7.24,-4.21 -15.55,4.64l-22.43 9.63c-4.5,-57.64 -11.74,-40.58 -27.14,-80.91 86.95,-56.45 55.28,-23.89 101.13,-20.39 16.7,-64.46 16.99,-100.79 28.48,-116.72 52.67,-72.99 -18.06,6.96 44.84,-87.56 47.35,-71.16 30.69,-156.44 101.26,-210.92 71.38,76.45 42.8,63.42 62.1,127.54 5.52,18.31 23.76,32.6 40.79,61.84 28.03,48.1 31.44,43.62 61.44,52.04 12.21,-16.53 -18.52,-4.58 26.04,-21.75 1.07,2.22 2.5,5.36 2.94,6.77 0.42,1.31 1.99,4.77 2.43,6.37l6.63 41.11c-13.09,-3.8 -29.99,-6.76 -40.5,-10.3 -55.83,113.42 -14.37,16.35 -22.95,101.99 -40.24,23.94 -43.77,7.77 -64.16,51.06 -38.33,-11.64 -4.57,-7.17 -24.08,-11.12 -1.24,-0.26 -4,-0.89 -5.21,-0.94 -16.51,-0.62 -14.43,10.75 -45.45,23.55l-10.27 -21.97c-22.45,-33.19 19.78,12.09 -8.83,-11.74 -32.61,-27.14 -69.36,17.6 -80.09,37.66 -41.8,78.14 -15.88,71.85 -8.96,134.53 -44.2,26.54 -46.87,10.27 -68.8,72.72 -12.3,35.05 -29.41,70.85 -34.4,108.62 62.52,-4.73 142.35,2.08 211.36,-0.14 67.12,-2.17 142.55,-4.25 209.1,2.54 151.08,15.44 98.51,130.18 190.67,217.46 75.36,9.29 326.05,11.35 379.8,-18.26 12.47,-80.27 -111.2,-348.56 -148.19,-432.03l-214.44 -518.12c-31.02,-46.02 -14.47,-56.19 -37.55,-105.04 -30.86,-65.35 -56.14,-129.33 -84.04,-200.67 -92.86,-237.35 -28.77,-262.3 -314.39,-254.44 -127.23,3.49 -159.23,-16.64 -215.5,76.43l-247.42 609.26c-55.11,138.31 -105.47,283.16 -160.85,419.57 -13.85,34.16 -32.72,69.66 -42.85,99.2 -7.95,23.21 -7.51,43.66 -16.26,61.13 -0.14,0.3 -116.54,159.14 -85.02,260.01 93.32,10.39 349.23,27.52 403.36,-27.57 32.62,-33.2 98.79,-264.53 131.92,-315.42z"/>
   <path class="fil0" d="M6286.17 3741.08c-40.31,-10.9 -15.09,8.56 -24.97,-27.37 32.82,15.1 10.51,-15.13 24.97,27.37zm-90.7 -155.64c14.35,-28.01 -16.61,2.94 10.58,-24.57 11.78,18.61 11.74,-9.92 4.65,17.55 -4.15,16.02 -2.7,2.52 -15.23,7.03zm24.43 -89.16l5.18 -25.52c3.86,3.07 14.51,-5.83 11.62,14.5 -3.12,22.03 2.22,0.53 -16.8,11.02zm-185.18 -46.05c-27.31,-30.44 -2.57,-18.9 0,-23.55 6.61,12.18 11.4,8.27 0,23.55zm52.71 14.3c-9.66,-37.98 -17.85,-51.18 13.9,-74 15.2,23.49 6.92,-0.92 8.25,28.79 3.1,69.06 1.84,4.51 18.33,58.15l-40.49 -12.94zm-33.68 -60.24c-0.39,-0.47 -33.1,6.62 0,-37.75 33.66,20.32 27.29,18.2 0,37.75zm97.73 -5.69c-15.94,-4.02 -10.08,-5.74 -19.93,-12.45l10.75 -30.73 30.65 43.15c-16.25,1.73 -3.88,4.45 -21.47,0.02zm-352.69 -83.71c2.92,-34.33 -12.69,-23.5 23.18,-26.6 -5.97,22.26 11.71,12.04 -23.18,26.6zm-40.12 -16c-14.89,-8.04 -0.02,-23.55 0,-23.58 6.28,12.64 17.41,-2.38 0,23.58zm427.25 -20.58c8.14,-4.4 -2.12,-20.34 26.92,0 -41.02,41.68 -25.1,1.61 -26.92,0zm75.87 -27.29c-2.08,33.78 14.34,22.84 -22.56,24.32 -1.27,-43.71 4.82,-20.68 22.56,-24.32zm-286.32 -20.31c2.18,-1.34 4.71,-4.64 5.78,-4.99 0.87,-0.28 5.01,-1.85 5.87,-2.06 39.46,-9.99 -7.58,-7.44 11.96,7.05 -2.05,1.48 -4.77,4.49 -5.83,4.83 -0.88,0.27 -5.02,1.78 -5.89,1.99 -41.51,10.13 9.65,8.36 -11.89,-6.82zm278.18 -43.71c22.33,34.03 3.65,21.91 0,29.36 -36.23,-24.45 -24.83,-17.15 0,-29.36zm-193.58 -50.66l9.41 46.79c21.92,13.53 -30.85,20.2 46.22,5.67 -15.7,56.41 -6.36,24.63 32.2,61.27l14.62 51.1c0.98,2.36 2.45,4.69 3.44,6.92l12.49 27.34c-36.06,14.24 -22.54,-4.98 -49.38,10.24 -23.62,13.38 1.36,22.12 -43.89,24.51 13.49,-43.12 15.48,2.22 17.62,-54.69 -23.55,10.39 -21.42,11.47 -41.8,22.27 -0.77,-36.39 6.3,-32.55 -16.76,-55.55 -18.81,19.43 -24.07,67.1 -37.33,100.92 -54.68,5.29 -59.11,5.41 -77.01,-38.17 -21.37,0.27 -41.32,7.6 -56.06,0 25.43,-27.34 35.36,-26.69 75.21,-28.03l17.23 29.8c13.82,17.48 -3.58,8.53 19.77,13.57 37.82,-42.21 -3.33,-51.24 -27.49,-77.31 -43.95,8.09 -13.34,29.13 -70.79,17.32 -12.19,-19.88 -18.5,-33.69 -12.33,-68.46 33.92,23.11 -1.94,12.76 36.03,28.53l29.19 -26.45 55.98 47.89c108.31,-55.73 74.33,1.5 128.65,2.07 -1.45,-47.82 -59.11,-55.79 -101.53,-48.71l36.29 -98.81zm-63.41 20.01c19.26,15.36 22.54,6.04 9.52,36.75 -32.5,-13.45 -33.94,-5.97 -9.52,-36.75zm195.55 -15.75c-5.53,42.53 5.28,39.75 -39.2,38.1 0.84,-36.11 5.57,-31.51 39.2,-38.1zm132 42.53c-28.33,12.55 -45.53,1.99 -59.67,-27.99 33.78,-0.7 40.56,1.44 59.67,27.99zm67.7 -14.01c-44.96,-6.28 -17.76,9.04 -29.77,-29.22 40.11,18.57 15.52,-12.33 29.77,29.22zm-184.59 23.8c4.88,-42.79 -2.75,-48.24 35.16,-62.41l-33.7 102.82c-35.51,-0.92 -34.91,1.88 -63.23,-12.14 21.33,-28.99 19.27,-21.74 61.78,-28.27zm-106.26 -66.9c13.64,-11.31 -4.16,-6.24 17.41,-8.49 41.4,-4.33 -6.91,-7.51 11.66,8.49 -11.67,8.56 3.83,23.74 -29.06,0zm-85.36 11.25c-14.3,-8.92 -0.25,-23.59 0,-23.95l6.72 12.06c9.47,40.31 5.31,-4.17 -6.72,11.9zm276.77 -38.62c30.44,0.06 10.38,1.93 18.92,22.09 -33.75,11.05 -15.8,10.12 -38.94,-4.24 1.09,-11.43 7.42,-17.87 20.02,-17.84zm-105.44 -7.72c19.52,28.7 5.07,16.76 0,24.29 -31.77,-23.88 -10.33,-13.66 0,-24.29zm37.87 -1.92c0.61,-22.51 1.87,-15.92 10.21,-27.43 27.83,24.65 12.63,20.35 -10.21,27.43zm190.57 -19.59c-29.94,-29.46 -0.86,-21.98 0,-23.46 1.54,2.33 5.23,4.96 5.67,6.15 0.32,0.91 2.08,5.08 2.34,5.99 9.93,35.16 6.23,-4.39 -8,11.33zm-114.22 -31.09c9.94,14.09 14.21,13.08 0,29.67 -27.1,-28.04 -3.73,-24.05 0,-29.67zm-35.37 -55.09c32.18,-27.22 19.57,-5.62 26.91,0 -8.49,5.68 2.54,24.2 -26.91,0zm114.43 -60.37l22.19 3.26c-25.86,27.29 -6.68,16.2 -22.19,-3.26zm-60.02 -166.19c9.55,11.25 15.39,8.29 0,25.54 -26.92,-26.31 -3.37,-21.38 0,-25.54zm-66.63 -109.93c14.4,30.8 19.29,15.45 -9.52,33.35 -4.56,-8.75 -8.88,0.44 -5.56,-18.93 4.61,-26.8 -3.18,-2.51 15.08,-14.42zm-72 288.89c-45.33,28.12 -11.79,-13 -37.2,33.54 -15.24,27.91 -6.52,27.04 -27.88,48.35 -80.54,80.38 -312.22,33.94 -403.09,52.62 -1.87,118.48 -15.98,139.78 22.92,170.74 -13.71,40.22 -30.82,-17.18 -21.12,161.16 41.62,23.67 72.48,19.87 111.25,46.26 65.94,44.89 100.65,130.08 139.06,184.64 169.13,240.28 143.1,202.08 268.97,204.21 105.21,1.79 302.08,34.49 314.07,-28.04 6.88,-35.75 -83.41,-146.76 -130.31,-209.89 -34.27,-46.15 -123.45,-162.24 -136.83,-225.73 22.15,-24.05 55.45,-38.62 81.85,-61.64 205.09,-178.8 247.47,-486.04 139.45,-710.92 -57.06,-118.79 -160.14,-220.99 -292.07,-259.8 -106.96,-31.47 -391.18,-57.23 -491.11,-15.94 -23.03,56.45 -6.43,264.55 -6.69,344.28 109.01,6.91 257.41,-21.56 358.61,20.47 48.08,19.97 60.66,59.49 85.42,104.39 46.67,84.56 -3.94,73.04 24.68,141.3z"/>
   <path class="fil0" d="M4103.5 3468.39c11.38,28.47 9.56,6.62 -1.04,28.99 -12.81,-8.43 -13.27,17.45 -13.57,-12.04 -0.3,-29.17 7.54,-10.79 14.61,-16.96zm-152.49 -65.3c25.96,24.31 37.09,32.04 49.51,70.11 -52.83,-4.25 -55.92,-9.35 -49.51,-70.11zm-46.47 21.93c20.64,15.07 15.44,-1.04 8.09,23.78 -39.48,-27.32 -6.14,-6.31 -8.09,-23.78zm-220.9 -138.5c11.63,25.45 14.68,1.47 -1.38,27.59 -31.34,-29.55 0.73,-26.77 1.38,-27.59zm370.89 -8.19c4.5,-2.37 -11.44,-21.65 28.02,0 -13.78,12.92 7.49,5.81 -16.28,8.36 -41.59,4.47 6,6.48 -11.75,-8.36zm66.97 -2.83c-34.05,-11.93 -5.86,-16.47 0,-25.16 38.52,51.65 10.44,10.59 0,25.16zm-170.49 127.61l-39.56 -0.62c4.52,-52.81 29.01,-58.38 13.76,-118.63 -25.07,11.79 -10.17,-2.25 -23.59,21.17l-24.17 81c-56.48,-0.11 -61.11,-2.12 -77.08,-43.51 -36.15,5.39 -34.73,15.68 -56.21,2.46 26.94,-26.05 40.86,-20.99 73.15,-35.06 26.88,31.33 -2.33,22.61 28.14,52.69 64.3,-28.48 0.57,-63.45 -19.04,-80.96 -24.25,9.62 -30.15,32.19 -59.82,19.17 -26.21,-11.5 -25.48,-32.53 -21.88,-65.2l34.11 26.51c15.87,-13.29 18.98,-17.69 36.07,-27.42 30.89,18.67 32.85,32.39 59.11,50.78 75.1,-57.76 51.01,-18.66 124.23,-1.65 -19.03,-48.4 -54.97,-59.61 -106.19,-44.67 3.87,-26.85 25.42,-80.78 44.54,-98.87l7.19 59.11c21.36,-8.83 11.22,-5.59 40.46,-12.26 -12.73,77.17 9.86,21.88 43.6,72.16 -21.62,52.14 -15.49,28.54 -74.42,41.3 -19.22,67.94 -5.59,37.95 -2.42,102.51zm66.11 -181.89c22.19,-44.45 30.7,-8.21 54.23,-31.34 23.54,-23.15 -12.19,-28.11 31.11,-56.31 23.24,26.3 5.54,7.67 17.49,43.48 9.64,28.87 2,-7.56 15.05,35.91 -70.59,-3.5 -57.14,20.75 -70.4,21.31l-47.48 -13.05zm-154.16 -65.35c21.89,12.56 31.18,-0.82 11.06,35.29 -28.93,-14.55 -23.13,-9.62 -11.06,-35.29zm331.55 36.47c-42.67,-4.08 -44.07,-8.21 -59.29,-40.37 40.44,7.38 47.26,6.23 59.29,40.37zm-133.28 -50.98c-8.67,56.54 17.27,30.67 -38.8,38.25 9.56,-48.88 -3.49,-30.27 38.8,-38.25zm198.4 26.56c-39.15,-12.44 -15.07,7.05 -26.32,-25.83 33.05,10.46 16.54,-10.5 26.32,25.83zm-286.11 -30.91c26.45,-32.24 -23.85,-7.78 26.73,-26.28 -13.56,38.75 16.62,18.02 -26.73,26.28zm186.07 -31.73c30.09,-0.56 2.37,-4.72 19.6,15.28 -18.55,9 -17.85,9.14 -38.15,-4.04 13.31,-12.37 -22.16,-10.49 18.55,-11.24zm-104.72 11.54c-2.02,-1.59 -4.86,-4.59 -5.22,-5.68 -18.89,-55.7 -9.49,1.99 5.22,-18.21l4.15 18.4c0.1,-1.49 -2.85,3.59 -4.15,5.49zm46.35 -56.34c22.78,12.9 20.58,-6.7 13.23,28.77 -23.94,-14.08 -24.76,4.49 -13.23,-28.77zm188.8 -15.8c9,14.43 7.33,5.28 4.63,25.01 -11.88,-8.1 -27.82,6.23 -4.63,-25.01zm-127.51 -49.24c-39.2,-6.08 -15.39,8.13 -25.71,-26.7 31.94,12.77 18.15,-7.84 25.71,26.7zm87.19 -54.09c32.62,-22.05 -27.58,-10.97 21.68,-22.05 -6.92,28.88 9.96,10.86 -21.68,22.05zm-61.58 -184.59c9.93,12.38 11.76,10.68 -4.5,24.94l4.5 -24.94zm50.66 -11.46c27.95,-22.35 8.45,-11.98 23.07,0 -28.24,24.98 -9.21,12.86 -23.07,0zm-107.02 -97.8c-1.09,43.35 20.31,24.97 -28.66,32.53 10.6,-44.92 1.71,-22.86 28.66,-32.53zm-124.75 107.45c23.18,34.76 49.68,59.23 42.38,109.98 -38.73,268.74 -230.45,190.01 -461.76,203.64 -0.25,81.23 -13.67,136.91 23.01,171.69 -28.69,56.2 -29.23,43.77 -21.48,161.82 35.05,21.48 71.68,23.57 110.31,50.86 91.68,64.72 97.35,132.7 137.76,185.82l136.28 177.79c40.09,42.34 66.29,19.09 128.92,19.98 66.48,0.96 261.6,19.67 305.46,-4.76 37.1,-45.1 -9.79,-78.57 -38.29,-116.21 -53.49,-70.59 -210.7,-281.14 -215.52,-355.58 108.89,-33.67 205.11,-172.75 243.91,-299.7 85.46,-279.56 -10.63,-627.97 -312.27,-716.76 -141.55,-41.66 -344.37,-49.84 -497.82,-23.82l0.23 350.95c104.67,-5.03 221.97,-13.75 320.53,10.72 72.67,18.04 64.31,22.57 98.34,73.59z"/>
   <path class="fil0" d="M907.98 3697.13c38.95,-38.5 23.41,-3.27 27.88,0 -4.3,1.92 14.4,24.32 -27.88,0zm-98.91 -27.52c10.91,20.08 14.98,0.9 0,25.98 -35.58,-29.18 -2.99,-22.84 0,-25.98zm56.97 -2.37c-15.75,-34.58 -15.8,-26.51 9.66,-44.99 4.84,8.21 14.18,-18.95 6.26,22.96 -6.25,32.97 -10.81,16.98 -15.92,22.03zm-157.09 -20.38c34.24,-23.19 -24.81,-11.74 20.61,-22.94 -6.81,26.57 7.27,9.95 -20.61,22.94zm378.07 -25.89c29.42,-20.71 10.56,-10.9 26.04,0 -14.15,12.67 5.63,5.73 -15.93,8.13 -35.99,4.01 6.47,7.78 -10.11,-8.13zm-249.38 -35.15c-5.33,29.92 5.98,13.97 -19.98,24.44 3.55,-30.66 -7.52,-16.28 19.98,-24.44zm187.41 -2.92l-187.41 2.92zm215.17 -13.92c27.04,-26.06 -29.21,-13.77 20.22,-25.91 -9.13,26.1 7.27,6.77 -20.22,25.91zm-211.08 -4.13l-3.59 -34.95c22.27,9.32 10.81,-12.11 18.41,13.55 13.63,45.93 7.54,0.16 -14.82,21.4zm317 -165.72c-12.32,34.3 -17.35,24.38 -45.73,10.98 3.46,-23.25 28.42,-19.06 45.73,-10.98zm-84.7 -34.81c18.05,37.96 -0.49,9.39 -7.95,21.83 -21.75,-15.12 -23.71,-4.97 -9.52,-31.51 22.06,5.48 6.72,-12.91 17.48,9.68zm28.38 -28.04c9.91,-8.6 -5.34,-28.6 30.69,-3.78 -7.93,4.88 -2.2,4.13 -17.63,6.89 -1.61,0.28 -10.03,-2.14 -13.05,-3.1zm63.06 -22.81c49.91,-28.96 16.03,-6.09 22.69,0l-16.36 3.54c-0.79,-2.33 -4.17,-2.47 -6.34,-3.54zm-140 -19.03l25.64 0c-2.33,1.81 -5.16,5.52 -6.53,6.01 -52.79,18.62 -3.12,7.17 -19.11,-6.01zm-53.64 -38.07c49.26,-40.13 23.27,-5.86 31.33,0 -7.24,5.12 16.87,41.33 -31.33,0zm-69.02 -93.84c-27.06,-18.41 -0.62,-9.38 0.17,-12.1 10.1,-2.33 -12.43,-16.61 11.39,0.54 23.21,16.72 0.99,8.64 0.38,11.08 -9.61,3.11 12.6,17.2 -11.94,0.48zm74.48 -29.9c-26.03,22.08 -9.68,13.99 -43.31,7.26 21.02,-26.6 17.83,-41.91 43.31,-7.26zm27.09 -28.56c58.21,-34.93 15.62,-8.44 26.57,0 -2.28,1.52 -5.14,4.75 -6.43,5.13 -53.47,15.85 -1.06,7.88 -20.14,-5.13zm-120.38 0.53c16.8,-24.88 -12.5,-13.25 24.17,-24.63 -14.59,31.82 12.44,14.35 -24.17,24.63zm-112.99 -14.96c-21.04,-29.18 -0.15,-40.71 19.92,-51.13 5.74,42.14 8.63,31.69 -19.92,51.13zm42.81 -33.15l13.31 -7.2c46.96,-10.7 -7.3,-7.1 13.2,7.2 -53.34,39.38 -16.68,6.83 -26.52,0zm-83.61 14.22c-31.8,-11.8 -16.99,4.46 -22.86,-21.36 28.56,6.81 10.52,-9.1 22.86,21.36zm134.44 -23.64c-16.66,-17.71 0.11,-29.84 0.35,-35.13l36.76 0.68 4.24 43.73c-29.81,0.29 -22,11.31 -41.35,-9.28zm52.93 -47.69c37.73,-21.13 24.3,-7.92 34.47,9.53 -5.18,3.91 11.12,19.79 -24.86,7.8 -12.13,-4.03 -8.16,-12.92 -9.61,-17.34zm-219.62 -5.17c-40.32,-6.98 -15.75,7.47 -26.54,-27.59 33.89,12.75 19.02,-8.87 26.54,27.59zm241.73 -59.78l15.78 -24.88 9.33 22.54 -0.97 12.55c17.91,34.51 10.08,15.72 9.1,35.45 -44.24,-3.09 -18.61,-1.74 -28.65,-11.6l-20.54 -6.56c8.69,-24.61 -4.81,-8.63 15.95,-27.51zm78.79 -36.4c3.65,5.21 30.69,4.9 -9.51,39.81 -0.14,-0.21 -31.35,-13.13 9.51,-39.81zm-130.22 18.96c-41.6,-3.25 -21.36,7.2 -28.18,-20.18 33.18,1.64 13.6,-8.17 28.18,20.18zm186.01 -5.16c-29.54,-20.09 -22.99,-15.01 1.32,-28.16 8.82,21.01 14.57,-0.57 -1.32,28.16zm-159.68 -46.39c24.55,12.11 17.43,7.2 31.3,33.68 -55.37,-4.82 -34.42,16.07 -31.3,-33.68zm113.41 -54.59c25.69,11.33 36.82,-0.09 9.52,34.99 -31.12,-11.81 -32.17,-3.74 -9.52,-34.99zm-142.43 -20.88c5.08,-32.5 -0.93,-20.06 29.81,-31.03 5.96,30.68 6,46.64 -29.81,31.03zm68.21 -57.12c2,-1.43 4.17,-4.89 5.16,-5.24 12.82,-4.55 16.41,3.9 18.44,5.24 -11.43,5.89 14.65,32.43 -23.6,0zm81.62 6.95c21.54,-15.71 49.04,-26.86 80.7,-6.95 -48.62,32.11 -2.49,-42.16 -68.3,44.36l-12.4 -37.42zm-23.44 -48.94l29.39 0.74c-4.24,3.83 12.67,45.58 -29.39,-0.74zm48.12 -16.75c11.71,-11.3 -16.01,-7.14 23.45,-17.03 -9.51,26.39 5.18,18.77 -23.45,17.03zm-56.4 -36.44c2.26,-1.38 4.96,-4.81 6.02,-5.18 40.39,-14.22 4.87,-5.16 15.14,5.18 -35.47,24.37 -10.37,5.5 -21.16,0zm-140.05 -85.66c3.47,-2.2 -11.8,-31.07 30.3,0 -13.44,11.82 -10.15,14.97 -30.3,0zm51.92 -85.67c18.86,-10.51 -1.69,-14.78 28.52,0 -16.36,14.14 6.23,6.2 -17.66,8.81 -34.64,3.8 1.77,3.5 -10.86,-8.81zm59.73 -28.55c36.83,-19.25 17.22,-3.26 24.67,0 -7.16,6.99 3.79,35.49 -24.67,0zm-355.32 771.03c65.95,-9.73 20.31,5.95 75.11,9.99 35.14,2.59 49.95,-13.98 94.85,-11.56 117.26,6.32 191.03,133.24 109.02,224.87 -55.87,62.44 -185.21,46.5 -277.92,44.58 -1.76,118.94 -6.1,248.55 3.55,365.84 187.39,-3.57 348.22,10.86 498.29,-72.58 84.3,-46.85 147,-103.81 187.45,-203.54 55.43,-136.69 30.82,-345.29 -83.93,-432.45 -216.72,-164.59 -1.07,-53.01 39.81,-353.91 31.38,-230.97 -101.12,-382.92 -312.25,-448.8 -119.15,-37.2 -215.33,-17.05 -244.57,-20.43 -41.17,-4.76 -42.73,-7.36 -88.79,-2.23l-0.3 358.03c133.03,14.13 139.05,-30.35 237.58,56.7 11.03,90.84 -20.15,139.97 -48.78,207.79 -17.48,-22.98 -8.85,-36.75 -37.71,-33.05 -41.4,5.28 -3.39,3.27 -28.91,42.07 -65.22,-38.77 -12.68,-13.71 -86.45,-23.56 -18.17,-2.43 -13.6,-3.82 -35.78,-4.2l-0.08 48.92c2.64,16.36 22.26,17.51 22.39,17.18 0.59,-1.69 3.91,0.87 5.62,1.87 -16.19,53.28 -27.43,26.94 -28.42,94.4l0.24 134.08z"/>
   <path class="fil0" d="M382.38 3678.09c14.31,-11.78 -5.23,-24.54 26.1,0 -1.79,1.27 -4.55,1.7 -5.28,3.91 -3.14,9.61 -20.28,-3.53 -20.82,-3.91zm-20.68 -45.39c19.5,27.88 8.31,13.63 0,30.47 -1.36,-1.78 -39.02,4.43 0,-30.47zm-98.42 -50.63c32.67,12.26 14.94,2.51 38.18,27.21 -40.17,16.11 -35.96,12.66 -38.18,-27.21zm175.54 0.84c34.31,-16.93 30.74,-9.35 39.78,24.81 -55.47,-10.98 -25.29,-9.03 -39.78,-24.81zm-102.81 -9.52c21.97,-9.41 25.66,-7.63 46.39,0l-0.04 34.05c-37.66,-10.36 -30.84,-8.44 -46.35,-34.05zm-221.79 -27.24c1.22,1.55 3.98,1.85 3.89,4.44 -0.06,2.31 1.77,4.28 1.63,4.97l-5.52 11.76c-5.02,-8.87 -25.01,20.18 0,-21.17zm161.81 -19.64c9.83,20.99 12.56,15.21 -9.51,26.72 -9.53,-22.11 -11.02,-14.77 9.51,-26.72zm-101.47 -29.26c1.15,-9.37 24.17,-42.49 11.94,-3.64 -5.31,16.84 -13.3,14.89 -11.94,3.64zm-31.79 -41.19c15.29,25.15 15.3,8.3 0,30.34l-8.41 -11.25c2.2,-22.4 -5.61,-5.62 8.41,-19.09zm190.36 -0.39c6.62,8.07 41.41,-31.88 0,22.59 -8.77,-15.93 -17.81,-6.18 0,-22.59zm-69.75 24.84c-4.14,-0.2 -46.31,-13.44 -22.05,-55.11 13.13,-22.57 0.01,-2.43 20.57,-17.02l1.48 72.13zm-77.9 -54.01c32.93,14.84 32.97,-2.39 17.61,34.53 -19.96,-13.23 -7.35,7.47 -16.45,-14.32 -8.97,-21.5 0.5,6.36 -1.17,-20.21zm186.76 -5.62c5.92,27.08 2.75,16.86 -17.9,9.02 0.24,-0.39 -2.8,-16.16 17.9,-9.02zm-219.94 -22.04c9.17,15.31 6.76,11.59 0,26.31 -15.62,-18.22 -21.8,34.73 -8.66,-13 12,-43.61 -30.07,9.02 8.66,-13.3zm148.9 3.21c-0.75,-15.9 19.59,-8.15 16.27,2.64 -0.02,0.06 -1.17,1.7 -1.32,1.72 -39.46,7.31 -13.55,25.59 -14.95,-4.36zm-136.03 -42.73c41.74,15.16 35.95,6.69 49.2,45.31 -60.21,-14.4 -28.85,-1.71 -49.2,-45.31zm50.16 -14.38c0.79,-18.35 20.79,-12.53 16.11,0.53 -3.24,9.06 -17.69,36.7 -16.11,-0.53zm-91.59 -25.6c0.22,0.26 11.93,-6.5 9.82,17.03 -1.98,22.04 -1.05,8.35 -9.82,19.28 -13.41,-19.26 -28.13,-10.36 0,-36.31zm142.78 67.42c-0.68,-0.86 -32.4,6.25 -6.78,-46.81 11.51,-23.83 15.06,-18.17 34.54,-22.48 -15.82,69.92 -3.09,55.73 -27.76,69.28zm-42.63 -102.61c5.56,1.92 28.62,2.74 20.97,21.03 -8.03,19.22 -2.45,7.8 -28.06,12.06l7.1 -33.08zm-80.55 15.02c-28.19,-0.06 -30.53,4.28 -57.37,-11.45l4 -24.96c37.97,0.16 42.72,7.73 53.36,36.41zm53.83 -87.49c12.73,-7.51 1.8,-5.77 20.45,-7.17 48.17,-3.64 -10.72,-8.02 13.63,7.17 -17.5,15.54 7.41,7.29 -20.48,10.3 -52.67,5.7 9.22,10.06 -13.6,-10.3zm310.43 -19.04c2.77,-36.6 6.57,-19 24.76,-9.51 -11.28,15.58 0,20.43 -24.76,9.51zm-93.69 -66.62c26.76,-16.24 23.74,-10.75 41.16,0 -13.65,30.26 -22.04,34.24 -41.16,0zm-233.06 25.46c-25.88,-25.52 -10.43,-51.79 15.53,-78.66 15.73,29.61 13.36,55.64 -15.53,78.66zm281.88 -71.05c-17.22,21.83 3.21,23.38 -31.38,6.05 6.76,-33.91 25.89,-10.03 31.38,-6.05zm-317.41 -2.02c-0.46,-11.14 6.46,-2.16 10.15,-1.16 26.08,7.04 -8.39,43.38 -10.15,1.16zm15.36 -47.59c8,-4.21 -6.68,-8.13 26.86,-6.3 22.67,1.25 -0.11,-1.38 18.35,7.27 -26.62,25.2 -20.13,19.07 -45.21,-0.97zm222.72 52.82l17.86 23.31 -39.2 19.05 32.71 16.75c1.2,-2.08 4.74,2.7 6.97,4.28 -7.87,53.19 -7.13,8.11 -21.5,32.44 -6.5,11.01 -1.12,16.86 -2.51,36.11l-20 -40.02c-3.62,-13.43 -4.16,-23.84 -5.59,-30.32 -1.49,-1.93 -3.29,-4.63 -4.01,-6.08l-16.02 -41.04c-7.54,-26.21 -3.23,-16.12 1.95,-48.27l-24.49 -24.8c-20.29,-30.96 8.64,-30.95 -71.6,-73.58 -36.75,18.31 -11.23,7.8 -34.64,26.32 -43.76,34.59 -26.57,8.55 -32.98,5.44 20.79,-22.02 23.72,-10.08 42.93,-24.37 17.58,-13.06 16.71,-25.02 21.6,-47.03l26.54 18.81c1.77,0.54 4.22,1.44 6.03,1.64 8.87,0.99 19.91,-5.33 35.96,-11.36 -14.25,57.49 -4.65,63.71 48.53,54.13 -4.29,30.03 -11.14,38.29 -20.49,56.66l64.64 8.44c-42.73,31.89 -24.23,-0.42 -47.32,33.06l34.63 10.43zm-274.98 -139.24c-7.51,-15.72 15.18,-19.48 19.77,-21.14l9.64 32.49c-30.11,-3.81 -18.44,11.59 -29.41,-11.35zm186.66 -93.91c13.86,29.95 9.16,9.11 0,30.25 -13.41,-9.03 -14.61,6.74 -13.25,-17.62 1.66,-29.38 4.82,-6.36 13.25,-12.62zm-123.55 -0.53c11.88,-8.98 -0.18,-5.58 15.8,-7.24l8.93 7.24c-36.01,27.72 -21.29,2.36 -24.73,0zm46.9 -37.71c30.82,8.08 20.82,-4.4 25.6,26.05 -37.8,-3.22 -21.11,3.62 -25.6,-26.05zm-100.31 12.05c-0.02,-1.42 -2.62,3.69 -3.88,5.58 -13.86,-11.8 -5.84,3.79 -7.84,-17.11 -0.1,-1.15 2.97,-3.08 3,-6.28 0.04,-3.71 3.26,-4.27 4.84,-6.46 5.21,9.2 5.14,3.15 6.3,18.5 0.08,1.04 -2.39,7.06 -2.42,5.76zm113.12 -50.47c18.78,-28.25 73.83,-26.54 108.99,-16.41 -13.56,32.01 -17.95,21.78 -49.37,20.25 -57.2,-2.8 -29.05,22.61 -59.62,-3.84zm-97.41 0.8c-43.48,-1.03 -14.66,9.49 -24.6,-23.58 31.73,15.11 12.19,-14.59 24.6,23.58zm56.54 -21.27c-0.37,-0.45 -40.87,-11.14 9.52,-55.61 0.48,0.55 22.57,-2.27 11.82,36.57 -7.72,27.87 5.3,5.58 -21.34,19.04zm-101.14 -55.68c33.27,-25.88 11.79,-11.9 25.14,-2.13 -8.16,5.87 2.9,21.21 -25.14,2.13zm176.6 -37.02c-1.46,47.74 12.61,16.42 -24.46,33.71 8.73,-36.43 -3.07,-21.66 24.46,-33.71zm-125.67 29.88c19.55,-20.69 -22.6,-5.01 25.61,-25.22 -12.02,27.67 4.93,16.6 -25.61,25.22zm165.2 -30.94c15.62,-12.65 -6.73,-5.57 17,-7.85 42.49,-4.1 -6.01,-5.83 12.44,7.85 -38.13,28.68 -28.09,1.08 -29.43,0zm79.21 -40.22c-10.84,28.46 6.31,15.43 -16.58,18.98 -15.61,-13.02 -14.9,19.92 -13.68,-23.94 51.22,-10.35 20.39,-0.67 30.26,4.96zm-175.16 51.86c-5.93,-8.04 -18.46,25 -10.68,-29.36 2.14,-14.92 7.21,-16.38 16.93,-23.95 55.14,-43.04 51.67,-5.93 51.69,-5.92 -73.34,45.49 -20.26,15.32 -57.93,59.23zm-28.21 -71.53c-9.16,-9.89 -6.31,-10.02 -0.34,-23.39 3.37,4.05 24.07,-6.67 0.34,23.39zm-105.05 -22.27c-0.07,-0.02 -35.82,20.98 0,-23.56 8.81,19.22 10.37,3.56 0,23.56zm40.14 -39.97c37.37,11.67 17.99,2.45 28.39,26.64 -40.55,-1.26 -25.37,14.97 -28.39,-26.64zm92.48 -4.07c-44.33,-15.7 -18.55,-0.47 -29.23,-26.11 35.64,-14.19 31.11,-10.98 29.23,26.11zm153.45 843.49c-13.63,-8.94 -28.88,-16.9 -53.7,-23.46 17.86,-18.27 -5.51,-28.79 43.99,-7.2l18.67 10.02c53.06,-2.01 12.88,1.77 34.18,-11.32l-5.12 -114.23c34.19,-18.9 29.95,-5.42 54.05,-38.59 39.61,19.15 4.97,-5.49 21.65,27.35l64.81 -2.61 0.97 -157.47c-1.46,-0.83 -4.09,-0.91 -4.91,-1.08 -100.46,-21.11 35.71,27.46 -37.16,-8.44 12.06,-23.27 -5.13,-7.45 31.22,-17.65l8.91 -113.56c-90.91,7.5 -74.27,35.76 -104.51,38.88 -35.82,3.71 -25.56,-11.91 -26.62,-13.52l46.64 -27.4c-29.08,-35.27 -52.45,-6.65 -58.79,-142.85 -3.82,-82.15 5.88,-96.01 82.91,-103.87l5.74 -24.46c-18.33,-9.46 -35.78,-20.9 -47.76,-42.23 44.65,0.9 47.1,-0.78 62.87,30.09 11.06,12.2 11.44,-18.89 10.01,23.03l30.44 -6.19 -1.61 -339.64c-91.6,-4.94 -189.74,-2.42 -282.1,-3.01 -118.34,-0.75 -169.01,-8.6 -245.85,36.13l6.94 182.16c-35.39,141.84 -3.32,89.01 3.66,166.36 3.26,36.07 -7.37,8.4 -16.7,46.65 -9.89,40.57 -6.87,526.12 23.95,606.16 -30.45,39.21 -28.49,39.7 -24.17,106.41 9.43,145.51 -26.1,309.55 41.19,387.7l495.72 -0.67 -2.66 -355.87c-54.88,9.08 -70.64,-3.06 -126.62,-7.9l-11.99 -81.5 -38.26 -16.2z"/>
   <path class="fil0" d="M3378.19 3402.61c2.75,-29.77 -12.63,-45.76 25.84,-19.58 -11.27,20.57 2.69,11.08 -25.84,19.58zm-58.59 -88.71c-30.92,-5.7 -6.8,9.71 -22.5,-23.18 34.69,18.68 18.32,-8.71 22.5,23.18zm63.09 -4.68c-33.05,-17.96 -29.27,-8.12 -13,-39.22 23.26,17.22 21.34,0.89 13,39.22zm100.22 -11.7c-29.36,-36.51 -32.07,-49.32 25.56,-60.66 -4.62,15.29 -6.21,24.02 -10.48,35.1 -13.7,35.55 -1.7,9.25 -15.08,25.56zm-31.48 -84.1c-24.44,21.47 -33.36,26.27 -42.6,-11.25 33.32,-14.31 26.08,-9.05 42.6,11.25zm-8.72 -28.29c1.89,-2.53 4.22,-15.92 5.22,-17.54 9.17,-14.94 3.23,-3.17 17.39,-6.2 -13.56,28.26 8.49,10.48 -22.6,23.73zm-110.67 -30.54c3.6,-2.55 -20.33,-25.29 30.21,-4.61 -7.34,6.58 16.56,34.66 -30.21,4.61zm66.05 -24.95c22.05,11.72 14.16,-7.32 16,15.89 2.14,26.9 -12.17,16.75 -16,19.27 -22.84,-39.87 -4.63,-29.27 0,-35.16zm34.75 -24.71c-40.27,3.49 -16.08,6.94 -26.77,-21.85 38.48,9.11 18.79,-8.67 26.77,21.85zm-168.01 -51.33c30.15,16.03 26.05,-2.2 16.77,41.89 -21.01,-10.19 -30.78,-15.56 -16.77,-41.89zm58.6 -21.49c26.38,9.27 17.73,2.58 27.02,28.52 -37.98,-5.14 -24.3,9.18 -27.02,-28.52zm17.54 -24.18c-29.45,-16.57 -8.26,-11.19 0,-23.02 42.69,53.73 7.76,12.83 0,23.02zm-66.63 -107.63c-29.79,-10.89 4.36,31.91 -7.26,-11.64l7.26 -10.96c9.1,18.98 11.36,3.1 0,22.59zm-55.8 -48.46c31.09,9.87 17.92,2.23 25.53,24.99 -37.73,-0.43 -23.42,11.15 -25.53,-24.99zm68.24 -1.86c34.96,-19.51 20.93,-11.96 31.97,9.52 -20.13,11.11 -15.86,7.71 -31.97,-9.52zm118.78 -38.06c1.66,-1.44 -17.87,-47.39 28.28,0 -26.02,15.42 -9.88,8.47 -28.28,0zm-124.13 9.41c9.74,-33.78 -0.16,-21.73 30.93,-27.91 -11.6,28.83 -3,18.81 -30.93,27.91zm78.57 -50.58c-40.14,-9.7 -4.65,-18.01 0,-23.77 22.83,44.08 8.49,4.78 0,23.77zm24.41 -44.5c-12.97,6.72 -20,6.96 -31.76,-0.32 -33.68,-20.89 -13.42,-7.59 -24.73,-34.83 42.43,7.8 41.89,6.55 56.49,35.15zm21.91 -38.68c-38.49,-12.33 -56.49,-24.57 -70.04,-46.99 12.05,-6.39 4.35,-10.01 29.97,-7.22 53.18,5.82 40.54,46.19 40.07,54.2zm-90.82 -115.09c34.73,-26.11 -23.55,-10.64 22.99,-26.23 -8.37,26.7 5.14,11.59 -22.99,26.23zm15.94 -106.86c-22.63,-39.18 -6.89,-6.51 0,-20.79 23.72,38.72 6.92,14.17 0,20.79zm135.37 612.81c36.25,-41.32 37.36,-0.53 27.88,-67.33 -8.36,-58.93 8.53,-230.27 12.66,-298.44 6.71,-110.18 8.17,-292.41 0.09,-401.54 -72.56,-15.07 -329.26,-17.91 -385.6,15.36 -33.76,59.02 -13.26,112.02 -19.59,180.84l-3.97 305.08c1.49,38.4 11.39,51.69 10.09,83.33 -6.54,158.16 -36.85,880.22 13.67,926.6 42.73,20.26 313.84,31.28 347.61,5.25 59.85,-40.26 12.85,-204.89 33.11,-338.2 14.71,-96.83 6.23,-256.15 6.34,-363.36 -1.34,-50.72 1.95,-15.29 -42.3,-47.61z"/>
   <path class="fil0" d="M5503.79 3697.83c-31.65,-9.91 -11.73,6.85 -24.97,-25.74 31.48,16.54 12.83,-11.5 24.97,25.74zm1.66 -314.8c36.72,-29.64 22.54,-2.53 26.23,0 -11.48,9.2 0.8,28.8 -26.23,0zm-62.02 -86.89c12.73,11.59 13.5,-14.22 9.96,14.83l-22.5 -0.04c-6.52,-25.61 8.89,-15.02 12.54,-14.79zm43.55 -7.52c0.23,-15.98 11.44,-14.04 27.53,-18.3l-2.89 36.08c-17.38,-4.69 -24.93,3.52 -24.63,-17.77zm66.31 -61.3c-29.32,-5.22 -17.77,-12.75 -20.33,-15.64 0.36,-2.05 21.26,-41.15 46.64,9.51 -7.17,3.26 13.58,13.22 -26.31,6.13zm62.61 -38.09c1.48,2.3 5.32,4.78 5.63,5.96 11.25,42.1 12.71,-2.21 -10.69,17.91l5.06 -23.87zm-45.63 -15.62c14.4,-10.23 9.28,-9.66 23.39,0 -11.55,6.35 12.62,31.51 -23.39,0zm-40.03 -42.58c15.24,12.64 15.05,-14.1 15.07,21.37 0.02,23.58 -2.17,7.12 -14.77,18.8 -8.92,-10.37 -6.1,15.83 -9.13,-18.17 -2.23,-24.93 3.5,-13.2 8.83,-22zm33.47 -21c-40.08,-8.51 -15.22,10.05 -26.25,-25.77 35.68,16.69 11.69,-11.48 26.25,25.77zm-166.73 -55.39c30.54,20.65 30.71,14.09 1.74,39.62 -3.98,-8.59 -6,-13.28 -6.54,-18.77 -1.76,-17.64 1.79,-12.99 4.8,-20.85zm66.63 -22.84c28.54,51.39 4.78,22.25 0,31.45 -20.67,-15.29 -14.82,5.01 -13.34,-18.76 1.66,-26.59 6.52,-7.33 13.34,-12.68zm3.08 -48.34l13.2 0.32c11.98,14.64 13.92,-22.17 9.77,25.92 -20.43,5.63 -13,6.75 -33.59,0.22 -3.37,-46.27 -1.93,-13.91 10.62,-26.46zm-52.53 -81.22c-32.97,-13.33 -15.4,6.67 -26.49,-23.48 32.58,7.45 13.58,-11.17 26.49,23.48zm-42.08 -24.57c-34.29,-6.9 -14.09,9.39 -25.5,-26.55 28.54,13.78 16.78,-5.45 25.5,26.55zm44.81 -31.54l27.23 3.84c-21.74,21.8 14.55,5.44 -16.18,9.12 -41.37,4.96 2.31,3.91 -11.05,-12.96zm117.63 -34.22c18.51,-22.24 3.46,-29.68 30.18,0 -20.63,12.89 -7.36,14.79 -30.18,0zm-124.92 11.82c10.11,-31.39 1.09,-23.25 31.93,-28.05 -14.36,44.19 1.6,15.57 -31.93,28.05zm46.92 -123.79c45.36,-11.91 43.89,-4.88 55.95,35.12l-55.95 -35.12zm6.94 -59.36c16.98,-11.3 -24.74,-12.9 26.3,-8.64 31.45,2.62 44.45,24.79 46,53.84 -26.26,-2.25 -58.52,-23.01 -72.3,-45.2zm6.26 -97.98c-9.91,36.43 9.6,18.95 -21.78,28.19 6.72,-35.18 -7.07,-11.59 21.78,-28.19zm129.47 741.91c-4.24,-38.52 7.07,-36.04 34.75,-53.78l0.62 -123.74c-1.95,-1.65 -5.11,-3.14 -6.58,-3.91 -1.44,-0.76 -4.79,-2.81 -6.51,-3.68l-29 -11.44c16.68,-57.89 31.81,2.97 33.44,-66.04 0.87,-36.09 -5.86,-60.36 -1.84,-105.29 13.43,-150.38 17.47,-466.9 9.02,-608.39 -126.39,-13.04 -266.68,-6.8 -384.87,13.36 -19.04,57.69 -20.28,56.71 -13.82,131.38 3.62,41.88 -6.38,95.71 -5.19,149.48 2.26,101.81 10.65,214.53 5.66,314.16 -2.92,58.13 -1.62,103.94 1.15,161.84 2.94,61.84 -6.42,95.71 -8.11,151.9 -3,99.47 -2.37,214.72 0.09,314.48 1.88,76.59 -24.53,257.17 35.01,285.19 15.91,7.5 273.55,11.54 306.02,9.27 63.83,-4.48 53.58,-44.52 56.83,-103.75l7.86 -466.74c-52.75,-7.9 44.76,26.85 -34.53,15.7z"/>
   <path class="fil0" d="M4867.2 3665.82c-8.65,33.62 5.24,14.16 -25.32,25.26 11.21,-35.15 -15.49,-16.75 25.32,-25.26zm-13.3 -43.31c6.76,-44.76 -1.51,-37.38 40.41,-45.34 -10.42,32.09 -4.3,29.94 -40.41,45.34zm50.97 -109.58c-1.87,14.5 5.02,55.82 -24.06,26.6 -19.72,-19.82 12.51,-23.29 24.06,-26.6zm-35.03 -94.94c-2.26,-1.87 -3.97,-6.12 -4.2,-7.72 -2.29,-16.91 4.14,-17.55 7.82,-22.6 24.23,21.25 26.04,21.52 -3.62,30.33zm-128.49 -95.82c0.94,6.12 -13.24,19.61 -10.87,3.74 5.2,-34.92 9.42,-13.09 10.87,-3.74zm46.45 -8.01c-32.04,-36.25 -4.44,-13.88 0,-21.51 5.1,9.18 34.83,-15.49 0,21.51zm24.77 -169.09c32.03,-21.96 30.47,-7.79 41.59,0 -37.62,35.71 -38.33,2.31 -41.59,0zm73.47 -19.03c-1.38,-10.08 6.77,-13.66 12.65,2.7 11.78,32.71 -11.36,6.84 -12.65,-2.7zm-154.42 -19.05c12.87,-7.82 -1.42,-4.65 16.96,-6.08 0.98,-0.07 4.96,4.36 5.69,2.34 0.82,-2.25 3.78,2.53 5.7,3.74 -12.41,10.16 1.67,6.31 -17.62,8.33 -44.43,4.65 10.14,11.03 -10.72,-8.33zm88.84 -33.85c4.04,1.13 10.08,10.87 11.38,12.56 -26.29,17.38 -17.06,26.17 -33.6,-7.27 11.48,-7.81 -16.4,-16.04 22.23,-5.3zm-133.64 -4.21c22.74,-12.31 6.45,-9.13 21.36,1.25 -25.49,21.8 -8.12,11.91 -21.36,-1.25zm194.61 -20.33c4.73,45.86 15.85,-18.04 -7.96,11.6 -23.98,-18.13 -5.93,6.81 -8.53,-17.23 -3.11,-28.66 -3.22,1.55 8.53,-10.68 8.61,10.41 6.01,-2.58 7.96,16.31zm-122.19 -18.73c10.55,23.7 10.46,5.66 -0.16,27.31 -37.96,-26.45 -4.55,-22.48 0.16,-27.31zm64.26 -13.72c18.48,42.06 2.57,4.14 -7.15,21.28 -25.66,-14.58 -25.67,-3.58 -9.51,-33.04 18.35,7.77 8,-7.93 16.66,11.77zm-140.4 -1.33c-21.39,-21.46 -5.8,-15.89 0,-25.19l8.27 12.82c13.57,49.47 8.08,-7.46 -8.27,12.37zm199.01 -22.55c9.65,43.53 8.72,-9.22 -8.65,13.65 -6.57,-8.44 -15.04,-12.46 -3.49,-32.33 21.81,20.76 5.89,-9.6 12.15,18.67zm59.43 -18c1.78,42.22 4.03,2.56 -13.83,20.09 -12.1,-27.73 -12.48,-14.3 2.86,-37.79 9.48,9.81 9.45,-18.23 10.97,17.7zm-258.44 -45.59c32.46,41.93 0.18,31.55 -3.77,35.28 -23.24,-33.35 -3.75,-26.51 3.77,-35.28zm42.88 14.84c8.2,-48.34 -2.35,-24.92 23.74,-38.59 17.17,28.47 4.19,53 -19.04,78.04l-4.7 -39.45zm106.11 -3.36c25.61,-25.62 -9.77,-5.84 20.45,-13.44 47.06,-11.82 -3.06,-4.78 12.45,8.95 -21.37,11.18 -1.73,11.02 -32.89,4.49zm-122.18 -104.69c16.8,13.81 10.44,-11.1 14.82,28.09 -11.81,6.28 22.51,18.42 -29.59,4.41 2.34,-36.41 -7.25,-12.83 14.77,-32.51zm125.48 -40.98c22.6,33.17 11.03,19.78 0,33.32 -36.47,-15.24 -16.51,-22.1 0,-33.32zm55.15 -27.48c18.93,13.56 2.79,-1.25 16.01,16.37 -7.27,4.47 14.22,16.81 -32.34,10.62 -21.77,-2.88 -29.04,-18.94 -36.15,-56.71 27.64,7.64 11.46,4.52 33.76,18.81 4.63,2.96 17.43,9.98 18.71,10.91zm73.57 -45.45l8.45 37.23c-56.02,9.32 -72.51,-0.62 -84.8,-51.99 44.55,14.77 10.82,13.49 44.79,19.88 42.25,7.94 -0.2,2.25 31.56,-5.12zm-259.57 54.98c1.81,-1.09 4.71,-2.46 6.68,-3.63l28.28 -19.34c1.86,-1.14 4.07,-2.81 6.03,-3.88l69.45 -36.05c-8.99,40.35 -14.76,28.37 -16.65,80.46l-42.7 -21.71 -24.95 35.57c-19.16,-6.71 -24.91,-11.74 -39.29,-22.68l13.15 -8.73zm4.04 -50.28c-13.34,19.2 -2.34,37.69 -31.7,1.41 25.29,-26.56 31.47,-1.51 31.7,-1.41zm30.82 -16.59c12.96,-13.09 -18.78,-19.01 19.23,-19.78 31.51,-0.64 3.48,-4 15.27,17.33 -12.69,6.48 -17,10.67 -34.5,2.46zm125.12 4.78c1.14,-1.87 3.62,6 5.29,9.09 -2.68,-1.69 -13.04,-10.04 -15.69,-11.68l-21.9 -11.21c-25.17,-12.01 -34.5,14.99 -23.42,-37.65 32.38,5.44 14.98,-1.14 35.88,24.48l19.84 26.97zm65.93 -26.03c-40.1,4.47 -14.89,9.38 -19.5,-24.52l19.5 24.52zm-47.48 -84.57c30.97,12.79 41.05,6.18 -4.31,28.9l4.31 -28.9zm-9.52 -8.21c-35.31,-26.7 -0.44,-23.24 0,-23.89 28.13,44.64 5.69,16.41 0,23.89zm49.49 -47.21c10.57,-9.69 -17.83,-12.6 24.11,-9.47l4.29 54.49 -27.7 -4.82c-1.45,-3.07 -4.26,-3.47 -6.5,-5.06 -28.2,-21.39 -6.9,8.3 -20.63,-32.24l26.43 -2.9zm-141.65 92.56c-16.87,25.43 -13.77,13.23 -50.87,21.37 -18.79,33.28 2.57,14.81 -27.31,25.65 0.72,-32.25 -2.9,-58.56 28.15,-59.82l16.58 -2.01c19.92,-35.69 41.54,-18.35 71.79,-39.59 45.16,-31.72 -4.36,-53.75 50.78,-57.18 -12.12,37.73 -33.4,70.8 -34.12,109.12 -83.75,-11.75 -42.6,-6.72 -55,2.46zm194.05 -162.22c-35.16,33.48 -49.42,-4.51 -61.26,-27.49 28.52,3.35 43.95,8.4 61.26,27.49zm-200.79 -42.39c-31.2,-4.07 -6.53,7.74 -22.28,-21.75 33.05,16.86 19.43,-11.25 22.28,21.75zm232.97 416.91l-17.12 0.98 -20.53 -5.26 4.31 -17.37 -6.79 -7.11 -42.02 5.92 12.23 37.55 45.24 5.7c-14.04,35.71 -26.48,19.38 -44.57,6.95l-32.55 -15.56 3.97 -46.71c50.04,-27.33 27.74,15.12 72.96,-30.45 45.57,-45.94 14.72,-153.33 21.98,-261.56 17.72,-264.45 -51.38,-216.75 -159.42,-213.05 -184.29,6.31 -234.99,-62.33 -240.81,136.84 -3.59,122.63 -11.18,256.04 15.21,372.08l41.79 -16.83c7.31,38.99 -2.94,27.9 -3.28,29.72 -10.48,56.12 22.14,8.05 -11.76,62.7 -26.71,43.06 -38.07,49.19 -38.65,113.47 -1.83,203.87 -18,467.77 2.32,661.71 8.07,77.05 -32.9,48.9 34.56,166.3 263.77,-21.51 366.2,63.04 360.87,-142.08l2.06 -843.95z"/>
   <path class="fil0" d="M6970.4 3690.52c23.49,-17.85 -18.25,-8.86 24.44,-21 -8.26,24.64 8.43,11.17 -24.44,21zm54.23 -175.92c3.01,6.35 4.03,6 6.75,19.8 0.35,1.8 -0.86,11.27 -1.3,14.41 -36.1,-15.56 -42.76,-13.92 -5.45,-34.21zm-31.23 -112.55c42.72,-21.67 23.95,-0.89 25.33,0 -15.27,10.83 -10.94,10.77 -25.33,0zm55.5 -3.92c22.71,-24.31 -30.73,-11.37 22.59,-25.36 -11.88,29.55 13.96,5.77 -22.59,25.36zm-140.98 -91.27c2.22,-1.65 4.58,-5.58 5.69,-6.03 51.25,-20.85 2.04,-7.15 16.81,9.79l-22.5 -3.76zm-7.04 -141.05c9.3,7.54 10.55,-17.18 13.28,22.12 -25.23,-0.08 -22.28,-1.43 -13.28,-22.12zm45.15 -20.76c0.92,-0.74 -7.09,-38.94 36.52,2.33 -39.74,25.33 -31,1.34 -36.52,-2.33zm92.86 -4.67c-44.82,-7.09 -18.4,5.73 -23.54,-21.45 29.57,10 7.4,-13.03 23.54,21.45zm-45.41 -17.59c-39.1,-12.53 -19.47,3.16 -21.94,-21.75 22.87,7.88 8.18,-4.91 21.94,21.75zm-130.62 -15.82c30.78,-15.33 15.13,-7.25 27.08,0 -13.11,12.44 4.86,6.28 -16.34,8.72 -48.4,5.6 11.39,12.44 -10.74,-8.72zm72.97 -17.2c-19.7,-17.49 -3.75,-1.77 -7.79,-24.41 60.4,12.9 24.31,25.39 24.01,26.6 -3.98,0.67 9.06,20.22 -16.22,-2.19zm-120.05 -20.87l23.29 0c-41.73,32.9 -17.47,5.89 -23.29,0zm174.71 -19.04c42.13,-23.28 14.45,-7.31 24.24,4.22l-24.24 -4.22zm-107.84 5.82c-29.44,-20.28 -2.15,-24.29 -0.81,-26.79 1.56,1.86 43.57,-15.47 0.81,26.79zm76.26 -20.35c-48.79,-3.51 -20.33,5.89 -30.06,-27.45 50.37,8.15 17.99,-14.21 30.06,27.45zm-133.51 -22.15c-40.96,-2.02 -14.24,9.26 -23.95,-25.07 32.02,16.28 14.25,-10.77 23.95,25.07zm192.1 -31.22l-0.55 23.32 -19.73 0.58c-10.83,-15.49 -18.3,26.93 -8.93,-29.38 40.3,-6.09 20.62,0.6 29.21,5.48zm45.2 -26c34.95,45.39 2.79,33.65 0,37.02 -12.24,-13 -7.2,13.63 -10.44,-19.43 -3.57,-36.39 2.2,-8.74 10.44,-17.58zm-241.58 -27.35c7.58,54.97 3.96,20.56 -5.91,33.76 -45.75,-47.12 3.17,-30.82 5.91,-33.76zm138.41 -2.5c25.52,-10.06 21.97,-11.67 37.28,9.51 -7.04,3.5 7.27,14.12 -24.4,4.99 -23.89,-6.91 -4.5,-2.39 -12.87,-14.5zm-74.04 -0.33c-0.77,24.28 0.72,3.16 -13.16,14.74 -13.1,-15.26 -6.06,-0.51 -7.74,-21.4 -3.5,-43.6 -4.66,4.2 7.74,-12.77 5.28,4.85 14.06,-9 13.16,19.43zm48.02 -16.82c-0.03,-1.33 -2.75,3.35 -4.08,5.07 -42.48,-41.85 -0.67,-29.67 0,-30.66 12.43,23.49 4.08,25.62 4.08,25.59zm-79.02 -68.66c-7.41,44.29 6.24,18.45 -20.23,27.33 -18.21,-28.77 -1.6,-23.2 20.23,-27.33zm255.8 11.76c-32.28,-11.96 4.09,29.51 -7.8,-11.46l7.8 11.46zm-135.27 -34.91c-6.59,22.66 -1.24,4.96 -17.04,10.28 -25.43,-32.81 0.5,-29.38 12.92,-30.28 4.55,10.69 10.35,-1.49 4.11,20zm-150.05 -33.81c27.67,-26.65 98.07,-80.33 97.63,7.32 -17.17,-9.43 -16.84,-11.57 -40.75,-15.18 -19.09,25.95 -4.71,16.62 -28.55,34.37l-28.32 -26.51zm211.08 0c-17.02,11.32 -25.09,23.83 -51.29,2.17 -12.96,-10.73 -15.87,-33.48 -18.67,-51.12l54.86 33.95c13.19,9.97 7.1,5.42 15.1,15zm-91.24 -70.38c-10.7,45.32 8.98,19.4 -26.04,34.49 5.64,-47.69 -17.38,-17.19 26.04,-34.49zm-125.41 27.89c-18.71,-2.11 -7.87,-7.37 -13.34,-16.3 37.78,-28.49 33.31,1.62 33.42,1.67 -14.28,21.49 12.69,18.3 -20.08,14.63zm279.08 20.35c-57.17,5.61 -66.92,-9.07 -81.87,-53.9 50.22,6.31 22.16,30.91 73.92,12.01 5.91,30.16 6.07,14.69 7.94,41.9zm-111.94 -37.35c-33.97,-16.91 -5.93,-15.77 0,-22.84 29.87,47.96 7.73,7.93 0,22.84zm-102.77 -10.74c-29.69,-5.17 -5.11,-0.64 -13.09,-15.45 29.74,-17.4 18.55,-18.05 32.13,9.51 -18.38,10.02 16.55,12.13 -19.03,5.94zm83.83 -16.02c-38.68,-2.61 -30.61,8.23 -34.05,-27.98 33.65,-12.1 31,-2.89 34.05,27.98zm-114.32 -73.1c5.69,7.81 33.96,-18.47 7.86,40.54l-26.61 25.6c-1.71,-2.18 -6.33,3.51 -9.52,5.2l28.26 -71.34zm156.1 -19.43c25.66,5.52 18.03,-0.37 21.88,23.59 -34.76,-0.45 -22.49,8.23 -21.88,-23.59zm-205.62 -11.61c0.04,-1.33 10.02,-18.55 14.2,3.07 1.92,9.83 -15.56,38.54 -14.2,-3.07zm273.17 -3.12c-43.36,-7.28 -24.83,7.65 -48.38,-25.43 9.21,-19.83 20.65,-18.04 44.88,-22.41l3.5 47.83zm-198.8 61.06c0.44,-65.39 20.23,-31.92 66.33,-61.71 53.81,-34.78 -5.64,-41.81 55.53,-63.31 -12.56,46.71 -32.36,65.11 -34.41,113.29 -20.51,-4.2 -25.41,-10.11 -42.97,-6.3 -52.82,11.45 42.87,-17.58 -19.63,9.59 -8.31,3.6 7.86,2.38 -24.84,8.43zm-16.64 -134.08c-2.16,-40.14 11.67,-9.85 14.48,-2.11 5.19,14.27 -13.91,12.82 -14.48,2.11zm240.02 -38.07c-36.35,19.32 -45.28,0.36 -55.16,-28.11 30.15,2.91 38.62,1.94 55.16,28.11zm8.72 341.69l-51.5 16.11c3.12,41.38 14.52,31.56 54.47,37.48 -7.86,7.42 2.54,26.68 -48.23,14.01 -51.27,-12.77 -27.97,-61.8 -16.47,-86.96l49.23 4.53c13.06,-42 5.18,-6.64 17.96,-26.62 22.1,-34.56 2.84,-22.62 13.28,-80.26 10.32,-57.04 3.16,-81.64 1.64,-134.53 -3.54,-121.85 36.99,-164.75 -39.37,-252.75 -59.03,-6.66 -171.64,-3.4 -238.3,-4.97 -156.3,-3.64 -117.95,87.45 -119.43,353.13 -0.99,177.58 -1.87,152.47 63.9,150.28 -6.21,53.6 -11.84,6.88 -14.11,47.8 -1.84,33.45 23.08,-6.64 -9.85,44.48 -25.4,39.42 -37.61,51.33 -36.85,109.11 2.16,164.89 5.45,425.17 -3.64,584.07 -5.88,102.75 -0.75,169.78 41.44,245.93 379.47,-30.57 362.07,101.97 360.6,-325.01l-0.45 -685.33c-15.31,-12.8 22.19,-25.53 -24.32,-10.5z"/>
   <path class="fil0" d="M1856.1 1841.66c-14.79,-10.99 -0.04,-24.1 0,-24.18 22.29,44.75 5.99,15.92 0,24.18zm18.77 -312.8c5.77,7.03 23.02,-4.86 1.83,23.09 -8.63,-14.15 -7.07,-7.86 -1.83,-23.09zm-58.44 -75.57c-4.6,21.09 8.16,30.11 -24.33,14.1 3.07,-13.24 9.86,-10.63 24.33,-14.1zm49.19 -20.99c8.52,11 16.11,8.48 0,32.8 -13.24,-14.51 -5.95,0.46 -7.71,-20.74 -0.1,-1.28 2.92,-2.96 2.96,-6.19 0.03,-3.56 3.21,-3.89 4.75,-5.88zm34.13 -6.54c20.45,-22.38 -32.45,-9.26 24.36,-24.32 -14.35,32.98 12.42,10.78 -24.36,24.32zm34.63 -33.88c-39.07,-4.79 -28.94,2.41 -41.56,-29.32 32.5,-20.27 39.63,-3.79 41.56,29.32zm-3.06 -55.33l23.87 0c-2.23,1.52 -5.16,4.65 -6.35,5.02 -0.94,0.29 -5.2,1.85 -6.14,2.09 -41.29,10.14 6.03,6.93 -11.39,-7.11zm-29.9 -20.48l-7.25 13.12c-8.48,-9.23 -15.8,-11.3 0,-33.09 8.26,13.5 5.76,1.03 7.25,19.97zm-2.72 -39.31c29.59,-21.31 -31.04,-16.53 21.04,-21.91 -7.38,25.07 6.34,9 -21.04,21.91zm-118.62 -41.33l0.74 30.45 -18.77 -12.83c-10.4,-15.98 -13.39,24.79 -9.2,-30.41 38.26,-1.52 15.47,-1.1 27.24,12.79zm33.8 -33.56c38.54,13.29 19.8,-16.21 28,33.52 -34.79,-14.55 -18.4,7.97 -28,-33.52zm-48.38 -14.07c-40.3,-9.24 -16.69,5.21 -23.54,-21.27 23.72,8.56 12.1,-3.73 23.54,21.27zm71.58 -7.78c-42.22,-15.43 -4.53,-18.79 0,-24.07 24.57,44.24 8.29,9.05 0,24.07zm66.62 -23.61l0 -22.15c7.51,17.62 13.53,-0.61 0,22.15zm-133.25 -105.87c10.19,18.46 19.17,-1.26 0,26.84 -33.21,-28.33 -2.49,-23.86 0,-26.84zm-51.95 -9.06c10.45,-4.84 -14.1,-25.7 24.09,0 -2.05,1.79 -4.5,5.44 -5.65,5.88 -50.37,19.11 -0.84,8.13 -18.44,-5.88zm177.24 -57.11c22.44,-16.27 5.44,-14.65 28.8,0 -10.66,8.18 -8.83,16.73 -28.8,0zm-119.96 17.03c21.53,-22.85 -29.17,-21.21 31.77,-28.47 -12.52,32.25 5.01,16.11 -31.77,28.47zm99.26 -86.78c-39.92,-7.57 -34.77,-3.83 -51,-40.15 42.62,5.84 39.38,3.23 51,40.15zm-43.45 -96.89c42.34,3.31 74.21,12.8 61.63,51.79l-44.03 -22.62c-20.34,-10.53 -16.06,-1.08 -17.59,-29.16zm-19.68 -71.33c2.44,-1.17 5.56,-4.17 6.79,-4.5l11.94 0c0.81,-2.38 3.33,3.07 5.1,4.5 -44.07,34.08 -13.98,5.95 -23.82,0zm146.54 501.57c39.9,-24.13 27.93,-31.13 24.38,-82.75l4.59 -571.1c1.62,-29.09 2.51,-61.52 -5.02,-87.93 -461.53,-17.85 -358.38,-3.97 -377.37,211.65 -6.98,79.28 10.25,263.19 7.97,343.85 -1,35.76 -10.05,44.42 -7.32,94.18 9.18,167.2 -4.52,203 -4.19,342.49 1.2,518.45 -32.51,484.96 187.71,477.38 68.1,-2.34 138.24,6.86 190.11,-19.03 15.39,-58.95 8.53,-443.88 8.5,-553.54 -0.04,-127.9 14.5,-113.59 -29.37,-155.2z"/>
   <path class="fil0" d="M1066.06 1782.9l0 -23.47c4.16,9.24 28.71,-17.87 0,23.47zm67 -9.22c-32.36,-6.29 -11.63,6.33 -24.01,-23.23 28.41,11.75 17.95,-6.85 24.01,23.23zm-105.07 -57.6c9.73,6.77 19.53,-2.7 16.26,27.48 -3.26,30.09 -13.56,18.9 -16.26,21.15 -13.55,-28.4 -11.36,-24.58 0,-48.62zm129.49 62.51c6.47,-39.38 2.6,-51.84 35.25,-44.62 4.65,24.88 -6.26,30.43 -35.25,44.62zm64.97 -86.35c36.72,-2.11 34.66,8.65 45.73,39.04 -40.84,-4.1 -43.89,1.2 -45.73,-39.04zm-61.21 -48.73c12.84,24.75 10.2,6.24 0.06,23.76 -30.12,-22.62 -7.46,-15.2 -0.06,-23.76zm60.54 -10.75c16.37,15.73 10.62,-16.14 15.52,25.92 -19.74,3.58 -11.01,7.52 -37.73,-6.03l-3.73 -31.89 25.95 12zm34.65 -30.33c5.24,7.2 6.55,-1.36 8.89,19.21 3.28,28.65 1.68,4.16 -7.37,17.35 -24.94,-20.6 -20.97,-9.3 -1.53,-36.56zm-187.25 32.37c21.13,-22.89 -32.91,-6.74 28.43,-27 -15.93,34.41 13.61,13.48 -28.43,27zm-106.87 -41.21c10.4,39.66 12.51,41.05 -14.23,66.65l-15.39 -45.61 -108.93 15.58 1.56 383.79c169.5,-9.38 284.32,-68.89 397.28,-140.24 87.4,-55.2 233.54,-184.27 222.36,-300.95 -91.99,-65.09 -173.59,-69.53 -200.11,-82.07 -20.59,-9.73 -34.67,-30.59 -58.96,-38.39 -84.65,-27.2 -95.86,80.33 -223.56,141.24z"/>
   <path class="fil0" d="M1313.54 801.89c16.23,19.53 13.66,-30.5 9.35,13.33 -2.72,27.67 4.15,2.75 -9.35,20.48 -18.67,-25.82 -12.8,29.64 -8.73,-14.15 2.27,-24.16 -7.26,-4.49 8.73,-19.66zm-47.59 -35.58c24.46,14.27 27.89,15.22 9.51,45.81 -1.55,-1.6 -8.69,7.17 -16.61,-21.87 -12.55,-46.12 -1.99,-11.39 7.1,-23.94zm-21.52 -20.32c-38.35,-45.06 2.14,-33.71 2.48,-34.29 21.78,15.47 18.61,-13.74 14.12,20.52 -2.91,22.21 -4.79,6.28 -16.6,13.77zm-393.96 -56.71c36.26,-35.07 30.8,-3.83 35.13,0 -20.65,11.99 -3.97,20.76 -35.13,0zm129.93 -44.03c-35.38,-12.95 -5.41,-16.5 0,-24.15 24.26,45.11 0,24.15 0,24.15zm63.57 -54.94c-11.5,44.2 5.75,22.3 -22.16,29 1.3,-36.03 -11.81,-13.41 22.16,-29zm-220.27 241.75c25.41,49.51 43.77,6.1 165.16,77.21 21.82,12.78 54.28,32.6 72.55,50.89 28.14,28.21 27.4,49.04 59.85,64.51 66.18,31.55 126.89,-27 177.3,-44.57 288.39,-100.65 117.51,-140.71 49.72,-250.29l-59.02 -53.93c-0.8,-0.81 -10.76,-14.58 -12.4,-16.82 -40.89,-55.63 -224.34,-157.9 -317.86,-151.05 -1.9,0.13 -4.68,0.17 -6.49,0.4 -27.57,3.51 -16.51,-5.76 -40.12,21.69 0,-3.16 -0.04,-18.33 -0.52,-20.49 -5.31,-23.7 -3.05,-12.42 -7.63,-21.49l-80.69 -2.78c0.57,65.5 -6.94,80.71 7.71,140.27 7.97,32.41 -8.43,10.86 -7.62,111.21 0.26,31.75 0.18,63.5 0.06,95.25z"/>
   <path class="fil0" d="M4993.8 1832.94c-2.73,42.89 7.97,14.2 -22.44,36.31 6.94,-34.1 -7.06,-21.29 22.44,-36.31zm-354.61 -283.3c-45.48,47.36 12.39,168.27 34.4,205.65 76.23,129.54 113.11,110.25 193.75,168.25 17.58,12.64 -12.94,-3.27 17.51,11.55 20.47,9.96 76.52,20.63 103.6,27.37 61.79,15.34 147.4,43.66 213.21,35.72 1.05,-81.74 5.03,-182.35 1.01,-262.33 -0.94,-18.3 1.06,-14.78 -4.89,-30.45 -12.54,-33.1 -33.27,-36.36 -55.47,-40.6 -83.23,-15.91 -54.64,-2.42 -154.08,-100.16 -35.09,-34.52 -41.22,-34.26 -105.03,-32.59 -49.67,1.31 -217.59,-9.94 -244.01,17.58z"/>
   <path class="fil0" d="M6288.79 1832.97c19.08,15.98 39.89,0.36 2.92,31.7l-2.92 -31.7zm174.25 -66.09c28.83,31.26 6.33,19.13 0,26.69 -8.9,-16.06 -20.01,-5.58 0,-26.69zm42.12 -92.76c-215.02,-10.4 -128.67,-138.95 -298.65,-145.09 -57.49,-2.07 -157.76,-2.52 -211.92,4.05 -123.99,15.05 -27.86,215.58 40.66,288.32 88.6,94.05 76.76,54.74 128.46,89.43 35.15,23.58 -10.17,5.27 34.29,24.11 35.06,14.85 252.21,73.51 306.54,58.38l0.62 -319.2z"/>
   <path class="fil0" d="M6902.05 813.03c18.91,-14.98 1.7,-20.77 24.28,0 -35.64,28.94 -20.79,2.58 -24.28,0zm-263.49 -47.35c-20.82,-19.06 -15.4,25.83 -12.99,-12.73 1.76,-28.32 -3.66,-4.37 8.82,-19.23l4.17 31.97zm200.31 -58.69c36.77,12.09 10.65,-7.13 25.34,27.25 -33.34,-12.75 -8.52,-4.13 -25.34,-27.25zm-156.9 -0.02c2.35,2.9 35.62,-19.18 1.77,26.59 -8.46,-15.1 -15.4,-5.91 -1.77,-26.59zm432.43 231.75c13.01,-46.69 -23.08,-148.08 -47.81,-186.93 -13.07,-20.55 -11.5,-12 -23.45,-33.3 -22.65,-40.41 -16.65,-52.25 -85.95,-104.48 -81.91,-61.74 -239.04,-124.33 -371.25,-131.94 -7.21,81.86 -1.8,180.65 -2.68,264.75 -1.37,129.53 53.09,55.22 126.85,142.74 58.74,69.73 36.33,101.45 171.75,94.13 72.28,-3.9 196.72,13.43 232.56,-44.97z"/>
   <path class="fil0" d="M5590.36 826.17c2.15,-2.34 7.34,-16.39 8.56,-17.99 11.95,-15.45 1.55,-2.85 16.77,-4.75 -14.07,25.73 7.35,8.49 -25.33,22.74zm-269.53 -95.91c21.66,30.65 15.66,10.9 0,34.68 -12.21,-10.99 -8.16,5.3 -10.58,-18.08 -3.26,-31.62 6.91,-12.91 10.58,-16.6zm232.11 1.65c-38.08,-6.72 -15.86,7.33 -25.51,-26.62 32.63,16.05 11.84,-10.97 25.51,26.62zm-272.61 93.1c200.89,58.37 101.95,111.49 187.34,146.13 41.38,16.8 294.25,11.58 316.13,-8.82 45.44,-37.84 11.18,-142.86 -13.09,-189.79 -62.13,-120.15 -143.26,-187.19 -276.83,-236.68 -87.17,-32.3 -102.65,-44.27 -213.71,-53.13l0.17 342.3z"/>
   <path class="fil0" d="M547.33 1888.61c24.1,19.59 24.71,11.74 33.81,12.4 -14.45,-64.47 -26.96,-16.43 -33.81,-12.4z"/>
   <path class="fil0" d="M371.22 1773.86l3.96 -21.47c-19.55,7.14 -7.59,19.42 -3.96,21.47z"/>
  </g>
 </g>
</svg>
