<svg width="127" height="79" viewBox="0 0 127 79" fill="none" xmlns="http://www.w3.org/2000/svg">
<line x1="3" y1="13.5" x2="115" y2="13.5" stroke="black" stroke-width="3"/>
<line x1="3" y1="77.5" x2="115" y2="77.5" stroke="black" stroke-width="3"/>
<line x1="113.5" y1="78.0006" x2="113.474" y2="15.0006" stroke="black" stroke-width="3"/>
<line x1="2.5" y1="78.0006" x2="2.47415" y2="15.0006" stroke="black" stroke-width="3"/>
<line x1="7" y1="9.5" x2="119" y2="9.5" stroke="black" stroke-width="3"/>
<line x1="117.5" y1="74.0006" x2="117.474" y2="11.0006" stroke="black" stroke-width="3"/>
<line x1="11" y1="5.5" x2="123" y2="5.5" stroke="black" stroke-width="3"/>
<line x1="121.5" y1="70.0006" x2="121.474" y2="7.00062" stroke="black" stroke-width="3"/>
<line x1="15" y1="1.5" x2="127" y2="1.5" stroke="black" stroke-width="3"/>
<line x1="125.5" y1="66.0006" x2="125.474" y2="3.00062" stroke="black" stroke-width="3"/>
<path fill-rule="evenodd" clip-rule="evenodd" d="M58 70C70.1503 70 80 59.2548 80 46C80 32.7452 70.1503 22 58 22C45.8497 22 36 32.7452 36 46C36 59.2548 45.8497 70 58 70ZM56.5909 61.4763V64.6364H58.9205V61.4738C60.6458 61.3619 62.1467 61.0004 63.4233 60.3892C64.9953 59.6411 66.1884 58.6326 67.0028 57.3636C67.8267 56.0947 68.2386 54.6742 68.2386 53.1023C68.2386 51.7386 67.9593 50.5881 67.4006 49.6506C66.8419 48.7131 66.1316 47.946 65.2699 47.3494C64.4176 46.7434 63.5227 46.2652 62.5852 45.9148C61.6572 45.5644 60.8144 45.2898 60.0568 45.0909L58.9205 44.785V34.684C60.2421 34.8111 61.388 35.193 62.358 35.8295C63.5701 36.625 64.2614 37.7424 64.4318 39.1818H67.8409C67.7936 37.714 67.339 36.4025 66.4773 35.2472C65.625 34.0919 64.4697 33.1828 63.0114 32.5199C61.7931 31.9582 60.4295 31.6312 58.9205 31.5387V28.2727H56.5909V31.5813C55.288 31.713 54.0806 32.0306 52.9688 32.5341C51.4725 33.2064 50.2794 34.1534 49.3892 35.375C48.5085 36.5871 48.0682 38.0076 48.0682 39.6364C48.0682 41.5966 48.7311 43.1828 50.0568 44.3949C51.3826 45.607 53.1818 46.5398 55.4545 47.1932L56.5909 47.5179V58.2721C55.8567 58.1961 55.1559 58.0448 54.4886 57.8182C53.4943 57.4678 52.6705 56.9375 52.017 56.2273C51.3731 55.5076 51.0038 54.5985 50.9091 53.5H47.2727C47.3864 55.0909 47.8741 56.4877 48.7358 57.6903C49.607 58.893 50.8002 59.8305 52.3153 60.5028C53.5556 61.0498 54.9808 61.3743 56.5909 61.4763ZM58.9205 58.2686C59.7964 58.1763 60.606 57.9788 61.3494 57.6761C62.4195 57.2311 63.267 56.6155 63.892 55.8295C64.517 55.0341 64.8295 54.1061 64.8295 53.0455C64.8295 52.0795 64.5597 51.2936 64.0199 50.6875C63.4801 50.0814 62.7699 49.589 61.8892 49.2102C61.0085 48.8314 60.0568 48.5 59.0341 48.2159L58.9205 48.1834V58.2686ZM56.5909 44.1527V34.7146C55.8324 34.8099 55.1411 34.9922 54.517 35.2614C53.5606 35.678 52.8125 36.2509 52.2727 36.9801C51.7424 37.7093 51.4773 38.5379 51.4773 39.4659C51.4773 40.2424 51.6619 40.91 52.0312 41.4688C52.41 42.018 52.893 42.4773 53.4801 42.8466C54.0672 43.2064 54.6828 43.5047 55.3267 43.7415C55.7731 43.899 56.1945 44.0361 56.5909 44.1527Z" fill="black"/>
<circle cx="5" cy="16" r="2" fill="black"/>
<circle cx="5" cy="77" r="2" fill="black"/>
<circle cx="113" cy="77" r="2" fill="black"/>
<circle cx="113" cy="16" r="2" fill="black"/>
</svg>
