<svg width="476" height="477" viewBox="0 0 476 477" fill="none" xmlns="http://www.w3.org/2000/svg">
<path d="M145 22.5H331C398.655 22.5 453.5 77.3451 453.5 145V332C453.5 399.655 398.655 454.5 331 454.5H145C77.3451 454.5 22.5 399.655 22.5 332V145C22.5 77.3451 77.3451 22.5 145 22.5Z" stroke="#FEFEFE" stroke-width="45"/>
<path fill-rule="evenodd" clip-rule="evenodd" d="M241 352C305.617 352 358 299.841 358 235.5C358 171.159 305.617 119 241 119C176.383 119 124 171.159 124 235.5C124 299.841 176.383 352 241 352ZM241 309C281.317 309 314 275.197 314 233.5C314 191.802 281.317 158 241 158C200.683 158 168 191.802 168 233.5C168 275.197 200.683 309 241 309Z" fill="#FEFEFE"/>
<ellipse cx="364" cy="110.5" rx="28" ry="27.5" fill="#FEFEFE"/>
</svg>
