<?xml version="1.0" encoding="UTF-8"?>
<!DOCTYPE svg PUBLIC "-//W3C//DTD SVG 1.1//EN" "http://www.w3.org/Graphics/SVG/1.1/DTD/svg11.dtd">
<!-- Creator: CorelDRAW 2020 (64 Bit) -->
<svg xmlns="http://www.w3.org/2000/svg" xml:space="preserve" width="15.7349mm" height="20.083mm" version="1.1" style="shape-rendering:geometricPrecision; text-rendering:geometricPrecision; image-rendering:optimizeQuality; fill-rule:evenodd; clip-rule:evenodd"
viewBox="0 0 273.68 349.31"
 xmlns:xlink="http://www.w3.org/1999/xlink"
 xmlns:xodm="http://www.corel.com/coreldraw/odm/2003">
 <defs>
  <style type="text/css">
   <![CDATA[
    .fil0 {fill:black}
   ]]>
  </style>
 </defs>
 <g id="Camada_x0020_1">
  <metadata id="CorelCorpID_0Corel-Layer"/>
  <path class="fil0" d="M152.64 339.03c-4.73,-1.47 -3.53,0.12 -4.8,-4.62 6.95,0.5 3.74,-1.85 4.8,4.62zm-55.53 -3.25c-5.7,2.62 -3.04,1.1 -4.59,-1.66 5.29,-2 2.61,-1.73 4.59,1.66zm81.72 -4.44c3.32,-3.93 -5.4,-1.14 3.76,-4.18 -1.72,4.46 0.79,2.58 -3.76,4.18zm0.04 -17.08c5.82,1.5 5.69,1.26 7.94,7.82 -6.99,-0.33 -6.73,-0.99 -7.94,-7.82zm16.64 1.53c-7.27,0.12 -3.2,1.45 -5.47,-3.74 5.52,1.41 2.94,-0.97 5.47,3.74zm-114.54 -11.72c4.65,2.4 5.02,1.71 1.66,6.29 -4.43,-3.16 -4.2,-1.69 -1.66,-6.29zm-23.26 -2.87c5.38,1.94 2.53,-2.07 4.36,5.26 -4.75,-2.24 -2.82,1.26 -4.36,-5.26zm9.06 -4.68c6.1,-0.09 6.37,2.24 9.76,6.18l-2.2 10.09 -5.04 -8.46c-3.45,-4.67 -3.01,-0.12 -2.52,-7.81zm114.53 3.22c-0,-0.26 -0.54,0.61 -0.79,0.92 -5.52,-5.13 -0.65,-4.14 0,-5.02 2.48,3.69 0.8,4.31 0.79,4.1zm-93.2 1.46c8.17,-5.35 3.84,-4.81 8.86,-4.71 -0.36,2.98 0.41,1.73 -0.94,4.61 -1.99,4.23 -1.51,2.25 -3.6,4.38l-6.47 -2.88 2.14 -1.4zm-11.28 -2.36l-3.07 -5.77c5.83,2.75 4.93,-1.88 3.07,5.77zm130.23 -14.49c3.84,-2.25 -0.31,-3.11 5.36,0 -2.94,2.53 1.5,1.11 -3.27,1.62 -7.8,0.84 1.05,1.26 -2.09,-1.62zm-171.59 -13.27c-0.05,0.05 -0.62,4.36 -5.06,2.16 -2.3,-1.15 -1.57,-2.82 -1.68,-4.7 6.39,-0.23 3.29,-0.86 6.73,2.54zm149.89 -3.25c4.4,1.18 2.35,0.93 3.64,1.71 -15.83,1.92 -29.84,0.37 -31.41,-14.65 5.1,3.58 5.07,6.83 12.71,9.83 5.94,2.33 10.88,1.98 15.06,3.11zm-162.43 -3.74c-1.83,-4.23 -0.17,-6.36 1.1,-9.39 14.18,2.08 10.23,3.59 9.94,7.85 -3.13,-0.97 -3.61,-1.61 -6.07,-2.98l-4.98 4.52zm210.51 6.98c-6.91,-3.67 -2.29,0.41 -5.92,-4.4l-4.93 -9.84c5.89,2.68 8.54,5.8 10.86,14.24zm-195.73 -23.61c0.2,-0.47 0.74,-2.22 0.87,-2.58l0.94 -2.58c8.21,4.04 7.79,7.93 4.98,17.38 -8.95,-4.61 0.35,-4.14 -9.99,-6.85l3.2 -5.37zm192.71 4.27c-5.81,-0.61 -0.59,0.52 -4.01,-2.99 3.05,-1.54 5.77,-1.03 8.79,0.77 -0.63,0.58 3.73,3.12 -4.78,2.22zm-204 -3.88c1.33,-1.07 1.28,-2.93 4.77,0 -5.62,4.26 -2.02,2.23 -4.77,0zm213.26 -11.61c0.15,-1.79 2.05,-3.29 2.66,0.34 0.29,1.73 -3.23,6.5 -2.66,-0.34zm-217.67 -9.95l2.94 -0.77c0.12,-0.39 0.54,0.53 0.82,0.77 -6.22,4.2 -1.47,1.03 -3.76,0zm11.94 -4.98c0.42,-0.26 0.88,-0.91 1.11,-0.99 8.7,-2.9 0.64,-1.22 3.43,0.99l-4.53 0zm-14.88 1.24c-5.14,-1.14 -1.16,1.74 -3.47,-4.05 5.14,2.93 2.8,-2.01 3.47,4.05zm238.84 -13.18l-4.51 -0.89c0.47,-6.05 3.55,-2.46 4.51,0.89zm-100.53 13.42c8.91,-5.13 7.02,-6.28 19.53,-11.77 26.42,-11.6 15.05,-31.11 53.89,-10.11 3.01,1.63 0.83,-0.01 4.41,2.16 -1.01,11.53 0.23,26.29 -5.12,37.95 -13.45,29.3 -51.32,25.31 -61.95,15.89 -8.57,-7.6 -10.91,-19.91 -10.76,-34.12zm-99.54 39.04l-9.17 1.68 2.17 -7.11c0.13,-1.08 0.32,-1.26 0.47,-1.89 -0.9,-3.77 -6.33,-18.95 -8.47,-22.69 -2.45,5.66 1.4,2.32 -3.13,7.33l-1.27 -2.94 -6.19 1.28c2.31,-7.38 -1.19,-3.66 5.95,-6.68 2.08,-4.53 2.83,-2.75 3.99,-8.12 3.99,-18.52 -1.5,-22.05 -0.54,-28.97 8.89,0.72 -0.86,0.81 5.39,1.99 6.91,1.3 8.3,-3.78 15.69,-3.83 8.37,-0.06 13.63,6.12 17.93,9.87 10.12,8.81 11.38,4.03 20.65,9.22 7.21,4.04 7.33,7.87 16.79,10.94 0.09,31.91 -3.87,32.95 -23.78,40.88 2.41,2.16 -1.51,0.73 3.65,1.53l19.7 -10.4c-1.1,8.31 -5.9,12.33 -14.43,14.61 -3.8,1.02 -9.05,1.69 -13.38,0.28 -5.95,-1.94 -2.07,-1.46 -2.28,-2.04l0.06 -3.24c-11.71,-0.74 -10.02,-2.11 -14.65,5.68 -0.57,-10.08 -1.58,-7.97 -12.13,-10.88l5.2 11.06 -7.93 -2.13 -0.27 -5.42zm203.98 -57.71l-3.3 -8.87c7.49,7.09 5.66,-0.89 10.52,8.5l-7.23 0.37zm-224.46 -16.8c-0.25,3.02 -1.28,1.26 -2.81,1.87 -5.55,-7.2 -0.03,-5.32 0,-5.4 3.86,2.22 3.18,-1.17 2.81,3.53zm113.11 5.82c3.61,-4.13 5.25,-5.98 12.73,-7.45 -0.8,1.63 -2.03,5.34 -4.96,6.77 -3.47,1.7 -3.9,0.83 -7.77,0.68zm-27.46 -6.66c4.45,-2.07 8.03,1.16 11,4.87 -6.24,-0.22 -7.32,-0.32 -11,-4.87zm-71.36 -0.58c-1.69,-6.93 0.3,-6.58 7.25,-8.82 -0.46,6 -2.42,7.3 -7.25,8.82zm-12.43 -8.34c-3.94,-3.98 -2.39,-1.08 -1.34,-4.68 4.61,2 4.81,0.13 1.34,4.68zm-7.98 -5.96c0.19,0.44 2.62,1.01 0.45,5.24 -2.57,5.03 -0.77,2.34 -5.75,3.26l5.29 -8.5zm41.41 -6.69c-6.33,2.34 -4.88,-0.02 -6.74,-3.35 8.1,-0.65 4.96,-1.52 6.74,3.35zm-15.02 -3.8c-1.66,-6.73 -1.93,-0.78 -1.51,-4.6 2.4,1.81 4.6,3.65 6.53,5.09 -7.12,15.71 -6.06,-2.28 -17.17,18.95 -1.35,-11.95 1.22,-17.6 12.15,-19.44zm-19.11 0.48c-0.58,-5.97 -0.75,-4.09 -3.22,-9.47l13.58 7.81c-8.47,7.86 -3.94,5.74 -9.36,9.44l-6.91 -2.38c2.32,-4.92 -0.88,-0.05 2.31,-3.1l3.6 -2.3zm205.89 -5.58c3.76,-4.3 -6.05,-2.58 4.29,-3.87l-4.29 3.87zm-165 -5.83l4.53 1.46c-1.03,5.5 -0.93,4.32 -7.17,7.53l2.64 -8.99zm-7.94 4.78c-1.01,0.53 3.38,4.79 -5.53,0.31 -4.75,-2.39 -2.01,-1.49 -4.17,-4.12 9.11,-0.77 6.71,-2.61 9.7,3.81zm62.73 -26.53c-1.23,-4.92 -1.15,-0.66 1.81,-4.86l3.47 4.67c0.1,0.37 4.75,0.92 -1.16,2.64 -1.96,0.57 -3.63,-0.48 -4.12,-2.45zm-31.26 -10.11c2.04,2.9 3.31,2.46 1.28,6.2 -2.53,-1.42 -2.02,0.41 -2.64,-2.94 -1.25,-6.77 -0.41,-0.45 1.35,-3.26zm-0.37 -7.88c-2.7,-1.41 -0.01,-4.22 0,-4.22 0.79,1.68 4.44,-2.72 0,4.22zm-57.93 -18.52c3.78,-1.72 3.85,-2.66 6.26,1.66 -4.4,2.54 -3.44,1.46 -6.26,-1.66zm31.12 4.81c-63.25,-75.53 87.2,-70.19 117.36,-52.27 21.8,12.95 12.57,40.28 2.35,50.29 -18.29,-3.17 -29.19,-10.89 -51.43,-10.91 -3.53,5.5 -3.44,8.12 -3.96,16.29 -5.31,-17.46 -3.45,-2.01 -12.62,-16.17 -31.69,0.62 -37.38,11.44 -51.7,12.78zm131.18 -46.28l4.15 0c-8.78,6.05 -2.8,1.12 -4.15,0zm22.35 66.61c16.96,-26.17 34.78,-62.31 3.28,-90.42 -22.62,-20.19 -64.76,-27.05 -103.45,-26.63 -19.91,0.22 -40.37,2.22 -58.53,6.88 -20.62,5.29 -31.53,10.41 -40.97,23.7 -31.56,44.47 10.06,82.21 13.4,91.89 -6.18,3.81 -21.51,25.04 -24.24,35.23 -3.75,13.98 -2.65,1.66 -7.57,11.97l-2.35 7.67c-2.39,7.27 -0.68,5.01 -2.02,9.95 -0.83,3.08 -2.56,4.63 -4,8.73 -10.28,29.24 10.09,74.53 21.89,93.17 14.87,23.48 40.5,43.19 65.4,52.41 24.68,9.15 78.11,12.24 98.27,-2.53 0.39,-8.65 -4.41,-8.81 -1.22,-14.23 6.29,1.98 5.57,5.83 8.06,10.75 3.98,-2.15 11.53,-3.25 15.38,-6.27l12.08 -9.39c16.53,-11 32.6,-29.14 38.32,-48.16 3.61,-12.01 8.84,-12.04 11.14,-32.22 1.88,-16.49 -3.54,-9.46 -1,-18.69 1.15,-4.17 2.04,0.23 2.49,-9.4 0.61,-12.87 -2.66,-17.92 -4.2,-28.14 -1.21,-8.06 -2.56,-8.22 -5.38,-15.68 -12.42,-32.82 -17.81,-26.45 -25.19,-39.44 -3.54,-6.23 -6.05,-5.95 -9.6,-11.14z"/>
 </g>
</svg>
