<svg width="70" height="70" viewBox="0 0 70 70" fill="none" xmlns="http://www.w3.org/2000/svg">
<path d="M14.0823 66.3911C7.84671 67.9962 2.21717 62.2385 3.96223 56.0406V56.0406C4.57903 53.85 4.22857 51.5231 3.28069 49.4541C1.20257 44.9179 0.119444 39.9718 0.119444 34.9172C0.119444 15.6591 15.787 -0.00848389 35.0451 -0.00848389C54.3032 -0.00848389 69.9705 15.6591 69.9705 34.9172C69.9705 54.1752 54.3032 69.8428 35.0451 69.8428C30.2135 69.8428 25.4629 68.847 21.0819 66.9366C19.0371 66.0449 16.7648 65.7006 14.6045 66.2567L14.0823 66.3911ZM17.6747 59.3485C18.4502 59.1489 19.2734 59.2717 19.9568 59.689V59.689C24.4889 62.4558 29.7064 63.9183 35.0451 63.9183C51.0363 63.9183 64.046 50.9084 64.046 34.9172C64.046 18.9259 51.0363 5.91606 35.0451 5.91606C19.0539 5.91606 6.04399 18.9259 6.04399 34.9172C6.04399 40.4891 7.6276 45.9 10.6232 50.5648V50.5648C11.0811 51.2777 11.2117 52.1527 10.9821 52.9683L10.7632 53.7458C9.7689 57.2773 12.9765 60.5579 16.5295 59.6433L17.6747 59.3485Z" fill="#FEFEFE"/>
<path d="M25.234 18.6617L22.9678 18.5382C22.256 18.4994 21.5578 18.7372 21.0197 19.2046C19.921 20.1587 18.1643 22.0032 17.6247 24.4068C16.8201 27.9907 18.0636 32.3793 21.2819 36.7678C24.5003 41.1564 30.4979 48.1781 41.1035 51.177C44.5211 52.1433 47.2095 51.4919 49.2838 50.165C50.9266 49.1141 52.0591 47.4274 52.4672 45.5206L52.8291 43.8305C52.944 43.2934 52.6713 42.7483 52.1723 42.5184L44.5132 38.988C44.016 38.7589 43.4264 38.9037 43.0919 39.3371L40.0851 43.235C39.858 43.5295 39.4692 43.6462 39.1181 43.5229C37.059 42.7992 30.1615 39.9105 26.3768 32.6202C26.2127 32.304 26.2535 31.9202 26.4863 31.6505L29.3599 28.3262C29.6535 27.9868 29.7277 27.5095 29.5513 27.097L26.2498 19.3729C26.074 18.9617 25.6801 18.6861 25.234 18.6617Z" fill="#FEFEFE"/>
</svg>
